<svg width="19" height="18" viewBox="0 0 19 18" fill="none" xmlns="http://www.w3.org/2000/svg">
<path d="M9.5 1.6875C8.05373 1.6875 6.63993 2.11637 5.4374 2.91988C4.23486 3.72339 3.2976 4.86544 2.74413 6.20163C2.19067 7.53781 2.04586 9.00811 2.32801 10.4266C2.61017 11.8451 3.30661 13.148 4.32928 14.1707C5.35196 15.1934 6.65492 15.8898 8.07341 16.172C9.49189 16.4541 10.9622 16.3093 12.2984 15.7559C13.6346 15.2024 14.7766 14.2651 15.5801 13.0626C16.3836 11.8601 16.8125 10.4463 16.8125 9C16.8103 7.06129 16.0391 5.20263 14.6682 3.83176C13.2974 2.46088 11.4387 1.68974 9.5 1.6875V1.6875ZM12.9827 7.71954L8.8573 11.657C8.75241 11.7568 8.61317 11.8125 8.46839 11.8125C8.3236 11.8125 8.18436 11.7568 8.07947 11.657L6.01734 9.68829C5.9096 9.5851 5.84724 9.44335 5.84393 9.2942C5.84063 9.14505 5.89666 9.00069 5.99973 8.89283C6.10279 8.78496 6.24445 8.72241 6.39359 8.71892C6.54274 8.71543 6.68717 8.77128 6.79517 8.87421L8.46839 10.4722L12.2048 6.90546C12.3128 6.80253 12.4573 6.74668 12.6064 6.75017C12.7556 6.75366 12.8972 6.81621 13.0003 6.92408C13.1033 7.03194 13.1594 7.1763 13.1561 7.32545C13.1528 7.4746 13.0904 7.61635 12.9827 7.71954V7.71954Z" fill="#0F8BFF"/>
</svg>
