<svg width="15" height="15" viewBox="0 0 11 12" fill="none" xmlns="http://www.w3.org/2000/svg">
<path d="M10.3057 4.76326C10.1205 4.57009 9.92895 4.3704 9.85658 4.19541C9.79007 4.03466 9.78604 3.76841 9.78215 3.51088C9.77491 3.03166 9.76671 2.4885 9.3891 2.1109C9.0115 1.73329 8.46834 1.72509 7.98912 1.71785C7.73159 1.71396 7.46534 1.70993 7.30459 1.64342C7.12965 1.57105 6.92991 1.37952 6.73674 1.19426C6.39745 0.868831 6.0128 0.5 5.5 0.5C4.9872 0.5 4.6026 0.868831 4.26326 1.19426C4.07009 1.37952 3.8704 1.57105 3.69541 1.64342C3.53466 1.70993 3.26841 1.71396 3.01088 1.71785C2.53166 1.72509 1.9885 1.73329 1.6109 2.1109C1.23329 2.4885 1.22509 3.03166 1.21785 3.51088C1.21396 3.76841 1.20993 4.03466 1.14342 4.19541C1.07105 4.37035 0.879518 4.57009 0.694262 4.76326C0.368831 5.10255 0 5.4872 0 6C0 6.5128 0.368831 6.8974 0.694262 7.23674C0.879517 7.42991 1.07105 7.6296 1.14342 7.80459C1.20993 7.96534 1.21396 8.23159 1.21785 8.48912C1.22509 8.96834 1.23329 9.5115 1.6109 9.8891C1.9885 10.2667 2.53166 10.2749 3.01088 10.2822C3.26841 10.286 3.53466 10.2901 3.69541 10.3566C3.87035 10.4289 4.07009 10.6205 4.26326 10.8057C4.60255 11.1312 4.9872 11.5 5.5 11.5C6.0128 11.5 6.3974 11.1312 6.73674 10.8057C6.92991 10.6205 7.1296 10.4289 7.30459 10.3566C7.46534 10.2901 7.73159 10.286 7.98912 10.2822C8.46834 10.2749 9.0115 10.2667 9.3891 9.8891C9.76671 9.5115 9.77491 8.96834 9.78215 8.48912C9.78604 8.23159 9.79007 7.96534 9.85658 7.80459C9.92895 7.62965 10.1205 7.42991 10.3057 7.23674C10.6312 6.89745 11 6.5128 11 6C11 5.4872 10.6312 5.1026 10.3057 4.76326ZM7.93195 5.10562L5.05099 7.85562C4.97791 7.92537 4.88077 7.96429 4.77975 7.96429C4.67872 7.96429 4.58158 7.92537 4.50851 7.85562L3.06805 6.48062C3.0307 6.445 3.00074 6.40238 2.97988 6.35518C2.95901 6.30799 2.94765 6.25714 2.94644 6.20556C2.94522 6.15397 2.95419 6.10265 2.97281 6.05452C2.99144 6.0064 3.01937 5.96242 3.05499 5.92509C3.09062 5.88776 3.13326 5.85782 3.18046 5.83697C3.22766 5.81612 3.27851 5.80477 3.3301 5.80358C3.38169 5.80239 3.433 5.81137 3.48112 5.83001C3.52924 5.84866 3.57321 5.8766 3.61053 5.91224L4.77975 7.02832L7.38947 4.53724C7.42679 4.5016 7.47076 4.47366 7.51888 4.45501C7.56699 4.43637 7.61831 4.42739 7.6699 4.42858C7.72149 4.42977 7.77234 4.44112 7.81954 4.46197C7.86674 4.48282 7.90938 4.51276 7.94501 4.55009C7.98063 4.58742 8.00856 4.6314 8.02718 4.67952C8.04581 4.72765 8.05477 4.77897 8.05356 4.83056C8.05235 4.88215 8.04099 4.93299 8.02012 4.98018C7.99926 5.02738 7.9693 5.07 7.93195 5.10562V5.10562Z" fill="white"/>
</svg>
