<svg width="15" height="21" viewBox="0 0 15 21" fill="none" xmlns="http://www.w3.org/2000/svg">
<path d="M3.29384 12L1.52685 19.068C1.33985 19.814 2.26285 20.324 2.79585 19.769L14.7898 7.27C14.8918 7.16402 14.9604 7.03041 14.987 6.88577C15.0136 6.74114 14.9971 6.59187 14.9396 6.45653C14.882 6.32119 14.786 6.20576 14.6633 6.12459C14.5407 6.04342 14.3969 6.00009 14.2498 6H9.78985L11.4618 0.987C11.4994 0.874231 11.5096 0.754149 11.4917 0.636654C11.4737 0.519159 11.4281 0.407616 11.3585 0.31122C11.289 0.214824 11.1975 0.136335 11.0917 0.082225C10.9859 0.0281146 10.8687 -6.81256e-05 10.7498 1.23663e-07H3.74985C3.58688 3.37233e-05 3.42836 0.053145 3.29827 0.151298C3.16819 0.249451 3.07361 0.387304 3.02885 0.544L0.0288452 11.044C-0.00303514 11.1556 -0.00857684 11.2731 0.0126556 11.3872C0.0338881 11.5013 0.0813155 11.6089 0.151205 11.7016C0.221094 11.7943 0.311538 11.8695 0.415417 11.9212C0.519296 11.973 0.633776 12 0.749845 12H3.29384ZM8.03885 6.513C8.00131 6.62569 7.99108 6.74568 8.00899 6.8631C8.0269 6.98052 8.07244 7.092 8.14187 7.18837C8.21129 7.28475 8.30262 7.36326 8.40831 7.41743C8.51401 7.47161 8.63107 7.49991 8.74985 7.5H12.4898L3.66585 16.696L4.98185 11.432C5.00949 11.3215 5.0116 11.2061 4.98799 11.0946C4.96439 10.9832 4.9157 10.8785 4.84563 10.7887C4.77555 10.6989 4.68593 10.6262 4.58356 10.5762C4.4812 10.5261 4.36878 10.5001 4.25485 10.5H1.74485L4.31485 1.5H9.70885L8.03885 6.513Z" fill="#575757"/>
</svg>
