<svg width="18" height="18" viewBox="0 0 18 18" fill="none" xmlns="http://www.w3.org/2000/svg">
<path d="M12.6 5.625C12.6 5.44598 12.6711 5.27429 12.7977 5.1477C12.9243 5.02112 13.096 4.95 13.275 4.95C13.454 4.95 13.6257 5.02112 13.7523 5.1477C13.8789 5.27429 13.95 5.44598 13.95 5.625V8.55C13.95 8.72902 13.8789 8.90071 13.7523 9.0273C13.6257 9.15388 13.454 9.225 13.275 9.225H10.8C10.621 9.225 10.4493 9.15388 10.3227 9.0273C10.1961 8.90071 10.125 8.72902 10.125 8.55C10.125 8.37098 10.1961 8.19929 10.3227 8.0727C10.4493 7.94612 10.621 7.875 10.8 7.875H11.943C11.715 7.27932 11.3116 6.76684 10.7861 6.40528C10.2606 6.04372 9.63784 5.8501 9 5.85C8.0163 5.85 7.1667 6.2676 6.5943 6.957C6.47973 7.09473 6.31513 7.1813 6.13673 7.19767C5.95833 7.21404 5.78073 7.15887 5.643 7.0443C5.50527 6.92973 5.4187 6.76513 5.40233 6.58673C5.38596 6.40833 5.44113 6.23073 5.5557 6.093C6.3864 5.094 7.6167 4.5 9 4.5C10.4724 4.5 11.7792 5.2065 12.6 6.3V5.625ZM5.4 11.7V12.375C5.4 12.554 5.32888 12.7257 5.2023 12.8523C5.07571 12.9789 4.90402 13.05 4.725 13.05C4.54598 13.05 4.37429 12.9789 4.2477 12.8523C4.12112 12.7257 4.05 12.554 4.05 12.375V9.675C4.05 9.49598 4.12112 9.32429 4.2477 9.1977C4.37429 9.07112 4.54598 9 4.725 9H7.2C7.37902 9 7.55071 9.07112 7.6773 9.1977C7.80388 9.32429 7.875 9.49598 7.875 9.675C7.875 9.85402 7.80388 10.0257 7.6773 10.1523C7.55071 10.2789 7.37902 10.35 7.2 10.35H6.1533C6.38053 10.8253 6.72294 11.2364 7.14942 11.5457C7.5759 11.8551 8.07292 12.0529 8.59532 12.1213C9.11773 12.1898 9.64894 12.1265 10.1407 11.9374C10.6324 11.7483 11.0691 11.4393 11.4111 11.0385C11.4679 10.9688 11.538 10.9112 11.6173 10.8689C11.6966 10.8267 11.7836 10.8008 11.8731 10.7926C11.9626 10.7844 12.0528 10.7942 12.1385 10.8214C12.2241 10.8485 12.3035 10.8925 12.372 10.9508C12.4404 11.009 12.4965 11.0803 12.537 11.1606C12.5775 11.2408 12.6016 11.3283 12.6078 11.418C12.6141 11.5076 12.6023 11.5976 12.5733 11.6827C12.5443 11.7677 12.4986 11.8461 12.4389 11.9133C12.0004 12.4279 11.4518 12.8374 10.8338 13.1114C10.2158 13.3855 9.54401 13.5171 8.86824 13.4967C8.19246 13.4762 7.52993 13.3041 6.92961 12.9931C6.32929 12.6821 5.80654 12.2402 5.4 11.7ZM9 0C4.0293 0 0 4.0293 0 9C0 13.9707 4.0293 18 9 18C13.9707 18 18 13.9707 18 9C18 4.0293 13.9707 0 9 0ZM16.65 9C16.65 11.0289 15.844 12.9747 14.4094 14.4094C12.9747 15.844 11.0289 16.65 9 16.65C6.97109 16.65 5.02529 15.844 3.59063 14.4094C2.15598 12.9747 1.35 11.0289 1.35 9C1.35 6.97109 2.15598 5.02529 3.59063 3.59063C5.02529 2.15598 6.97109 1.35 9 1.35C11.0289 1.35 12.9747 2.15598 14.4094 3.59063C15.844 5.02529 16.65 6.97109 16.65 9Z" fill="currentColor"/>
</svg>
