<svg width="22" height="22" viewBox="0 0 22 22" fill="none" xmlns="http://www.w3.org/2000/svg">
<path d="M18.9062 15.0674V6.93221C18.9062 6.81047 18.8739 6.6909 18.8126 6.58574C18.7512 6.48059 18.663 6.39361 18.557 6.3337L11.3383 2.25354C11.2351 2.19521 11.1185 2.16455 11 2.16455C10.8815 2.16455 10.7649 2.19521 10.6617 2.25354L3.44296 6.3337C3.33697 6.39361 3.24879 6.48059 3.18744 6.58574C3.12608 6.6909 3.09375 6.81047 3.09375 6.93221V15.0674C3.09375 15.1892 3.12608 15.3088 3.18744 15.4139C3.24879 15.5191 3.33697 15.6061 3.44296 15.666L10.6617 19.7461C10.7649 19.8045 10.8815 19.8351 11 19.8351C11.1185 19.8351 11.2351 19.8045 11.3383 19.7461L18.557 15.666C18.663 15.6061 18.7512 15.5191 18.8126 15.4139C18.8739 15.3088 18.9063 15.1892 18.9062 15.0674V15.0674Z" stroke="currentColor" stroke-width="1.4" stroke-linecap="round" stroke-linejoin="round"/>
<path d="M11 14.0938C12.7086 14.0938 14.0938 12.7086 14.0938 11C14.0938 9.29137 12.7086 7.90625 11 7.90625C9.29137 7.90625 7.90625 9.29137 7.90625 11C7.90625 12.7086 9.29137 14.0938 11 14.0938Z" stroke="currentColor" stroke-width="1.4" stroke-linecap="round" stroke-linejoin="round"/>
</svg>
