<svg width="251" height="216" viewBox="0 0 251 216" fill="none" xmlns="http://www.w3.org/2000/svg">
<path d="M123.78 183.526C133.913 183.526 142.127 178.535 142.127 172.377C142.127 166.22 133.913 161.228 123.78 161.228C113.648 161.228 105.434 166.22 105.434 172.377C105.434 178.535 113.648 183.526 123.78 183.526Z" fill="#E0E0E0"/>
<path d="M192.201 213.323C208.219 213.323 221.204 205.435 221.204 195.704C221.204 185.973 208.219 178.085 192.201 178.085C176.184 178.085 163.199 185.973 163.199 195.704C163.199 205.435 176.184 213.323 192.201 213.323Z" fill="#E0E0E0"/>
<path d="M49.8817 215.225C65.8995 215.225 78.8845 207.337 78.8845 197.606C78.8845 187.876 65.8995 179.988 49.8817 179.988C33.8639 179.988 20.8789 187.876 20.8789 197.606C20.8789 207.337 33.8639 215.225 49.8817 215.225Z" fill="#E0E0E0"/>
<path d="M235.513 183.184L230.035 180.827C229.347 175.845 228.95 170.823 228.847 165.789C228.847 156.372 234.423 144.856 241.498 146.783C248.572 148.71 239.503 159.245 238.031 167.384C236.559 175.522 235.513 183.184 235.513 183.184Z" fill="#1491ED"/>
<path opacity="0.3" d="M235.513 183.184L230.035 180.827C229.347 175.845 228.95 170.823 228.847 165.789C228.847 156.372 234.423 144.856 241.498 146.783C248.572 148.71 239.503 159.245 238.031 167.384C236.559 175.522 235.513 183.184 235.513 183.184Z" fill="black"/>
<path d="M232.854 182.458C232.914 182.449 232.968 182.416 233.005 182.366C233.042 182.315 233.058 182.251 233.05 182.188C230.44 161.541 239.264 150.071 239.351 149.973C239.39 149.924 239.409 149.86 239.404 149.796C239.398 149.732 239.368 149.673 239.321 149.632C239.274 149.591 239.214 149.571 239.153 149.577C239.092 149.583 239.036 149.614 238.997 149.664C238.91 149.778 229.954 161.387 232.593 182.251C232.597 182.283 232.607 182.314 232.622 182.341C232.637 182.369 232.658 182.393 232.682 182.412C232.707 182.432 232.734 182.446 232.764 182.453C232.793 182.461 232.824 182.463 232.854 182.458Z" fill="white"/>
<path d="M238.324 184.561L235.462 183.196C234.605 178.557 234.735 173.776 235.843 169.196C237.68 161.774 243.796 157.198 246.876 157.955C250.642 158.878 251.007 162.543 249.906 165.095C248.593 168.118 239.534 176.302 238.324 184.561Z" fill="#1491ED"/>
<path opacity="0.1" d="M238.324 184.561L235.462 183.196C234.605 178.557 234.735 173.776 235.843 169.196C237.68 161.774 243.796 157.198 246.876 157.955C250.642 158.878 251.007 162.543 249.906 165.095C248.593 168.118 239.534 176.302 238.324 184.561Z" fill="black"/>
<path d="M236.836 184.085C236.897 184.078 236.953 184.045 236.992 183.995C237.031 183.944 237.049 183.88 237.043 183.815C235.757 170.716 246.62 160.645 246.734 160.547C246.776 160.501 246.799 160.439 246.799 160.375C246.799 160.311 246.776 160.25 246.734 160.203C246.713 160.18 246.688 160.162 246.66 160.15C246.631 160.137 246.601 160.131 246.571 160.131C246.54 160.131 246.51 160.137 246.482 160.15C246.454 160.162 246.429 160.18 246.407 160.203C246.293 160.307 235.255 170.527 236.558 183.89C236.571 183.954 236.608 184.01 236.659 184.047C236.711 184.083 236.775 184.097 236.836 184.085Z" fill="white"/>
<path d="M18.0401 177.906L21.801 175.646C21.801 175.646 23.5997 165.202 22.2534 156.221C20.3566 143.603 12.1861 139.239 9.22094 140.495C6.2558 141.751 5.55812 145.49 10.9161 152.785C14.0775 157.087 18.1436 166.189 18.0401 177.906Z" fill="#1491ED"/>
<g opacity="0.15">
<path opacity="0.15" d="M18.0401 177.906L21.801 175.646C21.801 175.646 23.5997 165.202 22.2534 156.221C20.3566 143.603 12.1861 139.239 9.22094 140.495C6.2558 141.751 5.55812 145.49 10.9161 152.785C14.0775 157.087 18.1436 166.189 18.0401 177.906Z" fill="black"/>
</g>
<path d="M19.3988 172.893H19.3606C19.3261 172.888 19.2929 172.876 19.2628 172.858C19.2328 172.839 19.2067 172.814 19.1858 172.785C19.165 172.756 19.15 172.722 19.1416 172.687C19.1333 172.651 19.1317 172.614 19.1371 172.578C20.6851 160.757 16.172 147.807 11.092 142.588C11.0604 142.564 11.0342 142.533 11.015 142.497C10.9959 142.461 10.9843 142.422 10.981 142.381C10.9777 142.34 10.9827 142.299 10.9959 142.26C11.009 142.221 11.0299 142.186 11.0571 142.157C11.0843 142.127 11.1172 142.104 11.1535 142.089C11.1899 142.074 11.2289 142.068 11.2679 142.07C11.3068 142.072 11.3449 142.084 11.3794 142.103C11.4139 142.122 11.4442 142.149 11.4681 142.181C16.6353 147.469 21.2411 160.66 19.6713 172.647C19.662 172.715 19.6293 172.779 19.5791 172.824C19.529 172.869 19.4649 172.894 19.3988 172.893Z" fill="white"/>
<path d="M7.61454 184.243C7.02042 184.599 5.79948 183.819 5.33073 183.486C4.52668 182.903 3.87753 182.113 3.44481 181.192C2.96157 180.152 2.79776 178.979 2.97606 177.837C3.07042 177.233 3.2052 176.637 3.37941 176.053L3.85361 174.333C4.04044 173.781 4.12194 173.197 4.09344 172.612C3.95172 171.425 2.94881 170.599 2.044 169.882C1.03564 169.091 -0.00542931 168.047 2.13106e-05 166.619C0.0703494 165.512 0.490559 164.462 1.19371 163.636C1.83688 162.77 2.60542 162.008 3.19408 161.096C3.6555 160.456 3.89236 159.667 3.86451 158.865C3.80207 158.376 3.64633 157.906 3.40666 157.482C2.85525 156.6 2.37396 155.672 1.96769 154.707C1.63521 153.709 1.68426 152.47 2.42555 151.753C2.75543 151.494 3.13125 151.306 3.53093 151.202C3.93061 151.097 4.34609 151.078 4.75296 151.145C5.52691 151.241 6.27128 151.515 6.93321 151.948C9.0862 153.204 10.3126 155.888 12.5964 156.857C13.5006 157.154 14.4218 157.389 15.3544 157.563C15.8225 157.654 16.2672 157.848 16.6596 158.131C17.0521 158.415 17.3836 158.782 17.6328 159.209C18.4722 160.969 16.9187 163.137 17.5074 165.007C18.0525 166.659 19.5568 167.301 20.4126 168.787C20.7634 169.443 20.9048 170.201 20.8159 170.949C20.7398 172.214 20.4462 173.453 19.9493 174.608C19.3902 175.756 18.7507 176.858 18.0361 177.906C18.0034 177.946 7.7072 184.174 7.61454 184.243Z" fill="#1491ED"/>
<path d="M13.7157 180.825C13.6799 180.824 13.6447 180.815 13.6122 180.799C13.5796 180.783 13.5504 180.761 13.5261 180.733C13.5018 180.705 13.4829 180.673 13.4706 180.638C13.4582 180.602 13.4526 180.565 13.454 180.527C13.8955 169.343 8.88641 157.012 5.24539 153.399C5.19579 153.347 5.16797 153.275 5.16797 153.201C5.16797 153.127 5.19579 153.056 5.24539 153.003C5.29633 152.951 5.36483 152.922 5.43616 152.922C5.5075 152.922 5.57599 152.951 5.62693 153.003C9.31701 156.645 14.4352 169.206 13.9828 180.556C13.9799 180.628 13.9506 180.697 13.9008 180.747C13.851 180.797 13.7847 180.825 13.7157 180.825Z" fill="white"/>
<path d="M12.1192 167.607H12.0374C9.51899 166.878 6.93311 166.438 4.32478 166.294C4.2525 166.294 4.18318 166.263 4.13207 166.21C4.08096 166.156 4.05225 166.083 4.05225 166.007C4.05225 165.931 4.08096 165.858 4.13207 165.804C4.18318 165.75 4.2525 165.72 4.32478 165.72C6.97934 165.865 9.61106 166.313 12.1737 167.056C12.2073 167.067 12.2387 167.084 12.266 167.108C12.2932 167.131 12.3158 167.16 12.3326 167.192C12.3493 167.225 12.3597 167.26 12.3633 167.297C12.3669 167.334 12.3636 167.371 12.3535 167.406C12.3377 167.46 12.3069 167.508 12.2652 167.544C12.2235 167.58 12.1727 167.602 12.1192 167.607Z" fill="white"/>
<path d="M206.537 192.068L201.457 191.454L200.144 180.683L206.352 182.622L206.537 192.068Z" fill="#FFE0B0"/>
<path d="M195.408 200.855C195.334 201.067 195.304 201.293 195.319 201.519C195.334 201.744 195.394 201.963 195.495 202.163C196.04 202.828 197.446 203.608 199.365 203.751C201.202 203.889 202.837 203.631 203.911 202.914C204.378 202.66 204.777 202.288 205.074 201.832C205.371 201.375 205.555 200.849 205.611 200.299C205.715 199.203 205.611 198.142 206.096 197.299C206.581 196.456 207.285 195.636 207.443 195.212C207.631 194.479 207.631 193.707 207.443 192.975L195.408 200.855Z" fill="#263238"/>
<path d="M200.428 191.264C200.411 191.68 200.34 192.091 200.215 192.486C199.934 193.335 199.557 194.146 199.092 194.901C198.864 195.301 198.609 195.685 198.329 196.048C197.784 196.742 197.087 197.315 196.498 197.98C195.873 198.608 195.473 199.442 195.364 200.343C195.288 201.857 197.577 202.374 198.782 202.597C200.081 202.836 201.414 202.766 202.684 202.391C203.351 202.208 203.954 201.827 204.42 201.293C204.886 200.759 205.195 200.094 205.312 199.38C205.382 198.955 205.355 198.525 205.404 198.107C205.563 197.14 205.947 196.229 206.522 195.457C206.855 195.011 207.142 194.528 207.377 194.017C207.753 193.082 207.454 192.027 207.214 191.098C207.007 190.289 206.756 189.377 206.483 189.441C206.483 189.859 206.483 189.917 206.216 190.198C205.949 190.479 205.846 191.098 205.464 191.414C205.586 191.064 205.675 190.703 205.731 190.335C205.755 190.188 205.726 190.037 205.649 189.911C205.523 189.792 205.372 189.705 205.208 189.659C204.641 189.459 204.057 189.319 203.464 189.24C202.654 189.142 201.837 189.142 201.027 189.24C200.859 189.271 200.706 189.365 200.597 189.504C200.499 189.656 200.446 189.836 200.444 190.02C200.417 190.238 200.439 190.863 200.428 191.264Z" fill="#455A64"/>
<path d="M198.898 195.222C199.443 194.798 201.368 194.792 202.022 194.866C202.688 194.926 203.33 195.163 203.886 195.555C203.967 195.616 204.067 195.644 204.166 195.636C204.266 195.628 204.36 195.583 204.431 195.509C204.472 195.466 204.504 195.414 204.524 195.356C204.545 195.299 204.553 195.238 204.549 195.177C204.545 195.116 204.528 195.057 204.5 195.003C204.473 194.949 204.434 194.903 204.387 194.866C203.776 194.392 203.051 194.108 202.294 194.046C201.35 193.973 200.401 194.031 199.471 194.218C199.471 194.218 198.74 194.717 198.898 195.222Z" fill="#F5F5F5"/>
<path d="M197.667 196.793C198.343 196.374 200.392 196.432 201.052 196.506C201.706 196.577 202.33 196.828 202.861 197.235C202.943 197.295 203.042 197.323 203.142 197.314C203.241 197.306 203.335 197.262 203.406 197.189C203.448 197.146 203.48 197.094 203.5 197.037C203.521 196.979 203.529 196.918 203.525 196.857C203.521 196.796 203.504 196.737 203.476 196.683C203.448 196.63 203.41 196.583 203.363 196.546C202.469 196.059 201.493 195.759 200.49 195.663C198.855 195.543 198.457 195.887 198.457 195.887C198.27 195.966 198.101 196.089 197.965 196.246C197.828 196.403 197.726 196.59 197.667 196.793Z" fill="#F5F5F5"/>
<path d="M202.938 192.423C202.016 192.312 201.083 192.372 200.18 192.601C199.897 192.767 199.706 193.243 199.891 193.363C200.715 193.13 201.569 193.04 202.42 193.1C203.025 193.163 203.614 193.334 204.165 193.604C204.306 193.673 204.47 193.759 204.612 193.845C204.657 193.876 204.708 193.895 204.762 193.903C204.815 193.911 204.87 193.907 204.922 193.89C204.973 193.874 205.021 193.846 205.062 193.809C205.102 193.771 205.135 193.725 205.157 193.673C205.195 193.588 205.203 193.492 205.178 193.402C205.153 193.312 205.097 193.235 205.02 193.186C204.386 192.778 203.676 192.518 202.938 192.423Z" fill="#F5F5F5"/>
<path d="M187.596 187.17L182.767 185.753V175.481L188.757 175.756L187.596 187.17Z" fill="#FFE0B0"/>
<path d="M172.565 192.671C172.429 193.114 172.454 193.594 172.636 194.019C172.816 194.409 174.773 195.573 177.411 195.384C179.365 195.236 181.246 194.543 182.861 193.376C183.864 192.677 184.911 192.545 186.219 192.47C187.527 192.396 189.239 191.702 189.527 191.059C189.675 190.484 189.659 189.876 189.484 189.31L172.565 192.671Z" fill="#263238"/>
<path d="M183.193 184.009L182.985 183.963C182.871 183.935 182.751 183.935 182.637 183.963C182.51 184.007 182.397 184.087 182.31 184.193C182.052 184.542 181.828 184.916 181.639 185.311C181.094 186.258 179.922 187.032 178.658 187.76C177.796 188.248 176.952 188.626 176.063 189.045C175.175 189.463 173.948 189.739 173.24 190.243C172.204 190.978 172.068 192.819 173.24 193.547C174.254 194.178 176.935 194.86 179.742 194.023C181.269 193.564 182.969 191.849 184.975 191.683C186.25 191.574 188.665 191.201 189.488 190.18C189.793 189.727 189.384 188.294 189.052 187.055C188.687 185.701 188.343 183.614 187.918 183.711C187.922 183.808 187.904 183.904 187.865 183.992C187.826 184.08 187.768 184.156 187.695 184.216C187.537 184.388 187.324 184.497 187.15 184.652C186.852 184.96 186.612 185.323 186.441 185.724C186.372 185.902 186.244 186.049 186.081 186.137C185.863 186.217 185.705 186.08 185.536 185.988C185.297 185.872 185.026 185.852 184.773 185.931C184.8 185.662 184.845 185.395 184.91 185.133C184.934 185.051 184.934 184.963 184.91 184.881C184.879 184.798 184.821 184.729 184.746 184.686C184.279 184.349 183.75 184.118 183.193 184.009Z" fill="#455A64"/>
<path d="M179.872 187.009C179.963 186.823 180.097 186.665 180.262 186.549C180.427 186.433 180.617 186.362 180.815 186.344C181.392 186.229 182.417 186.682 183.055 187.233C183.116 187.284 183.163 187.35 183.194 187.425C183.225 187.5 183.238 187.582 183.231 187.664C183.225 187.746 183.199 187.824 183.157 187.893C183.115 187.962 183.057 188.019 182.989 188.059C182.904 188.11 182.805 188.131 182.707 188.12C182.609 188.108 182.517 188.065 182.444 187.995C181.741 187.328 180.818 186.974 179.872 187.009Z" fill="#F5F5F5"/>
<path d="M178.063 188.07C178.19 187.882 178.357 187.729 178.552 187.623C178.746 187.517 178.962 187.462 179.181 187.462C180.077 187.504 180.938 187.843 181.639 188.431C181.696 188.482 181.741 188.546 181.77 188.618C181.799 188.691 181.811 188.77 181.804 188.848C181.798 188.926 181.773 189.002 181.733 189.068C181.693 189.134 181.638 189.189 181.574 189.229C181.489 189.282 181.389 189.305 181.291 189.294C181.193 189.282 181.1 189.237 181.029 189.166C180.643 188.762 180.177 188.455 179.664 188.265C179.151 188.076 178.604 188.009 178.063 188.07Z" fill="#F5F5F5"/>
<path d="M176.111 189.024C176.255 188.851 176.433 188.712 176.632 188.618C176.832 188.524 177.048 188.477 177.267 188.479C178.13 188.535 178.954 188.876 179.622 189.454C179.679 189.505 179.724 189.569 179.753 189.642C179.781 189.715 179.793 189.794 179.787 189.873C179.78 189.952 179.756 190.028 179.716 190.094C179.676 190.161 179.621 190.217 179.556 190.257C179.471 190.31 179.372 190.333 179.273 190.322C179.175 190.311 179.083 190.266 179.011 190.194C178.647 189.776 178.195 189.453 177.692 189.25C177.189 189.047 176.648 188.969 176.111 189.024Z" fill="#F5F5F5"/>
<path d="M205.425 120.155C205.758 130.748 205.779 153.689 205.779 153.689C205.883 155.008 205.992 157.348 206.085 162.097C206.221 168.979 206.537 185.972 206.537 185.972C206.537 185.972 203.414 187.515 200.541 186.259C200.541 186.259 196.551 162.366 195.734 155.553C195.02 149.605 193.652 135.657 193.652 135.657L191.766 153.362C191.766 153.362 191.766 157.95 191.51 161.999C191.297 165.153 188.386 181.401 188.386 181.401C186.485 181.933 184.478 181.863 182.614 181.201C182.614 181.201 182.353 156.258 182.298 153.362C182.238 150.07 183.045 114.477 183.045 114.477L205.425 120.155Z" fill="#455A64"/>
<path d="M193.666 135.655L192.947 129.651C190.623 129.026 188.426 127.965 186.46 126.519C186.46 126.519 187.845 128.469 191.911 130.534L192.827 135.982L191.791 153.36L193.666 135.655Z" fill="#37474F"/>
<path d="M182.791 90.4273C181.319 92.4576 173.748 103.389 173.748 103.389L166.755 97.6882C165.12 96.3404 164.635 94.5739 163.61 93.3523C162.585 92.1307 161.463 91.8382 160.312 90.8173C159.162 89.7965 158.721 89.0222 158.328 89.894C157.936 90.7657 159.206 92.2856 159.419 92.6526C159.631 93.0197 160.945 93.8972 159.211 93.7997C157.478 93.7022 154.142 91.6203 153.336 91.236C152.529 90.8517 152.507 91.9013 152.889 92.5895C153.27 93.2778 153.08 95.1933 153.526 96.4264C153.973 97.6595 154.758 98.4165 156.355 99.2481C157.843 100.028 161.463 100.516 162.64 101.296C165.224 104.083 170.096 109.285 171.328 110.248C173.023 111.573 174.664 112.795 177.258 110.168C179.853 107.541 187.369 97.2351 187.369 97.2351L188.923 87.4335C186.372 87.336 184.568 87.9784 182.791 90.4273Z" fill="#FFE0B0"/>
<path d="M173.746 103.389C174.705 104.135 175.703 105.809 175.796 106.561C175.784 105.849 175.633 105.147 175.352 104.5C175.07 103.852 174.665 103.273 174.16 102.798L173.746 103.389Z" fill="#BCA67D"/>
<path d="M189.525 87.1925C189.525 87.1925 185.928 87.1466 184.347 88.3109C182.766 89.4751 181.595 91.1785 179.027 95.1071C176.776 98.5483 175.686 100.2 175.686 100.2C177.16 102.494 179.305 104.218 181.796 105.109L188.511 96.3574L189.525 87.1925Z" fill="#37474F"/>
<path d="M196.486 87.0114C198.524 87.2179 201.391 87.2408 203.408 87.4588C204.809 88.0667 207.513 90.5443 207.311 92.3108C206.559 98.912 205.038 109.734 205.038 109.734L205.539 121.205C202.732 124.153 189.596 125.306 182.827 120.591C182.827 120.591 183.045 99.9903 183.513 96.5032C184.347 90.2576 185.078 87.9405 188.141 87.3899C191.204 86.8394 196.486 87.0114 196.486 87.0114Z" fill="#1491ED"/>
<path d="M208.025 90.5953C209.497 92.6256 217.073 103.557 217.073 103.557L224.072 97.8561C225.707 96.5026 226.192 94.7362 227.217 93.5203C228.242 92.3044 229.365 92.0062 230.515 90.9853C231.665 89.9644 232.106 89.1902 232.499 90.0562C232.891 90.9222 231.621 92.4535 231.408 92.8206C231.196 93.1876 229.882 94.0651 231.616 93.9676C233.349 93.8701 236.679 91.7825 237.491 91.3982C238.304 91.014 238.314 92.0635 237.938 92.7518C237.562 93.44 237.742 95.3613 237.301 96.5944C236.859 97.8274 236.069 98.5788 234.472 99.4161C232.984 100.196 229.365 100.684 228.187 101.464C225.604 104.245 220.731 109.453 219.499 110.411C217.804 111.735 216.163 112.957 213.569 110.336C210.974 107.715 205.044 99.5538 205.044 99.5538L201.904 87.6015C204.45 87.504 206.254 88.1464 208.025 90.5953Z" fill="#FFE0B0"/>
<path d="M217.073 103.555C216.114 104.301 215.117 105.976 215.024 106.727C215.034 106.014 215.185 105.311 215.467 104.663C215.748 104.014 216.154 103.434 216.659 102.959L217.073 103.555Z" fill="#BCA67D"/>
<path d="M201.545 87.3145C201.545 87.3145 204.777 87.1023 206.478 88.4616C208.01 89.7004 209.203 91.3292 211.798 95.2578C214.049 98.699 215.139 100.351 215.139 100.351C213.662 102.644 211.515 104.367 209.023 105.26L204.45 99.3298C202.068 96.1525 199.708 91.3177 201.545 87.3145Z" fill="#37474F"/>
<path d="M196.988 71.4782C196.998 72.794 196.638 74.0835 195.952 75.1838C195.266 76.2841 194.286 77.1457 193.135 77.6597C191.984 78.1736 190.713 78.3169 189.485 78.0713C188.256 77.8257 187.125 77.2024 186.233 76.28C185.341 75.3576 184.729 74.1777 184.475 72.8895C184.22 71.6013 184.334 70.2625 184.803 69.0426C185.271 67.8226 186.073 66.7763 187.107 66.0358C188.141 65.2954 189.36 64.8941 190.61 64.8827C191.441 64.8751 192.264 65.0397 193.034 65.3671C193.804 65.6945 194.505 66.1782 195.097 66.7907C195.689 67.4031 196.161 68.1323 196.485 68.9366C196.81 69.7409 196.98 70.6045 196.988 71.4782Z" fill="#263238"/>
<path d="M201.64 76.1697C201.64 76.1697 200.653 81.2454 200.25 82.077C199.982 82.5934 199.535 82.9815 199.002 83.1609L199.04 79.5936L201.64 76.1697Z" fill="#263238"/>
<path d="M200.296 68.9277C200.653 68.8794 201.017 68.9179 201.358 69.0402C201.699 69.1624 202.009 69.3653 202.264 69.6331C203.114 70.5335 202.667 73.3782 201.642 76.1713L199.713 76.4236L200.296 68.9277Z" fill="#263238"/>
<path d="M199.134 76.4276C199.521 76.6685 200.066 75.8541 200.54 75.3494C201.014 74.8447 202.562 74.0876 203.358 75.8025C204.154 77.5173 202.704 79.886 201.483 80.2989C199.374 81.0216 199.041 79.5935 199.041 79.5935L198.954 87.8637C196.359 91.4368 189.061 91.2016 192.07 87.4737V85.0305C191.13 85.1963 190.176 85.2559 189.225 85.2083C187.666 84.9731 186.679 83.6884 186.189 81.922C185.409 79.0888 185.098 76.7947 185.698 71.1913C186.352 65.0546 193.127 64.9285 196.806 67.3201C200.486 69.7117 199.134 76.4276 199.134 76.4276Z" fill="#FFE0B0"/>
<path d="M199.137 77.1101C199.327 77.1101 200.058 75.8139 200.537 75.3494C201.197 74.7013 200.292 68.9259 200.292 68.9259C200.519 68.4134 200.593 67.841 200.505 67.2834C200.418 66.7258 200.173 66.2089 199.802 65.8002C198.88 64.7506 197.594 63.4717 193.452 64.0223C190.492 64.418 187.281 65.4217 184.671 64.1025C184.438 64.9969 184.464 65.9438 184.746 66.8224C185.028 67.701 185.552 68.4713 186.251 69.0349C186.251 69.0349 187.2 69.6657 189.68 69.9582C191.966 70.1165 194.262 70.0493 196.537 69.7575C197.256 69.6485 197.414 70.3769 197.818 72.3785C198.172 74.1278 198.483 77.1043 199.137 77.1101Z" fill="#263238"/>
<path d="M200.291 69.3735L202.619 68.0314C202.543 67.8657 202.437 67.7179 202.305 67.5971C202.173 67.4762 202.02 67.3848 201.853 67.3285C201.687 67.2721 201.512 67.252 201.338 67.2693C201.164 67.2866 200.995 67.3411 200.842 67.4292C200.53 67.6165 200.299 67.9231 200.196 68.2852C200.094 68.6473 200.128 69.0371 200.291 69.3735Z" fill="#263238"/>
<path d="M192.053 85.0303C192.053 85.0303 195.52 84.2618 196.724 83.5736C197.435 83.1764 198.014 82.5627 198.387 81.8129C198.211 82.5599 197.894 83.2621 197.455 83.8775C196.577 85.0819 192.064 85.9996 192.064 85.9996L192.053 85.0303Z" fill="#BCA67D"/>
<path d="M191.774 75.8427C191.773 75.9403 191.79 76.0373 191.824 76.128C191.859 76.2187 191.91 76.3014 191.975 76.3712C192.04 76.4411 192.117 76.4967 192.202 76.535C192.288 76.5732 192.379 76.5933 192.472 76.594C192.617 76.5997 192.76 76.5596 192.883 76.4788C193.006 76.3981 193.103 76.2803 193.162 76.1409C193.221 76.0014 193.239 75.8466 193.213 75.6965C193.187 75.5464 193.119 75.4078 193.018 75.2987C192.917 75.1896 192.786 75.1149 192.644 75.0844C192.502 75.0539 192.355 75.0689 192.221 75.1274C192.087 75.186 191.973 75.2855 191.893 75.413C191.814 75.5405 191.772 75.6902 191.774 75.8427Z" fill="#263238"/>
<path d="M193.838 73.3248L192.29 72.585C192.2 72.8077 192.196 73.0584 192.277 73.2849C192.358 73.5113 192.519 73.6961 192.726 73.8008C192.829 73.8486 192.939 73.8741 193.051 73.8759C193.164 73.8777 193.275 73.8558 193.379 73.8113C193.482 73.7669 193.577 73.7009 193.656 73.6173C193.735 73.5337 193.797 73.4343 193.838 73.3248Z" fill="#263238"/>
<path d="M187.215 72.4246L185.869 73.5372C185.933 73.6337 186.015 73.7153 186.11 73.777C186.204 73.8388 186.311 73.8792 186.421 73.8959C186.531 73.9126 186.644 73.9051 186.752 73.874C186.859 73.8429 186.96 73.7887 187.046 73.715C187.225 73.5628 187.342 73.3446 187.373 73.1049C187.405 72.8653 187.348 72.622 187.215 72.4246Z" fill="#263238"/>
<path d="M186.408 75.6666C186.414 75.8036 186.459 75.9355 186.536 76.0461C186.613 76.1567 186.719 76.241 186.842 76.2885C186.964 76.336 187.097 76.3447 187.224 76.3135C187.351 76.2823 187.466 76.2125 187.555 76.1129C187.645 76.0132 187.705 75.8881 187.727 75.753C187.75 75.6179 187.734 75.4789 187.682 75.3531C187.63 75.2274 187.544 75.1205 187.435 75.0457C187.326 74.9709 187.198 74.9316 187.068 74.9325C186.978 74.9347 186.89 74.9555 186.809 74.9937C186.727 75.0319 186.654 75.0867 186.592 75.1549C186.531 75.2232 186.483 75.3036 186.452 75.3914C186.42 75.4792 186.405 75.5728 186.408 75.6666Z" fill="#263238"/>
<path d="M190.015 75.0758L189.623 79.4633L187.47 78.5915L190.015 75.0758Z" fill="#BCA67D"/>
<path d="M191.197 81.1078C191.196 81.2475 191.235 81.3845 191.308 81.5012C191.381 81.618 191.485 81.7093 191.607 81.7636C191.73 81.8179 191.865 81.8327 191.995 81.8061C192.126 81.7795 192.246 81.7128 192.34 81.6144C192.434 81.5159 192.499 81.3902 192.525 81.2533C192.551 81.1163 192.538 80.9741 192.488 80.8449C192.437 80.7157 192.351 80.6051 192.241 80.5274C192.13 80.4496 192.001 80.4081 191.868 80.4081C191.691 80.4081 191.521 80.4816 191.396 80.6127C191.27 80.7437 191.199 80.9217 191.197 81.1078Z" fill="#BCA67D"/>
<path d="M208.215 34.3826C209.254 34.6262 210.256 35.0219 211.191 35.5583C212.085 36.0647 212.886 36.7347 213.556 37.537C214.202 38.3143 214.678 39.2302 214.952 40.2211C215.239 41.2714 215.261 42.3821 215.017 43.4443C214.856 44.2875 214.537 45.0886 214.08 45.8015C213.669 46.4148 213.175 46.9616 212.613 47.4245C212.064 47.8731 211.479 48.2703 210.864 48.6117L209.13 49.5753C208.608 49.8626 208.111 50.2005 207.648 50.5847C207.229 50.9188 206.908 51.3699 206.721 51.8866C206.627 52.1169 206.474 52.3154 206.28 52.4601C206.186 52.5352 206.078 52.5871 205.963 52.6119C205.848 52.6368 205.729 52.6339 205.615 52.6035L203.064 52.0299C202.942 52.0028 202.825 51.9502 202.722 51.8754C202.62 51.8006 202.532 51.7049 202.464 51.5941C202.393 51.4902 202.346 51.3702 202.327 51.2436C202.308 51.117 202.318 50.9876 202.355 50.8657C202.568 50.0314 202.939 49.251 203.445 48.5716C203.902 47.972 204.43 47.4362 205.015 46.9772C205.581 46.5417 206.181 46.158 206.809 45.8301C207.43 45.5032 208.008 45.1878 208.542 44.8781C209.03 44.6066 209.489 44.2797 209.91 43.9031C210.277 43.5779 210.532 43.1344 210.635 42.6414C210.729 42.2107 210.723 41.7625 210.616 41.335C210.51 40.9076 210.307 40.5135 210.024 40.1867C209.32 39.3762 208.378 38.8372 207.348 38.6554C205.444 38.208 203.834 38.8829 202.519 40.6799C202.393 40.8767 202.232 41.0461 202.045 41.1789C201.943 41.2331 201.833 41.2656 201.72 41.2744C201.607 41.2833 201.493 41.2684 201.385 41.2305L198.66 40.5939C198.564 40.5744 198.472 40.5349 198.391 40.4778C198.309 40.4207 198.24 40.3471 198.186 40.2612C198.126 40.1734 198.086 40.0728 198.068 39.9666C198.05 39.8605 198.055 39.7515 198.082 39.6476C198.311 38.7661 198.742 37.9569 199.336 37.2904C200.003 36.5158 200.794 35.8712 201.674 35.3863C202.638 34.8536 203.678 34.4894 204.754 34.308C205.901 34.0956 207.077 34.121 208.215 34.3826ZM205.337 54.7657C205.456 54.7925 205.57 54.8451 205.669 54.9201C205.768 54.9951 205.852 55.0909 205.915 55.2015C205.982 55.3086 206.027 55.4289 206.049 55.555C206.07 55.6812 206.067 55.8107 206.04 55.9356L205.386 59.0442C205.331 59.2923 205.187 59.5083 204.983 59.6464C204.78 59.7845 204.533 59.8338 204.296 59.784L201.407 59.113C201.288 59.0861 201.175 59.0342 201.076 58.9602C200.977 58.8863 200.893 58.7919 200.829 58.6828C200.761 58.5762 200.715 58.4559 200.693 58.3296C200.672 58.2032 200.675 58.0736 200.704 57.9487L201.358 54.8345C201.413 54.5863 201.557 54.3704 201.761 54.2323C201.964 54.0942 202.211 54.0448 202.448 54.0946L205.337 54.7657Z" fill="#1491ED"/>
<path d="M216.785 63.6282C217.506 63.5031 218.24 63.4877 218.965 63.5823C219.662 63.6656 220.339 63.8792 220.965 64.2132C221.563 64.5349 222.087 64.9888 222.502 65.5437C222.942 66.1385 223.226 66.8446 223.325 67.5912C223.438 68.1721 223.438 68.7711 223.325 69.3519C223.212 69.8574 223.028 70.3424 222.78 70.7915C222.537 71.2244 222.26 71.6349 221.952 72.0188L221.074 73.1085C220.81 73.4345 220.573 73.7837 220.366 74.1523C220.181 74.4801 220.087 74.8554 220.093 75.2363C220.092 75.4152 220.043 75.5902 219.951 75.741C219.91 75.8131 219.853 75.8747 219.787 75.9213C219.72 75.9679 219.644 75.9984 219.564 76.0105L217.782 76.3203C217.61 76.3487 217.434 76.3055 217.292 76.1998C217.222 76.1518 217.163 76.0875 217.121 76.0119C217.078 75.9363 217.053 75.8515 217.046 75.7639C216.972 75.1761 217.014 74.5784 217.172 74.009C217.313 73.498 217.52 73.0097 217.788 72.5579C218.043 72.1254 218.333 71.7167 218.654 71.3363C218.976 70.9578 219.265 70.6022 219.537 70.2581C219.783 69.9523 219.997 69.6197 220.175 69.2659C220.331 68.9588 220.387 68.606 220.333 68.2622C220.289 67.9601 220.175 67.6738 220.002 67.4281C219.83 67.1823 219.603 66.9844 219.341 66.8514C218.695 66.5193 217.961 66.4264 217.259 66.5875C216.623 66.6861 216.032 66.9885 215.566 67.4534C215.1 67.9183 214.781 68.5232 214.653 69.1856C214.619 69.3474 214.556 69.501 214.468 69.6387C214.362 69.7607 214.216 69.8347 214.059 69.8452L212.163 70.1721C212.028 70.1954 211.89 70.1647 211.776 70.086C211.716 70.0454 211.665 69.9915 211.628 69.928C211.59 69.8646 211.566 69.7932 211.558 69.719C211.492 69.0925 211.572 68.4586 211.792 67.8722C212.029 67.1943 212.379 66.5668 212.827 66.0198C213.316 65.4194 213.894 64.9062 214.539 64.4999C215.227 64.0587 215.989 63.7626 216.785 63.6282ZM219.897 77.5017C219.98 77.487 220.066 77.49 220.148 77.5107C220.231 77.5314 220.308 77.5693 220.377 77.6222C220.445 77.6732 220.503 77.738 220.547 77.8128C220.591 77.8877 220.62 77.9711 220.633 78.058L220.971 80.226C220.985 80.3139 220.982 80.4038 220.962 80.4905C220.942 80.5772 220.906 80.6589 220.856 80.7307C220.808 80.8031 220.747 80.8644 220.676 80.9108C220.604 80.9572 220.525 80.9876 220.442 81.0002L218.425 81.3501C218.343 81.3644 218.258 81.3611 218.177 81.3404C218.095 81.3197 218.018 81.282 217.951 81.2296C217.881 81.1799 217.822 81.1155 217.777 81.0405C217.732 80.9655 217.702 80.8815 217.689 80.7937L217.351 78.6201C217.326 78.4414 217.37 78.2596 217.472 78.1145C217.574 77.9693 217.727 77.8727 217.897 77.8458L219.897 77.5017Z" fill="#1491ED"/>
<g opacity="0.2">
<path opacity="0.2" d="M216.785 63.6282C217.506 63.5031 218.24 63.4877 218.965 63.5823C219.662 63.6656 220.339 63.8792 220.965 64.2132C221.563 64.5349 222.087 64.9888 222.502 65.5437C222.942 66.1385 223.226 66.8446 223.325 67.5912C223.438 68.1721 223.438 68.7711 223.325 69.3519C223.212 69.8574 223.028 70.3424 222.78 70.7915C222.537 71.2244 222.26 71.6349 221.952 72.0188L221.074 73.1085C220.81 73.4345 220.573 73.7837 220.366 74.1523C220.181 74.4801 220.087 74.8554 220.093 75.2363C220.092 75.4152 220.043 75.5902 219.951 75.741C219.91 75.8131 219.853 75.8747 219.787 75.9213C219.72 75.9679 219.644 75.9984 219.564 76.0105L217.782 76.3203C217.61 76.3487 217.434 76.3055 217.292 76.1998C217.222 76.1518 217.163 76.0875 217.121 76.0119C217.078 75.9363 217.053 75.8515 217.046 75.7639C216.972 75.1761 217.014 74.5784 217.172 74.009C217.313 73.498 217.52 73.0097 217.788 72.5579C218.043 72.1254 218.333 71.7167 218.654 71.3363C218.976 70.9578 219.265 70.6022 219.537 70.2581C219.783 69.9523 219.997 69.6197 220.175 69.2659C220.331 68.9588 220.387 68.606 220.333 68.2622C220.289 67.9601 220.175 67.6738 220.002 67.4281C219.83 67.1823 219.603 66.9844 219.341 66.8514C218.695 66.5193 217.961 66.4264 217.259 66.5875C216.623 66.6861 216.032 66.9885 215.566 67.4534C215.1 67.9183 214.781 68.5232 214.653 69.1856C214.619 69.3474 214.556 69.501 214.468 69.6387C214.362 69.7607 214.216 69.8347 214.059 69.8452L212.163 70.1721C212.028 70.1954 211.89 70.1647 211.776 70.086C211.716 70.0454 211.665 69.9915 211.628 69.928C211.59 69.8646 211.566 69.7932 211.558 69.719C211.492 69.0925 211.572 68.4586 211.792 67.8722C212.029 67.1943 212.379 66.5668 212.827 66.0198C213.316 65.4194 213.894 64.9062 214.539 64.4999C215.227 64.0587 215.989 63.7626 216.785 63.6282ZM219.897 77.5017C219.98 77.487 220.066 77.49 220.148 77.5107C220.231 77.5314 220.308 77.5693 220.377 77.6222C220.445 77.6732 220.503 77.738 220.547 77.8128C220.591 77.8877 220.62 77.9711 220.633 78.058L220.971 80.226C220.985 80.3139 220.982 80.4038 220.962 80.4905C220.942 80.5772 220.906 80.6589 220.856 80.7307C220.808 80.8031 220.747 80.8644 220.676 80.9108C220.604 80.9572 220.525 80.9876 220.442 81.0002L218.425 81.3501C218.343 81.3644 218.258 81.3611 218.177 81.3404C218.095 81.3197 218.018 81.282 217.951 81.2296C217.881 81.1799 217.822 81.1155 217.777 81.0405C217.732 80.9655 217.702 80.8815 217.689 80.7937L217.351 78.6201C217.326 78.4414 217.37 78.2596 217.472 78.1145C217.574 77.9693 217.727 77.8727 217.897 77.8458L219.897 77.5017Z" fill="black"/>
</g>
<path d="M235.369 69.7802C235.531 69.9044 235.64 70.0902 235.674 70.298C235.707 70.5059 235.663 70.7193 235.549 70.8928L234.11 73.0149C233.992 73.1852 233.815 73.3003 233.618 73.3357C233.42 73.371 233.217 73.3238 233.052 73.2041L231.079 71.7302C230.998 71.6703 230.929 71.5936 230.877 71.5049C230.824 71.4162 230.789 71.3173 230.774 71.214C230.745 71.013 230.79 70.8081 230.899 70.6405L232.338 68.5127C232.455 68.3417 232.632 68.2262 232.829 68.1915C233.021 68.1612 233.216 68.2106 233.374 68.3292L235.369 69.7802ZM243.698 55.3905C244.409 55.9186 245.044 56.5522 245.583 57.2716C246.104 57.9562 246.505 58.7331 246.766 59.5657C247.016 60.3615 247.1 61.2047 247.012 62.0376C246.909 62.9246 246.59 63.7684 246.085 64.4866C245.708 65.0673 245.227 65.5642 244.668 65.949C244.171 66.2738 243.631 66.5192 243.065 66.6774C242.517 66.8314 241.957 66.935 241.392 66.9871L239.789 67.1305C239.311 67.1767 238.837 67.265 238.372 67.3943C237.957 67.5099 237.579 67.7441 237.282 68.0711C237.139 68.2174 236.963 68.3222 236.77 68.3751C236.676 68.3984 236.579 68.3998 236.484 68.3789C236.39 68.3581 236.302 68.3157 236.225 68.2546L234.481 66.9527C234.314 66.8267 234.201 66.6375 234.164 66.4251C234.144 66.3249 234.145 66.221 234.169 66.1215C234.192 66.022 234.237 65.9296 234.301 65.8516C234.706 65.2919 235.216 64.8254 235.8 64.4808C236.324 64.178 236.885 63.9504 237.467 63.8041C238.026 63.662 238.595 63.5699 239.168 63.5288C239.713 63.4944 240.258 63.4485 240.76 63.3969C241.21 63.356 241.654 63.2617 242.084 63.1158C242.459 62.9958 242.785 62.7475 243.011 62.4104C243.213 62.1184 243.345 61.7786 243.395 61.4208C243.444 61.0629 243.409 60.6978 243.294 60.3572C243.01 59.512 242.465 58.7912 241.746 58.3097C240.449 57.3347 239.032 57.3022 237.495 58.2122C237.34 58.3164 237.168 58.3903 236.988 58.4301C236.894 58.4371 236.8 58.4245 236.711 58.393C236.623 58.3615 236.54 58.3117 236.47 58.2466L234.617 56.8587C234.482 56.7621 234.388 56.614 234.355 56.4458C234.339 56.3597 234.341 56.2711 234.361 56.186C234.381 56.1008 234.418 56.0212 234.47 55.9525C234.901 55.3659 235.463 54.8992 236.105 54.5933C236.842 54.2344 237.634 54.0151 238.443 53.9452C239.33 53.8691 240.222 53.9427 241.087 54.1631C242.026 54.3861 242.913 54.8033 243.698 55.3905Z" fill="#1491ED"/>
<g opacity="0.6">
<path opacity="0.6" d="M235.372 69.7801C235.534 69.9043 235.644 70.0901 235.677 70.2979C235.711 70.5057 235.666 70.7192 235.552 70.8927L234.113 73.0147C233.995 73.1851 233.819 73.3002 233.621 73.3356C233.424 73.3709 233.221 73.3237 233.056 73.204L231.083 71.7301C231.001 71.6701 230.932 71.5935 230.88 71.5048C230.828 71.4161 230.793 71.3171 230.778 71.2139C230.749 71.0129 230.794 70.8079 230.903 70.6403L232.342 68.5126C232.459 68.3415 232.635 68.2261 232.832 68.1914C233.024 68.1611 233.22 68.2104 233.377 68.329L235.372 69.7801ZM243.701 55.3903C244.412 55.9185 245.048 56.5521 245.587 57.2715C246.108 57.9561 246.508 58.7329 246.77 59.5656C247.02 60.3614 247.103 61.2046 247.015 62.0375C246.913 62.9244 246.593 63.7683 246.088 64.4864C245.712 65.0671 245.23 65.5641 244.671 65.9489C244.174 66.2736 243.634 66.5191 243.069 66.6773C242.52 66.8313 241.961 66.9349 241.395 66.987L239.793 67.1304C239.314 67.1766 238.84 67.2648 238.376 67.3942C237.96 67.5098 237.583 67.744 237.286 68.071C237.143 68.2173 236.966 68.3221 236.773 68.3749C236.68 68.3983 236.582 68.3996 236.488 68.3788C236.394 68.358 236.305 68.3155 236.228 68.2545L234.484 66.9526C234.317 66.8265 234.204 66.6373 234.168 66.425C234.147 66.3248 234.148 66.2209 234.172 66.1214C234.196 66.0219 234.241 65.9295 234.304 65.8514C234.71 65.2918 235.22 64.8253 235.803 64.4807C236.328 64.1779 236.889 63.9503 237.471 63.8039C238.029 63.6619 238.598 63.5698 239.171 63.5287C239.717 63.4942 240.262 63.4484 240.763 63.3967C241.213 63.3559 241.658 63.2616 242.088 63.1157C242.462 62.9956 242.789 62.7474 243.014 62.4103C243.217 62.1182 243.349 61.7785 243.398 61.4207C243.447 61.0628 243.413 60.6977 243.298 60.3571C243.013 59.5118 242.468 58.791 241.75 58.3096C240.452 57.3346 239.035 57.3021 237.498 58.2121C237.343 58.3163 237.171 58.3901 236.991 58.43C236.898 58.437 236.804 58.4244 236.715 58.3929C236.626 58.3614 236.544 58.3116 236.473 58.2465L234.62 56.8586C234.485 56.762 234.391 56.6139 234.359 56.4456C234.343 56.3596 234.345 56.271 234.365 56.1858C234.384 56.1007 234.421 56.0211 234.473 55.9524C234.905 55.3658 235.466 54.8991 236.108 54.5931C236.845 54.2343 237.637 54.0149 238.447 53.9451C239.333 53.869 240.226 53.9426 241.09 54.163C242.029 54.386 242.917 54.8032 243.701 55.3903Z" fill="white"/>
</g>
<path d="M59.7217 183.325C59.6672 181.604 60.8445 164.789 60.8445 164.789L53.061 170.73C54.6581 180.756 55.0015 183.124 55.0287 184.765C54.9958 184.901 54.9811 185.042 54.9851 185.183C54.9851 187.133 57.0836 188.183 58.7133 189.485C60.0985 190.624 61.5737 191.637 63.1228 192.513C64.3056 193.138 66.7148 193.195 67.0091 192.392C65.0251 190.798 62.1417 188.412 60.5611 186.594C59.8089 185.722 59.7816 185.034 59.7217 183.325Z" fill="#FFD7A7"/>
<path d="M70.3935 194.497C70.4817 194.765 70.4974 195.053 70.4386 195.33C70.3799 195.606 70.2491 195.86 70.061 196.063C68.6315 197.147 66.8523 197.593 65.1118 197.302C62.6373 196.963 61.2964 196.223 60.3099 195.352C59.3233 194.48 57.9334 193.253 56.8106 192.995C55.9179 192.816 55.0688 192.449 54.3142 191.916C53.9817 191.578 54.0253 190.075 54.0253 190.075L70.3935 194.497Z" fill="#263238"/>
<path d="M55.0126 184.289C54.9209 184.291 54.8331 184.328 54.7644 184.392C54.6957 184.456 54.6505 184.543 54.6365 184.638C54.5602 185.051 54.4784 186.256 54.3149 186.933C54.0619 188.129 53.9811 189.358 54.0751 190.58C54.2113 191.354 55.901 191.888 56.9857 192.301C58.2613 192.885 59.4449 193.67 60.4959 194.629C62.0127 195.823 63.8231 196.533 65.7122 196.677C67.6199 196.677 69.7674 196.011 70.2634 195.082C70.8685 193.935 70.3943 193.264 67.5654 191.882C67.0203 191.624 65.1507 190.448 64.5076 190.024C62.7743 188.877 61.0573 187.277 60.2561 185.246C60.1915 184.998 60.0494 184.78 59.8527 184.627C59.681 184.549 59.4906 184.529 59.3077 184.57C58.8352 184.642 58.3759 184.789 57.945 185.005C57.5689 185.195 57.0293 185.418 57.0348 185.929C57.0464 186.106 57.0831 186.28 57.1438 186.445C57.1765 186.554 57.2037 186.692 57.1438 186.755C57.0838 186.818 56.953 186.755 56.8767 186.674C56.5993 186.376 56.3459 186.054 56.1191 185.711C55.985 185.535 55.8334 185.376 55.6667 185.235C55.4999 185.135 55.3396 185.024 55.187 184.902C54.9799 184.747 55.0235 184.529 55.0126 184.289Z" fill="#455A64"/>
<path d="M60.4947 194.66C59.9987 194.236 59.4754 193.817 58.9521 193.45C58.9521 193.45 62.277 195.578 63.6179 194.597C63.8667 194.431 64.0488 194.174 64.1292 193.876C64.2096 193.577 64.1828 193.258 64.0539 192.979C64.0539 192.739 66.1688 191.701 67.0082 191.597C67.2426 191.735 67.4388 191.844 67.5532 191.901C70.3821 193.283 70.8563 193.949 70.2513 195.102C69.7553 196.031 68.2019 196.759 65.7382 196.759C64.1357 196.793 61.6393 195.646 60.4947 194.66Z" fill="#37474F"/>
<path d="M63.8194 192.283C65.5799 193.023 64.8277 193.367 64.3372 193.43C63.8466 193.493 60.8869 191.71 59.0773 190.184C57.2677 188.659 56.0086 186.898 55.3109 186.324C55.0493 186.112 54.7659 185.848 54.5151 185.602C54.5642 185.194 54.6023 184.822 54.6351 184.627C54.649 184.531 54.6943 184.444 54.763 184.38C54.8317 184.316 54.9195 184.28 55.0111 184.277C55.0111 184.518 54.9784 184.741 55.1529 184.919C55.3055 185.041 55.4658 185.152 55.6325 185.252C55.7992 185.393 55.9509 185.552 56.0849 185.728C56.3118 186.07 56.5652 186.393 56.8426 186.691C58.8039 189.011 61.173 190.91 63.8194 192.283Z" fill="#263238"/>
<path d="M64.2166 193.172C64.1763 193.171 64.1378 193.154 64.1076 193.126C64.0898 193.112 64.0751 193.094 64.0641 193.073C64.0531 193.052 64.0461 193.03 64.0436 193.006C64.041 192.983 64.043 192.959 64.0493 192.936C64.0556 192.913 64.0661 192.892 64.0803 192.874C64.4949 192.421 64.9969 192.067 65.5526 191.835C66.1083 191.604 66.7047 191.5 67.3016 191.532C67.3484 191.538 67.3912 191.562 67.4208 191.601C67.4503 191.64 67.4643 191.689 67.4597 191.738C67.4542 191.786 67.4312 191.83 67.3955 191.86C67.3598 191.89 67.3144 191.904 67.2689 191.899C66.73 191.875 66.1923 191.97 65.6903 192.178C65.1882 192.385 64.7327 192.7 64.3529 193.103C64.3362 193.124 64.3155 193.142 64.2919 193.153C64.2684 193.165 64.2427 193.172 64.2166 193.172Z" fill="#F5F5F5"/>
<path d="M62.6823 192.205C62.6407 192.207 62.6 192.193 62.5678 192.165C62.5368 192.13 62.5195 192.084 62.5195 192.036C62.5195 191.988 62.5368 191.942 62.5678 191.907C62.9833 191.455 63.4857 191.103 64.0412 190.872C64.5968 190.642 65.1927 190.539 65.7892 190.57C65.8354 190.576 65.8778 190.6 65.9069 190.638C65.936 190.677 65.9496 190.725 65.9445 190.774C65.9394 190.823 65.9162 190.867 65.8799 190.898C65.8436 190.929 65.7973 190.943 65.751 190.937C65.2119 190.913 64.6739 191.007 64.1716 191.214C63.6693 191.422 63.2139 191.738 62.8349 192.142C62.8163 192.165 62.7927 192.182 62.7661 192.193C62.7395 192.204 62.7107 192.208 62.6823 192.205Z" fill="#F5F5F5"/>
<path d="M61.1452 191.234C61.1056 191.234 61.067 191.22 61.0362 191.194C61.0039 191.159 60.9858 191.113 60.9858 191.065C60.9858 191.016 61.0039 190.97 61.0362 190.936C61.4519 190.484 61.9543 190.132 62.5098 189.902C63.0653 189.671 63.6612 189.568 64.2576 189.599C64.2805 189.601 64.3028 189.608 64.3232 189.62C64.3436 189.631 64.3617 189.646 64.3764 189.665C64.3911 189.684 64.4021 189.705 64.4088 189.728C64.4156 189.751 64.4179 189.776 64.4156 189.8C64.4136 189.824 64.407 189.848 64.3963 189.869C64.3856 189.89 64.3709 189.909 64.3532 189.925C64.3355 189.94 64.315 189.952 64.293 189.959C64.2709 189.966 64.2478 189.969 64.2249 189.966C63.6858 189.941 63.1477 190.036 62.6455 190.243C62.1432 190.451 61.6878 190.767 61.3088 191.171C61.2885 191.194 61.263 191.213 61.2345 191.224C61.206 191.235 61.1753 191.238 61.1452 191.234Z" fill="#F5F5F5"/>
<path d="M59.7257 190.161C59.686 190.162 59.6474 190.148 59.6167 190.121C59.6 190.104 59.5868 190.084 59.5777 190.062C59.5686 190.04 59.564 190.016 59.564 189.992C59.564 189.968 59.5686 189.944 59.5777 189.922C59.5868 189.9 59.6 189.88 59.6167 189.863C60.0318 189.411 60.534 189.058 61.0897 188.827C61.6454 188.597 62.2416 188.494 62.8381 188.527C62.8834 188.532 62.9248 188.557 62.9534 188.594C62.9819 188.632 62.9953 188.68 62.9907 188.727C62.9852 188.775 62.9622 188.819 62.9265 188.849C62.8908 188.879 62.8454 188.893 62.7999 188.888C62.2611 188.866 61.7237 188.961 61.2218 189.168C60.7198 189.376 60.2642 189.69 59.8838 190.092C59.8653 190.117 59.841 190.137 59.8133 190.149C59.7856 190.161 59.7555 190.165 59.7257 190.161Z" fill="#F5F5F5"/>
<path d="M58.3357 189.089C58.2964 189.087 58.2585 189.073 58.2267 189.049C58.1944 189.014 58.1763 188.968 58.1763 188.92C58.1763 188.871 58.1944 188.825 58.2267 188.791C58.6761 188.298 59.2265 187.921 59.8357 187.686C60.445 187.451 61.0971 187.366 61.7423 187.437C61.7654 187.438 61.7879 187.445 61.8084 187.456C61.829 187.467 61.847 187.483 61.8614 187.501C61.8759 187.52 61.8863 187.542 61.8921 187.566C61.8978 187.589 61.8988 187.614 61.895 187.638C61.8895 187.686 61.8664 187.729 61.8307 187.759C61.7951 187.789 61.7496 187.803 61.7042 187.798C61.1176 187.738 60.5256 187.815 59.9712 188.025C59.4167 188.236 58.9139 188.574 58.4992 189.014C58.4801 189.04 58.4551 189.061 58.4265 189.074C58.3979 189.087 58.3667 189.092 58.3357 189.089Z" fill="#F5F5F5"/>
<path d="M45.059 172.445L37.2046 172.296C37.3191 177.814 38.153 183.933 38.2947 189.106C38.2947 190.081 38.2947 196.677 38.6218 198.684C39.1668 201.695 42.5462 201.288 42.7261 199.487C42.906 197.686 42.5081 189.984 42.519 189.164C42.4863 185.849 43.9634 180.245 44.7428 174.287C44.7755 174.017 45.0208 172.732 45.059 172.445Z" fill="#FFD7A7"/>
<path d="M44.0046 200.739C44.1504 202.119 43.963 203.515 43.4595 204.799C43.2102 205.309 42.808 205.718 42.3152 205.963C41.8225 206.207 41.2667 206.274 40.7342 206.153C39.5732 205.975 38.0416 205.321 37.5728 203.858C37.129 202.511 36.9727 201.078 37.115 199.66L44.0046 200.739Z" fill="#263238"/>
<path d="M38.2759 188.475C37.8126 188.561 37.8998 190.942 37.8562 193.333C37.8072 195.903 37.1912 197.027 37.1313 199.132C37.0604 201.54 37.2839 202.573 38.2214 203.938C39.1589 205.303 42.0859 206.404 43.2687 204.202C44.2334 202.406 44.1026 200.542 43.7701 198.18C43.4376 195.817 43.176 194.027 43.0888 192.157C43.0016 190.288 42.9634 188.63 42.5437 188.475C42.5437 188.739 42.5437 189.078 42.5437 189.336C42.5437 189.594 42.5819 190.483 42.3203 190.54C42.2799 190.319 42.2562 190.094 42.2494 189.869C42.2615 189.661 42.1971 189.455 42.0695 189.296C41.9119 189.173 41.7204 189.109 41.5245 189.112C41.0576 189.057 40.588 189.03 40.1182 189.032C39.8838 189.032 39.644 189.032 39.4151 189.072C39.2137 189.088 39.0164 189.14 38.8319 189.227C38.7775 189.251 38.7286 189.287 38.6883 189.333C38.6479 189.378 38.617 189.432 38.5975 189.491C38.5811 189.582 38.5811 189.675 38.5975 189.766C38.6166 189.93 38.6166 190.095 38.5975 190.259C38.5975 190.334 38.5484 190.425 38.4776 190.414C38.4067 190.403 38.3958 190.334 38.3904 190.276C38.3577 189.99 38.3904 189.777 38.3577 189.445C38.3577 189.29 38.3577 189.078 38.3577 188.923C38.3577 188.768 38.2814 188.63 38.2759 188.475Z" fill="#455A64"/>
<path d="M37.1699 198.443C37.1699 198.793 37.0991 201.093 37.715 201.437C38.3309 201.781 38.5707 199.992 38.5707 199.992C38.5707 199.992 40.0152 199.355 42.2826 200.124C42.2063 200.502 42.6532 201.684 43.2256 201.362C43.7979 201.041 43.7706 198.42 43.7706 198.386C44.0813 200.68 44.1794 202.458 43.2256 204.201C42.0428 206.404 39.1049 205.291 38.1783 203.938C37.2517 202.584 37.0282 201.54 37.0882 199.131C37.1154 198.891 37.1536 198.667 37.1699 198.443Z" fill="#37474F"/>
<path d="M38.7515 200.125C38.8223 200.986 37.9938 200.785 37.8412 199.552C37.6886 198.319 38.0483 195.399 37.8412 193.312C37.8848 190.92 37.7976 188.54 38.2609 188.454C38.2582 188.483 38.2582 188.511 38.2609 188.54L38.3154 189.75C38.3046 189.922 38.3046 190.094 38.3154 190.266C38.468 192.021 38.5607 195.428 38.5661 197.045C38.5757 198.075 38.6376 199.103 38.7515 200.125Z" fill="#263238"/>
<path d="M42.0163 200.124C42.1231 199.109 42.1759 198.088 42.1744 197.067C42.1744 195.461 42.2725 192.094 42.4251 190.328C42.4842 190.001 42.508 189.668 42.496 189.336C42.496 189.095 42.496 188.762 42.496 188.533C42.496 188.533 42.496 188.498 42.496 188.475C42.8012 188.596 42.9102 189.542 42.9757 190.735C42.9757 191.429 42.9757 192.289 42.9157 193.333C42.7086 195.421 43.0683 198.38 42.9157 199.59C42.7631 200.8 41.9618 200.984 42.0163 200.124Z" fill="#263238"/>
<path d="M42.3405 200.188H42.2806C41.1028 199.76 39.8228 199.76 38.645 200.188C38.6236 200.197 38.6007 200.201 38.5777 200.2C38.5547 200.2 38.5321 200.194 38.511 200.184C38.49 200.175 38.4711 200.16 38.4553 200.143C38.4394 200.125 38.4271 200.105 38.4188 200.082C38.4106 200.059 38.4067 200.035 38.4073 200.011C38.4079 199.987 38.413 199.963 38.4224 199.941C38.4318 199.919 38.4452 199.899 38.4619 199.882C38.4785 199.866 38.4982 199.853 38.5197 199.844C39.7762 199.372 41.1494 199.372 42.4059 199.844C42.4274 199.852 42.447 199.865 42.4636 199.881C42.4802 199.898 42.4935 199.918 42.5027 199.94C42.5119 199.962 42.5167 199.985 42.5169 200.009C42.5172 200.033 42.5128 200.057 42.5041 200.079C42.4907 200.113 42.4678 200.141 42.4386 200.161C42.4093 200.18 42.3751 200.19 42.3405 200.188Z" fill="#F5F5F5"/>
<path d="M42.5665 198.283C42.5468 198.288 42.5262 198.288 42.5065 198.283C41.1823 197.85 39.7645 197.85 38.4403 198.283C38.4185 198.291 38.3953 198.294 38.3722 198.293C38.3491 198.291 38.3265 198.285 38.3057 198.274C38.2849 198.264 38.2664 198.249 38.2511 198.231C38.2358 198.212 38.2242 198.191 38.2168 198.168C38.2092 198.145 38.206 198.121 38.2073 198.097C38.2087 198.073 38.2147 198.05 38.2249 198.029C38.235 198.007 38.2492 197.988 38.2666 197.973C38.2839 197.957 38.3041 197.946 38.3258 197.938C39.7247 197.47 41.2275 197.47 42.6264 197.938C42.6647 197.953 42.6968 197.982 42.7171 198.019C42.7374 198.057 42.7446 198.1 42.7375 198.143C42.7303 198.185 42.7093 198.223 42.678 198.251C42.6468 198.279 42.6073 198.294 42.5665 198.294V198.283Z" fill="#F5F5F5"/>
<path d="M38.3672 196.482C38.3338 196.481 38.3014 196.47 38.2734 196.451C38.2455 196.431 38.2233 196.404 38.2091 196.373C38.1906 196.328 38.1894 196.278 38.2058 196.233C38.2221 196.188 38.2546 196.152 38.2963 196.132C39.6732 195.562 41.2023 195.552 42.5859 196.103C42.6074 196.111 42.627 196.124 42.6436 196.14C42.6602 196.157 42.6735 196.177 42.6827 196.199C42.6919 196.221 42.6967 196.244 42.6969 196.268C42.6972 196.292 42.6928 196.316 42.6841 196.338C42.667 196.383 42.6341 196.418 42.5923 196.438C42.5506 196.457 42.5033 196.458 42.4606 196.441C42.4606 196.441 40.3239 195.558 38.4435 196.441C38.4213 196.461 38.3952 196.474 38.3672 196.482Z" fill="#F5F5F5"/>
<path d="M38.3281 194.795C38.2952 194.796 38.2629 194.786 38.2349 194.768C38.2069 194.75 38.1844 194.723 38.17 194.692C38.1512 194.649 38.1492 194.599 38.1645 194.554C38.1797 194.509 38.2111 194.472 38.2518 194.451C38.9351 194.124 39.676 193.95 40.4269 193.941C41.1778 193.932 41.9221 194.088 42.6123 194.4C42.633 194.409 42.6515 194.424 42.6669 194.441C42.6823 194.459 42.6941 194.479 42.7018 194.502C42.7094 194.524 42.7126 194.548 42.7113 194.572C42.71 194.596 42.7041 194.619 42.6941 194.641C42.6847 194.662 42.6713 194.682 42.6546 194.698C42.6379 194.714 42.6183 194.727 42.597 194.735C42.5756 194.743 42.5529 194.746 42.5303 194.745C42.5076 194.743 42.4855 194.737 42.4651 194.727C41.8176 194.444 41.1224 194.303 40.4216 194.312C39.7208 194.321 39.0289 194.48 38.3881 194.778C38.3691 194.787 38.3488 194.793 38.3281 194.795Z" fill="#F5F5F5"/>
<path d="M38.2918 192.909C38.2519 192.909 38.2129 192.895 38.1815 192.869C38.1501 192.844 38.1281 192.807 38.1192 192.766C38.1102 192.725 38.1149 192.682 38.1325 192.644C38.15 192.607 38.1793 192.576 38.2155 192.559C40.2922 191.48 42.5324 192.513 42.6251 192.559C42.6468 192.567 42.6665 192.581 42.6829 192.598C42.6993 192.615 42.712 192.636 42.7203 192.658C42.7285 192.681 42.7321 192.706 42.7307 192.73C42.7293 192.754 42.723 192.778 42.7123 192.8C42.6933 192.843 42.6586 192.878 42.6157 192.895C42.5729 192.912 42.5253 192.911 42.4834 192.891C42.4834 192.891 40.3031 191.888 38.3735 192.891C38.3483 192.905 38.32 192.911 38.2918 192.909Z" fill="#F5F5F5"/>
<path d="M39.7921 118.792C37.0232 126.861 37.5083 131.926 37.9825 140.385C38.4186 148.139 39.1108 154.97 39.1108 154.97C39.0018 156.346 37.1813 159.03 36.9306 165.11C36.8502 169.39 37.0323 173.672 37.4756 177.928C37.4756 177.928 41.1003 179.322 44.1635 177.928C44.1635 177.928 47.2976 163.366 48.1534 156.249C48.8947 150.038 50.1919 142.1 50.1919 142.1L52.9172 156.22C52.3845 158.118 52.1111 160.086 52.1051 162.064C52.1051 165.385 53.5713 174.619 53.5713 174.619C53.5713 174.619 57.632 176.001 60.2047 173.598C60.2047 173.598 61.224 160.309 61.5837 155.245C62.0634 148.489 61.3657 129.97 59.8232 120.49L39.7921 118.792Z" fill="#455A64"/>
<path d="M50.2241 142.077L51.3579 131.455C51.3579 131.455 56.4324 130.744 58.7326 128.467C58.0727 129.553 57.1932 130.472 56.1568 131.159C55.1204 131.847 53.9526 132.284 52.7369 132.442L51.1017 142.329L52.9549 156.197L50.2241 142.077Z" fill="#37474F"/>
<path d="M62.7731 110.917C60.304 108.245 55.8453 102.2 55.8453 102.2L53.3271 93.0233C53.89 93.0541 54.454 93.0541 55.0168 93.0233C57.7422 93.2126 58.5434 93.4592 60.2385 95.4092C61.5848 96.9635 66.7193 104.339 68.5017 106.822L73.2383 100.473C74.3775 98.6668 74.1921 96.6423 74.7808 95.1683C75.3695 93.6944 76.3233 93.0463 77.0864 91.7272C77.8495 90.4081 78.0294 89.5248 78.6562 90.2073C79.283 90.8898 78.5581 92.7251 78.4654 93.1438C78.3728 93.5625 77.4135 94.807 79.0105 94.1589C80.6075 93.5108 83.0712 90.4425 83.7035 89.8173C84.3357 89.1922 84.6737 90.1615 84.532 90.93C84.3903 91.6985 85.077 93.4305 84.8263 94.698C84.6702 95.9729 84.0677 97.1407 83.1366 97.9729C81.9865 99.1887 79.174 100.686 78.073 102.286C76.972 103.886 74.6227 108.858 73.1674 111.852C71.3415 115.66 69.788 116.916 67.7168 115.632C65.6456 114.347 63.6833 111.91 62.7731 110.917Z" fill="#FFD7A7"/>
<path d="M54.1243 92.9261C55.5179 92.7796 56.9248 92.976 58.234 93.4997C59.7111 94.1994 60.714 95.702 62.1585 97.738C63.6029 99.774 66.181 103.336 66.181 103.336C66.181 103.336 65.4833 106.427 60.883 109.203L53.3721 101.064L54.1243 92.9261Z" fill="#37474F"/>
<path d="M68.496 106.817C67.5975 107.709 66.9956 108.881 66.7791 110.161C66.7791 110.161 66.234 108.32 68.0926 106.249L68.496 106.817Z" fill="#E8C99B"/>
<path d="M59.5628 109.22C62.915 106.318 61.8085 102.538 60.5875 99.9917C58.1402 94.9045 55.5948 92.9029 54.5319 92.9202L47.8658 92.989C44.6826 93.4478 42.2189 93.2184 41.4504 93.4077C39.4882 93.8951 39.4446 95.5928 39.3682 97.7894C39.2865 100.198 38.1146 99.791 38.7087 103.771C39.4094 105.251 40.0247 106.773 40.551 108.331C40.9108 109.707 41.9246 111.898 41.385 114.123C41.1779 114.984 40.6219 115.844 39.7879 118.201C38.8424 120.851 38.1397 123.589 37.6895 126.38C37.6895 126.38 39.6353 125.904 41.8483 123.426C41.8483 123.426 44.8734 127.687 52.15 127.257C59.6991 126.81 60.3641 122.669 60.3641 122.669L59.2085 115.213C59.3829 112.202 59.4593 111.112 59.5628 109.22Z" fill="#1491ED"/>
<path opacity="0.1" d="M55.2108 108.471C55.2108 108.471 52.4854 110.765 49.2859 109.663C48.3947 109.382 47.5866 108.866 46.9388 108.163C46.291 107.46 45.8249 106.595 45.5849 105.649C45.5849 105.649 45.3124 109.463 49.335 110.69C50.411 111.034 51.5636 111.003 52.6219 110.603C53.6802 110.204 54.588 109.456 55.2108 108.471Z" fill="black"/>
<path d="M36.1281 89.6454C35.1415 88.8883 29.8272 96.3728 32.3126 98.2482C34.7981 100.124 37.4471 94.8071 36.913 92.2951C36.3788 89.783 36.1281 89.6454 36.1281 89.6454Z" fill="#37474F"/>
<path d="M31.3035 85.9291C32.6334 83.9906 33.5382 82.5281 34.7537 80.8649C35.4405 79.9186 35.882 79.2475 36.5415 78.2783C36.9994 77.613 37.2664 77.0509 37.7788 76.8387C38.3508 76.5738 38.862 76.1826 39.2777 75.6917C39.5323 75.3814 39.7672 75.0537 39.9809 74.711C40.7491 73.5916 41.667 72.5948 42.7062 71.7516C43.7963 70.8626 44.99 70.1744 46.1019 69.3256C46.7614 68.8209 47.47 67.9892 46.647 67.2379C46.3912 67.0207 46.0875 66.8747 45.764 66.8135C43.7799 66.3948 42.063 67.1462 40.1335 67.7025C39.2944 67.9432 38.4744 68.2519 37.6807 68.6259C37.2867 68.7942 36.9191 69.0243 36.5906 69.3084C36.1341 69.8102 35.7651 70.3926 35.5004 71.0289C34.6556 72.6635 32.8732 74.1202 31.625 75.3992C30.1588 76.9018 28.8507 78.2668 27.1773 79.9358C25.673 81.4269 24.1958 82.8034 22.8168 84.4322C21.6776 85.7742 22.1192 86.8066 22.2718 87.1564C23.2529 89.1867 24.3212 89.9036 25.6076 91.1711C26.0327 91.584 26.4633 91.9912 26.8939 92.3984C28.5618 93.9814 30.2297 95.4611 31.963 96.9866C33.8162 98.5925 34.5793 99.3725 36.2308 100.932C37.273 101.94 38.1416 103.129 38.7981 104.448C41.6596 104.947 44.4722 100.342 42.0194 94.9564C41.616 94.0854 41.0058 93.3387 40.2479 92.7884C37.2283 90.523 31.3035 85.9291 31.3035 85.9291Z" fill="#FFD7A7"/>
<path d="M31.2999 85.9293C30.4072 87.122 29.2078 88.0197 27.8442 88.5159C27.8442 88.5159 29.6702 88.9748 32.123 86.5717L31.2999 85.9293Z" fill="#E8C99B"/>
<path d="M41.6832 93.362C41.0128 92.8745 39.3831 91.8364 36.1291 89.6455C36.1291 89.6455 36.6305 90.7524 35.8402 93.534C35.0499 96.3156 33.382 98.0763 32.3354 98.2771C32.3354 98.2771 34.156 99.7912 35.8347 101.5C37.5135 103.209 38.8925 104.419 39.8627 106.404C39.8627 106.404 42.261 105.756 42.8061 101.477C43.1876 98.4778 42.9587 94.9564 41.6832 93.362Z" fill="#455A64"/>
<path d="M59.8856 79.5876C60.3648 78.522 60.5758 77.3449 60.4985 76.1689C60.4212 74.9929 60.0581 73.8575 59.4441 72.8716C57.3783 69.7803 53.8954 68.2834 50.0472 68.3293H48.8535C43.6591 68.421 38.9389 73.1125 38.8462 78.3946C38.8462 82.1111 38.8462 85.5465 40.7921 88.0814C42.5853 90.4386 45.3815 91.2129 47.7416 91.5914C52.2547 92.3141 57.3238 91.7635 59.3732 88.5288C59.3732 88.5288 56.6479 89.1023 56.9913 86.1315C57.0404 85.6612 56.6152 85.145 55.8685 84.6116C56.3915 83.6583 57.0071 82.7645 57.7053 81.9447C58.4739 81.1361 59.3623 80.683 59.8856 79.5876Z" fill="#263238"/>
<path d="M58.5409 82.2987C58.5137 87.8332 56.8294 89.2269 55.9846 89.6398C55.1397 90.0528 53.4827 89.8349 51.8748 89.5882L51.9293 92.9089C51.9293 92.9089 53.8098 94.9105 53.7008 96.4361C53.5917 97.9617 50.8228 98.1567 48.7243 96.7286C47.5683 95.9231 46.5198 94.9587 45.6066 93.861C45.4323 93.6486 45.334 93.3788 45.3286 93.0982L45.1978 85.2925C45.1978 85.2925 44.3366 86.2847 42.7668 85.195C42.4277 84.9769 42.1354 84.687 41.9084 84.3437C41.6814 84.0004 41.5248 83.6111 41.4484 83.2007C41.3721 82.7903 41.3776 82.3677 41.4648 81.9596C41.5519 81.5516 41.7187 81.1671 41.9546 80.8305C42.1764 80.6036 42.4428 80.4307 42.7349 80.3239C43.0271 80.2171 43.338 80.179 43.6457 80.2124C43.9534 80.2458 44.2504 80.3497 44.5157 80.517C44.781 80.6842 45.0083 80.9107 45.1814 81.1804C45.6611 82.1209 45.6175 82.7862 46.2715 82.6773C46.9256 82.5683 46.9529 81.8227 46.9965 81.2893C47.0401 80.756 46.9965 80.5839 47.0619 79.8842C48.6153 79.5344 50.2233 77.2575 50.4031 75.5942C51.4555 76.1388 52.6153 76.414 53.788 76.3972C55.5267 76.271 56.4261 75.9039 57.2818 74.5848C57.4857 74.8866 57.649 75.2167 57.7669 75.5656C58.0091 76.2718 58.1915 76.9992 58.312 77.7392C58.5061 79.25 58.5827 80.7749 58.5409 82.2987Z" fill="#FFD7A7"/>
<path d="M51.874 89.5883C50.1789 89.3818 46.685 88.3954 46.1182 86.9615C46.3473 87.6894 46.7829 88.326 47.3664 88.7854C48.4238 89.703 51.8904 90.6952 51.8904 90.6952L51.874 89.5883Z" fill="#E8C99B"/>
<path d="M53.581 86.606C53.5843 86.7503 53.5467 86.8923 53.4731 87.0141C53.3995 87.1358 53.2932 87.2318 53.1677 87.2899C53.0421 87.348 52.9031 87.3655 52.768 87.3403C52.633 87.3151 52.5082 87.2483 52.4093 87.1483C52.3104 87.0483 52.242 86.9196 52.2127 86.7787C52.1835 86.6377 52.1946 86.4908 52.2448 86.3565C52.295 86.2222 52.382 86.1067 52.4947 86.0245C52.6074 85.9423 52.7408 85.8972 52.8779 85.8949C53.0606 85.8918 53.237 85.9648 53.3687 86.098C53.5004 86.2313 53.5767 86.4139 53.581 86.606Z" fill="#FFE0B0"/>
<path d="M52.69 81.1574C52.699 81.2591 52.6887 81.3617 52.6598 81.4593C52.6309 81.5569 52.584 81.6474 52.5216 81.7258C52.4593 81.8042 52.3829 81.8688 52.2967 81.9159C52.2105 81.9631 52.1163 81.9918 52.0195 82.0004C51.8705 82.0172 51.7201 81.9867 51.5876 81.9129C51.4551 81.839 51.3467 81.7252 51.2761 81.5861C51.2055 81.4469 51.1761 81.2888 51.1915 81.1319C51.207 80.975 51.2666 80.8265 51.3628 80.7056C51.459 80.5846 51.5874 80.4966 51.7314 80.4529C51.8754 80.4093 52.0286 80.4119 52.1712 80.4604C52.3138 80.509 52.4394 80.6013 52.5319 80.7254C52.6243 80.8496 52.6793 81 52.69 81.1574Z" fill="#263238"/>
<path d="M57.6115 80.8306C57.6251 81.0175 57.568 81.2024 57.4527 81.3453C57.3373 81.4881 57.1731 81.5773 56.9956 81.5933C56.9062 81.6049 56.8155 81.5961 56.7296 81.5674C56.6437 81.5387 56.5647 81.4909 56.498 81.4273C56.4313 81.3636 56.3784 81.2855 56.3429 81.1984C56.3074 81.1113 56.2902 81.0171 56.2925 80.9223C56.2835 80.8295 56.2923 80.7357 56.3182 80.6464C56.3442 80.5572 56.3869 80.4743 56.4438 80.4027C56.5007 80.3311 56.5706 80.2722 56.6495 80.2294C56.7283 80.1867 56.8145 80.161 56.9029 80.1538C57.0819 80.146 57.2565 80.2126 57.3891 80.3393C57.5218 80.4659 57.6016 80.6424 57.6115 80.8306Z" fill="#263238"/>
<path d="M54.21 80.1135L54.7332 84.7361L56.9843 83.7497L54.21 80.1135Z" fill="#E8C99B"/>
<path d="M50.0649 79.1614L51.3731 77.8538C51.536 78.0444 51.6229 78.2938 51.6158 78.55C51.6087 78.8063 51.5081 79.0499 51.335 79.2302C51.2487 79.3163 51.1466 79.3831 51.0351 79.4265C50.9235 79.4698 50.8047 79.4889 50.6859 79.4824C50.5671 79.476 50.4508 79.4442 50.3441 79.389C50.2373 79.3338 50.1424 79.2564 50.0649 79.1614Z" fill="#263238"/>
<path d="M56.6091 77.4294L58.059 78.5765C57.9922 78.6801 57.906 78.7682 57.8057 78.8354C57.7054 78.9026 57.5931 78.9476 57.4757 78.9674C57.3583 78.9873 57.2382 78.9817 57.1229 78.951C57.0077 78.9202 56.8996 78.865 56.8053 78.7887C56.6154 78.6301 56.4897 78.4018 56.4533 78.1496C56.4169 77.8975 56.4725 77.6402 56.6091 77.4294Z" fill="#263238"/>
<path d="M35.7104 35.419C36.7555 35.2093 37.8239 35.1591 38.8826 35.2699C39.8944 35.3633 40.8821 35.6469 41.7987 36.1072C42.6782 36.549 43.4557 37.187 44.0771 37.9769C44.7323 38.8224 45.168 39.8321 45.3416 40.9076C45.505 41.7516 45.505 42.6216 45.3416 43.4656C45.1951 44.2001 44.9453 44.9076 44.6003 45.5646C44.2655 46.204 43.877 46.8106 43.4394 47.377C43.0033 47.9505 42.5891 48.4782 42.2021 48.9886C41.8319 49.469 41.5036 49.9834 41.221 50.5256C40.9612 51.0071 40.8347 51.5554 40.8558 52.1086C40.859 52.3657 40.7969 52.6192 40.6759 52.8427C40.6188 52.9483 40.5405 53.0395 40.4463 53.1099C40.3521 53.1802 40.2444 53.228 40.1308 53.2499L37.5636 53.7603C37.4416 53.7858 37.3161 53.7853 37.1943 53.7587C37.0726 53.7321 36.9572 53.68 36.855 53.6055C36.7487 53.5414 36.6588 53.4509 36.5933 53.342C36.5277 53.233 36.4885 53.1089 36.4789 52.9803C36.3538 52.1318 36.3946 51.2653 36.5988 50.4339C36.7926 49.6931 37.0766 48.9818 37.4437 48.3176C37.7986 47.685 38.2053 47.0863 38.6592 46.5282C39.1116 45.9546 39.5204 45.4385 39.8965 44.9338C40.2422 44.4805 40.5418 43.9903 40.7904 43.4713C41.0041 43.0209 41.0712 42.509 40.9811 42.0145C40.9087 41.5787 40.7363 41.1681 40.4789 40.8183C40.2215 40.4685 39.8869 40.1901 39.504 40.0072C38.5543 39.5531 37.4876 39.4461 36.4735 39.7032C34.5621 40.0856 33.3357 41.3741 32.7943 43.5688C32.7466 43.8001 32.6619 44.0212 32.5436 44.2226C32.3924 44.4064 32.1795 44.5215 31.9494 44.5438L29.2241 45.0886C29.0359 45.1239 28.8419 45.0851 28.6791 44.9797C28.5935 44.9202 28.5206 44.8425 28.4653 44.7516C28.4099 44.6607 28.3732 44.5587 28.3575 44.452C28.2398 43.5473 28.3333 42.626 28.63 41.7679C28.9386 40.7768 29.411 39.8507 30.0254 39.0322C30.7143 38.136 31.535 37.3616 32.4563 36.7381C33.4493 36.0803 34.5546 35.6322 35.7104 35.419ZM40.6868 55.349C40.9292 55.3049 41.1783 55.3616 41.3817 55.5071C41.5851 55.6526 41.7268 55.8756 41.7769 56.129L42.322 59.2604C42.3468 59.3859 42.3466 59.5155 42.3213 59.6409C42.2959 59.7663 42.2461 59.8848 42.1748 59.9888C42.1079 60.0955 42.0213 60.187 41.9202 60.2579C41.8191 60.3288 41.7055 60.3777 41.5861 60.4017L38.681 60.9752C38.5608 61.0015 38.4368 61.0013 38.3167 60.9747C38.1966 60.948 38.0831 60.8955 37.9833 60.8204C37.8819 60.7499 37.7949 60.6588 37.7275 60.5525C37.6601 60.4461 37.6136 60.3266 37.5908 60.201L37.0458 57.0695C37.023 56.9436 37.0248 56.8141 37.051 56.6889C37.0772 56.5637 37.1274 56.4454 37.1984 56.3412C37.2637 56.2329 37.3498 56.1402 37.4511 56.0691C37.5525 55.9979 37.667 55.95 37.7871 55.9282L40.6868 55.349Z" fill="#1491ED"/>
<path d="M63.4143 48.342C64.0571 48.717 64.6447 49.1884 65.1585 49.7414C65.658 50.2595 66.0627 50.87 66.3522 51.5422C66.63 52.1852 66.7731 52.8834 66.7719 53.5897C66.7713 54.3425 66.5833 55.082 66.2269 55.7347C65.9598 56.2578 65.5989 56.7213 65.164 57.0997C64.7744 57.4179 64.3429 57.6749 63.8831 57.8625C63.4361 58.0462 62.9747 58.1883 62.5041 58.2869L61.1741 58.5622C60.7752 58.6429 60.3845 58.7639 60.0077 58.9235C59.6685 59.0559 59.3719 59.2866 59.1519 59.5888C59.0447 59.7276 58.9033 59.8328 58.7431 59.8927C58.6679 59.9224 58.5873 59.9342 58.5072 59.9272C58.4271 59.9203 58.3495 59.8948 58.2798 59.8526L56.7046 58.9235C56.5514 58.8353 56.4377 58.6868 56.3885 58.5105C56.3617 58.4268 56.3536 58.3377 56.365 58.2501C56.3763 58.1626 56.4067 58.079 56.4539 58.0058C56.7441 57.4988 57.1299 57.0596 57.5876 56.7154C58.0024 56.4105 58.4531 56.1638 58.9285 55.9813C59.3843 55.8106 59.8529 55.6802 60.3293 55.5913C60.8035 55.5053 61.245 55.4192 61.6592 55.3275C62.0331 55.2453 62.3982 55.1243 62.7493 54.9662C63.0524 54.8255 63.3046 54.5863 63.4688 54.2837C63.612 54.0175 63.6917 53.7189 63.7012 53.4132C63.7107 53.1076 63.6497 52.8041 63.5233 52.5287C63.212 51.8457 62.6919 51.2923 62.0462 50.9572C61.4901 50.619 60.8483 50.4695 60.2084 50.5291C59.5686 50.5886 58.9617 50.8543 58.4706 51.2899C58.3491 51.3938 58.2105 51.4735 58.0618 51.525C57.9057 51.5523 57.7457 51.5153 57.6148 51.4218L55.936 50.4353C55.8172 50.365 55.7278 50.2504 55.6853 50.1141C55.6641 50.0429 55.6575 49.9677 55.666 49.8935C55.6744 49.8194 55.6977 49.748 55.7344 49.684C56.0526 49.1508 56.4882 48.7062 57.0044 48.3878C57.592 48.0147 58.2379 47.7545 58.9121 47.6193C59.6501 47.4671 60.4067 47.4419 61.1523 47.5448C61.948 47.655 62.7161 47.9257 63.4143 48.342ZM57.6694 61.2176C57.7434 61.2607 57.8085 61.319 57.8609 61.3889C57.9133 61.4588 57.9519 61.539 57.9746 61.6248C57.9987 61.7093 58.0063 61.7981 57.997 61.8859C57.9876 61.9736 57.9614 62.0584 57.9201 62.1352L56.9008 64.0565C56.8181 64.2129 56.6799 64.3284 56.5165 64.3778C56.3531 64.4273 56.1777 64.4066 56.0287 64.3203L54.2464 63.2708C54.1713 63.2298 54.1057 63.1722 54.0539 63.1019C54.0021 63.0316 53.9655 62.9503 53.9466 62.8636C53.9206 62.7796 53.9116 62.6908 53.9201 62.6029C53.9285 62.5151 53.9542 62.43 53.9956 62.3532L55.0149 60.4318C55.0562 60.3548 55.1117 60.2873 55.1782 60.2331C55.2446 60.179 55.3207 60.1393 55.4019 60.1164C55.482 60.0896 55.5667 60.0809 55.6502 60.0908C55.7338 60.1007 55.8145 60.1289 55.887 60.1738L57.6694 61.2176Z" fill="#1491ED"/>
<g opacity="0.2">
<path opacity="0.2" d="M63.4143 48.342C64.0571 48.717 64.6447 49.1884 65.1585 49.7414C65.658 50.2595 66.0627 50.87 66.3522 51.5422C66.63 52.1852 66.7731 52.8834 66.7719 53.5897C66.7713 54.3425 66.5833 55.082 66.2269 55.7347C65.9598 56.2578 65.5989 56.7213 65.164 57.0997C64.7744 57.4179 64.3429 57.6749 63.8831 57.8625C63.4361 58.0462 62.9747 58.1883 62.5041 58.2869L61.1741 58.5622C60.7752 58.6429 60.3845 58.7639 60.0077 58.9235C59.6685 59.0559 59.3719 59.2866 59.1519 59.5888C59.0447 59.7276 58.9033 59.8328 58.7431 59.8927C58.6679 59.9224 58.5873 59.9342 58.5072 59.9272C58.4271 59.9203 58.3495 59.8948 58.2798 59.8526L56.7046 58.9235C56.5514 58.8353 56.4377 58.6868 56.3885 58.5105C56.3617 58.4268 56.3536 58.3377 56.365 58.2501C56.3763 58.1626 56.4067 58.079 56.4539 58.0058C56.7441 57.4988 57.1299 57.0596 57.5876 56.7154C58.0024 56.4105 58.4531 56.1638 58.9285 55.9813C59.3843 55.8106 59.8529 55.6802 60.3293 55.5913C60.8035 55.5053 61.245 55.4192 61.6592 55.3275C62.0331 55.2453 62.3982 55.1243 62.7493 54.9662C63.0524 54.8255 63.3046 54.5863 63.4688 54.2837C63.612 54.0175 63.6917 53.7189 63.7012 53.4132C63.7107 53.1076 63.6497 52.8041 63.5233 52.5287C63.212 51.8457 62.6919 51.2923 62.0462 50.9572C61.4901 50.619 60.8483 50.4695 60.2084 50.5291C59.5686 50.5886 58.9617 50.8543 58.4706 51.2899C58.3491 51.3938 58.2105 51.4735 58.0618 51.525C57.9057 51.5523 57.7457 51.5153 57.6148 51.4218L55.936 50.4353C55.8172 50.365 55.7278 50.2504 55.6853 50.1141C55.6641 50.0429 55.6575 49.9677 55.666 49.8935C55.6744 49.8194 55.6977 49.748 55.7344 49.684C56.0526 49.1508 56.4882 48.7062 57.0044 48.3878C57.592 48.0147 58.2379 47.7545 58.9121 47.6193C59.6501 47.4671 60.4067 47.4419 61.1523 47.5448C61.948 47.655 62.7161 47.9257 63.4143 48.342ZM57.6694 61.2176C57.7434 61.2607 57.8085 61.319 57.8609 61.3889C57.9133 61.4588 57.9519 61.539 57.9746 61.6248C57.9987 61.7093 58.0063 61.7981 57.997 61.8859C57.9876 61.9736 57.9614 62.0584 57.9201 62.1352L56.9008 64.0565C56.8181 64.2129 56.6799 64.3284 56.5165 64.3778C56.3531 64.4273 56.1777 64.4066 56.0287 64.3203L54.2464 63.2708C54.1713 63.2298 54.1057 63.1722 54.0539 63.1019C54.0021 63.0316 53.9655 62.9503 53.9466 62.8636C53.9206 62.7796 53.9116 62.6908 53.9201 62.6029C53.9285 62.5151 53.9542 62.43 53.9956 62.3532L55.0149 60.4318C55.0562 60.3548 55.1117 60.2873 55.1782 60.2331C55.2446 60.179 55.3207 60.1393 55.4019 60.1164C55.482 60.0896 55.5667 60.0809 55.6502 60.0908C55.7338 60.1007 55.8145 60.1289 55.887 60.1738L57.6694 61.2176Z" fill="black"/>
</g>
<path d="M25.0173 69.4003C25.0899 69.3282 25.1756 69.2722 25.2693 69.2357C25.3629 69.1992 25.4626 69.1831 25.5624 69.1881C25.6647 69.1896 25.7656 69.2127 25.8593 69.2561C25.9529 69.2994 26.0373 69.3621 26.1075 69.4405L27.7862 71.3561C27.8553 71.4342 27.909 71.5259 27.9442 71.626C27.9794 71.7261 27.9955 71.8325 27.9914 71.9391C27.9874 72.0458 27.9633 72.1505 27.9206 72.2473C27.8779 72.3441 27.8174 72.431 27.7426 72.5031L25.9657 74.2237C25.8915 74.2964 25.8043 74.3529 25.7092 74.3899C25.6141 74.427 25.5129 74.4438 25.4116 74.4396C25.3103 74.4353 25.2107 74.41 25.1187 74.3651C25.0267 74.3201 24.9441 74.2565 24.8756 74.1778L23.1968 72.2622C23.1271 72.1845 23.0728 72.0928 23.0372 71.9927C23.0015 71.8925 22.9853 71.7859 22.9893 71.6791C22.9934 71.5722 23.0177 71.4673 23.0608 71.3705C23.1039 71.2736 23.165 71.1868 23.2404 71.1152L25.0173 69.4003ZM13.353 57.8438C13.9904 57.2171 14.7099 56.6898 15.4897 56.2781C16.2301 55.8844 17.031 55.6319 17.8552 55.5325C18.6464 55.4406 19.4472 55.5266 20.2044 55.7849C21.009 56.0738 21.7283 56.5778 22.292 57.2474C22.7637 57.7516 23.1344 58.3504 23.3821 59.0081C23.582 59.5851 23.6996 60.19 23.731 60.8032C23.7621 61.4002 23.7439 61.9989 23.6765 62.5926C23.6056 63.1661 23.5402 63.7397 23.4803 64.273C23.4211 64.7752 23.4047 65.2819 23.4312 65.7871C23.4493 66.2412 23.5892 66.6806 23.8345 67.0546C23.9402 67.226 24.0004 67.424 24.009 67.6282C24.0137 67.7287 23.9965 67.829 23.9587 67.9214C23.9209 68.0139 23.8635 68.096 23.7909 68.1615L22.2212 69.6928C22.0723 69.8349 21.877 69.9109 21.6761 69.905C21.5764 69.9089 21.4774 69.8875 21.3872 69.8426C21.2971 69.7976 21.2186 69.7305 21.1583 69.647C20.7222 69.1134 20.3923 68.4933 20.1881 67.8232C20.0174 67.2213 19.9221 66.5985 19.9047 65.9707C19.8876 65.3647 19.9205 64.7583 20.0028 64.1583C20.0845 63.5848 20.1499 63.0113 20.2044 62.4951C20.2533 62.0205 20.2533 61.5417 20.2044 61.067C20.1689 60.6582 20.006 60.2731 19.7411 59.9716C19.5107 59.7029 19.2215 59.4972 18.8987 59.3723C18.5758 59.2474 18.2289 59.2071 17.8879 59.2547C17.0469 59.3692 16.2652 59.7723 15.6641 60.4018C14.494 61.5488 14.1724 63.0036 14.6993 64.7663C14.764 64.9499 14.7972 65.144 14.7974 65.3398C14.7839 65.4363 14.7524 65.5291 14.7047 65.6128C14.657 65.6964 14.594 65.7693 14.5194 65.8273L12.8461 67.4561C12.7292 67.5749 12.5726 67.6408 12.4101 67.6396C12.3268 67.6382 12.2448 67.6179 12.1696 67.5804C12.0944 67.5428 12.0277 67.4887 11.974 67.4217C11.5107 66.8576 11.1868 66.1819 11.0311 65.4545C10.8461 64.6222 10.8037 63.7618 10.9057 62.9138C11.0176 61.9842 11.2716 61.0797 11.6579 60.2354C12.0693 59.3295 12.6451 58.5171 13.353 57.8438Z" fill="#1491ED"/>
<g opacity="0.6">
<path opacity="0.6" d="M25.0173 69.4003C25.0899 69.3282 25.1756 69.2722 25.2693 69.2357C25.3629 69.1992 25.4626 69.1831 25.5624 69.1881C25.6647 69.1896 25.7656 69.2127 25.8593 69.2561C25.9529 69.2994 26.0373 69.3621 26.1075 69.4405L27.7862 71.3561C27.8553 71.4342 27.909 71.5259 27.9442 71.626C27.9794 71.7261 27.9955 71.8325 27.9914 71.9391C27.9874 72.0458 27.9633 72.1505 27.9206 72.2473C27.8779 72.3441 27.8174 72.431 27.7426 72.5031L25.9657 74.2237C25.8915 74.2964 25.8043 74.3529 25.7092 74.3899C25.6141 74.427 25.5129 74.4438 25.4116 74.4396C25.3103 74.4353 25.2107 74.41 25.1187 74.3651C25.0267 74.3201 24.9441 74.2565 24.8756 74.1778L23.1968 72.2622C23.1271 72.1845 23.0728 72.0928 23.0372 71.9927C23.0015 71.8925 22.9853 71.7859 22.9893 71.6791C22.9934 71.5722 23.0177 71.4673 23.0608 71.3705C23.1039 71.2736 23.165 71.1868 23.2404 71.1152L25.0173 69.4003ZM13.353 57.8438C13.9904 57.2171 14.7099 56.6898 15.4897 56.2781C16.2301 55.8844 17.031 55.6319 17.8552 55.5325C18.6464 55.4406 19.4472 55.5266 20.2044 55.7849C21.009 56.0738 21.7283 56.5778 22.292 57.2474C22.7637 57.7516 23.1344 58.3504 23.3821 59.0081C23.582 59.5851 23.6996 60.19 23.731 60.8032C23.7621 61.4002 23.7439 61.9989 23.6765 62.5926C23.6056 63.1661 23.5402 63.7397 23.4803 64.273C23.4211 64.7752 23.4047 65.2819 23.4312 65.7871C23.4493 66.2412 23.5892 66.6806 23.8345 67.0546C23.9402 67.226 24.0004 67.424 24.009 67.6282C24.0137 67.7287 23.9965 67.829 23.9587 67.9214C23.9209 68.0139 23.8635 68.096 23.7909 68.1615L22.2212 69.6928C22.0723 69.8349 21.877 69.9109 21.6761 69.905C21.5764 69.9089 21.4774 69.8875 21.3872 69.8426C21.2971 69.7976 21.2186 69.7305 21.1583 69.647C20.7222 69.1134 20.3923 68.4933 20.1881 67.8232C20.0174 67.2213 19.9221 66.5985 19.9047 65.9707C19.8876 65.3647 19.9205 64.7583 20.0028 64.1583C20.0845 63.5848 20.1499 63.0113 20.2044 62.4951C20.2533 62.0205 20.2533 61.5417 20.2044 61.067C20.1689 60.6582 20.006 60.2731 19.7411 59.9716C19.5107 59.7029 19.2215 59.4972 18.8987 59.3723C18.5758 59.2474 18.2289 59.2071 17.8879 59.2547C17.0469 59.3692 16.2652 59.7723 15.6641 60.4018C14.494 61.5488 14.1724 63.0036 14.6993 64.7663C14.764 64.9499 14.7972 65.144 14.7974 65.3398C14.7839 65.4363 14.7524 65.5291 14.7047 65.6128C14.657 65.6964 14.594 65.7693 14.5194 65.8273L12.8461 67.4561C12.7292 67.5749 12.5726 67.6408 12.4101 67.6396C12.3268 67.6382 12.2448 67.6179 12.1696 67.5804C12.0944 67.5428 12.0277 67.4887 11.974 67.4217C11.5107 66.8576 11.1868 66.1819 11.0311 65.4545C10.8461 64.6222 10.8037 63.7618 10.9057 62.9138C11.0176 61.9842 11.2716 61.0797 11.6579 60.2354C12.0693 59.3295 12.6451 58.5171 13.353 57.8438Z" fill="white"/>
</g>
<path d="M136.009 109.415C134.455 108.48 127.914 104.5 125.69 103.147C125.249 102.883 124.971 102.711 124.949 102.694C123.843 102.045 122.551 101.841 121.314 102.12C120.251 102.347 119.233 102.764 118.305 103.353C118.152 103.445 118 103.554 117.852 103.657C115.34 105.326 113.181 107.953 111.383 111.566C109.551 115.085 108.568 119.024 108.521 123.036C108.521 126.837 109.484 129.504 111.41 131.037C111.605 131.19 111.809 131.33 112.02 131.456C113.824 132.534 122.873 138.051 123.074 138.172H123.123C122.901 138.043 122.687 137.898 122.486 137.736C120.556 136.206 119.593 133.542 119.597 129.741C119.644 125.729 120.627 121.79 122.458 118.27C124.359 114.447 126.664 111.707 129.375 110.052C131.955 108.484 134.183 108.28 136.058 109.438L136.009 109.415Z" fill="#1491ED"/>
<path opacity="0.4" d="M136.062 109.451C134.187 108.304 131.959 108.507 129.379 110.059C126.861 111.589 124.69 114.074 122.866 117.515L111.79 110.765C113.502 107.547 115.524 105.179 117.851 103.636C117.998 103.538 118.151 103.424 118.304 103.332C119.231 102.742 120.249 102.327 121.312 102.105C122.55 101.822 123.843 102.026 124.948 102.678L125.689 103.131C127.913 104.479 134.454 108.459 136.007 109.394L136.062 109.451Z" fill="black"/>
<path opacity="0.3" d="M123.123 138.154H123.074C122.872 138.034 113.808 132.517 112.02 131.438C111.809 131.312 111.605 131.173 111.41 131.02C109.484 129.49 108.521 126.825 108.521 123.025C108.567 119.012 109.55 115.073 111.383 111.554C111.513 111.285 111.65 111.021 111.791 110.769L122.862 117.496C122.725 117.748 122.589 118.012 122.458 118.276C120.627 121.796 119.644 125.734 119.597 129.747C119.597 133.547 120.56 136.212 122.485 137.742C122.688 137.895 122.901 138.033 123.123 138.154Z" fill="black"/>
<path d="M131.179 10.9964C136.553 7.72727 141.128 6.33743 144.903 6.82684C146.44 7.01998 147.923 7.53896 149.264 8.35241C149.226 8.33159 149.19 8.30862 149.155 8.28359C147.858 7.51507 140.041 2.77202 138.254 1.66512C136.89 0.826424 135.375 0.295191 133.806 0.105134C130.027 -0.38045 125.45 1.00748 120.076 4.26892C111.718 9.3427 104.996 16.7985 99.9084 26.6364C94.8211 36.4742 92.3048 46.5166 92.3593 56.7636L103.429 63.491C103.353 53.2364 105.87 43.1921 110.979 33.3581C116.088 23.524 122.821 16.0701 131.179 10.9964Z" fill="#1491ED"/>
<path opacity="0.2" d="M149.179 8.29135C147.858 7.51716 146.406 7.02046 144.905 6.82886C141.133 6.33945 136.559 7.7293 131.181 10.9984C122.823 16.0683 116.101 23.5242 111.013 33.3658C110.801 33.773 110.594 34.186 110.392 34.5932L99.2944 27.8543C99.4961 27.4471 99.7032 27.0341 99.9158 26.6269C105.025 16.7967 111.747 9.3409 120.083 4.25947C125.465 0.994209 130.041 -0.393719 133.813 0.0956886C135.383 0.287674 136.897 0.820858 138.261 1.66141C140.065 2.77978 147.881 7.52856 149.179 8.29135Z" fill="black"/>
<path opacity="0.3" d="M110.366 34.5817C105.675 44.0219 103.365 53.6552 103.438 63.4816L92.3677 56.7541C92.2987 46.9239 94.6079 37.2906 99.2955 27.8542L110.366 34.5817Z" fill="black"/>
<path d="M138.7 30.0623C136.69 28.9382 134.007 29.3779 130.649 31.3814C130.536 33.4833 130.124 35.5557 129.428 37.5296C128.589 39.9078 126.147 44.8133 122.103 52.2462C117.913 59.9314 114.882 67.2706 113.011 74.2638C111.155 81.1682 110.212 88.3089 110.209 95.4842L110.264 99.0572L117.819 103.645L121.34 105.785L121.28 102.206V102.16C121.292 95.008 122.234 87.8914 124.081 81.0084C125.953 74.0153 128.985 66.678 133.178 58.9966C137.219 51.5637 139.659 46.6562 140.499 44.2742C141.337 41.9193 141.765 39.4248 141.763 36.9101C141.763 33.4881 140.742 31.2055 138.7 30.0623Z" fill="#1491ED"/>
<path opacity="0.3" d="M139.414 46.8511C138.164 49.5887 136.085 53.6302 133.178 58.9754C128.981 66.6606 125.949 73.9998 124.081 80.993C122.232 87.8814 121.29 95.004 121.28 102.162V102.254L121.34 105.832L117.819 103.699L110.264 99.1106L110.209 95.5319C110.213 88.3566 111.155 81.216 113.011 74.3115C114.882 67.3183 117.913 59.9791 122.103 52.2939C125.01 46.941 127.092 42.9014 128.349 40.1753L139.414 46.8511Z" fill="black"/>
<path opacity="0.4" d="M141.764 36.9101C141.765 39.4167 141.338 41.9032 140.505 44.2513C140.27 44.9223 139.905 45.7883 139.414 46.8493L128.35 40.1276C128.833 39.0647 129.196 38.1987 129.44 37.5296C130.136 35.5557 130.547 33.4833 130.661 31.3814C134.018 29.3779 136.702 28.9382 138.711 30.0623C140.721 31.1864 141.738 33.469 141.764 36.9101Z" fill="black"/>
<path d="M118.419 54.3741L103.435 63.4816C103.359 53.227 105.875 43.1827 110.984 33.3487C116.093 23.5147 122.816 16.0588 131.152 10.9812C136.526 7.71215 141.101 6.32231 144.876 6.81172C148.652 7.30112 151.673 9.4786 153.941 13.3442C156.212 17.2097 157.347 22.0311 157.347 27.8084C157.325 31.1626 156.959 34.5044 156.257 37.7763C155.408 41.6901 154.261 45.5259 152.829 49.2468C151.913 51.6785 149.72 56.1673 146.25 62.7131C142.932 68.9531 140.854 73.1991 140.014 75.4511C139.083 78.1243 138.391 80.8836 137.949 83.6926C137.289 87.8913 136.924 92.1354 136.859 96.3905L121.362 105.808L121.302 102.229C121.306 95.0536 122.248 87.913 124.104 81.0085C125.975 74.0154 129.008 66.6781 133.201 58.9967C137.242 51.5638 139.682 46.6564 140.521 44.2743C141.352 41.918 141.773 39.4235 141.764 36.9103C141.764 33.4691 140.745 31.1865 138.706 30.0624C136.668 28.9383 133.932 29.4086 130.498 31.4733C126.987 33.6068 124.108 36.807 121.858 41.0741C119.659 45.1288 118.475 49.7056 118.419 54.3741Z" fill="#1491ED"/>
<path d="M129.346 110.092C132.126 108.398 134.498 108.293 136.464 109.777C138.43 111.26 139.413 113.9 139.413 117.697C139.354 121.731 138.352 125.688 136.497 129.219C134.557 133.1 132.211 135.876 129.46 137.547C126.71 139.218 124.373 139.286 122.451 137.753C120.525 136.224 119.562 133.557 119.562 129.753C119.609 125.74 120.592 121.802 122.424 118.282C124.331 114.466 126.639 111.736 129.346 110.092Z" fill="#1491ED"/>
</svg>
