<svg width="20" height="21" viewBox="0 0 20 21" fill="none" xmlns="http://www.w3.org/2000/svg">
<path d="M16.25 3.625H3.75C3.40482 3.625 3.125 3.90482 3.125 4.25V16.75C3.125 17.0952 3.40482 17.375 3.75 17.375H16.25C16.5952 17.375 16.875 17.0952 16.875 16.75V4.25C16.875 3.90482 16.5952 3.625 16.25 3.625Z" stroke="currentColor" stroke-width="1.2" stroke-linecap="round" stroke-linejoin="round"/>
<path d="M7.34766 9.72266L9.9993 12.3743L12.6509 9.72266" stroke="currentColor" stroke-width="1.2" stroke-linecap="round" stroke-linejoin="round"/>
<path d="M10 6.125V12.375" stroke="currentColor" stroke-width="1.2" stroke-linecap="round" stroke-linejoin="round"/>
<path d="M3.125 13H5.99112C6.07319 13 6.15446 13.0162 6.23029 13.0476C6.30612 13.079 6.37502 13.125 6.43306 13.1831L7.94194 14.6919C7.99998 14.75 8.06888 14.796 8.14471 14.8274C8.22053 14.8588 8.30181 14.875 8.38388 14.875H11.6161C11.6982 14.875 11.7795 14.8588 11.8553 14.8274C11.9311 14.796 12 14.75 12.0581 14.6919L13.5669 13.1831C13.625 13.125 13.6939 13.079 13.7697 13.0476C13.8455 13.0162 13.9268 13 14.0089 13H16.875" stroke="currentColor" stroke-width="1.2" stroke-linecap="round" stroke-linejoin="round"/>
</svg>
