<svg width="20" height="20" viewBox="0 0 20 20" fill="none" xmlns="http://www.w3.org/2000/svg">
<path fill-rule="evenodd" clip-rule="evenodd" d="M7.51863 1.84109C5.98028 3.25178 5.45053 3.79973 5.2522 4.185C4.88713 4.89403 4.85254 5.36283 5.1091 6.12537C5.38456 6.94412 6.07651 7.60402 7.13859 8.06089C8.10527 8.47665 8.67559 8.5736 10.7697 8.678C12.7053 8.77458 13.8503 8.98171 14.5782 9.3668C15.0564 9.6198 15.5136 10.0633 15.6798 10.4354C15.886 10.8967 15.7864 12.2886 15.4827 13.1906C15.4481 13.2931 16.1801 12.7268 17.1092 11.9321C20.2609 9.23667 19.9926 9.50579 19.9926 9.04007V8.62748L15.219 4.31374L10.4454 0H9.98587H9.52622L7.51863 1.84109ZM2.38933 8.49837C1.25363 9.46729 0.239151 10.4045 0.134873 10.5811C-0.0207165 10.8449 -0.0346545 10.9567 0.0570269 11.2074C0.210036 11.626 9.3919 19.9028 9.79631 19.9867C9.95717 20.02 10.2245 19.9889 10.4158 19.9143C10.6008 19.8423 11.5974 19.0129 12.6305 18.0714C14.1541 16.6826 14.5613 16.2556 14.7872 15.8102C15.4535 14.4962 14.8485 12.962 13.3519 12.1701C12.3319 11.6304 10.649 11.2822 9.04861 11.2797C7.88391 11.2779 6.29012 11.0338 5.67654 10.7632C4.34437 10.1758 3.97455 9.26519 4.34953 7.4956C4.43399 7.09728 4.49201 6.76355 4.47859 6.75404C4.46517 6.74444 3.52502 7.52944 2.38933 8.49837Z" fill="#1E4FAD"/>
<path fill-rule="evenodd" clip-rule="evenodd" d="M7.52118 1.84109C5.98283 3.25178 5.45308 3.79973 5.25475 4.185C4.88968 4.89403 4.85509 5.36283 5.11165 6.12537C5.38711 6.94412 6.07906 7.60402 7.14114 8.06089C8.10782 8.47665 8.67814 8.5736 10.7723 8.678C12.7079 8.77458 13.8529 8.98171 14.5807 9.3668C15.059 9.6198 15.5161 10.0633 15.6824 10.4354C15.8885 10.8967 15.7889 12.2886 15.4853 13.1906C15.4507 13.2931 16.1827 12.7268 17.1118 11.9321C20.2634 9.23667 19.9951 9.50579 19.9951 9.04007V8.62748L15.2216 4.31374L10.448 0H9.98842H9.52877L7.52118 1.84109Z" fill="#EA2F50"/>
</svg>
