<svg width="19" height="18" viewBox="0 0 19 18" fill="none" xmlns="http://www.w3.org/2000/svg">
<path d="M4.77286 7.54524C6.58028 7.54524 8.04548 6.08004 8.04548 4.27262C8.04548 2.4652 6.58028 1 4.77286 1C2.96545 1 1.50024 2.4652 1.50024 4.27262C1.50024 6.08004 2.96545 7.54524 4.77286 7.54524Z" stroke="currentColor" stroke-width="1.4" stroke-linecap="round" stroke-linejoin="round"/>
<path d="M14.2272 7.54524C16.0346 7.54524 17.4998 6.08004 17.4998 4.27262C17.4998 2.4652 16.0346 1 14.2272 1C12.4198 1 10.9546 2.4652 10.9546 4.27262C10.9546 6.08004 12.4198 7.54524 14.2272 7.54524Z" stroke="currentColor" stroke-width="1.4" stroke-linecap="round" stroke-linejoin="round"/>
<path d="M4.77286 16.9998C6.58028 16.9998 8.04548 15.5346 8.04548 13.7272C8.04548 11.9198 6.58028 10.4546 4.77286 10.4546C2.96545 10.4546 1.50024 11.9198 1.50024 13.7272C1.50024 15.5346 2.96545 16.9998 4.77286 16.9998Z" stroke="currentColor" stroke-width="1.4" stroke-linecap="round" stroke-linejoin="round"/>
<path d="M14.2271 11.1819V16.2726" stroke="currentColor" stroke-width="1.4" stroke-linecap="round" stroke-linejoin="round"/>
<path d="M16.7724 13.7253H11.6816" stroke="currentColor" stroke-width="1.4" stroke-linecap="round" stroke-linejoin="round"/>
</svg>
