<svg width="17" height="17" viewBox="0 0 18 18" fill="none" xmlns="http://www.w3.org/2000/svg">
<path d="M9.515 2.019C9.34363 2.00635 9.17184 2.00001 9 2V1C9.19654 1.0001 9.393 1.00743 9.589 1.022L9.515 2.019ZM11.519 2.469C11.1984 2.3453 10.8692 2.24537 10.534 2.17L10.753 1.194C11.136 1.28 11.513 1.394 11.879 1.536L11.519 2.469ZM12.889 3.179C12.746 3.08365 12.5996 2.99359 12.45 2.909L12.943 2.039C13.2849 2.23274 13.6121 2.45132 13.922 2.693L13.307 3.482C13.1714 3.37623 13.032 3.2755 12.889 3.18V3.179ZM14.723 4.969C14.5252 4.68798 14.3069 4.42192 14.07 4.173L14.794 3.483C15.064 3.768 15.314 4.073 15.541 4.393L14.723 4.969ZM15.467 6.321C15.4014 6.16246 15.33 6.00636 15.253 5.853L16.146 5.403C16.3226 5.75409 16.473 6.11774 16.596 6.491L15.646 6.804C15.5923 6.64087 15.5326 6.47976 15.467 6.321ZM15.997 8.828C15.9889 8.48434 15.9555 8.14174 15.897 7.803L16.882 7.633C16.949 8.019 16.988 8.411 16.998 8.803L15.998 8.828H15.997ZM15.866 10.366C15.899 10.196 15.926 10.027 15.947 9.856L16.94 9.979C16.892 10.3692 16.8151 10.7552 16.71 11.134L15.746 10.867C15.792 10.702 15.832 10.535 15.866 10.366ZM14.914 12.745C15.098 12.455 15.26 12.151 15.4 11.837L16.314 12.242C16.154 12.602 15.969 12.948 15.759 13.28L14.914 12.745ZM13.95 13.95C14.072 13.828 14.189 13.702 14.3 13.572L15.058 14.225C14.9296 14.3738 14.7959 14.5179 14.657 14.657L13.95 13.95Z" fill="currentColor" stroke="currentColor" stroke-width="0.4"/>
<path d="M8.99922 2C7.8481 2.00008 6.71476 2.28405 5.6996 2.82674C4.68443 3.36943 3.81876 4.1541 3.17927 5.11125C2.53979 6.0684 2.14621 7.16848 2.03341 8.31406C1.92061 9.45964 2.09207 10.6154 2.53259 11.6789C2.97312 12.7423 3.66912 13.6808 4.55894 14.4111C5.44877 15.1413 6.50495 15.6409 7.63395 15.8655C8.76295 16.0901 9.92991 16.0328 11.0315 15.6987C12.133 15.3645 13.1352 14.7639 13.9492 13.95L14.6562 14.657C13.726 15.5878 12.5805 16.2747 11.3213 16.657C10.062 17.0393 8.72799 17.105 7.43728 16.8485C6.14658 16.5919 4.93907 16.021 3.92177 15.1862C2.90446 14.3515 2.10875 13.2787 1.60515 12.0629C1.10155 10.8471 0.905604 9.52588 1.03467 8.21627C1.16374 6.90666 1.61384 5.6491 2.34509 4.55502C3.07633 3.46094 4.06615 2.56411 5.22684 1.944C6.38754 1.3239 7.68326 0.999651 8.99922 1V2Z" fill="currentColor" stroke="currentColor" stroke-width="0.4"/>
<path d="M8.5 4C8.63261 4 8.75979 4.05268 8.85355 4.14645C8.94732 4.24021 9 4.36739 9 4.5V9.71L12.248 11.566C12.3598 11.6334 12.4408 11.7419 12.4736 11.8683C12.5065 11.9946 12.4886 12.1288 12.4238 12.2422C12.3591 12.3556 12.2525 12.4391 12.127 12.4749C12.0014 12.5108 11.8669 12.4961 11.752 12.434L8.252 10.434C8.17547 10.3903 8.11186 10.3271 8.06761 10.2509C8.02335 10.1747 8.00003 10.0881 8 10V4.5C8 4.36739 8.05268 4.24021 8.14645 4.14645C8.24021 4.05268 8.36739 4 8.5 4Z" fill="currentColor" stroke="currentColor" stroke-width="0.4"/>
</svg>
