<svg width="20" height="24" viewBox="0 0 20 24" fill="none" xmlns="http://www.w3.org/2000/svg">
<path d="M1 11.1543H18.7692" stroke="#1491ED" stroke-width="2" stroke-linecap="round" stroke-linejoin="round"/>
<path d="M4 21V23" stroke="#1491ED" stroke-width="2" stroke-linecap="round" stroke-linejoin="round"/>
<path d="M15 21V23" stroke="#1491ED" stroke-width="2" stroke-linecap="round" stroke-linejoin="round"/>
<path d="M16.2308 1H3.53846C2.13651 1 1 2.13651 1 3.53846V17.0769C1 18.4789 2.13651 19.6154 3.53846 19.6154H16.2308C17.6327 19.6154 18.7692 18.4789 18.7692 17.0769V3.53846C18.7692 2.13651 17.6327 1 16.2308 1Z" stroke="#1491ED" stroke-width="2" stroke-linecap="round" stroke-linejoin="round"/>
<path d="M5.23114 17.0775C5.93212 17.0775 6.50038 16.5093 6.50038 15.8083C6.50038 15.1073 5.93212 14.5391 5.23114 14.5391C4.53017 14.5391 3.96191 15.1073 3.96191 15.8083C3.96191 16.5093 4.53017 17.0775 5.23114 17.0775Z" fill="#1491ED"/>
<path d="M14.5388 17.0775C15.2397 17.0775 15.808 16.5093 15.808 15.8083C15.808 15.1073 15.2397 14.5391 14.5388 14.5391C13.8378 14.5391 13.2695 15.1073 13.2695 15.8083C13.2695 16.5093 13.8378 17.0775 14.5388 17.0775Z" fill="#1491ED"/>
</svg>
