<svg width="24" height="24" viewBox="0 0 24 24" fill="none" xmlns="http://www.w3.org/2000/svg">
<path fill-rule="evenodd" clip-rule="evenodd" d="M2.27234 3.01889C2.0032 3.07415 1.77177 3.23873 1.62525 3.47899C1.51748 3.65579 1.50045 3.80442 1.50026 4.57049C1.5 5.56548 1.56295 5.79198 1.9081 6.03826C2.07517 6.15744 2.2197 6.18638 2.78073 6.21308L3.45311 6.2451L3.48589 16.444L2.85955 16.4691C2.15048 16.4976 1.88902 16.605 1.64427 16.9681C1.50448 17.1756 1.5 17.2301 1.5 18.7322C1.5 20.2341 1.50448 20.2887 1.64408 20.4938C1.72336 20.6102 1.86949 20.7658 1.96894 20.8395L2.14971 20.9734L11.8946 20.991C22.7563 21.0105 22.0037 21.0406 22.3609 20.5726L22.5359 20.3434L22.5554 18.8677C22.5781 17.1452 22.5389 16.9528 22.1069 16.6669C21.8915 16.5244 21.7628 16.4935 21.2896 16.4709L20.728 16.444L20.6944 15.5389C20.6561 14.5088 20.542 13.8858 20.2236 12.9689C19.8849 11.9936 19.8766 12.0898 20.3173 11.8996C20.6298 11.7648 20.7088 11.7505 20.7369 11.8239C20.7829 11.9435 21.0813 12.0534 21.2312 12.0058C21.6073 11.8864 21.6269 11.6176 21.311 10.907C21.1199 10.4769 21.0434 10.3699 20.888 10.3158C20.5711 10.2053 20.3294 10.3837 20.3276 10.7294C20.3267 10.9057 20.2903 10.9392 19.9264 11.0976C19.7063 11.1935 19.5069 11.2719 19.4834 11.2719C19.4599 11.2719 19.3781 11.1708 19.3016 11.0471C19.2252 10.9234 19.0627 10.7026 18.9406 10.5565L18.7186 10.2907L19.0534 9.95159C19.375 9.62596 19.399 9.61399 19.6577 9.6494C19.8775 9.67956 19.9521 9.66137 20.0628 9.55065C20.2885 9.32499 20.2366 9.12513 19.8461 8.71568C19.3914 8.23893 19.1404 8.09985 18.9007 8.19187C18.6693 8.28075 18.5662 8.54387 18.6672 8.78766C18.738 8.95864 18.724 8.98918 18.4299 9.30424L18.1174 9.63902L16.9404 8.75577L17.1243 8.39141C17.2946 8.05406 17.3224 8.02909 17.4984 8.05489C17.774 8.09537 17.9708 7.88174 17.945 7.5702C17.9263 7.34537 17.9 7.3204 17.413 7.06374C16.7433 6.71084 16.4717 6.70309 16.2984 7.03198C16.2144 7.19137 16.2543 7.40108 16.4003 7.56758C16.4821 7.66094 16.4735 7.71185 16.3276 7.99982C16.2366 8.17938 16.1513 8.32628 16.138 8.32628C16.1247 8.32628 15.8298 8.21422 15.4827 8.07724C14.0375 7.507 13.0692 7.36663 10.5771 7.36612L8.67206 7.36574L8.67194 5.55671C8.67187 3.56691 8.65362 3.45946 8.26723 3.17591C8.09266 3.04777 7.99149 3.0422 5.2759 3.01127C3.73 2.99366 2.37845 2.99705 2.27234 3.01889ZM7.57544 3.88376L7.77556 3.92379V5.92428C7.77556 7.8512 7.78042 7.93098 7.9083 8.09351L8.04099 8.26224L10.2296 8.26263C12.534 8.26301 13.1496 8.31322 14.2112 8.58736C14.9388 8.77524 15.817 9.15113 16.463 9.55117C17.1067 9.94979 18.1309 10.9201 18.5157 11.4961C19.3589 12.7581 19.8144 14.2779 19.8144 15.8298V16.5229H12.098C5.96736 16.5229 4.3817 16.5065 4.38208 16.4429C4.39694 13.7071 4.33463 5.63874 4.29807 5.56536C4.20291 5.37453 3.93831 5.31658 3.16193 5.31658H2.39651V4.61749C2.39651 4.1182 2.41937 3.90925 2.47655 3.88613C2.59374 3.83887 7.33979 3.83663 7.57544 3.88376ZM21.6394 20.0769H2.42853L2.39388 17.4199L11.3763 17.4024C16.3166 17.3928 20.6468 17.3855 20.999 17.3861L21.6394 17.3874V20.0769Z" fill="white" stroke="white" stroke-width="0.4"/>
</svg>
