<svg width="20" height="21" viewBox="0 0 20 21" fill="none" xmlns="http://www.w3.org/2000/svg">
<path d="M8 18.5397L8 2.4193C8 1.97415 7.59299 1.61328 7.09091 1.61328L2.54545 1.61328C2.04338 1.61328 1.63636 1.97415 1.63636 2.4193L1.63636 18.5397C1.63636 18.9848 2.04338 19.3457 2.54545 19.3457H7.09091C7.59299 19.3457 8 18.9848 8 18.5397Z" stroke="#1491ED" stroke-width="2" stroke-linecap="round" stroke-linejoin="round"/>
<path d="M19 18.5397V2.4193C19 1.97415 18.593 1.61328 18.0909 1.61328L13.5455 1.61328C13.0434 1.61328 12.6364 1.97415 12.6364 2.4193V18.5397C12.6364 18.9848 13.0434 19.3457 13.5455 19.3457H18.0909C18.593 19.3457 19 18.9848 19 18.5397Z" stroke="#1491ED" stroke-width="2" stroke-linecap="round" stroke-linejoin="round"/>
</svg>
