<svg width="22" height="22" viewBox="0 0 22 22" fill="none" xmlns="http://www.w3.org/2000/svg">
<path d="M13.4156 7.26928V7.96928H14.8156V7.26928H13.4156ZM12.4809 4V3.3V4ZM4.63464 4V3.3V4ZM3 5.63464H2.3H3ZM14.8156 13.8078V13.1078H13.4156V13.8078H14.8156ZM14.8156 7.26928V5.63464H13.4156V7.26928H14.8156ZM14.8156 5.63464C14.8156 5.01546 14.5696 4.42163 14.1318 3.9838L13.1418 4.97375C13.3171 5.14903 13.4156 5.38676 13.4156 5.63464H14.8156ZM14.1318 3.9838C13.6939 3.54597 13.1001 3.3 12.4809 3.3V4.7C12.7288 4.7 12.9665 4.79847 13.1418 4.97375L14.1318 3.9838ZM12.4809 3.3H4.63464V4.7H12.4809V3.3ZM4.63464 3.3C4.01546 3.3 3.42163 3.54597 2.9838 3.9838L3.97375 4.97375C4.14903 4.79847 4.38676 4.7 4.63464 4.7V3.3ZM2.9838 3.9838C2.54597 4.42163 2.3 5.01546 2.3 5.63464L3.7 5.63464C3.7 5.38676 3.79847 5.14903 3.97375 4.97375L2.9838 3.9838ZM2.3 5.63464V15.4425H3.7V5.63464H2.3ZM2.3 15.4425C2.3 16.0617 2.54597 16.6555 2.9838 17.0933L3.97375 16.1034C3.79847 15.9281 3.7 15.6904 3.7 15.4425H2.3ZM2.9838 17.0933C3.42163 17.5312 4.01546 17.7771 4.63464 17.7771V16.3771C4.38676 16.3771 4.14903 16.2787 3.97375 16.1034L2.9838 17.0933ZM4.63464 17.7771H12.4809V16.3771H4.63464V17.7771ZM12.4809 17.7771C13.1001 17.7771 13.6939 17.5312 14.1318 17.0933L13.1418 16.1034C12.9665 16.2787 12.7288 16.3771 12.4809 16.3771V17.7771ZM14.1318 17.0933C14.5696 16.6555 14.8156 16.0617 14.8156 15.4425H13.4156C13.4156 15.6904 13.3171 15.9281 13.1418 16.1034L14.1318 17.0933ZM14.8156 15.4425V13.8078H13.4156V15.4425H14.8156Z" fill="#EA2F50"/>
<path d="M16.7266 7.26953L19.9958 10.5388L16.7266 13.8081" stroke="#EA2F50" stroke-width="1.4" stroke-linecap="round" stroke-linejoin="round"/>
<path d="M8.84375 10.5312H20.0002" stroke="#EA2F50" stroke-width="1.4" stroke-linecap="round" stroke-linejoin="round"/>
</svg>
