<svg width="21" height="20" viewBox="0 0 14 15" fill="none" xmlns="http://www.w3.org/2000/svg">
<path d="M1.61719 7.49985C1.61719 10.4737 4.02796 12.8845 7.0018 12.8845C9.97564 12.8845 12.3864 10.4737 12.3864 7.49985C12.3864 4.52601 9.97564 2.11523 7.0018 2.11523C4.02796 2.11523 1.61719 4.52601 1.61719 7.49985Z" fill="white"/>
<path d="M7 0.5C5.61553 0.5 4.26215 0.910543 3.11101 1.67971C1.95987 2.44888 1.06266 3.54213 0.532846 4.82122C0.00303299 6.1003 -0.13559 7.50776 0.134506 8.86563C0.404603 10.2235 1.07129 11.4708 2.05026 12.4497C3.02922 13.4287 4.2765 14.0954 5.63437 14.3655C6.99224 14.6356 8.3997 14.497 9.67879 13.9672C10.9579 13.4373 12.0511 12.5401 12.8203 11.389C13.5895 10.2378 14 8.88447 14 7.5C13.9979 5.64414 13.2597 3.86491 11.9474 2.55262C10.6351 1.24033 8.85586 0.502145 7 0.5V0.5ZM10.3338 6.27426L6.38477 10.0435C6.28436 10.139 6.15107 10.1923 6.01247 10.1923C5.87388 10.1923 5.74059 10.139 5.64018 10.0435L3.66617 8.15888C3.56304 8.06009 3.50334 7.92441 3.50018 7.78163C3.49701 7.63885 3.55065 7.50066 3.64931 7.39741C3.74797 7.29415 3.88357 7.23428 4.02635 7.23093C4.16912 7.22759 4.30738 7.28106 4.41076 7.37958L6.01247 8.90925L9.58924 5.49497C9.69262 5.39644 9.83089 5.34298 9.97366 5.34632C10.1164 5.34966 10.252 5.40954 10.3507 5.51279C10.4494 5.61605 10.503 5.75424 10.4998 5.89702C10.4967 6.03979 10.437 6.17547 10.3338 6.27426V6.27426Z" fill="#0F8BFF"/>
</svg>
