<svg  viewBox="0 0 18 18" fill="currentColor" xmlns="http://www.w3.org/2000/svg">
<path d="M7.14242 8.45213C6.99139 8.30109 6.78654 8.21624 6.57294 8.21624C6.35935 8.21624 6.1545 8.30109 6.00346 8.45213C5.85243 8.60316 5.76758 8.80801 5.76758 9.02161C5.76758 9.2352 5.85243 9.44005 6.00346 9.59108L8.40971 11.9973C8.48466 12.0717 8.57354 12.1305 8.67127 12.1704C8.76899 12.2103 8.87363 12.2305 8.97919 12.2299C9.089 12.2265 9.19692 12.2005 9.29626 12.1535C9.3956 12.1066 9.48424 12.0398 9.55669 11.9572L15.1713 5.54056C15.3009 5.37961 15.3634 5.17482 15.3458 4.96891C15.3281 4.76299 15.2316 4.57183 15.0765 4.4353C14.9213 4.29877 14.7195 4.22739 14.513 4.23606C14.3065 4.24472 14.1113 4.33276 13.9682 4.48181L8.97919 10.2568L7.14242 8.45213Z" fill="#263B50"/>
<path d="M16.1979 8.21875C15.9852 8.21875 15.7812 8.30325 15.6308 8.45367C15.4803 8.60409 15.3958 8.80811 15.3958 9.02083C15.3958 10.7226 14.7198 12.3547 13.5164 13.5581C12.3131 14.7615 10.681 15.4375 8.97917 15.4375C7.71195 15.4369 6.47327 15.0611 5.41933 14.3575C4.36539 13.6539 3.54339 12.654 3.05697 11.4838C2.57055 10.3137 2.4415 9.02572 2.68609 7.78233C2.93069 6.53894 3.53797 5.3958 4.43136 4.49708C5.02546 3.89503 5.73368 3.41751 6.51457 3.09249C7.29546 2.76746 8.13334 2.60145 8.97917 2.60417C9.49206 2.60738 10.0031 2.66655 10.5031 2.78062C10.6078 2.81299 10.7179 2.82358 10.8268 2.81174C10.9357 2.79991 11.041 2.76589 11.1363 2.71179C11.2315 2.65769 11.3147 2.58465 11.3806 2.49719C11.4466 2.40972 11.4939 2.30967 11.5197 2.20322C11.5455 2.09676 11.5492 1.98615 11.5306 1.8782C11.512 1.77025 11.4715 1.66726 11.4116 1.57557C11.3516 1.48388 11.2736 1.40543 11.1822 1.34507C11.0908 1.2847 10.988 1.2437 10.8801 1.22458C10.257 1.078 9.61927 1.00265 8.97917 1C7.39452 1.00823 5.84782 1.48568 4.53426 2.37209C3.2207 3.25849 2.19914 4.51414 1.59849 5.98056C0.997852 7.44698 0.845049 9.05847 1.15937 10.6116C1.47368 12.1648 2.24104 13.5901 3.36459 14.7076C4.85381 16.1975 6.87262 17.0367 8.97917 17.0417C11.1064 17.0417 13.1466 16.1966 14.6508 14.6924C16.155 13.1882 17 11.1481 17 9.02083C17 8.80811 16.9155 8.60409 16.7651 8.45367C16.6147 8.30325 16.4106 8.21875 16.1979 8.21875Z" fill="#263B50"/>
</svg>
