<svg width="24" height="24" viewBox="0 0 24 24" fill="none" xmlns="http://www.w3.org/2000/svg">
<path d="M4.875 2.25V21.75C4.87545 22.1477 5.03363 22.529 5.31483 22.8102C5.59604 23.0914 5.97731 23.2496 6.375 23.25H18C18.3977 23.2496 18.779 23.0914 19.0602 22.8102C19.3414 22.529 19.4996 22.1477 19.5 21.75V2.25C19.4996 1.85231 19.3414 1.47104 19.0602 1.18983C18.779 0.908625 18.3977 0.750447 18 0.75H6.375C5.97731 0.750447 5.59604 0.908625 5.31483 1.18983C5.03363 1.47104 4.87545 1.85231 4.875 2.25ZM18.001 21.75H6.375V2.25H18L18.001 21.75Z" fill="#0F8BFF"/>
<path d="M10.125 3.75H14.625V5.25H10.125V3.75ZM11.625 18.375H13.125V19.875H11.625V18.375Z" fill="#0F8BFF"/>
</svg>
