<svg width="24" height="24" viewBox="0 0 24 24" fill="none" xmlns="http://www.w3.org/2000/svg">
<g clip-path="url(#clip0_12636_278137)">
<path d="M6.40065 15.2533V7.06667H16.2673L17.3207 6H5.33398V15.2533H6.40065Z" fill="#0F8BFF"/>
<path d="M3.99935 4.66634H19.9993V15.333H21.3327V4.33301C21.3327 4.06779 21.2273 3.81344 21.0398 3.6259C20.8523 3.43836 20.5979 3.33301 20.3327 3.33301H3.66602C3.4008 3.33301 3.14645 3.43836 2.95891 3.6259C2.77137 3.81344 2.66602 4.06779 2.66602 4.33301V15.333H3.99935V4.66634Z" fill="#0F8BFF"/>
<path d="M0.666016 16.667V18.9337C0.666016 19.3934 0.848634 19.8342 1.1737 20.1593C1.49876 20.4844 1.93964 20.667 2.39935 20.667H21.5593C22.0191 20.667 22.4599 20.4844 22.785 20.1593C23.1101 19.8342 23.2927 19.3934 23.2927 18.9337V16.667H0.666016ZM21.9993 18.9337C21.9993 19.0397 21.9572 19.1415 21.8822 19.2165C21.8072 19.2915 21.7054 19.3337 21.5993 19.3337H2.37268C2.2666 19.3337 2.16485 19.2915 2.08984 19.2165C2.01483 19.1415 1.97268 19.0397 1.97268 18.9337V17.687H8.60602C8.68936 17.8836 8.82848 18.0516 9.0062 18.1701C9.18391 18.2885 9.39243 18.3524 9.60602 18.3537H14.3594C14.5729 18.3524 14.7815 18.2885 14.9592 18.1701C15.1369 18.0516 15.276 17.8836 15.3594 17.687H21.9993V18.9337Z" fill="#0F8BFF"/>
</g>
<defs>
<clipPath id="clip0_12636_278137">
<rect width="24" height="24" fill="white"/>
</clipPath>
</defs>
</svg>
