<svg width="16" height="16" viewBox="0 0 16 16" fill="none" xmlns="http://www.w3.org/2000/svg">
<path d="M8 0.125C10.0886 0.125 12.0916 0.954685 13.5685 2.43153C15.0453 3.90838 15.875 5.91142 15.875 8C15.875 10.0886 15.0453 12.0916 13.5685 13.5685C12.0916 15.0453 10.0886 15.875 8 15.875C5.91142 15.875 3.90838 15.0453 2.43153 13.5685C0.954685 12.0916 0.125 10.0886 0.125 8C0.125 5.91142 0.954685 3.90838 2.43153 2.43153C3.90838 0.954685 5.91142 0.125 8 0.125ZM8 7.04488L6.17075 5.21563C6.04409 5.08897 5.87231 5.01781 5.69319 5.01781C5.51407 5.01781 5.34228 5.08897 5.21563 5.21563C5.08897 5.34228 5.01781 5.51407 5.01781 5.69319C5.01781 5.87231 5.08897 6.04409 5.21563 6.17075L7.04488 8L5.21563 9.82925C5.15291 9.89196 5.10316 9.96642 5.06922 10.0484C5.03528 10.1303 5.01781 10.2181 5.01781 10.3068C5.01781 10.3955 5.03528 10.4833 5.06922 10.5653C5.10316 10.6472 5.15291 10.7217 5.21563 10.7844C5.27834 10.8471 5.35279 10.8968 5.43473 10.9308C5.51667 10.9647 5.6045 10.9822 5.69319 10.9822C5.78188 10.9822 5.8697 10.9647 5.95164 10.9308C6.03358 10.8968 6.10804 10.8471 6.17075 10.7844L8 8.95512L9.82925 10.7844C9.89196 10.8471 9.96642 10.8968 10.0484 10.9308C10.1303 10.9647 10.2181 10.9822 10.3068 10.9822C10.3955 10.9822 10.4833 10.9647 10.5653 10.9308C10.6472 10.8968 10.7217 10.8471 10.7844 10.7844C10.8471 10.7217 10.8968 10.6472 10.9308 10.5653C10.9647 10.4833 10.9822 10.3955 10.9822 10.3068C10.9822 10.2181 10.9647 10.1303 10.9308 10.0484C10.8968 9.96642 10.8471 9.89196 10.7844 9.82925L8.95512 8L10.7844 6.17075C10.8471 6.10804 10.8968 6.03358 10.9308 5.95164C10.9647 5.8697 10.9822 5.78188 10.9822 5.69319C10.9822 5.6045 10.9647 5.51667 10.9308 5.43473C10.8968 5.35279 10.8471 5.27834 10.7844 5.21563C10.7217 5.15291 10.6472 5.10316 10.5653 5.06922C10.4833 5.03528 10.3955 5.01781 10.3068 5.01781C10.2181 5.01781 10.1303 5.03528 10.0484 5.06922C9.96642 5.10316 9.89196 5.15291 9.82925 5.21563L8 7.04488Z" fill="#B4B8BB"/>
</svg>
