<svg width="408" height="409" viewBox="0 0 408 409" fill="none" xmlns="http://www.w3.org/2000/svg">
<path d="M365.883 28.2349H132.985V348.343H365.883V28.2349Z" fill="#F5F5F5"/>
<path d="M365.883 28.2349H132.985V45.6358H365.883V28.2349Z" fill="#E0E0E0"/>
<path d="M143.543 36.9351C143.541 37.3974 143.402 37.8488 143.144 38.2323C142.885 38.6158 142.519 38.9141 142.092 39.0897C141.664 39.2653 141.194 39.3102 140.741 39.2189C140.287 39.1275 139.871 38.9039 139.545 38.5762C139.219 38.2486 138.997 37.8317 138.908 37.3781C138.818 36.9245 138.865 36.4546 139.042 36.0276C139.22 35.6006 139.52 35.2358 139.904 34.9791C140.289 34.7224 140.741 34.5855 141.203 34.5854C141.511 34.5854 141.816 34.6463 142.101 34.7645C142.385 34.8827 142.644 35.0559 142.861 35.2742C143.078 35.4925 143.251 35.7516 143.368 36.0367C143.485 36.3217 143.544 36.627 143.543 36.9351Z" fill="#F5F5F5"/>
<path d="M161.072 36.4332C161.07 36.8947 160.932 37.3453 160.674 37.7284C160.417 38.1114 160.052 38.4098 159.625 38.5859C159.199 38.7621 158.73 38.8082 158.277 38.7183C157.824 38.6285 157.408 38.4069 157.081 38.0812C156.754 37.7556 156.531 37.3405 156.439 36.8882C156.348 36.4359 156.392 35.9665 156.566 35.5393C156.74 35.112 157.037 34.7458 157.419 34.4867C157.801 34.2277 158.251 34.0875 158.713 34.0836C159.022 34.081 159.33 34.1399 159.616 34.2569C159.903 34.374 160.164 34.5468 160.383 34.7654C160.603 34.9839 160.777 35.2439 160.895 35.5302C161.013 35.8165 161.073 36.1234 161.072 36.4332Z" fill="#F5F5F5"/>
<path d="M152.735 36.4331C152.733 36.8955 152.594 37.3469 152.336 37.7303C152.078 38.1138 151.712 38.4122 151.284 38.5878C150.856 38.7634 150.386 38.8083 149.933 38.7169C149.48 38.6255 149.064 38.4019 148.737 38.0743C148.411 37.7467 148.189 37.3298 148.1 36.8762C148.01 36.4225 148.057 35.9526 148.235 35.5256C148.412 35.0987 148.712 34.7338 149.097 34.4772C149.481 34.2205 149.933 34.0835 150.395 34.0835C150.704 34.0835 151.009 34.1443 151.293 34.2625C151.578 34.3807 151.836 34.554 152.053 34.7723C152.271 34.9906 152.443 35.2497 152.56 35.5347C152.677 35.8197 152.737 36.125 152.735 36.4331Z" fill="#F5F5F5"/>
<path d="M390.951 61.4336C390.951 61.4336 381.67 57.5897 375.447 79.1983C369.224 100.807 367.632 112.899 367.632 112.899C367.632 112.899 365.774 117.53 362.421 115.386C359.069 113.243 353.711 106.342 349.169 108.652C344.45 111.041 343.88 116.93 346.416 124.932C348.953 132.935 353.868 150.67 354.281 152.272C354.694 153.875 354.281 156.382 351.735 155.291C349.189 154.199 333.675 142.422 328.534 150.139C323.392 157.856 334.118 178.974 335.248 181.313C336.379 183.653 336.094 184.784 335.042 185.619C333.99 186.455 329.143 182.001 324.582 178.836C320.02 175.67 314.19 172.8 311.595 177.499C308.999 182.198 311.162 199.186 332.407 223.361L342.995 233.919L357.545 230.252C388.218 220.51 398.835 207.08 399.052 201.742C399.268 196.404 392.77 195.844 387.254 196.188C381.739 196.532 375.27 197.849 374.798 196.601C374.327 195.352 374.68 194.221 376.853 192.806C379.026 191.39 399.12 178.826 398.688 169.565C398.255 160.304 378.878 162.369 376.155 162.005C373.432 161.641 374.346 159.233 375.526 158.073C376.706 156.913 390.086 144.26 396.387 138.715C402.689 133.171 405.235 127.842 402.443 123.35C399.74 119.034 391.629 122.17 387.618 122.278C383.607 122.386 384.443 117.461 384.443 117.461C384.443 117.461 389.299 106.283 395.129 84.5661C400.959 62.8493 390.725 61.3648 390.725 61.3648" fill="#EBEBEB"/>
<path d="M385.348 80.7915C385.348 80.7915 385.348 80.9488 385.249 81.2536C385.151 81.5583 385.053 82.0204 384.915 82.5906C384.6 83.7998 384.158 85.5399 383.578 87.7421C382.418 92.2152 380.688 98.6742 378.515 106.637C374.17 122.573 367.996 144.546 361.085 168.779C354.173 193.013 347.94 214.985 343.517 230.882L338.296 249.728C337.677 251.94 337.195 253.66 336.871 254.85C336.704 255.42 336.576 255.833 336.487 256.187L336.34 256.629C336.34 256.629 336.34 256.472 336.428 256.167C336.517 255.863 336.625 255.401 336.763 254.83C337.077 253.631 337.529 251.881 338.1 249.679C339.26 245.206 341 238.757 343.172 230.784C347.508 214.848 353.692 192.885 360.593 168.642C367.494 144.398 373.737 122.436 378.161 106.539L383.391 87.6732C384.001 85.4612 384.482 83.7408 384.817 82.5513C384.974 81.9811 385.102 81.5387 385.2 81.2241C385.289 80.9291 385.348 80.7915 385.348 80.7915Z" fill="#E0E0E0"/>
<path d="M356.316 118.592C356.546 118.873 356.738 119.184 356.887 119.516C357.231 120.125 357.693 121.01 358.263 122.121C359.384 124.333 360.849 127.44 362.412 130.89L366.344 139.738L367.553 142.422C367.73 142.73 367.862 143.061 367.947 143.405C367.726 143.12 367.535 142.814 367.376 142.491C367.032 141.882 366.57 140.987 366.02 139.876C364.919 137.644 363.483 134.528 361.93 131.028L357.929 122.18C357.447 121.128 357.034 120.214 356.7 119.506C356.541 119.215 356.413 118.909 356.316 118.592Z" fill="#E0E0E0"/>
<path d="M369.313 143.425C369.244 143.297 375.507 139.984 383.283 136.022C391.059 132.061 397.42 128.944 397.489 129.072C397.558 129.2 391.295 132.513 383.519 136.475C375.743 140.437 369.372 143.553 369.313 143.425Z" fill="#E0E0E0"/>
<path d="M357.024 180.163C357.37 180.033 357.73 179.944 358.096 179.897L361.045 179.337C363.523 178.855 366.944 178.177 370.709 177.302C374.475 176.427 377.856 175.523 380.294 174.854L383.185 174.058C383.536 173.943 383.899 173.864 384.266 173.822C383.958 174.005 383.628 174.147 383.283 174.245C382.615 174.49 381.641 174.815 380.432 175.228C378.014 175.994 374.642 176.948 370.866 177.823C367.091 178.698 363.651 179.327 361.144 179.72C359.885 179.907 358.873 180.045 358.194 180.123C357.808 180.191 357.414 180.204 357.024 180.163Z" fill="#E0E0E0"/>
<path d="M340.292 160.305C340.562 160.515 340.809 160.752 341.029 161.013C341.482 161.485 342.121 162.183 342.907 163.058C344.47 164.798 346.604 167.226 348.943 169.94C351.283 172.653 353.377 175.111 354.842 176.91C355.589 177.814 356.189 178.552 356.592 179.063C356.827 179.312 357.026 179.593 357.182 179.898C356.909 179.692 356.662 179.454 356.444 179.191C355.992 178.719 355.353 178.021 354.567 177.146C353.004 175.406 350.86 172.977 348.53 170.264C346.2 167.551 344.097 165.093 342.632 163.294C341.885 162.389 341.285 161.662 340.882 161.141C340.642 160.895 340.443 160.613 340.292 160.305Z" fill="#E0E0E0"/>
<path d="M325.319 191.371C325.662 191.642 325.975 191.949 326.253 192.285L328.672 194.891C330.687 197.112 333.45 200.199 336.478 203.64C339.506 207.081 342.229 210.198 344.175 212.488L346.466 215.211C346.762 215.532 347.025 215.881 347.252 216.253C346.894 215.984 346.564 215.677 346.269 215.339L343.861 212.734C341.845 210.512 339.083 207.415 336.055 203.984C333.027 200.553 330.304 197.427 328.357 195.136L326.067 192.413C325.783 192.092 325.533 191.743 325.319 191.371Z" fill="#E0E0E0"/>
<path d="M346.889 215.476C347.33 215.314 347.783 215.189 348.245 215.103L351.952 214.257C355.078 213.54 359.404 212.527 364.142 211.308C368.881 210.089 373.138 208.84 376.224 207.936L379.872 206.864C380.312 206.708 380.767 206.593 381.228 206.52C380.816 206.744 380.381 206.921 379.931 207.051C379.085 207.356 377.856 207.779 376.333 208.28C373.275 209.263 369.018 210.571 364.27 211.809C359.522 213.048 355.176 214.011 352.02 214.641C350.448 214.955 349.169 215.191 348.275 215.329C347.819 215.426 347.355 215.475 346.889 215.476Z" fill="#E0E0E0"/>
<path d="M72.4948 25.3548C73.8099 24.6573 75.2522 24.2325 76.7354 24.1058C78.2186 23.9791 79.7121 24.1531 81.1264 24.6174C83.953 25.5637 86.5256 27.1442 88.6472 29.238C92.8548 33.1704 95.5289 39.1969 97.1412 44.7219C90.9083 46.0884 84.3608 42.6181 81.1559 40.6519C76.0831 37.5354 68.8081 28.8546 72.4948 25.3548Z" fill="#EBEBEB"/>
<path d="M108.034 45.832C106.534 45.1214 105.248 44.027 104.307 42.6597C103.366 41.2924 102.803 39.7007 102.676 38.0458C102.57 36.3857 102.797 34.7213 103.342 33.1497C103.887 31.5782 104.74 30.1311 105.851 28.8931C106.306 28.2635 106.894 27.7423 107.574 27.3667C108.254 26.9911 109.008 26.7704 109.783 26.7205C110.5 26.7828 111.186 27.0365 111.771 27.4551C112.355 27.8736 112.817 28.4416 113.106 29.0996C113.674 30.4248 113.88 31.8763 113.706 33.3073C113.323 38.2228 112.054 42.8925 108.112 45.832" fill="#EBEBEB"/>
<path d="M117.806 61.5025C117.806 61.5025 117.481 61.237 116.97 60.6767C116.459 60.1163 115.722 59.3003 114.856 58.2582C112.558 55.5486 110.634 52.543 109.135 49.3218C107.605 46.0739 106.967 42.477 107.287 38.9009C107.408 37.8248 107.652 36.766 108.014 35.7452C108.133 35.3672 108.301 35.0068 108.515 34.6736C108.104 36.0647 107.815 37.4891 107.65 38.9304C107.446 42.4331 108.122 45.9311 109.616 49.1055C111.104 52.2905 112.965 55.2871 115.161 58.0321L117.127 60.5489C117.388 60.8405 117.616 61.1604 117.806 61.5025Z" fill="#E0E0E0"/>
<path d="M78.6187 31.4893C78.7751 31.5539 78.9236 31.6364 79.0611 31.735L80.2801 32.5215C81.3321 33.2097 82.8362 34.2419 84.6844 35.5298C88.3711 38.1055 93.3947 41.7824 98.8313 45.9802C104.268 50.1781 109.115 54.0908 112.595 56.9516L116.684 60.363L117.786 61.3461C117.919 61.4474 118.038 61.5665 118.139 61.7C117.987 61.6268 117.845 61.5343 117.717 61.4248L116.557 60.5498L112.359 57.1974C108.829 54.4054 103.953 50.5418 98.5265 46.3833C93.0998 42.2248 88.1056 38.5185 84.4682 35.8247L80.1622 32.6886L79.0021 31.8235C78.7367 31.6367 78.6089 31.5089 78.6187 31.4893Z" fill="#E0E0E0"/>
<path d="M105.93 54.9066C102.846 53.2321 99.408 52.3159 95.9 52.2338C92.392 52.1518 88.9149 52.9062 85.7563 54.4347C84.1637 55.2212 82.4728 56.568 82.6006 58.3671C82.7284 60.1662 84.5668 61.2378 86.3167 61.749C89.9015 62.762 93.706 62.6911 97.2505 61.5451C100.795 60.3992 103.921 58.2295 106.234 55.3097" fill="#EBEBEB"/>
<path d="M90.5244 57.246C90.8271 57.0158 91.1574 56.8242 91.5075 56.6758C91.8965 56.4533 92.3045 56.2658 92.7266 56.1154C93.2761 55.8777 93.841 55.6774 94.4175 55.5157C95.1059 55.2937 95.8089 55.1196 96.5214 54.9947C97.3369 54.8347 98.1607 54.7198 98.9889 54.6506C100.894 54.5334 102.805 54.6224 104.691 54.916C106.569 55.2452 108.407 55.7691 110.177 56.4791C111.617 57.0637 112.999 57.7811 114.306 58.6223C114.813 58.9255 115.305 59.2536 115.78 59.6054C116.144 59.8625 116.492 60.1416 116.822 60.4411C117.129 60.6724 117.406 60.9398 117.648 61.2374C117.589 61.3259 116.36 60.2543 114.119 58.8878C111.197 57.1671 107.985 55.9944 104.642 55.4272C102.799 55.1361 100.931 55.0339 99.0676 55.1225C98.2539 55.1766 97.4434 55.2718 96.6393 55.4076C95.936 55.5157 95.24 55.6667 94.5551 55.8598C91.9991 56.548 90.5637 57.3541 90.5244 57.246Z" fill="#E0E0E0"/>
<path d="M388.759 396.26C388.759 396.407 301.793 396.515 194.537 396.515C87.2801 396.515 0.265625 396.368 0.265625 396.26C0.265625 396.152 87.2113 396.004 194.497 396.004C301.784 396.004 388.759 396.122 388.759 396.26Z" fill="#A8A8A8"/>
<path d="M46.5604 100.319C46.5604 100.319 46.7079 100.496 46.9536 100.85L48.0252 102.394L52.0756 108.292C52.0866 108.303 52.0953 108.316 52.1013 108.331C52.1072 108.345 52.1103 108.36 52.1103 108.376C52.1103 108.392 52.1072 108.407 52.1013 108.421C52.0953 108.436 52.0866 108.449 52.0756 108.46C52.0533 108.467 52.0291 108.467 52.0068 108.46H40.6519C40.6145 108.46 40.5784 108.445 40.551 108.42C40.5236 108.394 40.507 108.359 40.5045 108.322C40.4946 108.297 40.4946 108.269 40.5045 108.243L40.7601 108.46C37.6955 111.24 33.9742 113.195 29.9459 114.142C27.6573 114.679 25.301 114.868 22.9561 114.702C20.4376 114.576 17.9568 114.038 15.6123 113.11C13.1172 112.144 10.7936 110.783 8.73057 109.079C6.59609 107.3 4.78654 105.165 3.38248 102.767C0.441615 97.7829 -0.630258 91.9148 0.358547 86.2126C1.34735 80.5103 4.33235 75.3457 8.77972 71.6423C12.5772 68.4953 17.2352 66.5662 22.1457 66.1067C27.0562 65.6472 31.9912 66.6787 36.3066 69.0666C39.8561 71.0669 42.8527 73.9182 45.0268 77.364C46.81 80.2017 47.985 83.3786 48.4774 86.6937C48.5364 87.0574 48.5856 87.4113 48.6347 87.7652C48.6839 88.1192 48.6347 88.4731 48.7036 88.8073C48.7036 89.4955 48.7822 90.1542 48.7626 90.7735C48.7419 91.9234 48.6367 93.0701 48.4479 94.2046C48.1902 95.7737 47.7718 97.3121 47.1994 98.7957C47.0028 99.297 46.8357 99.6903 46.7177 99.9262C46.6641 100.06 46.5983 100.188 46.5211 100.31C46.5591 100.175 46.6084 100.043 46.6685 99.9164C46.7668 99.651 46.9241 99.2675 47.1011 98.7563C47.6251 97.268 48.0101 95.7344 48.2513 94.1751C48.4218 93.0491 48.5105 91.9123 48.5168 90.7735C48.5168 90.1444 48.4578 89.4955 48.4381 88.8073C48.4381 88.4731 48.4381 88.129 48.3595 87.7751L48.1923 86.7133C47.5365 82.5127 45.7779 78.5614 43.0959 75.2626C40.414 71.9638 36.9048 69.4357 32.9265 67.9363C28.9482 66.437 24.6433 66.0201 20.4512 66.7281C16.2591 67.4362 12.33 69.2439 9.06482 71.9668C4.88328 75.5075 2.02154 80.3579 0.944387 85.7302C-0.170601 91.4613 0.839368 97.4023 3.78556 102.443C5.17071 104.837 6.96407 106.969 9.08448 108.745C11.1006 110.402 13.367 111.73 15.7991 112.677C18.1079 113.618 20.5557 114.173 23.0446 114.319C25.3516 114.488 27.671 114.312 29.9263 113.798C33.9025 112.888 37.5828 110.983 40.6224 108.263C40.6372 108.246 40.6554 108.233 40.6757 108.224C40.696 108.214 40.7181 108.21 40.7404 108.21C40.7627 108.21 40.7848 108.214 40.8051 108.224C40.8255 108.233 40.8436 108.246 40.8584 108.263C40.8826 108.29 40.8959 108.325 40.8959 108.361C40.8959 108.398 40.8826 108.433 40.8584 108.46L40.6028 108.233C40.7719 108.184 40.9476 108.16 41.1238 108.165H43.9158H46.8652L52.0068 108.224L51.9085 108.41C50.1979 105.805 48.8609 103.78 47.9761 102.374L46.993 100.801C46.639 100.496 46.5604 100.319 46.5604 100.319Z" fill="#263238"/>
<path d="M11 101H40.2174" stroke="#1491ED" stroke-width="2" stroke-linecap="round" stroke-linejoin="round"/>
<path d="M27.6946 101V78.0435C27.6946 77.7667 27.5847 77.5013 27.389 77.3056C27.1933 77.1099 26.9279 77 26.6512 77H14.1294C13.8527 77 13.5873 77.1099 13.3916 77.3056C13.1959 77.5013 13.0859 77.7667 13.0859 78.0435V101" stroke="#1491ED" stroke-width="2" stroke-linecap="round" stroke-linejoin="round"/>
<path d="M38.1291 101.001V86.3919C38.1291 86.1151 38.0192 85.8497 37.8235 85.654C37.6278 85.4583 37.3624 85.3484 37.0856 85.3484H27.6943" stroke="#1491ED" stroke-width="2" stroke-linecap="round" stroke-linejoin="round"/>
<path d="M17.2598 82.2173H21.4337" stroke="#1491ED" stroke-width="2" stroke-linecap="round" stroke-linejoin="round"/>
<path d="M19.3477 90.5657H23.5216" stroke="#1491ED" stroke-width="2" stroke-linecap="round" stroke-linejoin="round"/>
<path d="M17.2598 95.7827H21.4337" stroke="#1491ED" stroke-width="2" stroke-linecap="round" stroke-linejoin="round"/>
<path d="M31.8691 95.7827H33.9561" stroke="#1491ED" stroke-width="2" stroke-linecap="round" stroke-linejoin="round"/>
<path d="M31.8691 90.5657H33.9561" stroke="#1491ED" stroke-width="2" stroke-linecap="round" stroke-linejoin="round"/>
<path d="M347.047 0.274902H114.149V320.383H347.047V0.274902Z" fill="#FAFAFA"/>
<path d="M307.889 163.077H207.967V179.711H307.889V163.077Z" fill="#EBEBEB"/>
<path d="M217.768 175.385C217.138 175.385 216.522 175.199 215.999 174.849C215.475 174.499 215.067 174.001 214.825 173.419C214.584 172.837 214.521 172.197 214.644 171.579C214.767 170.961 215.07 170.393 215.516 169.948C215.961 169.502 216.529 169.199 217.147 169.076C217.765 168.953 218.405 169.016 218.987 169.257C219.569 169.498 220.067 169.907 220.417 170.431C220.767 170.954 220.954 171.57 220.954 172.2C220.954 173.045 220.618 173.855 220.021 174.452C219.423 175.05 218.613 175.385 217.768 175.385ZM217.768 169.261C217.185 169.261 216.615 169.434 216.13 169.758C215.645 170.082 215.267 170.542 215.043 171.081C214.82 171.62 214.762 172.213 214.876 172.785C214.989 173.357 215.27 173.883 215.683 174.295C216.095 174.708 216.621 174.989 217.193 175.103C217.765 175.216 218.358 175.158 218.897 174.935C219.436 174.712 219.896 174.334 220.221 173.849C220.545 173.364 220.718 172.793 220.718 172.21C220.715 171.429 220.403 170.682 219.85 170.131C219.297 169.58 218.549 169.27 217.768 169.27V169.261Z" fill="#263238"/>
<path d="M286.851 172.476C286.851 172.613 273.579 172.731 257.21 172.731C240.842 172.731 227.53 172.613 227.53 172.476C227.53 172.338 240.802 172.22 257.181 172.22C273.559 172.22 286.851 172.328 286.851 172.476Z" fill="#263238"/>
<path d="M347 28H114V75H347V28Z" fill="#263238"/>
<path d="M347.047 0.274902H114.149V17.6758H347.047V0.274902Z" fill="#455A64"/>
<path d="M347.047 17.6763H114.149V28.1856H347.047V17.6763Z" fill="#E0E0E0"/>
<path d="M194.194 127.214C194.194 127.351 186.398 127.469 176.783 127.469C167.168 127.469 159.362 127.351 159.362 127.214C159.362 127.076 167.158 126.958 176.783 126.958C186.407 126.958 194.194 127.066 194.194 127.214Z" fill="#263238"/>
<path d="M194.194 135.383C194.194 135.531 186.398 135.649 176.783 135.649C167.168 135.649 159.362 135.531 159.362 135.383C159.362 135.236 167.158 135.128 176.783 135.128C186.407 135.128 194.194 135.246 194.194 135.383Z" fill="#263238"/>
<path d="M179.122 142.147C175.852 142.404 172.571 142.49 169.291 142.403C165.996 142.492 162.698 142.406 159.411 142.147C162.698 141.894 165.996 141.809 169.291 141.891C172.571 141.81 175.852 141.896 179.122 142.147Z" fill="#263238"/>
<path d="M308.331 98.1726H208.959V124.372H308.331V98.1726Z" fill="#EBEBEB"/>
<path d="M222.929 136.976C222.931 138 222.629 139.001 222.062 139.853C221.494 140.705 220.687 141.369 219.741 141.762C218.796 142.154 217.756 142.258 216.752 142.058C215.748 141.859 214.825 141.366 214.102 140.643C213.378 139.919 212.885 138.997 212.686 137.993C212.487 136.988 212.59 135.948 212.982 135.003C213.375 134.057 214.039 133.25 214.891 132.682C215.743 132.115 216.744 131.813 217.768 131.815C219.137 131.815 220.45 132.359 221.417 133.327C222.385 134.295 222.929 135.607 222.929 136.976Z" fill="#E0E0E0"/>
<path d="M307.889 133.27C307.889 133.407 291.245 133.525 270.718 133.525C250.191 133.525 233.537 133.407 233.537 133.27C233.537 133.132 250.181 133.014 270.718 133.014C291.255 133.014 307.889 133.122 307.889 133.27Z" fill="#263238"/>
<path d="M272.085 140.642C272.085 140.79 263.453 140.898 252.816 140.898C242.179 140.898 233.537 140.79 233.537 140.642C233.537 140.495 242.169 140.386 252.816 140.386C263.463 140.386 272.085 140.504 272.085 140.642Z" fill="#263238"/>
<path d="M307.889 149.009H288.109V151.732H307.889V149.009Z" fill="#1491ED"/>
<path d="M307.889 212.39H288.109V215.113H307.889V212.39Z" fill="#1491ED"/>
<path d="M288.108 188.028C288.108 188.176 270.796 188.284 249.433 188.284C228.07 188.284 210.748 188.176 210.748 188.028C210.748 187.881 228.07 187.772 249.433 187.772C270.796 187.772 288.108 187.89 288.108 188.028Z" fill="#263238"/>
<path d="M288.108 194.664C288.108 194.812 270.796 194.92 249.433 194.92C228.07 194.92 210.748 194.812 210.748 194.664C210.748 194.517 228.07 194.408 249.433 194.408C270.796 194.408 288.108 194.526 288.108 194.664Z" fill="#263238"/>
<path d="M288.108 201.3C288.108 201.447 270.796 201.555 249.433 201.555C228.07 201.555 210.748 201.447 210.748 201.3C210.748 201.152 228.07 201.044 249.433 201.044C270.796 201.044 288.108 201.162 288.108 201.3Z" fill="#263238"/>
<path d="M235.612 213.255C235.612 213.393 230.214 213.511 223.549 213.511C216.884 213.511 211.496 213.393 211.496 213.255C211.496 213.117 216.893 212.99 223.549 212.99C230.205 212.99 235.612 213.107 235.612 213.255Z" fill="#263238"/>
<path d="M307.889 229.997H207.967V289.829H307.889V229.997Z" fill="#C1C6CA"/>
<path d="M207.967 289.829L249.434 262.695L262.136 271.74L288.109 254.339L307.889 269.646V289.829H207.967Z" fill="#263238"/>
<path d="M265.006 257.652C268.915 257.652 272.084 254.483 272.084 250.574C272.084 246.664 268.915 243.495 265.006 243.495C261.097 243.495 257.928 246.664 257.928 250.574C257.928 254.483 261.097 257.652 265.006 257.652Z" fill="#263238"/>
<path d="M167.698 157.316H157.287V167.727H167.698V157.316Z" fill="#E0E0E0"/>
<path d="M180.371 157.316H169.96V167.727H180.371V157.316Z" fill="#EBEBEB"/>
<path d="M193.132 157.316H182.721V167.727H193.132V157.316Z" fill="#EBEBEB"/>
<path d="M167.698 169.753H157.287V180.164H167.698V169.753Z" fill="#EBEBEB"/>
<path d="M180.371 169.753H169.96V180.164H180.371V169.753Z" fill="#F5F5F5"/>
<path d="M193.132 169.753H182.721V180.164H193.132V169.753Z" fill="#E0E0E0"/>
<path d="M167.698 182.198H157.287V192.61H167.698V182.198Z" fill="#E0E0E0"/>
<path d="M180.371 182.198H169.96V192.61H180.371V182.198Z" fill="#EBEBEB"/>
<path d="M193.132 182.198H182.721V192.61H193.132V182.198Z" fill="#E0E0E0"/>
<path d="M346.82 0.275268L347.046 0.511214H114.178L114.444 0.255609C114.444 119.889 114.444 230.636 114.395 320.364L114.178 320.158L347.076 320.364L114.178 320.58H113.972V320.364C113.972 230.636 113.972 119.889 113.923 0.255609V0H114.208H347.076H347.312V0.226113C347.174 189.592 347.086 318.29 347.076 320.334" fill="#626262"/>
<path d="M31.7549 224.432L33.0231 227.136C33.5515 228.727 34.2364 230.261 35.0679 231.717C35.4701 232.453 35.9917 233.118 36.6114 233.683C37.3601 234.404 38.2035 235.019 39.1183 235.512C39.2986 235.586 39.4529 235.712 39.5614 235.874C39.6699 236.036 39.7279 236.226 39.7279 236.421C39.7279 236.616 39.6699 236.807 39.5614 236.968C39.4529 237.13 39.2986 237.256 39.1183 237.33C38.2729 237.537 35.8151 236.593 33.7211 234.381C31.6271 232.169 31.9515 236.967 32.0302 238.726C32.1088 240.486 32.1383 245.942 31.6172 246.405C30.8504 247.073 29.9951 246.405 29.946 244.615C29.8968 242.826 29.3954 237.586 28.4615 237.675C27.5275 237.763 28.1174 246.719 28.1174 246.719C28.1174 246.719 28.55 248.616 27.4784 248.764C25.5122 249.01 25.6498 239.444 25.6793 238.53C25.6793 237.901 24.6962 237.96 24.6962 238.648C24.6962 239.336 25.463 247.565 23.5066 247.85C22.0025 248.056 23.5066 239.985 22.4154 238.353C21.3242 236.721 21.8845 244.605 20.4492 244.743C19.9183 244.802 19.4661 244.743 19.82 240.201C20.1739 235.659 23.1036 222.997 23.1036 222.997L31.8925 224.56" fill="#FFBE9D"/>
<path d="M66.6455 157.394C66.6455 157.394 39.1186 184.262 38.4698 187.742C37.8209 191.222 33.859 229.789 33.859 229.789L21.2753 228.541C21.2753 228.541 20.0956 180.998 24.028 176.151C27.9604 171.304 43.69 153.137 43.69 153.137L66.6455 157.394Z" fill="#FFBE9D"/>
<path d="M25.2076 181.194C25.2076 181.194 25.0306 181.096 24.8438 180.811C24.5784 180.399 24.4478 179.915 24.4703 179.425C24.4778 179.056 24.5705 178.693 24.741 178.366C24.9115 178.039 25.1553 177.755 25.4534 177.537C25.8199 177.259 26.256 177.087 26.7138 177.04C27.1716 176.994 27.6335 177.074 28.0488 177.272C28.4937 177.491 28.8433 177.865 29.0319 178.324C29.2046 178.753 29.2046 179.232 29.0319 179.661C28.9524 179.839 28.8371 179.999 28.693 180.13C28.549 180.261 28.3793 180.362 28.1947 180.424C28.0101 180.487 27.8146 180.511 27.6203 180.495C27.426 180.478 27.2372 180.422 27.0657 180.329C26.8451 180.189 26.6772 179.98 26.5883 179.735C26.4993 179.489 26.4943 179.221 26.5741 178.973C26.7019 178.629 26.9084 178.54 26.9084 178.56C26.9084 178.579 26.7904 178.717 26.7412 179.012C26.691 179.213 26.7057 179.426 26.7834 179.618C26.8611 179.811 26.9978 179.973 27.1738 180.084C27.3071 180.146 27.4515 180.18 27.5984 180.186C27.7454 180.191 27.8919 180.167 28.0294 180.114C28.1668 180.062 28.2924 179.983 28.3987 179.881C28.505 179.78 28.59 179.658 28.6484 179.523C28.7733 179.207 28.7733 178.856 28.6484 178.54C28.5024 178.179 28.2248 177.888 27.8718 177.724C27.526 177.556 27.141 177.486 26.7581 177.52C26.3753 177.555 26.0092 177.693 25.6991 177.921C25.426 178.095 25.1957 178.329 25.0255 178.605C24.8553 178.88 24.7495 179.191 24.716 179.513C24.713 180.11 24.8838 180.694 25.2076 181.194Z" fill="#EB996E"/>
<path d="M124.521 88.8032C124.334 89.3243 121.916 124.067 121.916 124.067L135.856 123.005L139.307 92.775L124.521 88.8032Z" fill="#455A64"/>
<path d="M121.915 124.067L120.037 123.526L122.731 88.282L124.746 88.862L121.915 124.067Z" fill="#263238"/>
<path d="M117.216 141.29L141.794 147.671L137.911 118.551L137.409 117.155L128.404 115.769L129.476 109.123C129.608 108.387 129.892 107.687 130.308 107.066C130.725 106.445 131.266 105.917 131.897 105.515C132.527 105.113 133.235 104.846 133.973 104.731C134.712 104.616 135.467 104.656 136.19 104.847L139.139 105.633C140.189 105.906 141.17 106.397 142.017 107.075C142.864 107.752 143.558 108.601 144.055 109.566C145.756 112.908 147.427 116.565 147.27 116.251L160.443 151.996C161.592 154.288 162.066 156.859 161.808 159.409C161.55 161.959 160.572 164.384 158.988 166.399C154.741 171.914 144.488 168.08 139.66 167.146L108.201 160.215L117.216 141.29Z" fill="#FFBE9D"/>
<path d="M68.1789 105.801C68.2762 106.084 68.2908 106.388 68.2212 106.679C68.1515 106.97 68.0005 107.235 67.7856 107.443C67.566 107.643 67.2934 107.775 67.0004 107.824C66.7074 107.873 66.4066 107.836 66.134 107.718C65.0919 107.266 64.8953 105.889 65.033 104.769C65.1706 103.648 65.4852 102.439 64.9543 101.436C64.4568 100.732 63.8375 100.123 63.1257 99.6368C62.5693 99.1263 62.1379 98.4945 61.8651 97.7903C61.5924 97.0862 61.4855 96.3287 61.5528 95.5766C61.6394 94.8278 61.9313 94.1175 62.3963 93.5241C62.8612 92.9308 63.4811 92.4775 64.1875 92.2143C65.6425 91.713 67.4907 92.0669 68.5328 90.9462C69.28 90.1203 69.2603 88.8521 69.8305 87.8887C70.7055 86.4042 72.7208 86.0699 74.4413 86.2076C76.1617 86.3452 77.9313 86.7975 79.5927 86.2961C80.9691 85.8733 82.0603 84.8312 83.3383 84.1627C84.7344 83.4268 86.3257 83.1461 87.8892 83.3601C89.4528 83.5741 90.9102 84.2721 92.0571 85.3561C93.204 86.4401 93.9829 87.8559 94.2846 89.4049C94.5863 90.9539 94.3958 92.5585 93.7396 93.9938C93.3112 95.0433 92.5285 95.9095 91.5276 96.4417" fill="#263238"/>
<path d="M69.8999 135.136L86.1801 133.878C86.2784 131.98 86.1801 124.627 86.1801 124.627C86.1801 124.627 92.9537 123.575 93.0618 116.762C93.1699 109.949 91.9706 94.4455 91.9706 94.4455C88.1211 92.793 83.901 92.1952 79.744 92.7135C75.587 93.2319 71.6429 94.8476 68.3171 97.3948L67.334 98.1714L69.8999 135.136Z" fill="#FFBE9D"/>
<path d="M90.3474 106.067C90.1549 105.892 90.0395 105.648 90.0266 105.388C90.0137 105.128 90.1043 104.874 90.2786 104.681C90.3657 104.585 90.4708 104.508 90.5879 104.453C90.705 104.398 90.8317 104.367 90.9609 104.361C91.0901 104.355 91.2191 104.374 91.3407 104.418C91.4624 104.462 91.5741 104.53 91.6697 104.617C91.7652 104.704 91.8426 104.809 91.8976 104.926C91.9525 105.043 91.9838 105.17 91.9897 105.299C91.9957 105.428 91.9761 105.557 91.9321 105.679C91.8882 105.801 91.8207 105.912 91.7336 106.008C91.5573 106.199 91.3124 106.313 91.0527 106.324C90.7929 106.335 90.5393 106.242 90.3474 106.067Z" fill="#263238"/>
<path d="M91.9896 104.523C91.8814 104.641 91.2227 104.13 90.2888 104.13C89.3548 104.13 88.6765 104.602 88.5782 104.484C88.4799 104.366 88.6273 104.218 88.9223 103.992C89.3252 103.709 89.8061 103.558 90.2986 103.56C90.7902 103.565 91.2667 103.73 91.6553 104.031C91.9404 104.258 92.0387 104.474 91.9896 104.523Z" fill="#263238"/>
<path d="M81.2444 105.369C81.4096 105.471 81.5407 105.62 81.6214 105.796C81.7021 105.973 81.7287 106.17 81.6978 106.361C81.667 106.553 81.58 106.731 81.448 106.874C81.316 107.016 81.1447 107.116 80.9559 107.161C80.767 107.206 80.5691 107.195 80.3869 107.127C80.2048 107.06 80.0466 106.94 79.9323 106.783C79.8181 106.626 79.7529 106.439 79.745 106.245C79.737 106.051 79.7867 105.859 79.8878 105.693C79.9552 105.583 80.0439 105.486 80.1488 105.41C80.2536 105.334 80.3725 105.279 80.4986 105.249C80.6247 105.219 80.7555 105.214 80.8835 105.234C81.0115 105.255 81.1342 105.301 81.2444 105.369Z" fill="#263238"/>
<path d="M81.8644 105.368C81.7563 105.486 81.0878 104.975 80.1538 104.965C79.2199 104.955 78.5514 105.447 78.4432 105.329C78.3351 105.211 78.5022 105.063 78.7972 104.837C79.192 104.545 79.6728 104.393 80.1637 104.404C80.6534 104.411 81.1285 104.573 81.5203 104.866C81.8153 105.083 81.9136 105.289 81.8644 105.368Z" fill="#263238"/>
<path d="M85.5994 113.036C86.0798 112.848 86.5881 112.742 87.1035 112.721C87.3493 112.721 87.5459 112.643 87.5656 112.505C87.566 112.261 87.5051 112.021 87.3886 111.807C87.1428 111.188 86.9069 110.568 86.6513 109.91C85.9504 108.31 85.4135 106.643 85.0488 104.935C85.9112 106.454 86.613 108.059 87.1428 109.723C87.3886 110.382 87.6147 111.011 87.8408 111.64C87.9937 111.944 88.0421 112.289 87.9785 112.623C87.9419 112.715 87.8848 112.797 87.8115 112.864C87.7383 112.93 87.6508 112.979 87.5557 113.007C87.421 113.043 87.2823 113.063 87.1428 113.066C86.6306 113.146 86.1082 113.136 85.5994 113.036Z" fill="#263238"/>
<path d="M82.572 114.068C84.0259 114.723 85.5648 115.17 87.1435 115.396C86.8273 115.885 86.3554 116.253 85.804 116.44C85.2527 116.627 84.6543 116.623 84.1057 116.428C82.0805 115.681 82.572 114.068 82.572 114.068Z" fill="white"/>
<path d="M86.1507 124.479C83.0175 124.544 79.9365 123.671 77.3027 121.972C77.3027 121.972 79.3869 126.888 86.1507 126.239V124.479Z" fill="#EB996E"/>
<path d="M92.0484 96.137C92.0484 96.137 88.116 98.4276 82.5418 96.137C78.9043 94.6427 74.7458 94.0922 73.9003 94.8688C73.0549 95.6455 73.1237 99.2633 69.7221 100.581C69.7221 100.581 70.4791 107.462 67.7559 107.462C65.0327 107.462 65.9175 96.5991 65.9175 96.5991L72.3962 92.8141L79.6417 90.8479L86.6315 91.31L92.0976 92.3815L92.0484 96.137Z" fill="#263238"/>
<path d="M68.0901 105.192C67.9721 105.192 63.44 103.815 63.5875 108.446C63.735 113.076 68.3457 111.975 68.3556 111.837C68.3654 111.7 68.0901 105.192 68.0901 105.192Z" fill="#FFBE9D"/>
<path d="M66.8807 110.126C66.8807 110.126 66.8021 110.185 66.6743 110.254C66.5778 110.295 66.4742 110.316 66.3695 110.316C66.2648 110.316 66.1612 110.295 66.0648 110.254C65.7573 110.077 65.5036 109.82 65.3305 109.51C65.1575 109.2 65.0715 108.849 65.0817 108.494C65.0749 108.095 65.1554 107.699 65.3176 107.334C65.3542 107.188 65.4263 107.054 65.5275 106.942C65.6287 106.831 65.7558 106.746 65.8976 106.695C65.9908 106.67 66.0899 106.676 66.179 106.714C66.2681 106.751 66.3421 106.817 66.3892 106.902C66.4482 107.03 66.3892 107.128 66.4482 107.128C66.5072 107.128 66.5465 107.049 66.5071 106.862C66.4722 106.75 66.4036 106.65 66.3105 106.577C66.1791 106.485 66.0173 106.446 65.8583 106.469C65.6697 106.513 65.4956 106.605 65.3527 106.736C65.2098 106.867 65.1029 107.032 65.0423 107.216C64.8562 107.622 64.775 108.068 64.8064 108.514C64.7956 108.927 64.9075 109.335 65.128 109.685C65.3484 110.035 65.6675 110.311 66.0451 110.48C66.1698 110.51 66.2994 110.512 66.425 110.486C66.5507 110.461 66.6692 110.409 66.7726 110.333C66.8807 110.284 66.9004 110.136 66.8807 110.126Z" fill="#EB996E"/>
<path d="M64.9446 90.8481C64.8955 90.7203 65.6623 90.386 66.5962 90.681C67.5302 90.9759 67.9726 91.6641 67.8644 91.7526C67.7563 91.841 67.2254 91.4085 66.4389 91.1725C65.6525 90.9366 64.9839 90.9857 64.9446 90.8481Z" fill="#263238"/>
<path d="M67.5789 87.9177C67.7362 87.9177 67.7264 88.9008 67.9427 90.0216C68.159 91.1423 68.68 91.9878 68.562 91.9878C68.4441 91.9878 67.6871 91.3389 67.4413 90.0805C67.2321 89.3658 67.2808 88.6002 67.5789 87.9177Z" fill="#263238"/>
<path d="M87.4579 102.998C87.3006 102.772 88.1657 102.015 89.5027 101.966C90.8397 101.917 91.7737 102.576 91.6459 102.812C91.5181 103.048 90.6628 102.93 89.5519 102.989C88.441 103.048 87.5955 103.254 87.4579 102.998Z" fill="#263238"/>
<path d="M77.1151 102.134C76.9676 101.908 77.8229 101.151 79.1698 101.092C80.5166 101.033 81.4309 101.702 81.3031 101.947C81.1753 102.193 80.32 102.055 79.2091 102.114C78.0982 102.173 77.2036 102.419 77.1151 102.134Z" fill="#263238"/>
<path d="M38.7745 388.286L37.1524 395.07C37.1524 395.07 26.0728 409.462 22.6516 408.764C20.4102 408.302 23.1629 404.547 27.3804 393.605L28.2652 389.092L38.7745 388.286Z" fill="#455A64"/>
<path d="M22.1699 406.64C22.3097 406.879 22.5142 407.073 22.7598 407.201C23.1064 407.353 23.4884 407.406 23.8633 407.354C24.2382 407.302 24.5913 407.147 24.8833 406.906C26.8287 405.279 28.6707 403.532 30.3985 401.676C32.4532 399.523 34.1736 397.448 35.3927 395.925L36.8083 394.106L37.1917 393.604C37.2348 393.544 37.2843 393.488 37.3392 393.437L37.2212 393.634L36.8673 394.145C36.5626 394.597 36.0907 395.236 35.5008 396.013C33.9699 398.038 32.329 399.978 30.5853 401.823C28.8543 403.688 26.9914 405.426 25.0111 407.024C24.6435 407.286 24.2125 407.446 23.7626 407.486C23.4209 407.509 23.0799 407.434 22.7794 407.27C22.5841 407.173 22.4203 407.023 22.3076 406.837C22.2467 406.783 22.1995 406.716 22.1699 406.64Z" fill="#263238"/>
<path d="M23.7432 402.01C24.0329 401.893 24.3485 401.856 24.6575 401.902C25.3998 401.977 26.1139 402.226 26.7416 402.629C27.3959 403.002 27.9259 403.559 28.2654 404.231C28.4126 404.504 28.4935 404.807 28.5014 405.116C28.5014 405.116 28.3932 404.782 28.1376 404.29C27.776 403.669 27.2572 403.154 26.6335 402.796C26.0354 402.415 25.3667 402.157 24.6673 402.039C24.36 402.012 24.0515 402.003 23.7432 402.01Z" fill="#263238"/>
<path d="M34.2323 398.628C34.1752 398.527 34.1322 398.417 34.1045 398.304C34.0005 397.992 33.9184 397.674 33.8588 397.35C33.7013 396.292 33.8837 395.211 34.3798 394.263C34.864 393.307 35.6525 392.539 36.6213 392.081C36.9135 391.952 37.2206 391.859 37.5356 391.806C37.7617 391.806 37.8895 391.806 37.8895 391.806C37.4755 391.917 37.0711 392.062 36.6803 392.238C35.7732 392.722 35.0409 393.479 34.5863 394.401C34.1142 395.308 33.9193 396.334 34.0259 397.35C34.1144 398.147 34.2717 398.619 34.2323 398.628Z" fill="#263238"/>
<path d="M38.0368 389.485C38.0368 389.485 37.8402 390.468 37.6239 391.648C37.5443 392.384 37.352 393.104 37.0537 393.782C37.0537 393.782 37.2208 392.798 37.4273 391.619C37.5158 390.88 37.7215 390.16 38.0368 389.485Z" fill="#263238"/>
<path d="M27.1543 394.568C27.6201 394.434 28.114 394.434 28.5798 394.568C29.056 394.642 29.5002 394.854 29.8578 395.177C29.8578 395.236 29.2778 394.941 28.5306 394.764C27.7835 394.587 27.1641 394.627 27.1543 394.568Z" fill="#263238"/>
<path d="M26.9775 395.727C27.3588 395.569 27.784 395.552 28.1769 395.678C28.5847 395.742 28.9571 395.948 29.2288 396.258C29.2288 396.308 28.7471 396.022 28.1278 395.875C27.5084 395.727 26.9775 395.786 26.9775 395.727Z" fill="#263238"/>
<path d="M26.043 397.183C26.4239 396.981 26.8646 396.922 27.2851 397.018C27.7055 397.114 28.0776 397.357 28.3336 397.704C27.9879 397.505 27.6221 397.344 27.2423 397.222C26.8454 397.163 26.443 397.15 26.043 397.183Z" fill="#263238"/>
<path d="M27.96 394.077C27.96 394.077 28.4712 393.939 29.2577 393.634C29.7194 393.453 30.1664 393.236 30.5947 392.985C30.8492 392.842 31.0954 392.685 31.332 392.514C31.5581 392.346 31.8039 392.11 31.7941 391.845C31.7842 391.58 31.4598 391.442 31.2042 391.511C30.9421 391.599 30.708 391.755 30.5259 391.963C30.113 392.346 29.7689 392.71 29.4838 393.025C28.9136 393.664 28.599 394.087 28.5793 394.067C28.6219 393.949 28.6851 393.839 28.7661 393.742C28.955 393.463 29.1585 393.194 29.3756 392.936C29.6808 392.547 30.0091 392.176 30.3587 391.825C30.5588 391.584 30.8254 391.406 31.1256 391.314C31.2148 391.286 31.309 391.278 31.4018 391.29C31.4946 391.301 31.5837 391.333 31.6631 391.383C31.7425 391.432 31.8102 391.498 31.8617 391.576C31.9131 391.654 31.9471 391.743 31.9612 391.835C31.9427 392.01 31.8831 392.177 31.7874 392.324C31.6917 392.471 31.5626 392.593 31.4107 392.681C31.1551 392.858 30.8994 393.015 30.6537 393.153C30.2089 393.396 29.7453 393.603 29.2675 393.772C28.9457 393.881 28.6173 393.97 28.2844 394.037C28.1781 394.063 28.0693 394.076 27.96 394.077Z" fill="#263238"/>
<path d="M28.5005 393.939C28.5005 393.939 28.4219 393.457 28.2941 392.7C28.2333 392.272 28.1211 391.853 27.9598 391.451C27.8506 391.215 27.7118 390.994 27.5469 390.793C27.3798 390.606 27.1143 390.439 26.9177 390.567C26.7211 390.694 26.6818 390.989 26.7113 391.235C26.7519 391.492 26.8245 391.743 26.9275 391.982C27.1098 392.386 27.3517 392.761 27.6452 393.093C28.1663 393.663 28.5595 393.939 28.5398 393.968C28.4319 393.927 28.3321 393.867 28.2449 393.791C27.9885 393.617 27.7512 393.416 27.5371 393.192C27.2137 392.857 26.9479 392.472 26.7506 392.051C26.634 391.802 26.5545 391.537 26.5146 391.265C26.4742 391.104 26.4804 390.936 26.5327 390.779C26.5849 390.622 26.681 390.484 26.8096 390.38C26.9676 390.32 27.141 390.316 27.3017 390.368C27.4624 390.42 27.6008 390.524 27.6944 390.665C27.8742 390.877 28.0202 391.116 28.1269 391.373C28.3073 391.8 28.4265 392.25 28.4809 392.71C28.53 393.093 28.5398 393.408 28.5497 393.624C28.5478 393.731 28.5313 393.837 28.5005 393.939Z" fill="#263238"/>
<path d="M93.8279 391.717V382.672L76.8989 382.475L76.6826 395.698L77.7345 395.777C82.4043 396.091 101.496 397.055 104.632 396.14C108.201 395.128 93.8279 391.717 93.8279 391.717Z" fill="#455A64"/>
<path d="M76.5156 395.305H76.8106L77.6462 395.374L80.7233 395.541C83.3187 395.669 86.907 395.796 90.8788 395.846C94.8505 395.895 98.4388 395.846 101.044 395.846L104.121 395.757H104.957H105.252H104.121H101.044C98.4388 395.757 94.8505 395.757 90.8788 395.757C86.907 395.757 83.3285 395.59 80.7233 395.502L77.6462 395.393H76.8106L76.5156 395.305Z" fill="#263238"/>
<path d="M99.3242 396.062C99.4627 395.552 99.6607 395.061 99.9141 394.597C100.221 394.167 100.581 393.777 100.986 393.437C100.453 393.615 100.009 393.992 99.7469 394.489C99.4155 394.943 99.2648 395.504 99.3242 396.062Z" fill="#263238"/>
<path d="M94.3588 393.418C94.408 393.418 94.6537 393.162 94.8995 392.779C95.1453 392.395 95.3223 392.051 95.2731 392.022C95.224 391.992 94.9782 392.277 94.7324 392.67C94.4866 393.064 94.3097 393.418 94.3588 393.418Z" fill="#263238"/>
<path d="M93.0019 392.719C93.0019 392.719 93.3066 392.582 93.6016 392.326C93.8965 392.071 94.103 391.825 94.0636 391.786C94.0243 391.746 93.7589 391.913 93.4639 392.169C93.169 392.425 92.9625 392.68 93.0019 392.719Z" fill="#263238"/>
<path d="M92.1562 391.107C92.1562 391.166 92.5495 391.225 93.0312 391.235C93.3284 391.27 93.6296 391.243 93.916 391.156C93.916 391.097 93.5228 391.038 93.041 391.029C92.744 390.987 92.4413 391.014 92.1562 391.107Z" fill="#263238"/>
<path d="M91.8613 389.977C92.1494 390.178 92.493 390.285 92.8444 390.282C93.1775 390.341 93.5207 390.296 93.8275 390.154C93.5029 390.098 93.1738 390.072 92.8444 390.075C92.5208 390.01 92.1915 389.977 91.8613 389.977Z" fill="#263238"/>
<path d="M94.9492 391.992C95.3105 392.052 95.6792 392.052 96.0405 391.992C96.4335 391.944 96.8216 391.862 97.2005 391.747C97.4336 391.686 97.6582 391.597 97.869 391.481C97.9992 391.408 98.0974 391.289 98.1443 391.147C98.1627 391.067 98.1576 390.984 98.1297 390.907C98.1018 390.831 98.0522 390.763 97.987 390.714C97.5756 390.499 97.1011 390.436 96.6476 390.536C96.1941 390.637 95.791 390.895 95.5096 391.265C95.3418 391.477 95.2181 391.721 95.1458 391.982C95.0967 392.169 95.0967 392.277 95.1458 392.277C95.2627 391.945 95.432 391.633 95.6472 391.353C95.9123 391.067 96.2533 390.863 96.6303 390.763C96.8415 390.696 97.064 390.67 97.2851 390.689C97.5061 390.707 97.7213 390.769 97.9182 390.872C98.0952 390.999 98.0263 391.206 97.8297 391.314C97.6329 391.421 97.4253 391.507 97.2104 391.57C96.8451 391.693 96.4703 391.785 96.0896 391.845C95.372 391.963 94.9492 391.963 94.9492 391.992Z" fill="#263238"/>
<path d="M95.2334 392.051C95.3706 391.824 95.4195 391.555 95.3711 391.294C95.3368 391.011 95.2394 390.738 95.086 390.498C94.9953 390.334 94.8649 390.196 94.7068 390.097C94.5488 389.997 94.3681 389.939 94.1815 389.927C94.0709 389.951 93.9737 390.016 93.9097 390.11C93.8457 390.203 93.8198 390.317 93.8374 390.429C93.8649 390.604 93.9286 390.771 94.0242 390.92C94.1638 391.16 94.3322 391.381 94.5256 391.579C94.6901 391.78 94.9033 391.936 95.145 392.031C95.145 392.031 94.9287 391.835 94.6338 391.481C94.4604 391.278 94.3088 391.057 94.1815 390.822C94.0439 390.596 93.9456 390.183 94.1815 390.134C94.4175 390.085 94.732 390.38 94.8992 390.606C95.0475 390.818 95.1481 391.059 95.1941 391.314C95.228 391.558 95.2412 391.805 95.2334 392.051Z" fill="#263238"/>
<path d="M76.9189 390.674C76.9189 390.674 77.4105 390.674 78.1773 390.733C79.1697 390.869 80.1071 391.27 80.8907 391.894C81.6596 392.535 82.2377 393.375 82.562 394.322C82.8176 395.059 82.8274 395.541 82.8667 395.541C82.906 395.541 82.8667 395.413 82.8667 395.197C82.7994 394.526 82.6007 393.875 82.2819 393.282C81.9631 392.688 81.5304 392.163 81.0087 391.736C80.2014 391.078 79.215 390.677 78.1773 390.586C77.8506 390.551 77.521 390.551 77.1942 390.586C77.0993 390.605 77.0069 390.634 76.9189 390.674Z" fill="#263238"/>
<path d="M78.7673 383.655C78.5772 385.967 78.5181 388.287 78.5904 390.606C78.7935 388.295 78.8526 385.974 78.7673 383.655Z" fill="#263238"/>
<path d="M85.0488 394.017C85.8564 394.213 86.6856 394.305 87.5164 394.293C88.346 394.34 89.1782 394.284 89.9938 394.125C89.9938 394.066 88.8829 394.125 87.5164 394.125C86.1499 394.125 85.0488 393.958 85.0488 394.017Z" fill="#263238"/>
<path d="M81.7266 393.968C81.7266 393.968 81.815 394.204 81.9232 394.46C82.0313 394.715 82.0903 394.941 82.1493 394.932C82.2083 394.922 82.2378 394.666 82.1493 394.371C82.0608 394.076 81.7659 393.929 81.7266 393.968Z" fill="#263238"/>
<path d="M80.4971 392.434C80.4971 392.434 80.5659 392.651 80.733 392.828C80.9001 393.005 81.0771 393.123 81.1263 393.083C81.1754 393.044 81.0574 392.867 80.8805 392.69C80.7035 392.513 80.5364 392.356 80.4971 392.434Z" fill="#263238"/>
<path d="M78.7178 391.658C78.7178 391.717 78.9538 391.717 79.1995 391.805C79.4453 391.894 79.6223 392.031 79.6714 391.992C79.7206 391.953 79.5731 391.727 79.2684 391.618C78.9636 391.51 78.6982 391.609 78.7178 391.658Z" fill="#263238"/>
<path d="M77.4492 391.304C77.4492 391.363 77.518 391.452 77.6557 391.501C77.7933 391.55 77.9309 391.56 77.9506 391.501C77.9703 391.442 77.8818 391.363 77.7343 391.304C77.5869 391.245 77.4689 391.255 77.4492 391.304Z" fill="#263238"/>
<path d="M105.37 212.192L97.4655 387.824L71.0986 388.374L75.4833 241.341L45.823 389.495H20.7539L54.2286 212.192" fill="#263238"/>
<path d="M27.0655 386.958C27.2031 386.958 27.2621 387.322 27.1933 387.725C27.1245 388.128 26.9574 388.433 26.8197 388.413C26.6821 388.394 26.6231 388.04 26.6919 387.637C26.7607 387.234 26.977 386.929 27.0655 386.958Z" fill="#455A64"/>
<path d="M28.0292 381.207C28.1668 381.207 28.1766 381.895 28.0292 382.682C27.8817 383.468 27.6752 384.107 27.5376 384.078C27.4 384.048 27.3901 383.4 27.5376 382.603C27.6851 381.807 27.8915 381.188 28.0292 381.207Z" fill="#455A64"/>
<path d="M28.9921 375.456C29.1297 375.456 29.1395 376.144 28.9921 376.941C28.8446 377.737 28.6381 378.356 28.5005 378.327C28.3629 378.297 28.353 377.649 28.5005 376.852C28.648 376.056 28.8544 375.437 28.9921 375.456Z" fill="#455A64"/>
<path d="M29.9267 369.705C30.0643 369.705 30.0643 370.393 29.9267 371.19C29.7891 371.986 29.5728 372.605 29.4253 372.576C29.2778 372.546 29.2877 371.898 29.4253 371.101C29.5629 370.305 29.8185 369.686 29.9267 369.705Z" fill="#455A64"/>
<path d="M30.909 363.925C31.0467 363.925 31.0565 364.613 30.909 365.399C30.7616 366.186 30.5551 366.825 30.4175 366.795C30.2799 366.766 30.27 366.117 30.4175 365.321C30.565 364.525 30.7911 363.925 30.909 363.925Z" fill="#455A64"/>
<path d="M31.8924 358.203C32.0301 358.203 32.0399 358.891 31.8924 359.677C31.745 360.464 31.5385 361.103 31.4009 361.073C31.2633 361.044 31.2534 360.395 31.4009 359.599C31.5484 358.802 31.7646 358.173 31.8924 358.203Z" fill="#455A64"/>
<path d="M32.8759 352.452C33.0135 352.452 33.0234 353.14 32.8759 353.926C32.7284 354.713 32.522 355.352 32.3745 355.322C32.2271 355.293 32.2369 354.644 32.3745 353.848C32.5122 353.051 32.7383 352.422 32.8759 352.452Z" fill="#455A64"/>
<path d="M33.8592 346.701C33.9969 346.701 34.0067 347.389 33.8592 348.185C33.7118 348.981 33.5053 349.601 33.3677 349.581C33.2301 349.562 33.2202 348.893 33.3677 348.097C33.5152 347.3 33.7118 346.671 33.8592 346.701Z" fill="#455A64"/>
<path d="M34.8419 340.949C34.9796 340.949 34.9796 341.637 34.8419 342.434C34.7043 343.23 34.4782 343.849 34.3405 343.82C34.2029 343.79 34.2029 343.141 34.3405 342.345C34.4782 341.549 34.6945 340.93 34.8419 340.949Z" fill="#455A64"/>
<path d="M35.8241 335.198C35.9618 335.198 35.9618 335.886 35.8241 336.683C35.6865 337.479 35.4604 338.098 35.3228 338.079C35.1851 338.059 35.1753 337.391 35.3228 336.594C35.4702 335.798 35.6767 335.179 35.8241 335.198Z" fill="#455A64"/>
<path d="M36.8087 329.447C36.9562 329.447 36.9562 330.135 36.8087 330.932C36.6612 331.728 36.445 332.347 36.3073 332.328C36.1697 332.308 36.1697 331.64 36.3073 330.843C36.445 330.047 36.6612 329.428 36.8087 329.447Z" fill="#455A64"/>
<path d="M37.7911 323.706C37.9385 323.706 37.9385 324.394 37.7911 325.181C37.6436 325.967 37.4371 326.567 37.2995 326.567C37.1619 326.567 37.1619 325.879 37.2995 325.082C37.4371 324.286 37.6534 323.677 37.7911 323.706Z" fill="#455A64"/>
<path d="M38.7745 317.955C38.9122 317.955 38.9122 318.643 38.7745 319.439C38.6369 320.235 38.4108 320.855 38.2731 320.825C38.1355 320.796 38.1355 320.137 38.2731 319.351C38.4108 318.564 38.6566 317.935 38.7745 317.955Z" fill="#455A64"/>
<path d="M39.757 312.213C39.8946 312.213 39.8946 312.892 39.757 313.688C39.6193 314.484 39.3932 315.104 39.2556 315.084C39.1179 315.064 39.1179 314.396 39.2556 313.599C39.3932 312.803 39.6586 312.184 39.757 312.213Z" fill="#455A64"/>
<path d="M40.8097 306.462C40.9474 306.462 40.9474 307.151 40.8097 307.947C40.6721 308.743 40.4362 309.363 40.2985 309.333C40.1609 309.304 40.1609 308.645 40.2985 307.858C40.4362 307.072 40.6721 306.443 40.8097 306.462Z" fill="#455A64"/>
<path d="M41.8223 300.721C41.9599 300.721 41.9599 301.409 41.8223 302.205C41.6846 303.002 41.4585 303.621 41.311 303.592C41.1636 303.562 41.1734 302.903 41.311 302.107C41.4487 301.311 41.7239 300.691 41.8223 300.721Z" fill="#455A64"/>
<path d="M42.8449 294.98C42.9825 294.98 42.9825 295.668 42.8449 296.454C42.7073 297.241 42.4713 297.87 42.3337 297.85C42.1961 297.831 42.1961 297.162 42.3337 296.366C42.4713 295.57 42.7073 294.95 42.8449 294.98Z" fill="#455A64"/>
<path d="M43.8762 289.209C44.0138 289.209 44.0138 289.897 43.8762 290.684C43.7385 291.47 43.5026 292.099 43.3649 292.08C43.2273 292.06 43.2273 291.391 43.3649 290.595C43.5026 289.799 43.7385 289.209 43.8762 289.209Z" fill="#455A64"/>
<path d="M44.9181 283.497C45.0558 283.497 45.0558 284.185 44.9181 284.971C44.7805 285.758 44.5446 286.387 44.4069 286.367C44.2693 286.348 44.2693 285.679 44.4069 284.883C44.5446 284.086 44.7805 283.467 44.9181 283.497Z" fill="#455A64"/>
<path d="M45.9611 277.756C46.1086 277.756 46.0988 278.444 45.9611 279.24C45.8235 280.036 45.5875 280.656 45.4499 280.626C45.3123 280.597 45.3123 279.938 45.4499 279.142C45.5875 278.345 45.8235 277.736 45.9611 277.756Z" fill="#455A64"/>
<path d="M47.022 272.024C47.1596 272.024 47.1596 272.712 47.022 273.499C46.8843 274.285 46.6386 274.914 46.5009 274.885C46.3633 274.855 46.3731 274.197 46.5009 273.41C46.6287 272.624 46.8843 271.994 47.022 272.024Z" fill="#455A64"/>
<path d="M48.0943 266.283C48.2319 266.283 48.2221 266.971 48.0943 267.767C47.9665 268.563 47.7108 269.183 47.5732 269.153C47.4356 269.124 47.4454 268.465 47.5732 267.669C47.701 266.873 47.9468 266.263 48.0943 266.283Z" fill="#455A64"/>
<path d="M49.1655 260.551C49.3032 260.551 49.2933 261.239 49.1655 262.036C49.0377 262.832 48.7821 263.442 48.6445 263.422C48.5069 263.402 48.5167 262.734 48.6445 261.937C48.7723 261.141 49.0279 260.532 49.1655 260.551Z" fill="#455A64"/>
<path d="M50.2564 254.8C50.3941 254.8 50.3842 255.488 50.2564 256.284C50.1286 257.081 49.8632 257.69 49.7255 257.67C49.5879 257.651 49.5977 256.982 49.7255 256.186C49.8534 255.39 50.1188 254.8 50.2564 254.8Z" fill="#455A64"/>
<path d="M51.3579 249.098C51.4956 249.098 51.4857 249.786 51.3579 250.573C51.2301 251.359 50.9745 251.988 50.8369 251.959C50.6992 251.929 50.7091 251.271 50.8369 250.474C50.9647 249.678 51.2203 249.068 51.3579 249.098Z" fill="#455A64"/>
<path d="M52.4683 243.366C52.606 243.366 52.5961 244.054 52.4683 244.851C52.3405 245.647 52.0751 246.257 51.9375 246.227C51.7998 246.198 51.8097 245.539 51.9375 244.752C52.0653 243.966 52.3307 243.337 52.4683 243.366Z" fill="#455A64"/>
<path d="M53.5894 237.645C53.7271 237.645 53.7172 238.333 53.5894 239.119C53.4616 239.906 53.1962 240.535 53.0586 240.505C52.9209 240.476 52.9308 239.817 53.0586 239.021C53.1864 238.225 53.4518 237.615 53.5894 237.645Z" fill="#455A64"/>
<path d="M54.7301 231.923C54.8678 231.923 54.8579 232.612 54.7301 233.408C54.6023 234.204 54.3271 234.814 54.1894 234.784C54.0518 234.755 54.0616 234.096 54.1894 233.3C54.3172 232.503 54.5925 231.894 54.7301 231.923Z" fill="#455A64"/>
<path d="M55.8805 226.202C56.028 226.202 56.0083 226.9 55.8805 227.686C55.7527 228.473 55.4774 229.092 55.3398 229.063C55.2022 229.033 55.212 228.374 55.3398 227.588C55.4676 226.801 55.7429 226.172 55.8805 226.202Z" fill="#455A64"/>
<path d="M57.05 220.49C57.1877 220.49 57.1778 221.178 57.05 221.964C56.9222 222.751 56.6077 223.341 56.47 223.341C56.3324 223.341 56.352 222.643 56.47 221.856C56.588 221.07 56.9124 220.46 57.05 220.49Z" fill="#455A64"/>
<path d="M57.9445 216.184C58.0822 216.184 58.1313 216.558 58.0428 216.951C57.9543 217.344 57.7872 217.649 57.6496 217.619C57.5119 217.59 57.4628 217.246 57.5414 216.853C57.6201 216.459 57.8069 216.155 57.9445 216.184Z" fill="#455A64"/>
<path d="M75.6509 386.939C75.7886 386.939 75.8869 387.283 75.8672 387.686C75.8476 388.089 75.7099 388.414 75.5723 388.414C75.4347 388.414 75.3364 388.07 75.356 387.657C75.3757 387.244 75.5035 386.929 75.6509 386.939Z" fill="#455A64"/>
<path d="M75.8867 381.089C76.0342 381.089 76.1227 381.748 76.0932 382.564C76.0637 383.38 75.9162 384.019 75.7786 384.009C75.641 383.999 75.5427 383.351 75.582 382.544C75.6213 381.738 75.7491 381.08 75.8867 381.089Z" fill="#455A64"/>
<path d="M76.0729 375.23C76.2105 375.23 76.3088 375.899 76.2793 376.705C76.2498 377.511 76.122 378.16 75.9844 378.16C75.8468 378.16 75.7485 377.501 75.7681 376.685C75.7878 375.869 75.9254 375.23 76.0729 375.23Z" fill="#455A64"/>
<path d="M76.2205 369.381C76.3581 369.381 76.4565 370.039 76.4368 370.845C76.4171 371.652 76.2893 372.31 76.1419 372.31C75.9944 372.31 75.9059 371.642 75.9256 370.836C75.9452 370.029 76.073 369.381 76.2205 369.381Z" fill="#455A64"/>
<path d="M76.3578 363.521C76.4954 363.521 76.5937 364.19 76.5741 364.996C76.5544 365.802 76.4266 366.461 76.289 366.451C76.1514 366.441 76.0432 365.792 76.0629 364.986C76.0825 364.18 76.2103 363.521 76.3578 363.521Z" fill="#455A64"/>
<path d="M76.5057 357.662C76.6531 357.662 76.7514 358.331 76.7219 359.137C76.6925 359.943 76.5745 360.602 76.427 360.592C76.2795 360.582 76.1911 359.933 76.2107 359.127C76.2304 358.321 76.368 357.662 76.5057 357.662Z" fill="#455A64"/>
<path d="M76.7025 351.813C76.8401 351.813 76.9384 352.472 76.9089 353.288C76.8794 354.103 76.7418 354.743 76.5944 354.733C76.4469 354.723 76.3682 354.074 76.3977 353.268C76.4272 352.462 76.5649 351.803 76.7025 351.813Z" fill="#455A64"/>
<path d="M76.9483 345.963C77.086 345.963 77.1744 346.622 77.145 347.428C77.1155 348.234 76.968 348.893 76.8304 348.883C76.6927 348.873 76.5944 348.215 76.6337 347.409C76.6731 346.603 76.8107 345.954 76.9483 345.963Z" fill="#455A64"/>
<path d="M77.1748 340.104C77.3223 340.104 77.4108 340.773 77.3813 341.579C77.3518 342.385 77.2043 343.034 77.0667 343.034C76.929 343.034 76.8307 342.365 76.8701 341.559C76.9094 340.753 77.0372 340.104 77.1748 340.104Z" fill="#455A64"/>
<path d="M77.3813 334.255C77.5189 334.255 77.6172 334.913 77.5877 335.729C77.5582 336.545 77.4206 337.184 77.283 337.184C77.1453 337.184 77.047 336.516 77.0765 335.71C77.106 334.904 77.2437 334.245 77.3813 334.255Z" fill="#455A64"/>
<path d="M77.5574 328.395C77.7049 328.395 77.7934 329.054 77.7737 329.87C77.754 330.686 77.6164 331.325 77.4689 331.325C77.3215 331.325 77.233 330.656 77.2625 329.85C77.292 329.044 77.4198 328.395 77.5574 328.395Z" fill="#455A64"/>
<path d="M77.7146 322.546C77.8523 322.546 77.9506 323.205 77.9309 324.011C77.9113 324.817 77.7835 325.476 77.636 325.466C77.4885 325.456 77.4 324.807 77.4197 324.001C77.4394 323.195 77.5672 322.536 77.7146 322.546Z" fill="#455A64"/>
<path d="M77.8431 316.736C77.9807 316.736 78.079 317.395 78.0692 318.201C78.0594 319.007 77.9217 319.665 77.7841 319.665C77.6465 319.665 77.5383 319.007 77.558 318.191C77.5776 317.375 77.6956 316.736 77.8431 316.736Z" fill="#455A64"/>
<path d="M77.941 310.837C78.0786 310.837 78.1868 311.506 78.1671 312.312C78.1475 313.118 78.0295 313.767 77.8918 313.767C77.7542 313.767 77.6461 313.108 77.6559 312.302C77.6657 311.496 77.7935 310.837 77.941 310.837Z" fill="#455A64"/>
<path d="M78.0101 304.938C78.1478 304.938 78.2559 305.597 78.2461 306.403C78.2362 307.209 78.0986 307.888 77.9806 307.888C77.8627 307.888 77.725 307.229 77.7349 306.413C77.7447 305.597 77.8627 304.938 78.0101 304.938Z" fill="#455A64"/>
<path d="M78.0985 299.118C78.2361 299.118 78.3541 299.777 78.3442 300.583C78.3344 301.389 78.2262 302.048 78.0788 302.048C77.9313 302.048 77.833 301.389 77.833 300.583C77.833 299.777 77.9117 299.118 78.0985 299.118Z" fill="#455A64"/>
<path d="M78.0984 293.269C78.2458 293.269 78.354 293.918 78.354 294.724C78.354 295.53 78.236 296.189 78.0984 296.189C77.9607 296.189 77.8428 295.54 77.8428 294.724C77.8428 293.908 77.9214 293.269 78.0984 293.269Z" fill="#455A64"/>
<path d="M78.0983 287.409C78.2359 287.409 78.3539 288.058 78.3539 288.874C78.3539 289.69 78.2458 290.339 78.1081 290.339C77.9705 290.339 77.8525 289.68 77.8427 288.874C77.8329 288.068 77.9017 287.409 78.0983 287.409Z" fill="#455A64"/>
<path d="M78.0003 281.55C78.1379 281.55 78.2657 282.209 78.2657 283.015C78.2657 283.821 78.1674 284.48 78.0297 284.48C77.8921 284.48 77.7643 283.831 77.7545 283.015C77.7446 282.199 77.8626 281.55 78.0003 281.55Z" fill="#455A64"/>
<path d="M77.9217 275.701C78.0692 275.701 78.1871 276.35 78.197 277.156C78.2068 277.962 78.1085 278.621 77.9708 278.621C77.8332 278.621 77.7054 277.972 77.6857 277.165C77.6661 276.359 77.7841 275.701 77.9217 275.701Z" fill="#455A64"/>
<path d="M77.8226 269.841C77.9602 269.841 78.088 270.49 78.1076 271.306C78.1273 272.122 78.0192 272.771 77.8717 272.771C77.7242 272.771 77.6063 272.122 77.5964 271.316C77.5866 270.51 77.6751 269.851 77.8226 269.841Z" fill="#455A64"/>
<path d="M77.6856 263.982C77.8331 263.982 77.9609 264.631 77.9805 265.447C78.0002 266.263 77.9019 266.912 77.7642 266.912C77.6266 266.912 77.489 266.263 77.4693 265.457C77.4496 264.651 77.548 263.992 77.6856 263.982Z" fill="#455A64"/>
<path d="M77.4787 258.123C77.6261 258.123 77.7638 258.772 77.7933 259.578C77.8228 260.384 77.7343 261.053 77.5966 261.053C77.459 261.053 77.3115 260.414 77.282 259.598C77.2525 258.782 77.341 258.133 77.4787 258.123Z" fill="#455A64"/>
<path d="M77.1154 252.273C77.253 252.273 77.4103 252.912 77.4595 253.719C77.5086 254.525 77.4595 255.193 77.3022 255.203C77.1449 255.213 77.0072 254.564 76.9482 253.758C76.8893 252.952 76.9974 252.293 77.1154 252.273Z" fill="#455A64"/>
<path d="M76.6041 246.443C76.7418 246.443 76.9286 247.073 77.0072 247.879C77.0859 248.685 77.0072 249.344 76.8991 249.363C76.7909 249.383 76.5845 248.734 76.496 247.928C76.4075 247.122 76.4665 246.463 76.6041 246.443Z" fill="#455A64"/>
<path d="M76.0339 242.088C76.1814 242.088 76.3387 242.383 76.3977 242.786C76.4566 243.189 76.3977 243.533 76.2502 243.553C76.1027 243.573 75.9454 243.258 75.8864 242.855C75.8275 242.452 75.8963 242.118 76.0339 242.088Z" fill="#455A64"/>
<path d="M79.8686 214.414C79.9166 214.776 79.9166 215.143 79.8686 215.505C79.8686 216.193 79.8194 217.206 79.7604 218.455C79.6523 220.942 79.4753 224.353 79.2394 228.168C79.1116 230.055 78.9936 231.864 78.8855 233.516C78.8819 234.997 78.6667 236.47 78.2464 237.891C78.0741 238.373 77.8033 238.815 77.4513 239.187C77.0993 239.559 76.6737 239.854 76.2016 240.053C75.9461 240.159 75.672 240.213 75.3954 240.211C75.2087 240.211 75.1104 240.211 75.1104 240.162C75.4475 240.103 75.7771 240.007 76.0935 239.876C76.9429 239.435 77.5827 238.675 77.8729 237.763C78.2339 236.367 78.4058 234.928 78.3841 233.486C78.4824 231.825 78.5905 230.026 78.6987 228.138C78.9346 224.343 79.1706 220.912 79.377 218.425C79.4753 217.186 79.5638 216.184 79.6326 215.476C79.6746 215.115 79.7537 214.759 79.8686 214.414Z" fill="#455A64"/>
<path d="M77.1647 216.744C77.1647 216.685 77.6071 216.744 77.7644 217.344C77.8091 217.513 77.8128 217.69 77.7752 217.861C77.7376 218.032 77.6598 218.192 77.5481 218.327C77.3958 218.489 77.1964 218.6 76.9779 218.644C76.7594 218.689 76.5326 218.663 76.3291 218.572C76.1373 218.51 75.9679 218.393 75.8418 218.236C75.7158 218.078 75.6386 217.888 75.6197 217.687C75.6009 217.486 75.6413 217.284 75.7359 217.106C75.8305 216.928 75.9752 216.782 76.1521 216.685C76.6732 216.38 77.0369 216.636 76.9976 216.685C76.9583 216.734 76.6633 216.685 76.3586 216.99C76.2775 217.061 76.2121 217.149 76.1664 217.247C76.1207 217.345 76.0958 217.452 76.0932 217.56C76.1019 217.683 76.1466 217.801 76.2217 217.899C76.2969 217.997 76.3992 218.07 76.5159 218.11C76.6281 218.161 76.7524 218.179 76.8742 218.161C76.9961 218.144 77.1105 218.092 77.2041 218.012C77.2768 217.931 77.3325 217.836 77.3679 217.733C77.4034 217.63 77.4179 217.521 77.4105 217.412C77.381 216.99 77.1156 216.813 77.1647 216.744Z" fill="#455A64"/>
<path d="M52.3516 220.913C52.3516 220.834 53.2069 221.198 54.6029 221.394C56.4205 221.662 58.2769 221.406 59.9539 220.655C61.6309 219.905 63.0589 218.691 64.0702 217.157C64.8566 215.987 65.1221 215.132 65.2106 215.191C65.1064 215.977 64.8203 216.728 64.3749 217.383C63.3945 219.045 61.9216 220.361 60.1601 221.148C58.3987 221.936 56.436 222.156 54.5439 221.778C53.7561 221.663 53.0057 221.367 52.3516 220.913Z" fill="#455A64"/>
<path d="M96.2072 214.414C96.2859 214.414 96.3055 215.142 96.6496 216.223C97.074 217.638 97.8883 218.905 98.9994 219.879C100.11 220.852 101.473 221.493 102.932 221.728C104.052 221.925 104.77 221.846 104.78 221.935C104.171 222.148 103.518 222.203 102.883 222.092C101.319 221.941 99.8414 221.303 98.6596 220.268C97.4777 219.232 96.6509 217.852 96.2957 216.321C96.0955 215.705 96.0649 215.046 96.2072 214.414Z" fill="#455A64"/>
<path d="M111.003 218.425L52.8818 214.404L54.8972 186.641V171.128L49.2542 179.848L31.7451 164.61L50.5912 140.032C53.7817 136.699 57.7071 134.157 62.0542 132.61C64.3648 131.785 66.7887 131.321 69.2407 131.234C74.8904 133.018 80.9526 133.018 86.6023 131.234C91.943 131.718 97.226 132.706 102.381 134.183L124.383 140.082L117.138 167.107L103.846 162.634C103.846 162.634 111.141 212.821 111.003 218.425Z" fill="#1491ED"/>
<path d="M54.3662 172.032C55.4367 169.731 56.8087 167.582 58.4461 165.642C57.986 166.827 57.3747 167.947 56.6274 168.975C56.0117 170.089 55.2514 171.117 54.3662 172.032Z" fill="#263238"/>
<g opacity="0.6">
<path opacity="0.6" d="M123.587 140.376C123.587 140.514 107.287 140.632 87.2118 140.632C67.1368 140.632 50.8369 140.514 50.8369 140.376C50.8369 140.238 67.1269 140.12 87.2118 140.12C107.297 140.12 123.587 140.238 123.587 140.376Z" fill="white"/>
</g>
<g opacity="0.6">
<path opacity="0.6" d="M120.067 152.92C120.067 153.068 102.489 153.176 80.8014 153.176C59.1141 153.176 41.5264 153.068 41.5264 152.92C41.5264 152.773 59.1043 152.665 80.8505 152.665C102.597 152.665 120.067 152.783 120.067 152.92Z" fill="white"/>
</g>
<g opacity="0.6">
<path opacity="0.6" d="M104.78 166.724C104.78 166.861 89.0505 166.979 69.644 166.979C50.2375 166.979 34.498 166.861 34.498 166.724C34.498 166.586 50.2277 166.468 69.644 166.468C89.0603 166.468 104.78 166.586 104.78 166.724Z" fill="white"/>
</g>
<g opacity="0.6">
<path opacity="0.6" d="M106.609 181.746C106.609 181.883 95.0375 182.001 80.7628 182.001C66.4881 182.001 54.917 181.883 54.917 181.746C54.917 181.608 66.4783 181.49 80.7628 181.49C95.0473 181.49 106.609 181.598 106.609 181.746Z" fill="white"/>
</g>
<g opacity="0.6">
<path opacity="0.6" d="M108.133 197.328C108.133 197.466 96.2566 197.584 81.5887 197.584C66.9208 197.584 55.0449 197.466 55.0449 197.328C55.0449 197.19 66.9208 197.073 81.5887 197.073C96.2566 197.073 108.133 197.19 108.133 197.328Z" fill="white"/>
</g>
<g opacity="0.6">
<path opacity="0.6" d="M110.54 211.622C110.54 211.76 97.6814 211.878 81.8239 211.878C65.9665 211.878 53.0977 211.76 53.0977 211.622C53.0977 211.484 65.9566 211.366 81.8239 211.366C97.6912 211.366 110.54 211.475 110.54 211.622Z" fill="white"/>
</g>
</svg>
