<svg width="27" height="22" viewBox="0 0 27 22" fill="none" xmlns="http://www.w3.org/2000/svg">
<path d="M1 21H25.3478" stroke="white" stroke-width="2" stroke-linecap="round" stroke-linejoin="round"/>
<path d="M14.9122 21V1.86956C14.9122 1.63894 14.8206 1.41776 14.6575 1.25469C14.4944 1.09161 14.2733 1 14.0426 1H3.60785C3.37722 1 3.15605 1.09161 2.99297 1.25469C2.8299 1.41776 2.73828 1.63894 2.73828 1.86956V21" stroke="white" stroke-width="2" stroke-linecap="round" stroke-linejoin="round"/>
<path d="M23.6078 21V8.82611C23.6078 8.59549 23.5161 8.37431 23.3531 8.21123C23.19 8.04816 22.9688 7.95654 22.7382 7.95654H14.9121" stroke="white" stroke-width="2" stroke-linecap="round" stroke-linejoin="round"/>
<path d="M6.2168 5.3479H9.69506" stroke="white" stroke-width="2" stroke-linecap="round" stroke-linejoin="round"/>
<path d="M7.95605 12.3044H11.4343" stroke="white" stroke-width="2" stroke-linecap="round" stroke-linejoin="round"/>
<path d="M6.2168 16.6521H9.69506" stroke="white" stroke-width="2" stroke-linecap="round" stroke-linejoin="round"/>
<path d="M18.3906 16.6521H20.1298" stroke="white" stroke-width="2" stroke-linecap="round" stroke-linejoin="round"/>
<path d="M18.3906 12.3044H20.1298" stroke="white" stroke-width="2" stroke-linecap="round" stroke-linejoin="round"/>
</svg>
