<svg width="17" height="17" viewBox="0 0 22 22" fill="none" xmlns="http://www.w3.org/2000/svg">
<path d="M17.8 17H6.38182L3.59216 1.65689C3.55865 1.47256 3.4615 1.30584 3.31766 1.1858C3.17382 1.06575 2.99242 1 2.80507 1H1" stroke="currentColor" stroke-width="1.6" stroke-linecap="round" stroke-linejoin="round"/>
<path d="M7.3999 21C8.50447 21 9.3999 20.1046 9.3999 19C9.3999 17.8954 8.50447 17 7.3999 17C6.29533 17 5.3999 17.8954 5.3999 19C5.3999 20.1046 6.29533 21 7.3999 21Z" stroke="currentColor" stroke-width="1.6" stroke-linecap="round" stroke-linejoin="round"/>
<path d="M17.8 21C18.9046 21 19.8 20.1046 19.8 19C19.8 17.8954 18.9046 17 17.8 17C16.6955 17 15.8 17.8954 15.8 19C15.8 20.1046 16.6955 21 17.8 21Z" stroke="currentColor" stroke-width="1.6" stroke-linecap="round" stroke-linejoin="round"/>
<path d="M5.65449 13H18.2101C18.5848 13 18.9476 12.8685 19.2353 12.6284C19.523 12.3883 19.7172 12.0549 19.7843 11.6862L21 5H4.19995" stroke="currentColor" stroke-width="1.6" stroke-linecap="round" stroke-linejoin="round"/>
</svg>
