<svg width="22" height="22" viewBox="0 0 22 22" fill="none" xmlns="http://www.w3.org/2000/svg">
<path d="M4.49562 7.86982C4.65031 7.54325 4.83078 7.23388 5.03703 6.9331L5.00266 4.69872C5.00266 4.49247 5.08859 4.29482 5.25187 4.15732C6.05109 3.48701 6.96203 2.9456 7.9675 2.58466C8.16515 2.51591 8.38 2.5331 8.55187 2.64482L10.4683 3.79638C10.8292 3.7706 11.1902 3.7706 11.5511 3.79638L13.4675 2.64482C13.648 2.54169 13.8628 2.51591 14.0605 2.58466C15.0402 2.937 15.9597 3.46122 16.7761 4.14872C16.9308 4.27763 17.0253 4.48388 17.0167 4.69013L16.9823 6.9245C17.1886 7.22529 17.3691 7.53466 17.5237 7.86122L19.4745 8.94404C19.655 9.04716 19.7839 9.21904 19.8183 9.42529C19.9987 10.4479 20.0073 11.5136 19.8183 12.5534C19.7839 12.7597 19.655 12.9315 19.4745 13.0347L17.5237 14.1175C17.3691 14.444 17.1886 14.7534 16.9823 15.0542L17.0167 17.2886C17.0167 17.4948 16.9308 17.6925 16.7675 17.83C15.9683 18.5003 15.0573 19.0417 14.0519 19.4026C13.8542 19.4714 13.6394 19.4542 13.4675 19.3425L11.5511 18.1909C11.1902 18.2167 10.8292 18.2167 10.4683 18.1909L8.55187 19.3425C8.3714 19.4456 8.15656 19.4714 7.9589 19.4026C6.97922 19.0503 6.05969 18.5261 5.24328 17.8386C5.08859 17.7097 4.99406 17.5034 5.00266 17.2972L5.03703 15.0628C4.83078 14.762 4.65031 14.4526 4.49562 14.1261L2.54484 13.0433C2.36437 12.9401 2.23547 12.7683 2.20109 12.562C2.02062 11.5393 2.01203 10.4737 2.20109 9.43388C2.23547 9.22763 2.36437 9.05575 2.54484 8.95263L4.49562 7.86982Z" stroke="currentColor" stroke-width="1.4" stroke-miterlimit="10" stroke-linecap="round" stroke-linejoin="round"/>
<path d="M11 15.125C13.2782 15.125 15.125 13.2782 15.125 11C15.125 8.72183 13.2782 6.875 11 6.875C8.72183 6.875 6.875 8.72183 6.875 11C6.875 13.2782 8.72183 15.125 11 15.125Z" stroke="currentColor" stroke-width="1.4" stroke-miterlimit="10" stroke-linecap="round" stroke-linejoin="round"/>
</svg>
