<svg width="20" height="20" viewBox="0 0 20 20" fill="none" xmlns="http://www.w3.org/2000/svg">
<path d="M1.25 16.874H18.75" stroke="#6B7280" stroke-width="1.4" stroke-linecap="round" stroke-linejoin="round"/>
<path d="M11.25 16.874V3.12402C11.25 2.95826 11.1842 2.79929 11.0669 2.68208C10.9497 2.56487 10.7908 2.49902 10.625 2.49902H3.125C2.95924 2.49902 2.80027 2.56487 2.68306 2.68208C2.56585 2.79929 2.5 2.95826 2.5 3.12402V16.874" stroke="#6B7280" stroke-width="1.4" stroke-linecap="round" stroke-linejoin="round"/>
<path d="M17.5 16.874V8.12402C17.5 7.95826 17.4342 7.79929 17.3169 7.68208C17.1997 7.56487 17.0408 7.49902 16.875 7.49902H11.25" stroke="#6B7280" stroke-width="1.4" stroke-linecap="round" stroke-linejoin="round"/>
<path d="M5 5.62402H7.5" stroke="#6B7280" stroke-width="1.4" stroke-linecap="round" stroke-linejoin="round"/>
<path d="M6.25 10.624H8.75" stroke="#6B7280" stroke-width="1.4" stroke-linecap="round" stroke-linejoin="round"/>
<path d="M5 13.749H7.5" stroke="#6B7280" stroke-width="1.4" stroke-linecap="round" stroke-linejoin="round"/>
<path d="M13.75 13.749H15" stroke="#6B7280" stroke-width="1.4" stroke-linecap="round" stroke-linejoin="round"/>
<path d="M13.75 10.624H15" stroke="#6B7280" stroke-width="1.4" stroke-linecap="round" stroke-linejoin="round"/>
</svg>
