<svg width="16" height="16" viewBox="0 0 16 16" fill="none" xmlns="http://www.w3.org/2000/svg">
<path d="M8 0.5C3.858 0.5 0.5 3.858 0.5 8C0.5 12.142 3.858 15.5 8 15.5C12.142 15.5 15.5 12.142 15.5 8C15.5 3.858 12.142 0.5 8 0.5ZM6.852 9.88025C7.181 10.2855 7.599 10.488 8.1065 10.488C8.626 10.488 9.0225 10.3142 9.2955 9.9665C9.4465 9.7795 9.5715 9.499 9.671 9.125H11.1768C11.0468 9.91575 10.7147 10.5588 10.1812 11.0542C9.647 11.5495 8.9635 11.7972 8.129 11.7972C7.09675 11.7972 6.28525 11.4628 5.695 10.7933C5.10425 10.121 4.80875 9.19875 4.80875 8.0275C4.80875 6.761 5.14475 5.78475 5.8165 5.09925C6.401 4.502 7.14425 4.2035 8.0465 4.2035C9.254 4.2035 10.1367 4.60375 10.695 5.4045C11.0035 5.854 11.169 6.305 11.1915 6.75775H9.67575C9.579 6.40975 9.4555 6.14775 9.30475 5.9705C9.03475 5.6555 8.63425 5.49775 8.104 5.49775C7.564 5.49775 7.13825 5.72025 6.82625 6.16475C6.51475 6.60925 6.359 7.2385 6.359 8.052C6.359 8.8655 6.5235 9.47475 6.852 9.88025Z" fill="#0F8BFF"/>
</svg>
