<svg width="18" height="24" viewBox="0 0 18 24" fill="none" xmlns="http://www.w3.org/2000/svg">
<path d="M10.2682 3.33268L15.5007 8.56518V20.666H2.50065V3.33268H10.2682ZM11.1673 1.16602H2.50065C1.30898 1.16602 0.333984 2.14102 0.333984 3.33268V20.666C0.333984 21.8577 1.30898 22.8327 2.50065 22.8327H15.5007C16.6923 22.8327 17.6673 21.8577 17.6673 20.666V7.66602L11.1673 1.16602ZM9.00065 14.166C10.1923 14.166 11.1673 13.191 11.1673 11.9993C11.1673 10.8077 10.1923 9.83268 9.00065 9.83268C7.80898 9.83268 6.83398 10.8077 6.83398 11.9993C6.83398 13.191 7.80898 14.166 9.00065 14.166ZM13.334 17.8818C13.334 17.0043 12.814 16.2243 12.0123 15.8777C11.0624 15.4631 10.0371 15.2491 9.00065 15.2491C7.9642 15.2491 6.93891 15.4631 5.98899 15.8777C5.59651 16.0454 5.26198 16.3248 5.027 16.6812C4.79202 17.0375 4.66694 17.455 4.66732 17.8818V18.4993H13.334V17.8818Z" fill="black" stroke="white" stroke-width="0.5"/>
</svg>
