<svg width="26" height="26" viewBox="0 0 26 26" fill="none" xmlns="http://www.w3.org/2000/svg">
<g clip-path="url(#clip0_11878_182870)">
<path d="M25.9986 0.0839844H12.7031V25.9152H25.9986V0.0839844Z" fill="#3CC676"/>
<path d="M24.1022 2.02637H14.6055V23.9744H24.1022V2.02637Z" fill="#0AA06E"/>
<path d="M14.6055 2.02637H24.1022V23.9744" fill="#078457"/>
<path d="M19.3326 18.6554C22.666 18.6554 25.3683 15.9531 25.3683 12.6197C25.3683 9.28627 22.666 6.58398 19.3326 6.58398C15.9992 6.58398 13.2969 9.28627 13.2969 12.6197C13.2969 15.9531 15.9992 18.6554 19.3326 18.6554Z" fill="#FFF6E1"/>
<path d="M19.332 6.54199C22.6664 6.54199 25.3677 9.24329 25.3677 12.5777C25.3677 15.9121 22.6664 18.6556 19.332 18.6556" fill="#FFEEBD"/>
<path d="M24.9007 13.0849H23.55C23.55 13.8868 23.2968 14.6888 22.9591 15.153L22.0305 14.8154C22.3682 14.3089 22.6214 13.6336 22.6214 12.8738C22.6214 11.903 22.0727 11.2699 21.2708 11.2699C20.5111 11.2699 20.0468 11.8186 19.6669 12.7894C19.1182 14.1823 18.4851 15.0264 17.3033 15.0264C16.1637 15.0264 15.3195 14.2245 15.1085 12.9582H13.7578V12.1141H15.0663C15.1085 11.3121 15.3195 10.7212 15.5305 10.3414L16.4169 10.679C16.2481 10.9745 15.9526 11.5232 15.9526 12.4095C15.9526 13.4647 16.5857 13.8446 17.1344 13.8446C17.852 13.8446 18.1896 13.3381 18.6961 12.1563C19.287 10.7634 19.9624 10.0459 21.1864 10.0459C22.2416 10.0459 23.2546 10.8056 23.5078 12.1985H24.9007V13.0849Z" fill="#FFC114"/>
<path d="M19.2891 11.0589V13.5914C19.4157 13.3381 19.5423 13.0849 19.6689 12.7472C20.091 11.7342 20.5553 11.2277 21.2728 11.2277C22.0326 11.2277 22.6235 11.8608 22.6235 12.8316C22.6235 13.5914 22.3702 14.3089 22.0326 14.7732L22.9611 15.1108C23.2988 14.6465 23.552 13.8024 23.552 13.0427H24.9027V12.1985H23.5098C23.2988 10.8056 22.2858 10.0459 21.1884 10.0459C20.3443 10.0881 19.7533 10.4258 19.2891 11.0589Z" fill="#FF8A15"/>
<path d="M15.4058 22.4119V20.9769H13.0844C11.6916 20.597 9.83442 20.3438 7.76623 20.3438C5.69805 20.3438 3.75649 20.597 2.40584 20.9769H0.0422078V22.4119C0.0422078 22.4541 0 22.4963 0 22.5808C0 23.8048 3.46104 24.7756 7.68182 24.7756C11.9448 24.7756 15.3636 23.8048 15.3636 22.5808C15.4058 22.4963 15.4058 22.4541 15.4058 22.4119Z" fill="#D18307"/>
<path d="M7.72479 23.3828C11.9673 23.3828 15.4066 22.4001 15.4066 21.188C15.4066 19.9758 11.9673 18.9932 7.72479 18.9932C3.48224 18.9932 0.0429688 19.9758 0.0429688 21.188C0.0429688 22.4001 3.48224 23.3828 7.72479 23.3828Z" fill="#F2B233"/>
<path d="M7.72266 18.9932C11.9856 18.9932 15.4045 19.9639 15.4045 21.188C15.4045 22.412 11.9434 23.3828 7.72266 23.3828" fill="#DD981D"/>
<path d="M7.72423 22.1169C10.4283 22.1169 12.6203 21.5311 12.6203 20.8084C12.6203 20.0858 10.4283 19.5 7.72423 19.5C5.02018 19.5 2.82812 20.0858 2.82812 20.8084C2.82812 21.5311 5.02018 22.1169 7.72423 22.1169Z" fill="#F2B233"/>
<path d="M7.72423 22.1169C5.02293 22.1169 2.82812 21.526 2.82812 20.8084C2.82812 20.0909 5.02293 19.5 7.72423 19.5" fill="#F9DB7A"/>
<path d="M7.03482 20.145C7.01195 19.9599 6.26194 19.9002 5.35961 20.0117C4.45728 20.1232 3.74433 20.3636 3.7672 20.5487C3.79006 20.7337 4.54008 20.7934 5.4424 20.682C6.34473 20.5705 7.05768 20.3301 7.03482 20.145Z" fill="#FFEEBD"/>
<path d="M0.546875 21.9902V23.3831C0.673498 23.4675 0.800122 23.5519 0.968953 23.6363V22.2435C0.800122 22.1591 0.673498 22.0746 0.546875 21.9902Z" fill="#F2B233"/>
<path d="M2.27734 22.75V24.1429C2.40397 24.1851 2.53059 24.2273 2.69942 24.2695V22.8766C2.5728 22.8344 2.40397 22.7922 2.27734 22.75Z" fill="#F2B233"/>
<path d="M4.05078 23.1299V24.5227C4.1774 24.5227 4.30403 24.5649 4.47286 24.5649V23.1721C4.30403 23.1721 4.1774 23.1299 4.05078 23.1299Z" fill="#F2B233"/>
<path d="M5.78125 23.2988V24.6917C5.90787 24.6917 6.0345 24.6917 6.20333 24.7339V23.341C6.0345 23.341 5.90787 23.341 5.78125 23.2988Z" fill="#F2B233"/>
<path d="M7.72276 23.3828C7.63834 23.3828 7.59613 23.3828 7.51172 23.3828V24.7757C7.59613 24.7757 7.63834 24.7757 7.72276 24.7757C7.80717 24.7757 7.84938 24.7757 7.9338 24.7757V23.3828C7.84938 23.3828 7.80717 23.3828 7.72276 23.3828Z" fill="#F2B233"/>
<path d="M9.24219 23.341V24.7339C9.36881 24.7339 9.49543 24.7339 9.66427 24.6917V23.2988C9.53764 23.341 9.41102 23.341 9.24219 23.341Z" fill="#F2B233"/>
<path d="M11.0156 23.1721V24.5649C11.1422 24.5649 11.3111 24.5227 11.4377 24.5227V23.1299C11.2689 23.1299 11.1422 23.1721 11.0156 23.1721Z" fill="#F2B233"/>
<path d="M12.7461 22.8346V24.2275C12.8727 24.1853 13.0415 24.1431 13.1682 24.1009V22.708C12.9993 22.7924 12.8727 22.8346 12.7461 22.8346Z" fill="#F2B233"/>
<path d="M14.4766 22.2435V23.6363C14.6454 23.5519 14.772 23.4675 14.8986 23.3831V21.9902C14.772 22.0746 14.6454 22.1591 14.4766 22.2435Z" fill="#F2B233"/>
<path d="M15.4058 18.0653V16.6302H13.0844C11.6916 16.2503 9.83442 15.9971 7.76623 15.9971C5.69805 15.9971 3.7987 16.2503 2.44805 16.6302H0.0422078V18.0653C0.0422078 18.1075 0 18.1497 0 18.2341C0 19.4581 3.46104 20.4289 7.68182 20.4289C11.9448 20.4289 15.3636 19.4581 15.3636 18.2341C15.4058 18.1919 15.4058 18.1075 15.4058 18.0653Z" fill="#D18307"/>
<path d="M7.72479 19.0361C11.9673 19.0361 15.4066 18.0534 15.4066 16.8413C15.4066 15.6291 11.9673 14.6465 7.72479 14.6465C3.48224 14.6465 0.0429688 15.6291 0.0429688 16.8413C0.0429688 18.0534 3.48224 19.0361 7.72479 19.0361Z" fill="#F2B233"/>
<path d="M7.72266 14.6465C11.9856 14.6465 15.4045 15.6173 15.4045 16.8413C15.4045 18.0653 11.9434 19.0361 7.72266 19.0361" fill="#DD981D"/>
<path d="M7.72423 17.7692C10.4283 17.7692 12.6203 17.1834 12.6203 16.4608C12.6203 15.7382 10.4283 15.1523 7.72423 15.1523C5.02018 15.1523 2.82812 15.7382 2.82812 16.4608C2.82812 17.1834 5.02018 17.7692 7.72423 17.7692Z" fill="#F2B233"/>
<path d="M7.72423 17.7692C5.02293 17.7692 2.82812 17.1783 2.82812 16.4608C2.82812 15.7433 5.02293 15.1523 7.72423 15.1523" fill="#F9DB7A"/>
<path d="M7.03482 15.7993C7.01195 15.6142 6.26194 15.5545 5.35961 15.666C4.45728 15.7775 3.74433 16.0179 3.7672 16.203C3.79006 16.388 4.54008 16.4477 5.4424 16.3363C6.34473 16.2248 7.05768 15.9844 7.03482 15.7993Z" fill="#FFEEBD"/>
<path d="M0.546875 17.6426V19.0354C0.673498 19.1199 0.800122 19.2043 0.968953 19.2887V17.8958C0.800122 17.8114 0.673498 17.727 0.546875 17.6426Z" fill="#F2B233"/>
<path d="M2.27734 18.4023V19.7952C2.40397 19.8374 2.53059 19.8796 2.69942 19.9218V18.529C2.5728 18.4868 2.40397 18.4446 2.27734 18.4023Z" fill="#F2B233"/>
<path d="M4.05078 18.7822V20.1751C4.1774 20.1751 4.30403 20.2173 4.47286 20.2173V18.8244C4.30403 18.8244 4.1774 18.7822 4.05078 18.7822Z" fill="#F2B233"/>
<path d="M5.78125 18.9512V20.344C5.90787 20.344 6.0345 20.344 6.20333 20.3862V18.9934C6.0345 18.9934 5.90787 18.9934 5.78125 18.9512Z" fill="#F2B233"/>
<path d="M7.72276 19.0352C7.63834 19.0352 7.59613 19.0352 7.51172 19.0352V20.428C7.59613 20.428 7.63834 20.428 7.72276 20.428C7.80717 20.428 7.84938 20.428 7.9338 20.428V19.0352C7.84938 19.0352 7.80717 19.0352 7.72276 19.0352Z" fill="#F2B233"/>
<path d="M9.24219 18.9934V20.3862C9.36881 20.3862 9.49543 20.3862 9.66427 20.344V18.9512C9.53764 18.9934 9.41102 18.9934 9.24219 18.9934Z" fill="#F2B233"/>
<path d="M11.0156 18.8244V20.2173C11.1422 20.2173 11.3111 20.1751 11.4377 20.1751V18.7822C11.2689 18.7822 11.1422 18.8244 11.0156 18.8244Z" fill="#F2B233"/>
<path d="M12.7461 18.529V19.9218C12.8727 19.8796 13.0415 19.8374 13.1682 19.7952V18.4023C12.9993 18.4446 12.8727 18.4868 12.7461 18.529Z" fill="#F2B233"/>
<path d="M14.4766 17.8958V19.2887C14.6454 19.2043 14.772 19.1199 14.8986 19.0354V17.6426C14.772 17.727 14.6454 17.8114 14.4766 17.8958Z" fill="#F2B233"/>
<path d="M15.4058 13.7176V12.2825H13.0844C11.6916 11.9027 9.83442 11.6494 7.76623 11.6494C5.69805 11.6494 3.7987 11.9027 2.44805 12.2825H0.0422078V13.7176C0.0422078 13.7598 0 13.802 0 13.8864C0 15.1105 3.46104 16.0812 7.68182 16.0812C11.9448 16.0812 15.3636 15.1105 15.3636 13.8864C15.4058 13.8442 15.4058 13.7598 15.4058 13.7176Z" fill="#D18307"/>
<path d="M7.72479 14.6884C11.9673 14.6884 15.4066 13.7058 15.4066 12.4936C15.4066 11.2815 11.9673 10.2988 7.72479 10.2988C3.48224 10.2988 0.0429688 11.2815 0.0429688 12.4936C0.0429688 13.7058 3.48224 14.6884 7.72479 14.6884Z" fill="#F2B233"/>
<path d="M7.72266 10.2988C11.9856 10.2988 15.4045 11.2696 15.4045 12.4936C15.4045 13.7177 11.9434 14.6884 7.72266 14.6884" fill="#DD981D"/>
<path d="M7.72423 13.4225C10.4283 13.4225 12.6203 12.8367 12.6203 12.1141C12.6203 11.3915 10.4283 10.8057 7.72423 10.8057C5.02018 10.8057 2.82812 11.3915 2.82812 12.1141C2.82812 12.8367 5.02018 13.4225 7.72423 13.4225Z" fill="#F2B233"/>
<path d="M7.72423 13.4225C5.02293 13.4225 2.82812 12.8316 2.82812 12.1141C2.82812 11.3966 5.02293 10.8057 7.72423 10.8057" fill="#F9DB7A"/>
<path d="M7.03872 11.4917C7.01586 11.3066 6.26584 11.2469 5.36352 11.3584C4.46119 11.4699 3.74824 11.7103 3.7711 11.8953C3.79397 12.0804 4.54398 12.1401 5.44631 12.0286C6.34864 11.9172 7.06159 11.6768 7.03872 11.4917Z" fill="#FFEEBD"/>
<path d="M0.546875 13.2959V14.6888C0.673498 14.7732 0.800122 14.8576 0.968953 14.942V13.5491C0.800122 13.4647 0.673498 13.3803 0.546875 13.2959Z" fill="#F2B233"/>
<path d="M2.27734 14.0557V15.4485C2.40397 15.4907 2.53059 15.5329 2.69942 15.5751V14.1823C2.5728 14.1401 2.40397 14.0979 2.27734 14.0557Z" fill="#F2B233"/>
<path d="M4.05078 14.4355V15.8284C4.1774 15.8284 4.30403 15.8706 4.47286 15.8706V14.4778C4.30403 14.4778 4.1774 14.4355 4.05078 14.4355Z" fill="#F2B233"/>
<path d="M5.78125 14.6465V16.0393C5.90787 16.0393 6.0345 16.0393 6.20333 16.0815V14.6887C6.0345 14.6465 5.90787 14.6465 5.78125 14.6465Z" fill="#F2B233"/>
<path d="M7.72276 14.6885C7.63834 14.6885 7.59613 14.6885 7.51172 14.6885V16.0813C7.59613 16.0813 7.63834 16.0813 7.72276 16.0813C7.80717 16.0813 7.84938 16.0813 7.9338 16.0813V14.6885C7.84938 14.6885 7.80717 14.6885 7.72276 14.6885Z" fill="#F2B233"/>
<path d="M9.24219 14.6467V16.0396C9.36881 16.0396 9.49543 16.0396 9.66427 15.9974V14.6045C9.53764 14.6467 9.41102 14.6467 9.24219 14.6467Z" fill="#F2B233"/>
<path d="M11.0156 14.4778V15.8706C11.1422 15.8706 11.3111 15.8284 11.4377 15.8284V14.4355C11.2689 14.4355 11.1422 14.4778 11.0156 14.4778Z" fill="#F2B233"/>
<path d="M12.7461 14.1825V15.5332C12.8727 15.4909 13.0415 15.4487 13.1682 15.4065V14.0137C12.9993 14.0981 12.8727 14.1403 12.7461 14.1825Z" fill="#F2B233"/>
<path d="M14.4766 13.5491V14.942C14.6454 14.8576 14.772 14.7732 14.8986 14.6888V13.2959C14.772 13.3803 14.6454 13.4647 14.4766 13.5491Z" fill="#F2B233"/>
</g>
<defs>
<clipPath id="clip0_11878_182870">
<rect width="26" height="26" fill="white"/>
</clipPath>
</defs>
</svg>
