<svg width="19" height="19" viewBox="0 0 22 22" fill="none" xmlns="http://www.w3.org/2000/svg">
<path d="M17.1882 19.25H4.8125C4.63016 19.25 4.4553 19.1776 4.32636 19.0486C4.19743 18.9197 4.125 18.7448 4.125 18.5625V3.4375C4.125 3.25516 4.19743 3.0803 4.32636 2.95136C4.4553 2.82243 4.63016 2.75 4.8125 2.75H13.0632L17.8757 7.5625V18.5625C17.8757 18.6528 17.8579 18.7422 17.8233 18.8256C17.7888 18.909 17.7381 18.9848 17.6743 19.0486C17.6105 19.1125 17.5347 19.1631 17.4513 19.1977C17.3679 19.2322 17.2785 19.25 17.1882 19.25Z" stroke="currentColor" stroke-width="1.4" stroke-linecap="round" stroke-linejoin="round"/>
<path d="M13.0625 2.75V7.5625H17.8757" stroke="currentColor" stroke-width="1.4" stroke-linecap="round" stroke-linejoin="round"/>
<path d="M8.25 11.6875H13.75" stroke="currentColor" stroke-width="1.4" stroke-linecap="round" stroke-linejoin="round"/>
<path d="M8.25 14.4375H13.75" stroke="currentColor" stroke-width="1.4" stroke-linecap="round" stroke-linejoin="round"/>
</svg>
