<svg width="26" height="26" viewBox="0 0 26 26" fill="none" xmlns="http://www.w3.org/2000/svg">
<path d="M14.794 0.896484H13.0009V2.24131H8.96646V0.896484H7.17336H0.449219V25.9999H21.5182V0.896484H14.794Z" fill="#545E73"/>
<path d="M12.9993 0H8.96484V2.24138H12.9993V0Z" fill="#404656"/>
<path d="M16.1378 2.24121V3.58604H5.82745V2.24121H1.79297V24.655H20.1723V2.24121H16.1378Z" fill="#EFEBDE"/>
<path d="M13.0005 0.896484V2.24131H8.96606V0.896484H5.82812V3.58614H16.1385V0.896484H13.0005Z" fill="#8697CB"/>
<path d="M10.311 7.17194H4.48343C4.23554 7.17194 4.03516 6.97156 4.03516 6.72367C4.03516 6.47577 4.23554 6.27539 4.48343 6.27539H10.311C10.5589 6.27539 10.7593 6.47577 10.7593 6.72367C10.7593 6.97156 10.5589 7.17194 10.311 7.17194Z" fill="#D5D0BB"/>
<path d="M10.311 21.0694H4.48343C4.23554 21.0694 4.03516 20.869 4.03516 20.6211C4.03516 20.3732 4.23554 20.1729 4.48343 20.1729H10.311C10.5589 20.1729 10.7593 20.3732 10.7593 20.6211C10.7593 20.869 10.5589 21.0694 10.311 21.0694Z" fill="#D5D0BB"/>
<path d="M17.4834 9.86237H4.48343C4.23554 9.86237 4.03516 9.66199 4.03516 9.4141C4.03516 9.1662 4.23554 8.96582 4.48343 8.96582H17.4834C17.7313 8.96582 17.9317 9.1662 17.9317 9.4141C17.9317 9.66199 17.7313 9.86237 17.4834 9.86237Z" fill="#D5D0BB"/>
<path d="M17.4834 15.2413H4.48343C4.23554 15.2413 4.03516 15.0409 4.03516 14.793C4.03516 14.5451 4.23554 14.3447 4.48343 14.3447H17.4834C17.7313 14.3447 17.9317 14.5451 17.9317 14.793C17.9317 15.0409 17.7313 15.2413 17.4834 15.2413Z" fill="#D5D0BB"/>
<path d="M17.4834 18.379H4.48343C4.23554 18.379 4.03516 18.1786 4.03516 17.9307C4.03516 17.6828 4.23554 17.4824 4.48343 17.4824H17.4834C17.7313 17.4824 17.9317 17.6828 17.9317 17.9307C17.9317 18.1786 17.7313 18.379 17.4834 18.379Z" fill="#D5D0BB"/>
<path d="M10.7593 12.5518H4.48343C4.23554 12.5518 4.03516 12.3514 4.03516 12.1035C4.03516 11.8557 4.23554 11.6553 4.48343 11.6553H10.7593C11.0072 11.6553 11.2076 11.8557 11.2076 12.1035C11.2076 12.3514 11.0072 12.5518 10.7593 12.5518Z" fill="#D5D0BB"/>
<path d="M17.4846 12.5518H14.3467C14.0988 12.5518 13.8984 12.3514 13.8984 12.1035C13.8984 11.8557 14.0988 11.6553 14.3467 11.6553H17.4846C17.7325 11.6553 17.9329 11.8557 17.9329 12.1035C17.9329 12.3514 17.7325 12.5518 17.4846 12.5518Z" fill="#D5D0BB"/>
<path d="M12.5537 12.5518C12.4323 12.5518 12.3202 12.5065 12.2355 12.4218C12.1543 12.3366 12.1055 12.2201 12.1055 12.1035C12.1055 11.9821 12.1503 11.87 12.2355 11.7853C12.4058 11.6149 12.7017 11.6194 12.872 11.7853C12.9567 11.87 13.002 11.9821 13.002 12.1035C13.002 12.2246 12.9527 12.3366 12.872 12.4218C12.7868 12.5025 12.6748 12.5518 12.5537 12.5518Z" fill="#D5D0BB"/>
<path d="M20.1723 25.9998C23.1432 25.9998 25.5516 23.5914 25.5516 20.6205C25.5516 17.6496 23.1432 15.2412 20.1723 15.2412C17.2014 15.2412 14.793 17.6496 14.793 20.6205C14.793 23.5914 17.2014 25.9998 20.1723 25.9998Z" fill="#71C386"/>
<path d="M22.8627 20.1721H20.6214V17.9307C20.6214 17.6832 20.4205 17.4824 20.1731 17.4824C19.9256 17.4824 19.7248 17.6832 19.7248 17.9307V20.1721H17.4834C17.236 20.1721 17.0352 20.3729 17.0352 20.6204C17.0352 20.8678 17.236 21.0686 17.4834 21.0686H19.7248V23.31C19.7248 23.5575 19.9256 23.7583 20.1731 23.7583C20.4205 23.7583 20.6214 23.5575 20.6214 23.31V21.0686H22.8627C23.1102 21.0686 23.311 20.8678 23.311 20.6204C23.311 20.3729 23.1102 20.1721 22.8627 20.1721Z" fill="white"/>
</svg>
