<svg width="22" height="24" viewBox="0 0 22 24" fill="none" xmlns="http://www.w3.org/2000/svg">
<path d="M20.7714 17.0789V6.92111C20.7714 6.77493 20.7325 6.63139 20.6587 6.50521C20.5849 6.37903 20.4788 6.27476 20.3514 6.2031L11.2896 1.1058C11.1662 1.03644 11.0272 1 10.8857 1C10.7442 1 10.6051 1.03644 10.4818 1.1058L1.41993 6.2031C1.29252 6.27476 1.18648 6.37903 1.11269 6.50521C1.03889 6.63139 1 6.77493 1 6.92111V17.0789C1 17.2251 1.03889 17.3686 1.11269 17.4948C1.18648 17.621 1.29252 17.7252 1.41993 17.7969L10.4818 22.8942C10.6051 22.9636 10.7442 23 10.8857 23C11.0272 23 11.1662 22.9636 11.2896 22.8942L20.3514 17.7969C20.4788 17.7252 20.5849 17.621 20.6587 17.4948C20.7325 17.3686 20.7714 17.2251 20.7714 17.0789Z" stroke="white" stroke-width="1.6" stroke-linecap="round" stroke-linejoin="round"/>
<path d="M15.5 9.5L6 4" stroke="white" stroke-width="1.6" stroke-linecap="round" stroke-linejoin="round"/>
<path d="M20.6579 6.50323L10.9836 11.9994L1.11426 6.5022" stroke="white" stroke-width="1.6" stroke-linecap="round" stroke-linejoin="round"/>
<path d="M10.9831 12L10.8865 23" stroke="white" stroke-width="1.6" stroke-linecap="round" stroke-linejoin="round"/>
</svg>
