<svg width="20" height="24" viewBox="0 0 20 24" fill="none" xmlns="http://www.w3.org/2000/svg">
<path d="M18.0982 23H1.89893C1.66026 23 1.43137 22.9034 1.2626 22.7315C1.09383 22.5596 0.999023 22.3264 0.999023 22.0833V1.91667C0.999023 1.67355 1.09383 1.44039 1.2626 1.26849C1.43137 1.09658 1.66026 1 1.89893 1H12.6987L18.9981 7.41667V22.0833C18.9981 22.2037 18.9749 22.3229 18.9296 22.4341C18.8844 22.5453 18.8181 22.6464 18.7346 22.7315C18.651 22.8166 18.5518 22.8842 18.4426 22.9302C18.3334 22.9763 18.2164 23 18.0982 23Z" stroke="#1491ED" stroke-width="2" stroke-linecap="round" stroke-linejoin="round"/>
<path d="M12.6987 1V7.41667H18.999" stroke="#1491ED" stroke-width="2" stroke-linecap="round" stroke-linejoin="round"/>
<path d="M6.39941 12.9167H13.5987" stroke="#1491ED" stroke-width="2" stroke-linecap="round" stroke-linejoin="round"/>
<path d="M6.39941 16.5833H13.5987" stroke="#1491ED" stroke-width="2" stroke-linecap="round" stroke-linejoin="round"/>
</svg>
