<svg width="120" height="120" viewBox="0 0 120 120" fill="none" xmlns="http://www.w3.org/2000/svg">
<rect width="120" height="120" rx="60" fill="#1491ED" fill-opacity="0.1"/>
<path fill-rule="evenodd" clip-rule="evenodd" d="M53.7314 25.1025C48.2753 25.437 43.0484 26.2869 38.0105 27.6585C35.5065 28.3403 34.6567 28.6807 33.9388 29.2896C33.0938 30.0065 32.8825 30.4711 32.8825 31.6112V32.5711H31.7306C29.7804 32.5711 28.2368 33.107 27.0412 34.1994C26.289 34.8865 25.9281 35.5779 25.8025 36.5724L25.711 37.2979L24.8499 37.3428C23.8821 37.3932 23.3279 37.6801 23.112 38.2429C23.022 38.4773 22.982 40.8653 23.0076 44.4595L23.0495 50.2953L23.386 50.629C23.6482 50.8891 23.9418 50.9788 24.7168 51.036L25.711 51.1092L25.803 53.0876C25.904 55.2641 26.0198 55.7603 26.7708 57.239C27.8052 59.2757 29.2023 60.1899 31.4777 60.3191C32.2097 60.3607 32.8252 60.3993 32.8455 60.4048C32.8657 60.4104 32.8825 66.0429 32.8825 72.9217V85.4283L33.2265 86.0743C33.4157 86.4295 33.8511 86.9159 34.194 87.1553C34.7072 87.5137 34.9991 87.6007 35.8461 87.6482L36.8748 87.7058V91.3529V95H40.7193H44.5638V91.3363V87.6727H59.7199H74.876V91.3363V95H78.7205H82.565V91.3363V87.6727H83.8265C85.6706 87.6727 86.5137 87.2515 87.2001 85.9874C87.5178 85.4022 87.5184 85.3798 87.5586 72.9258L87.5987 60.4503L88.0577 60.3594C88.3101 60.3093 88.8575 60.2678 89.2743 60.2669C90.8026 60.2642 92.382 59.1397 93.3144 57.3908C94.1132 55.8928 94.2826 55.2074 94.3786 53.0876L94.4681 51.1092L95.4623 51.036C96.2373 50.9788 96.5309 50.8891 96.7931 50.629L97.1296 50.2953L97.1715 44.4595C97.197 40.8653 97.1571 38.4773 97.0671 38.2429C96.8079 37.5671 96.2603 37.3585 94.505 37.2664C94.444 37.2632 94.3935 37.0133 94.3926 36.711C94.3895 35.508 93.2945 34.0188 91.8917 33.3095C90.9986 32.8579 89.7185 32.5711 88.5964 32.5711H87.5924L87.5915 31.875C87.5897 30.3206 86.8785 29.2065 85.5174 28.6262C84.0649 28.0069 75.6603 26.3721 70.8097 25.7654C65.642 25.119 58.184 24.8296 53.7314 25.1025ZM57.5758 27.191C58.1462 27.4755 58.17 28.3444 57.6218 28.874L57.2062 29.2757L57.5559 29.6162C57.8513 29.9041 57.8908 30.0484 57.8104 30.5467C57.5548 32.1307 57.0565 32.4245 54.6259 32.4245C52.6086 32.4245 52.625 32.4371 53.2138 31.3395C53.5904 30.6375 54.2449 28.5459 54.399 27.5518L54.4841 27.0023L55.8451 27.0045C56.6399 27.0057 57.36 27.0833 57.5758 27.191ZM60.2705 29.0539L60.196 31.1056H60.5331H60.8703L60.7957 29.0539L60.7214 27.0023H61.5219H62.3224L62.2901 27.6984C62.2723 28.0812 62.3054 29.0539 62.3635 29.86C62.4857 31.5545 62.3684 31.9156 61.5661 32.3143C60.5453 32.8218 59.1175 32.521 58.6938 31.7091C58.4993 31.3361 58.4774 30.9174 58.5591 29.1329L58.6569 27.0023H59.5009H60.3449L60.2705 29.0539ZM65.6192 27.2063C65.9533 27.3446 66.166 27.5642 66.2799 27.8877C66.3722 28.1502 66.4477 28.388 66.4477 28.4163C66.4477 28.4446 66.1195 28.4678 65.7183 28.4678C65.1189 28.4678 64.9723 28.4156 64.8951 28.1747C64.7743 27.7972 64.3776 27.7929 64.3776 28.169C64.3776 28.3861 64.5537 28.5082 65.098 28.6684C65.4941 28.785 66.0318 28.9898 66.2925 29.1234C67.2009 29.589 67.6808 31.4956 67.0475 32.1232C66.4967 32.6691 64.9726 32.7009 63.8898 32.1893C63.357 31.9374 63.1947 31.5775 63.1947 30.6476C63.1947 30.2353 63.2118 30.2263 63.9976 30.2263C64.7059 30.2263 64.8063 30.2635 64.8478 30.5411C64.8999 30.8875 65.3355 31.231 65.507 31.0609C65.7692 30.8011 65.3251 30.1604 64.7456 29.9625C63.4589 29.5229 63.1793 29.3463 62.9648 28.8374C62.4456 27.6058 62.8632 27.0023 64.2345 27.0023C64.7251 27.0023 65.3482 27.0942 65.6192 27.2063ZM55.8912 28.1134C55.7401 28.5035 55.7905 28.7609 56.0181 28.7609C56.3323 28.7609 56.5699 28.2622 56.3564 28.0505C56.1248 27.821 55.9978 27.8382 55.8912 28.1134ZM55.4581 30.0348C55.1463 31.1686 55.1887 31.28 55.7771 30.8716C56.0123 30.7083 56.1003 30.5206 56.0687 30.2501C56.0157 29.7977 55.567 29.6395 55.4581 30.0348ZM65.8715 34.4809C71.2274 34.7492 76.3124 35.3256 81.7517 36.2805L84.4133 36.7477L84.451 49.9002L84.4888 63.0528H82.4178H80.347V62.5987C80.347 61.9067 79.9631 61.2516 79.3127 60.8335L78.7252 60.4561L79.0344 60.179C79.5558 59.7118 79.9034 58.8674 79.9034 58.0687C79.9034 56.4372 78.741 55.2858 77.094 55.2858C74.5903 55.2858 73.2865 58.1312 74.9526 59.9589L75.457 60.5123L74.9437 60.7548C74.3011 61.0584 73.8423 61.7865 73.8415 62.5033L73.8409 63.0528H55.2093H36.5774L36.6153 49.9052L36.653 36.7578L39.2406 36.2759C47.7795 34.6859 57.2405 34.0481 65.8715 34.4809ZM32.8825 46.4197V58.3633H31.6921C30.3657 58.3633 29.9531 58.2113 29.2388 57.4598C28.1848 56.3511 27.7115 54.851 27.709 52.6113L27.7072 51.036H28.4135C28.8021 51.036 29.2587 50.9397 29.4283 50.822C30.0572 50.3854 30.0851 50.0724 30.0411 43.9466L29.9991 38.1142L29.5842 37.7607C29.2667 37.4901 28.9978 37.4071 28.4382 37.4071C27.7119 37.4071 27.7072 37.404 27.7078 36.9308C27.7094 35.5234 29.3858 34.5061 31.7365 34.486L32.8825 34.4762V46.4197ZM90.9455 35.0018C91.9202 35.4959 92.4719 36.1877 92.4719 36.9159C92.4719 37.407 92.4716 37.4071 91.7408 37.4071C91.1812 37.4071 90.9125 37.4901 90.5949 37.7607L90.18 38.1145V44.2215V50.3286L90.5949 50.6823C90.9125 50.953 91.1812 51.036 91.7408 51.036H92.4719L92.4701 52.6113C92.4676 54.8402 92.0413 56.2053 90.9703 57.4141C90.2983 58.1728 89.8295 58.3633 88.6348 58.3633H87.5924V46.4014V34.4394L88.8424 34.5045C89.8532 34.5571 90.2558 34.6522 90.9455 35.0018ZM66.2999 67.2294V68.1819H60.5331H54.7664V67.2294V66.2768H60.5331H66.2999V67.2294ZM40.213 67.4602C43.4968 67.7805 46.5301 68.5032 49.8499 69.7561L51.2177 70.2723V73.1106V75.9489L43.9353 75.9486L36.653 75.9482L36.6571 72.688C36.6594 70.8947 36.6759 68.9495 36.6941 68.3651L36.7269 67.3027H37.6623C38.1769 67.3027 39.3246 67.3736 40.213 67.4602ZM84.3393 71.6258V75.9489H77.094H69.8486V73.1024V70.2559L71.3985 69.6552C74.9332 68.2855 79.3782 67.3972 83.0455 67.3273L84.3393 67.3027V71.6258ZM66.2259 70.3801V71.3327L60.4962 71.3711L54.7664 71.4093V70.3801V69.3509L60.4962 69.3892L66.2259 69.4276V70.3801ZM66.2999 73.5309V74.4834H60.5331H54.7664V73.5309V72.5783H60.5331H66.2999V73.5309ZM66.2697 76.645L66.2259 77.6342H60.5331H54.8403L54.7966 76.645L54.753 75.6558H60.5331H66.3133L66.2697 76.645ZM41.5769 78.353C42.7091 78.9369 43.1027 80.1446 42.4651 81.0781C41.6783 82.2301 40.3897 82.3927 39.4476 81.4591C38.8168 80.8339 38.6749 80.1037 39.0406 79.3645C39.55 78.3347 40.6728 77.8868 41.5769 78.353ZM80.5703 78.3581C82.1304 79.0041 82.0034 81.3921 80.3791 81.9528C79.8306 82.1421 79.6804 82.1421 79.132 81.9528C77.9492 81.5445 77.4648 80.14 78.1324 79.0547C78.6322 78.2425 79.6137 77.962 80.5703 78.3581ZM66.2999 79.8324V80.785H60.5331H54.7664V79.8324V78.8799H60.5331H66.2999V79.8324Z" fill="#1491ED"/>
</svg>
