<svg width="18" height="18" viewBox="0 0 18 18" fill="none" xmlns="http://www.w3.org/2000/svg">
<path d="M15.1875 3.375H2.8125C2.50184 3.375 2.25 3.62684 2.25 3.9375V14.0625C2.25 14.3732 2.50184 14.625 2.8125 14.625H15.1875C15.4982 14.625 15.75 14.3732 15.75 14.0625V3.9375C15.75 3.62684 15.4982 3.375 15.1875 3.375Z" stroke="currentColor" stroke-width="1.4" stroke-linecap="round" stroke-linejoin="round"/>
<path d="M2.25 5.625H15.75" stroke="currentColor" stroke-width="1.4" stroke-linecap="round" stroke-linejoin="round"/>
<path d="M11.8125 7.875C11.8125 8.62092 11.5162 9.33629 10.9887 9.86374C10.4613 10.3912 9.74592 10.6875 9 10.6875C8.25408 10.6875 7.53871 10.3912 7.01126 9.86374C6.48382 9.33629 6.1875 8.62092 6.1875 7.875" stroke="currentColor" stroke-width="1.4" stroke-linecap="round" stroke-linejoin="round"/>
</svg>
