<svg width="21" height="22" viewBox="0 0 21 22" fill="none" xmlns="http://www.w3.org/2000/svg">
<path d="M19.5351 4.33301L1.53516 4.33301" stroke="#EA4747" stroke-width="1.4" stroke-linecap="round" stroke-linejoin="round"/>
<path d="M8.08301 9.33301V15.9999" stroke="#EA4747" stroke-width="1.4" stroke-linecap="round" stroke-linejoin="round"/>
<path d="M12.9907 9.33301V15.9999" stroke="#EA4747" stroke-width="1.4" stroke-linecap="round" stroke-linejoin="round"/>
<path d="M17.8972 4.33301V20.1668C17.8972 20.3878 17.811 20.5998 17.6575 20.7561C17.5041 20.9123 17.296 21.0001 17.079 21.0001H3.9881C3.77111 21.0001 3.563 20.9123 3.40956 20.7561C3.25612 20.5998 3.16992 20.3878 3.16992 20.1668V4.33301" stroke="#EA4747" stroke-width="1.4" stroke-linecap="round" stroke-linejoin="round"/>
<path d="M14.6266 4.33343V2.66671C14.6266 2.22467 14.4542 1.80074 14.1474 1.48817C13.8405 1.1756 13.4243 1 12.9903 1H8.08119C7.6472 1 7.23098 1.1756 6.9241 1.48817C6.61723 1.80074 6.44482 2.22467 6.44482 2.66671V4.33343" stroke="#EA4747" stroke-width="1.4" stroke-linecap="round" stroke-linejoin="round"/>
</svg>
