<svg width="17" height="17" viewBox="0 0 18 20" fill="none" xmlns="http://www.w3.org/2000/svg">
<path d="M16.7503 3.9996L1 3.99961" stroke="currentColor" stroke-width="1.8" stroke-linecap="round" stroke-linejoin="round"/>
<path d="M6.72949 8.49994V14.5002" stroke="currentColor" stroke-width="1.8" stroke-linecap="round" stroke-linejoin="round"/>
<path d="M11.0239 8.49994V14.5002" stroke="currentColor" stroke-width="1.8" stroke-linecap="round" stroke-linejoin="round"/>
<path d="M15.3172 3.99933V18.25C15.3172 18.4489 15.2418 18.6397 15.1075 18.7803C14.9733 18.921 14.7912 19 14.6013 19H3.14658C2.95671 19 2.77461 18.921 2.64035 18.7803C2.50609 18.6397 2.43066 18.4489 2.43066 18.25V3.99933" stroke="currentColor" stroke-width="1.8" stroke-linecap="round" stroke-linejoin="round"/>
<path d="M12.4551 4.00014V2.50007C12.4551 2.10223 12.3043 1.72068 12.0357 1.43936C11.7672 1.15804 11.403 1 11.0233 1H6.72774C6.34799 1 5.9838 1.15804 5.71528 1.43936C5.44675 1.72068 5.2959 2.10223 5.2959 2.50007V4.00014" stroke="currentColor" stroke-width="1.8" stroke-linecap="round" stroke-linejoin="round"/>
</svg>
