<svg xmlns="http://www.w3.org/2000/svg" width="22" height="22" viewBox="0 0 22 22" fill="none">
  <path d="M19.25 4.8125H2.75C2.3703 4.8125 2.0625 5.1203 2.0625 5.5V7.5625C2.0625 7.9422 2.3703 8.25 2.75 8.25H19.25C19.6297 8.25 19.9375 7.9422 19.9375 7.5625V5.5C19.9375 5.1203 19.6297 4.8125 19.25 4.8125Z" stroke="#4A5FF0" stroke-width="1.2" stroke-linecap="round" stroke-linejoin="round"/>
  <path d="M18.5625 8.25V16.5C18.5625 16.6823 18.4901 16.8572 18.3611 16.9861C18.2322 17.1151 18.0573 17.1875 17.875 17.1875H4.125C3.94266 17.1875 3.7678 17.1151 3.63886 16.9861C3.50993 16.8572 3.4375 16.6823 3.4375 16.5V8.25" stroke="#4A5FF0" stroke-width="1.2" stroke-linecap="round" stroke-linejoin="round"/>
  <path d="M8.9375 11.6875H13.0625" stroke="#4A5FF0" stroke-width="1.2" stroke-linecap="round" stroke-linejoin="round"/>
</svg>