<svg width="14" height="19" viewBox="0 0 14 19" fill="none" xmlns="http://www.w3.org/2000/svg">
<path d="M7 18.9996C5.73694 17.9222 4.56619 16.7411 3.5 15.4686C1.9 13.5576 8.78894e-07 10.7116 8.78894e-07 7.9996C-0.00069302 6.61456 0.409509 5.26045 1.17869 4.10863C1.94788 2.95681 3.04147 2.05906 4.32107 1.529C5.60067 0.99894 7.00875 0.860394 8.36712 1.1309C9.72548 1.4014 10.9731 2.06879 11.952 3.0486C12.6038 3.69746 13.1203 4.46914 13.4719 5.31898C13.8234 6.16881 14.0029 7.07993 14 7.9996C14 10.7116 12.1 13.5576 10.5 15.4686C9.4338 16.7411 8.26306 17.9222 7 18.9996ZM7 4.9996C6.20435 4.9996 5.44129 5.31567 4.87868 5.87828C4.31607 6.44089 4 7.20395 4 7.9996C4 8.79525 4.31607 9.55832 4.87868 10.1209C5.44129 10.6835 6.20435 10.9996 7 10.9996C7.79565 10.9996 8.55871 10.6835 9.12132 10.1209C9.68393 9.55832 10 8.79525 10 7.9996C10 7.20395 9.68393 6.44089 9.12132 5.87828C8.55871 5.31567 7.79565 4.9996 7 4.9996Z" fill="#CED4DA"/>
</svg>
