<svg width="38" height="38" viewBox="0 0 38 38" fill="none" xmlns="http://www.w3.org/2000/svg">
<rect width="38" height="38" rx="19" fill="#EBEEF0"/>
<path d="M15.0625 12.25H24.625C24.7742 12.25 24.9173 12.3093 25.0227 12.4148C25.1282 12.5202 25.1875 12.6633 25.1875 12.8125V20.125C25.1875 20.2742 25.1282 20.4173 25.0227 20.5227C24.9173 20.6282 24.7742 20.6875 24.625 20.6875H13.375C13.2258 20.6875 13.0827 20.6282 12.9773 20.5227C12.8718 20.4173 12.8125 20.2742 12.8125 20.125V14.5C12.8125 13.9033 13.0496 13.331 13.4715 12.909C13.8935 12.4871 14.4658 12.25 15.0625 12.25V12.25Z" stroke="#6B7280" stroke-width="1.4" stroke-linecap="round" stroke-linejoin="round"/>
<path d="M17.875 20.6875L17.3125 24.625C17.3125 25.0726 17.4903 25.5018 17.8068 25.8182C18.1232 26.1347 18.5524 26.3125 19 26.3125C19.4476 26.3125 19.8768 26.1347 20.1932 25.8182C20.5097 25.5018 20.6875 25.0726 20.6875 24.625L20.125 20.6875" stroke="#6B7280" stroke-width="1.4" stroke-linecap="round" stroke-linejoin="round"/>
<path d="M12.8125 17.875H25.1875" stroke="#6B7280" stroke-width="1.4" stroke-linecap="round" stroke-linejoin="round"/>
<path d="M21.8125 12.25V15.0625" stroke="#6B7280" stroke-width="1.4" stroke-linecap="round" stroke-linejoin="round"/>
</svg>
