<svg width="30" height="30" viewBox="0 0 30 30" fill="none" xmlns="http://www.w3.org/2000/svg">
<rect width="30" height="30" rx="15" fill="#F2FCF9"/>
<path d="M21.1164 13.426C20.8806 13.1801 20.6368 12.926 20.5447 12.7032C20.4601 12.4987 20.455 12.1598 20.45 11.832C20.4408 11.2221 20.4304 10.5308 19.9498 10.0502C19.4692 9.56964 18.7779 9.5592 18.168 9.54999C17.8402 9.54504 17.5013 9.53992 17.2968 9.45526C17.0741 9.36316 16.8199 9.11939 16.574 8.88361C16.1422 8.46942 15.6526 8 15 8C14.3474 8 13.8578 8.46942 13.426 8.88361C13.1801 9.11939 12.926 9.36316 12.7032 9.45526C12.4987 9.53992 12.1598 9.54504 11.832 9.54999C11.2221 9.5592 10.5308 9.56964 10.0502 10.0502C9.56964 10.5308 9.5592 11.2221 9.54999 11.832C9.54504 12.1598 9.53992 12.4987 9.45526 12.7032C9.36316 12.9259 9.11939 13.1801 8.88361 13.426C8.46942 13.8578 8 14.3474 8 15C8 15.6526 8.46942 16.1422 8.88361 16.574C9.11939 16.8199 9.36316 17.074 9.45526 17.2968C9.53992 17.5013 9.54504 17.8402 9.54999 18.168C9.5592 18.7779 9.56964 19.4692 10.0502 19.9498C10.5308 20.4304 11.2221 20.4408 11.832 20.45C12.1598 20.455 12.4987 20.4601 12.7032 20.5447C12.9259 20.6368 13.1801 20.8806 13.426 21.1164C13.8578 21.5306 14.3474 22 15 22C15.6526 22 16.1422 21.5306 16.574 21.1164C16.8199 20.8806 17.074 20.6368 17.2968 20.5447C17.5013 20.4601 17.8402 20.455 18.168 20.45C18.7779 20.4408 19.4692 20.4304 19.9498 19.9498C20.4304 19.4692 20.4408 18.7779 20.45 18.168C20.455 17.8402 20.4601 17.5013 20.5447 17.2968C20.6368 17.0741 20.8806 16.8199 21.1164 16.574C21.5306 16.1422 22 15.6526 22 15C22 14.3474 21.5306 13.8578 21.1164 13.426ZM18.0952 13.8617L14.4285 17.3617C14.3355 17.4505 14.2119 17.5 14.0833 17.5C13.9547 17.5 13.8311 17.4505 13.7381 17.3617L11.9048 15.6117C11.8573 15.5664 11.8191 15.5121 11.7926 15.4521C11.766 15.392 11.7516 15.3273 11.75 15.2616C11.7485 15.196 11.7599 15.1306 11.7836 15.0694C11.8073 15.0081 11.8428 14.9522 11.8882 14.9047C11.9335 14.8572 11.9878 14.819 12.0479 14.7925C12.1079 14.766 12.1726 14.7515 12.2383 14.75C12.304 14.7485 12.3693 14.7599 12.4305 14.7837C12.4918 14.8074 12.5477 14.8429 12.5952 14.8883L14.0833 16.3088L17.4048 13.1383C17.4523 13.0929 17.5082 13.0574 17.5695 13.0337C17.6307 13.0099 17.696 12.9985 17.7617 13C17.8274 13.0015 17.8921 13.016 17.9521 13.0425C18.0122 13.069 18.0665 13.1072 18.1118 13.1547C18.1572 13.2022 18.1927 13.2581 18.2164 13.3194C18.2401 13.3806 18.2515 13.446 18.25 13.5116C18.2484 13.5773 18.234 13.642 18.2074 13.7021C18.1809 13.7621 18.1427 13.8164 18.0952 13.8617Z" fill="#20C997"/>
</svg>
