<svg width="30" height="30" viewBox="0 0 30 30" fill="none" xmlns="http://www.w3.org/2000/svg">
<rect width="30" height="30" rx="15" fill="#EFF5FF"/>
<path d="M20 9H10C9.73486 9.00026 9.48066 9.1057 9.29318 9.29318C9.1057 9.48066 9.00026 9.73486 9 10V20C9.00026 20.2651 9.1057 20.5193 9.29318 20.7068C9.48066 20.8943 9.73486 20.9997 10 21H20C20.2651 20.9997 20.5193 20.8943 20.7068 20.7068C20.8943 20.5193 20.9997 20.2651 21 20V10C20.9997 9.73486 20.8943 9.48066 20.7068 9.29318C20.5193 9.1057 20.2651 9.00026 20 9ZM17.3535 16.6465C17.4 16.6929 17.4369 16.748 17.4621 16.8087C17.4873 16.8694 17.5003 16.9344 17.5003 17.0001C17.5004 17.0658 17.4874 17.1309 17.4623 17.1916C17.4372 17.2523 17.4003 17.3074 17.3539 17.3539C17.3074 17.4003 17.2523 17.4372 17.1916 17.4623C17.1309 17.4874 17.0658 17.5004 17.0001 17.5003C16.9344 17.5003 16.8694 17.4873 16.8087 17.4621C16.748 17.4369 16.6929 17.4 16.6465 17.3535L15 15.707L13.3535 17.3535C13.2597 17.4471 13.1326 17.4996 13.0001 17.4996C12.8676 17.4995 12.7406 17.4468 12.6469 17.3531C12.5532 17.2594 12.5005 17.1324 12.5004 16.9999C12.5004 16.8674 12.5529 16.7403 12.6465 16.6465L14.293 15L12.6465 13.3535C12.5529 13.2597 12.5004 13.1326 12.5004 13.0001C12.5005 12.8676 12.5532 12.7406 12.6469 12.6469C12.7406 12.5532 12.8676 12.5005 13.0001 12.5004C13.1326 12.5004 13.2597 12.5529 13.3535 12.6465L15 14.293L16.6465 12.6465C16.7403 12.5529 16.8674 12.5004 16.9999 12.5004C17.1324 12.5005 17.2594 12.5532 17.3531 12.6469C17.4468 12.7406 17.4995 12.8676 17.4996 13.0001C17.4996 13.1326 17.4471 13.2597 17.3535 13.3535L15.707 15L17.3535 16.6465Z" fill="#5B93FF"/>
</svg>
