<svg width="17" height="18" viewBox="0 0 17 18" fill="none" xmlns="http://www.w3.org/2000/svg">
<path d="M16.1484 1.37425C15.9749 1.20207 15.7574 1.08103 15.5197 1.02443C15.282 0.967825 15.0333 0.977856 14.8009 1.05342L1.39002 5.52675C1.14131 5.60556 0.921521 5.75631 0.758429 5.95996C0.595337 6.16361 0.496255 6.41102 0.473695 6.67095C0.451135 6.93088 0.50611 7.19167 0.631677 7.42037C0.757244 7.64907 0.94777 7.83543 1.17919 7.95592L6.74336 10.7059L9.49336 16.2884C9.60389 16.5069 9.77303 16.6904 9.98186 16.8183C10.1907 16.9462 10.431 17.0134 10.6759 17.0126H10.7675C11.0298 16.9933 11.2802 16.8955 11.4861 16.7321C11.6921 16.5686 11.8442 16.3469 11.9225 16.0959L16.46 2.72175C16.541 2.49069 16.5548 2.24136 16.4996 2.00281C16.4444 1.76425 16.3226 1.54627 16.1484 1.37425ZM1.95836 6.79175L13.6642 2.88675L7.16502 9.38592L1.95836 6.79175ZM10.74 15.5642L8.13669 10.3576L14.6359 3.85842L10.74 15.5642Z" fill="#81888E"/>
</svg>
