<svg width="20" height="20" viewBox="0 0 20 20" fill="none" xmlns="http://www.w3.org/2000/svg">
<path d="M10 18.75C14.8325 18.75 18.75 14.8325 18.75 10C18.75 5.16751 14.8325 1.25 10 1.25C5.16751 1.25 1.25 5.16751 1.25 10C1.25 14.8325 5.16751 18.75 10 18.75Z" fill="#3C3F43"/>
<path d="M9.16797 9.1665H10.8346V13.7498H9.16797V9.1665Z" fill="white"/>
<path d="M9.9987 7.91683C10.574 7.91683 11.0404 7.45046 11.0404 6.87516C11.0404 6.29987 10.574 5.8335 9.9987 5.8335C9.4234 5.8335 8.95703 6.29987 8.95703 6.87516C8.95703 7.45046 9.4234 7.91683 9.9987 7.91683Z" fill="white"/>
</svg>
