<svg width="20" height="13" viewBox="0 0 20 13" fill="none" xmlns="http://www.w3.org/2000/svg">
<path d="M3.9819 9.64767C2.69526 8.41417 1.93295 7.07358 1.6419 6.50046C1.93353 5.92692 2.69606 4.58644 3.98258 3.35304C5.37283 2.0202 7.34654 0.836719 9.99716 0.836719C12.6483 0.836719 14.6222 2.02023 16.0124 3.35304C17.2991 4.58655 18.0614 5.92713 18.3524 6.50026C18.0608 7.07384 17.2985 8.41431 16.0121 9.64769C14.622 10.9805 12.6483 12.164 9.99716 12.164C7.34604 12.164 5.37212 10.9805 3.9819 9.64767Z" stroke="currentColor" stroke-width="1.4" stroke-linecap="round" stroke-linejoin="round"/>
<path d="M9.9975 9.22798C11.5106 9.22798 12.7372 8.00694 12.7372 6.50071C12.7372 4.99448 11.5106 3.77344 9.9975 3.77344C8.48441 3.77344 7.25781 4.99448 7.25781 6.50071C7.25781 8.00694 8.48441 9.22798 9.9975 9.22798Z" stroke="currentColor" stroke-width="1.4" stroke-linecap="round" stroke-linejoin="round"/>
</svg>
