<svg width="20" height="12" viewBox="0 0 20 12" fill="none" xmlns="http://www.w3.org/2000/svg">
<path d="M9.52381 9.85714C8.67618 9.85714 7.84758 9.63093 7.14279 9.2071C6.43801 8.78327 5.8887 8.18087 5.56433 7.47606C5.23995 6.77126 5.15508 5.99572 5.32044 5.24751C5.48581 4.4993 5.89398 3.81202 6.49335 3.27259C7.09272 2.73316 7.85636 2.3658 8.68771 2.21697C9.51906 2.06814 10.3808 2.14453 11.1639 2.43646C11.947 2.7284 12.6163 3.22278 13.0873 3.85709C13.5582 4.49139 13.8095 5.23713 13.8095 6C13.8095 7.02298 13.358 8.00406 12.5543 8.72741C11.7505 9.45077 10.6605 9.85714 9.52381 9.85714ZM9.52381 0C2.85714 0 0 6 0 6C0 6 2.85714 12 9.52381 12C16.1905 12 19.0476 6 19.0476 6C19.0476 6 16.1905 0 9.52381 0Z" fill="currentColor"/>
<path d="M9.52195 8C10.5739 8 11.4267 7.10457 11.4267 6C11.4267 4.89543 10.5739 4 9.52195 4C8.46998 4 7.61719 4.89543 7.61719 6C7.61719 7.10457 8.46998 8 9.52195 8Z" fill="currentColor"/>
</svg>
