<svg  viewBox="0 0 14 13" fill="currentColor" xmlns="http://www.w3.org/2000/svg">
<path d="M4.9 10.402L6.3 11.102V6.489C6.29923 6.30536 6.22632 6.12938 6.097 5.999L1.561 1.4H12.453L7.924 5.999C7.79468 6.12938 7.72177 6.30536 7.721 6.489L7.7 11.9L9.1 12.6V6.776L13.706 2.1C13.8902 1.91308 13.9955 1.66243 14 1.4V0.7C14 0.514349 13.9263 0.336301 13.795 0.205025C13.6637 0.0737499 13.4857 0 13.3 0H0.7C0.514348 0 0.336301 0.0737499 0.205025 0.205025C0.0737499 0.336301 0 0.514349 0 0.7V1.4C0.00447825 1.66243 0.10975 1.91308 0.294 2.1L4.9 6.776V10.402Z"/>
</svg>
