<svg width="55" height="74" viewBox="0 0 55 74" fill="none" xmlns="http://www.w3.org/2000/svg">
<path d="M54 17.2857V71C54 72.1046 53.1046 73 52 73H3C1.89543 73 1 72.1046 1 71V3C1 1.89543 1.89543 1 3 1H37.7581L54 17.2857Z" fill="currentColor" fill-opacity="0.05"/>
<path d="M54 17.2857V71C54 72.1046 53.1046 73 52 73H3C1.89543 73 1 72.1046 1 71V3C1 1.89543 1.89543 1 3 1H37.7581M54 17.2857L37.7581 1M54 17.2857H39.7581C38.6535 17.2857 37.7581 16.3903 37.7581 15.2857V1" stroke="currentColor" stroke-width="2"/>
<path d="M37.7578 15.2857V1.24188C37.7578 1.15273 37.8657 1.10814 37.9286 1.17127L53.8296 17.1151C53.8925 17.1781 53.8478 17.2857 53.7588 17.2857H39.7578C38.6532 17.2857 37.7578 16.3903 37.7578 15.2857Z" fill="currentColor"/>
<rect x="15.5" y="29.5" width="24" height="15" rx="2" fill="currentColor" fill-opacity="0.12"/>
<path d="M23.9305 36.168C23.9305 36.4527 23.8651 36.714 23.7345 36.952C23.6038 37.1853 23.4031 37.3743 23.1325 37.519C22.8618 37.6637 22.5258 37.736 22.1245 37.736H21.3825V39.5H20.1855V34.586H22.1245C22.5165 34.586 22.8478 34.6537 23.1185 34.789C23.3891 34.9243 23.5921 35.111 23.7275 35.349C23.8628 35.587 23.9305 35.86 23.9305 36.168ZM22.0335 36.784C22.2621 36.784 22.4325 36.7303 22.5445 36.623C22.6565 36.5157 22.7125 36.364 22.7125 36.168C22.7125 35.972 22.6565 35.8203 22.5445 35.713C22.4325 35.6057 22.2621 35.552 22.0335 35.552H21.3825V36.784H22.0335ZM25.7506 38.576H27.3186V39.5H24.5536V34.586H25.7506V38.576ZM30.9486 38.632H29.1146L28.8206 39.5H27.5676L29.3456 34.586H30.7316L32.5096 39.5H31.2426L30.9486 38.632ZM30.6406 37.708L30.0316 35.909L29.4296 37.708H30.6406ZM32.8057 35.503V34.39H34.7447V39.5H33.4987V35.503H32.8057Z" fill="currentColor"/>
</svg>
