<svg width="20" height="20" viewBox="0 0 22 20" fill="currentColor" xmlns="http://www.w3.org/2000/svg">
<path d="M13.0781 16.9229H16.155V19.9998H13.0781V16.9229Z" fill="currentColor"/>
<path d="M18.4609 16.9229H21.5379V19.9998H18.4609V16.9229Z" fill="currentColor"/>
<path d="M13.0781 11.5386H16.155V14.6155H13.0781V11.5386Z" fill="currentColor"/>
<path d="M18.4609 11.5386H21.5379V14.6155H18.4609V11.5386Z" fill="currentColor"/>
<path d="M11.5385 16.9231H1.53846V6.15385H20V10H21.5385V6.15385C21.5381 5.74595 21.3758 5.35487 21.0874 5.06644C20.799 4.77801 20.4079 4.61579 20 4.61538H15.3846V1.53846C15.3842 1.13056 15.222 0.739484 14.9336 0.451055C14.6451 0.162626 14.2541 0.00040729 13.8462 0H7.69231C7.28441 0.00040729 6.89333 0.162626 6.6049 0.451055C6.31647 0.739484 6.15425 1.13056 6.15385 1.53846V4.61538H1.53846C1.13056 4.61579 0.739484 4.77801 0.451055 5.06644C0.162626 5.35487 0.00040729 5.74595 0 6.15385V16.9231C0.00040729 17.331 0.162626 17.7221 0.451055 18.0105C0.739484 18.2989 1.13056 18.4611 1.53846 18.4615H11.5385V16.9231ZM7.69231 1.53846H13.8462V4.61538H7.69231V1.53846Z" fill="currentColor"/>
</svg>
