<svg width="44" height="44" viewBox="0 0 44 44" fill="none" xmlns="http://www.w3.org/2000/svg">
<rect opacity="0.2" width="44" height="44" rx="22" fill="#11D1B7"/>
<path d="M30.0247 17.7133L24.7811 12.4696C24.7736 12.4621 24.7654 12.4555 24.7577 12.4484C24.7475 12.4391 24.7377 12.4295 24.7271 12.4207C24.72 12.415 24.7125 12.4099 24.7052 12.4044C24.693 12.395 24.6808 12.3855 24.668 12.3768C24.6622 12.373 24.656 12.3697 24.6502 12.366C24.6353 12.3566 24.6204 12.3473 24.6049 12.3389C24.6006 12.3367 24.5963 12.3349 24.592 12.3328C24.5745 12.3237 24.5567 12.315 24.5383 12.3074C24.5355 12.3062 24.5325 12.3053 24.5296 12.3042C24.5099 12.2962 24.4899 12.2888 24.4694 12.2826C24.4664 12.2817 24.4633 12.2811 24.4603 12.2803C24.44 12.2743 24.4195 12.2689 24.3984 12.2647C24.3917 12.2634 24.3848 12.2628 24.3781 12.2616C24.3607 12.2586 24.3434 12.2555 24.3257 12.2538C24.3008 12.2513 24.2758 12.25 24.2507 12.25H15.25C14.8523 12.2505 14.471 12.4086 14.1898 12.6898C13.9086 12.971 13.7505 13.3523 13.75 13.75V30.25C13.7505 30.6477 13.9086 31.029 14.1898 31.3102C14.471 31.5914 14.8523 31.7495 15.25 31.75H28.7507C29.1484 31.7495 29.5297 31.5914 29.8109 31.3102C30.0921 31.029 30.2503 30.6477 30.2507 30.25V18.2645C30.2508 18.2596 30.2515 18.2549 30.2515 18.25C30.2515 18.1499 30.2315 18.0508 30.1926 17.9586C30.1536 17.8664 30.0965 17.783 30.0247 17.7133ZM25.0007 26.5H19.0007C18.8018 26.5 18.6111 26.421 18.4704 26.2803C18.3298 26.1397 18.2507 25.9489 18.2507 25.75C18.2507 25.5511 18.3298 25.3603 18.4704 25.2197C18.6111 25.079 18.8018 25 19.0007 25H25.0007C25.1996 25 25.3904 25.079 25.5311 25.2197C25.6717 25.3603 25.7507 25.5511 25.7507 25.75C25.7507 25.9489 25.6717 26.1397 25.5311 26.2803C25.3904 26.421 25.1996 26.5 25.0007 26.5ZM25.0007 23.5H19.0007C18.8018 23.5 18.6111 23.421 18.4704 23.2803C18.3298 23.1397 18.2507 22.9489 18.2507 22.75C18.2507 22.5511 18.3298 22.3603 18.4704 22.2197C18.6111 22.079 18.8018 22 19.0007 22H25.0007C25.1996 22 25.3904 22.079 25.5311 22.2197C25.6717 22.3603 25.7507 22.5511 25.7507 22.75C25.7507 22.9489 25.6717 23.1397 25.5311 23.2803C25.3904 23.421 25.1996 23.5 25.0007 23.5ZM24.2507 18.25V14.0606L28.44 18.25H24.2507Z" fill="#11D1B7"/>
</svg>
