<svg width="17" height="18" viewBox="0 0 17 18" fill="none" xmlns="http://www.w3.org/2000/svg">
<path d="M9.015 2.019C8.84363 2.00635 8.67184 2.00001 8.5 2V1C8.69654 1.0001 8.893 1.00743 9.089 1.022L9.015 2.019ZM11.019 2.469C10.6984 2.3453 10.3692 2.24537 10.034 2.17L10.253 1.194C10.636 1.28 11.013 1.394 11.379 1.536L11.019 2.469ZM12.389 3.179C12.246 3.08365 12.0996 2.99359 11.95 2.909L12.443 2.039C12.7849 2.23274 13.1121 2.45132 13.422 2.693L12.807 3.482C12.6714 3.37623 12.532 3.2755 12.389 3.18V3.179ZM14.223 4.969C14.0252 4.68798 13.8069 4.42192 13.57 4.173L14.294 3.483C14.564 3.768 14.814 4.073 15.041 4.393L14.223 4.969ZM14.967 6.321C14.9014 6.16246 14.83 6.00636 14.753 5.853L15.646 5.403C15.8226 5.75409 15.973 6.11774 16.096 6.491L15.146 6.804C15.0923 6.64087 15.0326 6.47976 14.967 6.321ZM15.497 8.828C15.4889 8.48434 15.4555 8.14174 15.397 7.803L16.382 7.633C16.449 8.019 16.488 8.411 16.498 8.803L15.498 8.828H15.497ZM15.366 10.366C15.399 10.196 15.426 10.027 15.447 9.856L16.44 9.979C16.392 10.3692 16.3151 10.7552 16.21 11.134L15.246 10.867C15.292 10.702 15.332 10.535 15.366 10.366ZM14.414 12.745C14.598 12.455 14.76 12.151 14.9 11.837L15.814 12.242C15.654 12.602 15.469 12.948 15.259 13.28L14.414 12.745ZM13.45 13.95C13.572 13.828 13.689 13.702 13.8 13.572L14.558 14.225C14.4296 14.3738 14.2959 14.5179 14.157 14.657L13.45 13.95Z" fill="#81888E" stroke="#81888E" stroke-width="0.4"/>
<path d="M8.50312 2C7.352 2.00008 6.21867 2.28405 5.2035 2.82674C4.18833 3.36943 3.32267 4.1541 2.68318 5.11125C2.04369 6.0684 1.65012 7.16848 1.53732 8.31406C1.42452 9.45964 1.59597 10.6154 2.0365 11.6789C2.47703 12.7423 3.17303 13.6808 4.06285 14.4111C4.95267 15.1413 6.00886 15.6409 7.13786 15.8655C8.26686 16.0901 9.43382 16.0328 10.5354 15.6987C11.6369 15.3645 12.6391 14.7639 13.4531 13.95L14.1601 14.657C13.2299 15.5878 12.0844 16.2747 10.8252 16.657C9.56595 17.0393 8.23189 17.105 6.94119 16.8485C5.65048 16.5919 4.44298 16.021 3.42567 15.1862C2.40836 14.3515 1.61266 13.2787 1.10906 12.0629C0.605457 10.8471 0.40951 9.52588 0.538578 8.21627C0.667646 6.90666 1.11774 5.6491 1.84899 4.55502C2.58024 3.46094 3.57006 2.56411 4.73075 1.944C5.89144 1.3239 7.18717 0.999651 8.50312 1V2Z" fill="#81888E" stroke="#81888E" stroke-width="0.4"/>
<path d="M8 4C8.13261 4 8.25979 4.05268 8.35355 4.14645C8.44732 4.24021 8.5 4.36739 8.5 4.5V9.71L11.748 11.566C11.8598 11.6334 11.9408 11.7419 11.9736 11.8683C12.0065 11.9946 11.9886 12.1288 11.9238 12.2422C11.8591 12.3556 11.7525 12.4391 11.627 12.4749C11.5014 12.5108 11.3669 12.4961 11.252 12.434L7.752 10.434C7.67547 10.3903 7.61186 10.3271 7.56761 10.2509C7.52335 10.1747 7.50003 10.0881 7.5 10V4.5C7.5 4.36739 7.55268 4.24021 7.64645 4.14645C7.74021 4.05268 7.86739 4 8 4Z" fill="#81888E" stroke="#81888E" stroke-width="0.4"/>
</svg>
