<svg width="24" height="24" viewBox="0 0 24 24" fill="none" xmlns="http://www.w3.org/2000/svg">
<path d="M11.1094 1.0162L2.6984 2.6984L1.0162 11.1094C0.989266 11.244 0.995997 11.3833 1.0358 11.5147C1.0756 11.6462 1.14724 11.7658 1.24435 11.8629L12.1371 22.7556C12.2146 22.8331 12.3065 22.8946 12.4078 22.9365C12.509 22.9784 12.6175 23 12.727 23C12.8366 23 12.9451 22.9784 13.0463 22.9365C13.1475 22.8946 13.2395 22.8331 13.3169 22.7556L22.7556 13.3169C22.8331 13.2395 22.8946 13.1475 22.9365 13.0463C22.9784 12.9451 23 12.8366 23 12.727C23 12.6175 22.9784 12.509 22.9365 12.4078C22.8946 12.3065 22.8331 12.2146 22.7556 12.1371L11.8629 1.24435C11.7658 1.14724 11.6462 1.0756 11.5147 1.0358C11.3833 0.995997 11.244 0.989266 11.1094 1.0162V1.0162Z" stroke="white" stroke-width="2" stroke-linecap="round" stroke-linejoin="round"/>
<path d="M7.07758 8.32874C7.76871 8.32874 8.32899 7.76847 8.32899 7.07734C8.32899 6.3862 7.76871 5.82593 7.07758 5.82593C6.38645 5.82593 5.82617 6.3862 5.82617 7.07734C5.82617 7.76847 6.38645 8.32874 7.07758 8.32874Z" fill="white"/>
</svg>
