<svg width="18" height="22" viewBox="0 0 18 22" fill="none" xmlns="http://www.w3.org/2000/svg">
<path d="M5.36328 7.36353H12.636" stroke="white" stroke-width="1.6" stroke-linecap="round" stroke-linejoin="round"/>
<path d="M5.36328 11H12.636" stroke="white" stroke-width="1.6" stroke-linecap="round" stroke-linejoin="round"/>
<path d="M5.36328 14.6365H8.99964" stroke="white" stroke-width="1.6" stroke-linecap="round" stroke-linejoin="round"/>
<path d="M11.6078 21H1.72727C1.53439 21 1.3494 20.9042 1.21301 20.7337C1.07662 20.5632 1 20.332 1 20.0909V1.90909C1 1.66799 1.07662 1.43675 1.21301 1.26627C1.3494 1.09578 1.53439 1 1.72727 1H16.2727C16.4656 1 16.6506 1.09578 16.787 1.26627C16.9234 1.43675 17 1.66799 17 1.90909V14.2598C17 14.3792 16.9812 14.4974 16.9446 14.6077C16.9081 14.718 16.8545 14.8182 16.787 14.9026L12.1221 20.7337C12.0546 20.8182 11.9744 20.8851 11.8862 20.9308C11.7979 20.9765 11.7034 21 11.6078 21V21Z" stroke="white" stroke-width="1.6" stroke-linecap="round" stroke-linejoin="round"/>
<path d="M16 15H12V20" stroke="white" stroke-width="1.6" stroke-linecap="round" stroke-linejoin="round"/>
</svg>
