<svg width="16" height="14" viewBox="0 0 16 14" fill="none" xmlns="http://www.w3.org/2000/svg">
<path d="M14.1875 1.375H1.8125C1.50184 1.375 1.25 1.62684 1.25 1.9375V12.0625C1.25 12.3732 1.50184 12.625 1.8125 12.625H14.1875C14.4982 12.625 14.75 12.3732 14.75 12.0625V1.9375C14.75 1.62684 14.4982 1.375 14.1875 1.375Z" stroke="currentColor" stroke-width="1.2" stroke-linecap="round" stroke-linejoin="round"/>
<path d="M1.25 9.81192L4.78974 6.27217C4.84198 6.21994 4.90398 6.17851 4.97223 6.15024C5.04048 6.12197 5.11362 6.10742 5.18749 6.10742C5.26136 6.10742 5.3345 6.12197 5.40275 6.15024C5.471 6.17851 5.533 6.21994 5.58524 6.27217L8.72724 9.41418C8.77948 9.46641 8.84148 9.50785 8.90973 9.53611C8.97798 9.56438 9.05112 9.57893 9.12499 9.57893C9.19886 9.57893 9.272 9.56438 9.34025 9.53611C9.4085 9.50785 9.4705 9.46641 9.52274 9.41418L10.9772 7.95967C11.0295 7.90744 11.0915 7.86601 11.1597 7.83774C11.228 7.80947 11.3011 7.79492 11.375 7.79492C11.4489 7.79492 11.522 7.80947 11.5902 7.83774C11.6585 7.86601 11.7205 7.90744 11.7727 7.95967L14.75 10.9369" stroke="currentColor" stroke-width="1.2" stroke-linecap="round" stroke-linejoin="round"/>
<path d="M9.96875 5.875C10.4347 5.875 10.8125 5.49724 10.8125 5.03125C10.8125 4.56526 10.4347 4.1875 9.96875 4.1875C9.50276 4.1875 9.125 4.56526 9.125 5.03125C9.125 5.49724 9.50276 5.875 9.96875 5.875Z" fill="currentColor"/>
</svg>
