<svg width="34" height="34" viewBox="0 0 34 34" fill="none" xmlns="http://www.w3.org/2000/svg">
<rect width="34" height="34" rx="17" fill="#0F8BFF" fill-opacity="0.06"/>
<path d="M23.875 10.75H10.125C9.77982 10.75 9.5 11.0298 9.5 11.375V22.625C9.5 22.9702 9.77982 23.25 10.125 23.25H23.875C24.2202 23.25 24.5 22.9702 24.5 22.625V11.375C24.5 11.0298 24.2202 10.75 23.875 10.75Z" stroke="#414141" stroke-width="1.4" stroke-linecap="round" stroke-linejoin="round"/>
<path d="M9.5 20.1259L13.433 16.1928C13.4911 16.1348 13.56 16.0888 13.6358 16.0573C13.7116 16.0259 13.7929 16.0098 13.875 16.0098C13.9571 16.0098 14.0383 16.0259 14.1142 16.0573C14.19 16.0888 14.2589 16.1348 14.3169 16.1928L17.808 19.6839C17.8661 19.742 17.935 19.788 18.0108 19.8194C18.0866 19.8508 18.1679 19.867 18.25 19.867C18.3321 19.867 18.4133 19.8508 18.4892 19.8194C18.565 19.788 18.6339 19.742 18.6919 19.6839L20.308 18.0678C20.3661 18.0098 20.435 17.9638 20.5108 17.9323C20.5866 17.9009 20.6679 17.8848 20.75 17.8848C20.8321 17.8848 20.9133 17.9009 20.9892 17.9323C21.065 17.9638 21.1339 18.0098 21.1919 18.0678L24.5 21.3759" stroke="#414141" stroke-width="1.4" stroke-linecap="round" stroke-linejoin="round"/>
<path d="M19.1875 15.75C19.7053 15.75 20.125 15.3303 20.125 14.8125C20.125 14.2947 19.7053 13.875 19.1875 13.875C18.6697 13.875 18.25 14.2947 18.25 14.8125C18.25 15.3303 18.6697 15.75 19.1875 15.75Z" fill="#414141"/>
</svg>
