<svg width="24" height="20" viewBox="0 0 24 20" fill="none" xmlns="http://www.w3.org/2000/svg">
<path d="M21.7 1H1.9C1.40294 1 1 1.40294 1 1.9V18.1C1 18.5971 1.40294 19 1.9 19H21.7C22.1971 19 22.6 18.5971 22.6 18.1V1.9C22.6 1.40294 22.1971 1 21.7 1Z" stroke="#208FF6" stroke-width="1.4" stroke-linecap="round" stroke-linejoin="round"/>
<path d="M1 14.4999L6.66359 8.83636C6.74716 8.75279 6.84638 8.68649 6.95557 8.64126C7.06476 8.59603 7.18179 8.57275 7.29998 8.57275C7.41817 8.57275 7.53521 8.59603 7.6444 8.64126C7.75359 8.68649 7.85281 8.75279 7.93638 8.83636L12.9636 13.8636C13.0472 13.9471 13.1464 14.0134 13.2556 14.0587C13.3648 14.1039 13.4818 14.1272 13.6 14.1272C13.7182 14.1272 13.8352 14.1039 13.9444 14.0587C14.0536 14.0134 14.1528 13.9471 14.2364 13.8636L16.5636 11.5364C16.6472 11.4528 16.7464 11.3865 16.8556 11.3413C16.9648 11.296 17.0818 11.2728 17.2 11.2728C17.3182 11.2728 17.4352 11.296 17.5444 11.3413C17.6536 11.3865 17.7528 11.4528 17.8364 11.5364L22.6 16.3" stroke="#208FF6" stroke-width="1.4" stroke-linecap="round" stroke-linejoin="round"/>
<path d="M14.9501 8.2C15.6957 8.2 16.3001 7.59558 16.3001 6.85C16.3001 6.10442 15.6957 5.5 14.9501 5.5C14.2045 5.5 13.6001 6.10442 13.6001 6.85C13.6001 7.59558 14.2045 8.2 14.9501 8.2Z" fill="#208FF6"/>
</svg>
