<svg width="22" height="20" viewBox="0 0 20 18" fill="none" xmlns="http://www.w3.org/2000/svg">
<g opacity="0.8">
<path d="M9.49886 10.5051C9.50117 10.5074 9.50374 10.5094 9.50609 10.5116C9.52057 10.5257 9.53543 10.5395 9.55104 10.5523C9.55976 10.5594 9.569 10.5657 9.57798 10.5724C9.58766 10.5797 9.59717 10.5872 9.60724 10.5939C9.61761 10.6009 9.62843 10.6069 9.63911 10.6133C9.64844 10.6189 9.65755 10.6247 9.66718 10.6298C9.67791 10.6356 9.68898 10.6405 9.69992 10.6456C9.71012 10.6505 9.72015 10.6555 9.73057 10.6599C9.74112 10.6642 9.75193 10.6678 9.76266 10.6716C9.77391 10.6757 9.78507 10.68 9.79658 10.6835C9.80726 10.6867 9.81811 10.6891 9.82893 10.6918C9.8407 10.6948 9.85238 10.6981 9.86437 10.7005C9.87684 10.7029 9.8894 10.7044 9.90191 10.7062C9.91246 10.7077 9.92279 10.7097 9.93343 10.7107C9.95688 10.713 9.98038 10.7143 10.0039 10.7143C10.0275 10.7143 10.051 10.713 10.0744 10.7107C10.0851 10.7097 10.0954 10.7077 10.1059 10.7062C10.1184 10.7044 10.131 10.7029 10.1435 10.7005C10.1555 10.6981 10.1671 10.6947 10.1789 10.6918C10.1897 10.6891 10.2006 10.6867 10.2113 10.6835C10.2228 10.68 10.2339 10.6757 10.2452 10.6716C10.2559 10.6678 10.2667 10.6642 10.2773 10.6599C10.2877 10.6555 10.2977 10.6505 10.3079 10.6456C10.3189 10.6405 10.3299 10.6356 10.3407 10.6298C10.3503 10.6247 10.3594 10.6189 10.3687 10.6133C10.3794 10.6069 10.3902 10.6009 10.4006 10.5939C10.4107 10.5872 10.4202 10.5797 10.4299 10.5724C10.4388 10.5657 10.4481 10.5594 10.4568 10.5523C10.4727 10.5392 10.4878 10.5253 10.5026 10.5109C10.5046 10.5089 10.5069 10.5072 10.509 10.5051L14.7947 6.21939C14.861 6.15307 14.9137 6.07433 14.9496 5.98767C14.9855 5.901 15.0039 5.80812 15.0039 5.71432C15.0039 5.62051 14.9855 5.52763 14.9496 5.44096C14.9137 5.3543 14.8611 5.27555 14.7947 5.20922C14.7284 5.14289 14.6497 5.09027 14.563 5.05437C14.4764 5.01847 14.3835 4.99999 14.2897 4.99998C14.1959 4.99998 14.103 5.01845 14.0163 5.05434C13.9296 5.09024 13.8509 5.14285 13.7846 5.20918L10.7182 8.27558V0.714286C10.7182 0.524845 10.643 0.343164 10.509 0.209209C10.375 0.0752549 10.1934 0 10.0039 0C9.81448 0 9.6328 0.0752549 9.49885 0.209209C9.36489 0.343164 9.28964 0.524845 9.28964 0.714286V8.27558L6.22327 5.20918C6.15694 5.14285 6.0782 5.09024 5.99153 5.05434C5.90487 5.01845 5.81198 4.99998 5.71818 4.99998C5.62437 4.99999 5.53149 5.01847 5.44483 5.05437C5.35817 5.09027 5.27942 5.14289 5.2131 5.20922C5.14677 5.27555 5.09416 5.3543 5.05827 5.44096C5.02237 5.52763 5.0039 5.62051 5.00391 5.71432C5.00391 5.80812 5.02239 5.901 5.05829 5.98767C5.09419 6.07433 5.14681 6.15307 5.21314 6.21939L9.49886 10.5051Z" fill="#7E8389"/>
<path d="M18.5714 9.28516H13.7448L11.5152 11.5147C11.1134 11.9165 10.5683 12.1423 10 12.1423C9.43168 12.1423 8.88663 11.9165 8.48476 11.5147L6.25523 9.28516H1.42857C1.04982 9.28559 0.686713 9.43624 0.418897 9.70405C0.151082 9.97187 0.000433159 10.335 0 10.7137V16.428C0.000433159 16.8068 0.151082 17.1699 0.418897 17.4377C0.686713 17.7055 1.04982 17.8562 1.42857 17.8566H18.5714C18.9502 17.8562 19.3133 17.7055 19.5811 17.4377C19.8489 17.1699 19.9996 16.8068 20 16.428V10.7137C19.9996 10.335 19.8489 9.97187 19.5811 9.70405C19.3133 9.43624 18.9502 9.28559 18.5714 9.28516ZM15.3572 14.6423C15.1453 14.6423 14.9381 14.5795 14.7619 14.4617C14.5857 14.344 14.4484 14.1767 14.3673 13.9809C14.2862 13.7851 14.265 13.5697 14.3063 13.3618C14.3477 13.154 14.4497 12.9631 14.5996 12.8133C14.7494 12.6634 14.9403 12.5614 15.1482 12.52C15.356 12.4787 15.5714 12.4999 15.7672 12.581C15.963 12.6621 16.1303 12.7994 16.248 12.9756C16.3658 13.1518 16.4286 13.359 16.4286 13.5709C16.4286 13.855 16.3157 14.1276 16.1148 14.3285C15.9139 14.5294 15.6413 14.6423 15.3572 14.6423Z" fill="#7E8389"/>
</g>
</svg>
