<svg width="22" height="23" viewBox="0 0 22 23" fill="none" xmlns="http://www.w3.org/2000/svg">
<path d="M7.542 5.46915L7.94879 3.7145H12.8059L11.5916 9.17879H14.7488L13.237 11.152L14.1052 12.0202L16.4549 8.942C16.5186 8.85573 16.5584 8.75409 16.5702 8.64744C16.5819 8.54079 16.5652 8.43294 16.5216 8.33486C16.4752 8.22512 16.3974 8.13148 16.2981 8.06563C16.1988 7.99977 16.0823 7.9646 15.9631 7.9645H13.0791L14.1416 3.24093C14.1618 3.15133 14.1613 3.05833 14.1402 2.96894C14.1192 2.87955 14.0782 2.7961 14.0202 2.72486C13.9618 2.6528 13.8876 2.59508 13.8034 2.55614C13.7192 2.5172 13.6272 2.49807 13.5345 2.50022H7.46308C7.32356 2.49649 7.18702 2.54094 7.07644 2.62609C6.96585 2.71123 6.88798 2.83188 6.85593 2.96772L6.52808 4.45522L7.542 5.46915Z" fill="#F2133B"/>
<path d="M19 18.6439L13.3475 12.9914L12.4854 12.1232L7.22143 6.86536L6.2075 5.85143L2.85607 2.5L2 3.35607L5.88571 7.24786L5.03571 10.8604C5.01429 10.9509 5.01394 11.0451 5.0347 11.1357C5.05546 11.2264 5.09676 11.3111 5.15543 11.3832C5.2141 11.4554 5.28856 11.5131 5.37308 11.5519C5.45759 11.5908 5.54989 11.6096 5.64286 11.6071H8.57536L7.46429 18.8018C7.44423 18.9352 7.46915 19.0714 7.53511 19.189C7.60107 19.3067 7.70432 19.399 7.82857 19.4514C7.90575 19.4828 7.98814 19.4992 8.07143 19.5C8.16415 19.4998 8.25559 19.4783 8.33873 19.4373C8.42187 19.3962 8.49451 19.3367 8.55107 19.2632L12.6068 13.9629L18.1439 19.5L19 18.6439ZM6.40786 10.3929L6.89964 8.25571L9.03679 10.3929H6.40786ZM9.03071 16.6343L9.89286 11.2246L11.7143 13.0946L9.03071 16.6343Z" fill="#F2133B"/>
</svg>
