<svg width="40" height="41" viewBox="0 0 40 41" fill="none" xmlns="http://www.w3.org/2000/svg">
<rect y="0.5" width="40" height="40" rx="20" fill="#93C5FD"/>
<path d="M17.5 20.5H22.5" stroke="#1D4ED8" stroke-linecap="round" stroke-linejoin="round"/>
<path d="M17.5 23H22.5" stroke="#1D4ED8" stroke-linecap="round" stroke-linejoin="round"/>
<path d="M14.375 13.625H25.625C25.7908 13.625 25.9497 13.6908 26.0669 13.8081C26.1842 13.9253 26.25 14.0842 26.25 14.25V26.125C26.25 26.6223 26.0525 27.0992 25.7008 27.4508C25.3492 27.8025 24.8723 28 24.375 28H15.625C15.1277 28 14.6508 27.8025 14.2992 27.4508C13.9475 27.0992 13.75 26.6223 13.75 26.125V14.25C13.75 14.0842 13.8158 13.9253 13.9331 13.8081C14.0503 13.6908 14.2092 13.625 14.375 13.625Z" stroke="#1D4ED8" stroke-linecap="round" stroke-linejoin="round"/>
<path d="M16.25 12.375V14.875" stroke="#1D4ED8" stroke-linecap="round" stroke-linejoin="round"/>
<path d="M20 12.375V14.875" stroke="#1D4ED8" stroke-linecap="round" stroke-linejoin="round"/>
<path d="M23.75 12.375V14.875" stroke="#1D4ED8" stroke-linecap="round" stroke-linejoin="round"/>
</svg>
