<svg width="18" height="18" viewBox="0 0 18 18" fill="none" xmlns="http://www.w3.org/2000/svg">
<path d="M7.875 6.46875H12.375M7.875 9H12.375M7.875 11.4961H12.375" stroke="currentColor" stroke-width="1.2" stroke-linecap="round" stroke-linejoin="round"/>
<path d="M15.75 9.07031C15.75 5.34375 12.7266 2.32031 9 2.32031C5.27344 2.32031 2.25 5.34375 2.25 9.07031C2.25 12.7969 5.27344 15.8203 9 15.8203C12.7266 15.8203 15.75 12.7969 15.75 9.07031Z" stroke="currentColor" stroke-width="1.2" stroke-miterlimit="10"/>
<path d="M5.90625 6.75C6.06158 6.75 6.1875 6.62408 6.1875 6.46875C6.1875 6.31342 6.06158 6.1875 5.90625 6.1875C5.75092 6.1875 5.625 6.31342 5.625 6.46875C5.625 6.62408 5.75092 6.75 5.90625 6.75Z" stroke="currentColor" stroke-width="1.2" stroke-linecap="round" stroke-linejoin="round"/>
<path d="M5.90625 9.31641C6.06158 9.31641 6.1875 9.19049 6.1875 9.03516C6.1875 8.87983 6.06158 8.75391 5.90625 8.75391C5.75092 8.75391 5.625 8.87983 5.625 9.03516C5.625 9.19049 5.75092 9.31641 5.90625 9.31641Z" stroke="currentColor" stroke-width="1.2" stroke-linecap="round" stroke-linejoin="round"/>
<path d="M5.90625 11.8125C6.06158 11.8125 6.1875 11.6866 6.1875 11.5312C6.1875 11.3759 6.06158 11.25 5.90625 11.25C5.75092 11.25 5.625 11.3759 5.625 11.5312C5.625 11.6866 5.75092 11.8125 5.90625 11.8125Z" stroke="currentColor" stroke-width="1.2" stroke-linecap="round" stroke-linejoin="round"/>
</svg>
