<svg width="18" height="18" viewBox="0 0 18 18" fill="none" xmlns="http://www.w3.org/2000/svg">
<path d="M6.1875 16.3125H11.8125" stroke="currentColor" stroke-width="1.2" stroke-linecap="round" stroke-linejoin="round"/>
<path d="M5.53385 11.743C4.865 11.2206 4.32326 10.5534 3.94936 9.79154C3.57546 9.02967 3.37911 8.19295 3.37509 7.34428C3.35824 4.29536 5.81625 1.76087 8.86437 1.68913C10.0455 1.66069 11.2056 2.00488 12.1802 2.67288C13.1547 3.34088 13.8942 4.29877 14.2937 5.41068C14.6932 6.52259 14.7324 7.73206 14.4059 8.86753C14.0793 10.003 13.4035 11.0068 12.4743 11.7366C12.2697 11.8952 12.1037 12.0982 11.9891 12.3303C11.8744 12.5624 11.8141 12.8176 11.8125 13.0765L11.8125 13.5C11.8125 13.6492 11.7532 13.7923 11.6478 13.8978C11.5423 14.0033 11.3992 14.0625 11.25 14.0625H6.74999C6.60081 14.0625 6.45773 14.0033 6.35224 13.8978C6.24676 13.7923 6.18749 13.6492 6.18749 13.5L6.18748 13.076C6.18684 12.8188 6.12766 12.5651 6.01441 12.3341C5.90116 12.1032 5.73682 11.901 5.53385 11.743V11.743Z" stroke="currentColor" stroke-width="1.2" stroke-linecap="round" stroke-linejoin="round"/>
<path d="M9.57031 3.99219C10.2583 4.10914 10.8931 4.43683 11.3868 4.93C11.8806 5.42318 12.2091 6.0575 12.3269 6.74537" stroke="currentColor" stroke-width="1.2" stroke-linecap="round" stroke-linejoin="round"/>
</svg>
