<svg width="14" height="17" viewBox="0 0 14 17" fill="none" xmlns="http://www.w3.org/2000/svg">
<path d="M9 7.022V2.5C9 2.10218 8.84196 1.72064 8.56066 1.43934C8.27936 1.15804 7.89782 1 7.5 1H2.5C2.10218 1 1.72064 1.15804 1.43934 1.43934C1.15804 1.72064 1 2.10218 1 2.5V13.5C1 13.8978 1.15804 14.2794 1.43934 14.5607C1.72064 14.842 2.10218 15 2.5 15H4.6C4.783 15.358 5.004 15.693 5.257 16H2.5C1.83696 16 1.20107 15.7366 0.732233 15.2678C0.263392 14.7989 0 14.163 0 13.5V2.5C0 1.83696 0.263392 1.20107 0.732233 0.732233C1.20107 0.263392 1.83696 0 2.5 0H7.5C8.16304 0 8.79893 0.263392 9.26777 0.732233C9.73661 1.20107 10 1.83696 10 2.5V7.022C9.66734 6.99202 9.33266 6.99202 9 7.022ZM2.5 3C2.36739 3 2.24021 3.05268 2.14645 3.14645C2.05268 3.24021 2 3.36739 2 3.5C2 3.63261 2.05268 3.75979 2.14645 3.85355C2.24021 3.94732 2.36739 4 2.5 4H7.5C7.63261 4 7.75979 3.94732 7.85355 3.85355C7.94732 3.75979 8 3.63261 8 3.5C8 3.36739 7.94732 3.24021 7.85355 3.14645C7.75979 3.05268 7.63261 3 7.5 3H2.5ZM2 10.5C2 10.3674 2.05268 10.2402 2.14645 10.1464C2.24021 10.0527 2.36739 10 2.5 10H4.6C4.43647 10.3196 4.30483 10.6546 4.207 11H2.5C2.36739 11 2.24021 10.9473 2.14645 10.8536C2.05268 10.7598 2 10.6326 2 10.5ZM4 12.5C4 12.332 4.008 12.165 4.022 12H2.5C2.36739 12 2.24021 12.0527 2.14645 12.1464C2.05268 12.2402 2 12.3674 2 12.5C2 12.6326 2.05268 12.7598 2.14645 12.8536C2.24021 12.9473 2.36739 13 2.5 13H4.022C4.00718 12.8337 3.99984 12.6669 4 12.5ZM14 12.5C14 13.6935 13.5259 14.8381 12.682 15.682C11.8381 16.5259 10.6935 17 9.5 17C8.30653 17 7.16193 16.5259 6.31802 15.682C5.47411 14.8381 5 13.6935 5 12.5C5 11.3065 5.47411 10.1619 6.31802 9.31802C7.16193 8.47411 8.30653 8 9.5 8C10.6935 8 11.8381 8.47411 12.682 9.31802C13.5259 10.1619 14 11.3065 14 12.5ZM11.713 12.063L8.743 10.413C8.66689 10.3707 8.58104 10.349 8.49396 10.35C8.40688 10.3511 8.32158 10.3748 8.24652 10.419C8.17145 10.4631 8.10921 10.5261 8.06598 10.6017C8.02274 10.6773 8 10.7629 8 10.85V14.15C8 14.2371 8.02274 14.3227 8.06598 14.3983C8.10921 14.4739 8.17145 14.5369 8.24652 14.581C8.32158 14.6252 8.40688 14.6489 8.49396 14.65C8.58104 14.651 8.66689 14.6293 8.743 14.587L11.713 12.937C11.7909 12.8937 11.8558 12.8303 11.901 12.7535C11.9462 12.6767 11.97 12.5891 11.97 12.5C11.97 12.4109 11.9462 12.3233 11.901 12.2465C11.8558 12.1697 11.7909 12.1063 11.713 12.063Z" fill="#0F8BFF"/>
</svg>
