<svg width="34" height="34" viewBox="0 0 34 34" fill="none" xmlns="http://www.w3.org/2000/svg">
<rect width="34" height="34" rx="17" fill="#0F8BFF" fill-opacity="0.06"/>
<path d="M23.875 10.75H10.125C9.77982 10.75 9.5 11.0298 9.5 11.375V22.625C9.5 22.9702 9.77982 23.25 10.125 23.25H23.875C24.2202 23.25 24.5 22.9702 24.5 22.625V11.375C24.5 11.0298 24.2202 10.75 23.875 10.75Z" stroke="#414141" stroke-width="1.2" stroke-linecap="round" stroke-linejoin="round"/>
<path d="M9.5 13.25H24.5" stroke="#414141" stroke-width="1.2" stroke-linecap="round" stroke-linejoin="round"/>
<path d="M20.125 15.75C20.125 16.5788 19.7958 17.3737 19.2097 17.9597C18.6237 18.5458 17.8288 18.875 17 18.875C16.1712 18.875 15.3763 18.5458 14.7903 17.9597C14.2042 17.3737 13.875 16.5788 13.875 15.75" stroke="#414141" stroke-width="1.2" stroke-linecap="round" stroke-linejoin="round"/>
</svg>
