<svg width="18" height="18" viewBox="0 0 18 18" fill="none" xmlns="http://www.w3.org/2000/svg">
<path d="M7.3125 9H15.1874" stroke="currentColor" stroke-width="1.2" stroke-linecap="round" stroke-linejoin="round"/>
<path d="M7.3125 4.5H15.1874" stroke="currentColor" stroke-width="1.2" stroke-linecap="round" stroke-linejoin="round"/>
<path d="M7.3125 13.5H15.1875" stroke="currentColor" stroke-width="1.2" stroke-linecap="round" stroke-linejoin="round"/>
<path d="M2.8125 4.21875L3.9375 3.65625V7.59333" stroke="currentColor" stroke-width="1.2" stroke-linecap="round" stroke-linejoin="round"/>
<path d="M2.88986 10.7263C2.94331 10.5998 3.02262 10.4859 3.12269 10.3919C3.22277 10.2979 3.3414 10.2259 3.47096 10.1805C3.60053 10.135 3.73816 10.1172 3.87502 10.1281C4.01189 10.139 4.14495 10.1785 4.26567 10.2439C4.38639 10.3093 4.4921 10.3992 4.57601 10.5079C4.65992 10.6165 4.72016 10.7416 4.75289 10.8749C4.78561 11.0082 4.79008 11.1469 4.76601 11.2821C4.74194 11.4173 4.68987 11.5459 4.61313 11.6598L2.8125 14.0625H4.78125" stroke="currentColor" stroke-width="1.2" stroke-linecap="round" stroke-linejoin="round"/>
</svg>
