<svg width="18" height="18" viewBox="0 0 18 18" fill="none" xmlns="http://www.w3.org/2000/svg">
<path d="M6.1875 4.5H15.1875" stroke="currentColor" stroke-width="1.2" stroke-linecap="round" stroke-linejoin="round"/>
<path d="M6.1875 9H15.1871" stroke="currentColor" stroke-width="1.2" stroke-linecap="round" stroke-linejoin="round"/>
<path d="M6.1875 13.5H15.1871" stroke="currentColor" stroke-width="1.2" stroke-linecap="round" stroke-linejoin="round"/>
<path d="M3.09375 5.34375C3.55974 5.34375 3.9375 4.96599 3.9375 4.5C3.9375 4.03401 3.55974 3.65625 3.09375 3.65625C2.62776 3.65625 2.25 4.03401 2.25 4.5C2.25 4.96599 2.62776 5.34375 3.09375 5.34375Z" fill="currentColor"/>
<path d="M3.09375 9.84375C3.55974 9.84375 3.9375 9.46599 3.9375 9C3.9375 8.53401 3.55974 8.15625 3.09375 8.15625C2.62776 8.15625 2.25 8.53401 2.25 9C2.25 9.46599 2.62776 9.84375 3.09375 9.84375Z" fill="currentColor"/>
<path d="M3.09375 14.3438C3.55974 14.3438 3.9375 13.966 3.9375 13.5C3.9375 13.034 3.55974 12.6562 3.09375 12.6562C2.62776 12.6562 2.25 13.034 2.25 13.5C2.25 13.966 2.62776 14.3438 3.09375 14.3438Z" fill="currentColor"/>
</svg>
