<svg width="180" height="125" viewBox="0 0 180 125" fill="none" xmlns="http://www.w3.org/2000/svg">
<g filter="url(#filter0_d_3952_104635)">
<path d="M20 48.043L143.437 65.8137L160 82.5286L20 48.043Z" fill="#5B93FF"/>
<path opacity="0.6" d="M20 48.043L143.437 65.8137L160 82.5286L20 48.043Z" fill="white"/>
<path d="M20 48.043L143.437 65.8137L137.708 89.9845L20 48.043Z" fill="#5B93FF"/>
<path opacity="0.2" d="M20 48.043L143.437 65.8137L137.708 89.9845L20 48.043Z" fill="black"/>
<path d="M123.563 22.3998L129.992 52.5531C130.159 53.3405 130.008 54.1621 129.57 54.8377C129.133 55.5133 128.446 55.9878 127.659 56.1569L70.2796 68.4128C69.493 68.5788 68.6727 68.4265 67.998 67.9891C67.3233 67.5516 66.849 66.8647 66.6788 66.0783L60.245 35.925C60.0792 35.1371 60.2321 34.3155 60.6701 33.6401C61.1082 32.9647 61.7958 32.4904 62.5823 32.3212L119.962 20.0653C120.749 19.8994 121.57 20.0524 122.245 20.4908C122.92 20.9293 123.394 21.6174 123.563 22.4047V22.3998Z" fill="#5B93FF"/>
<path opacity="0.4" d="M123.563 22.3998L129.992 52.5531C130.159 53.3405 130.008 54.1621 129.57 54.8377C129.133 55.5133 128.446 55.9878 127.659 56.1569L70.2796 68.4128C69.493 68.5788 68.6727 68.4265 67.998 67.9891C67.3233 67.5516 66.849 66.8647 66.6788 66.0783L60.245 35.925C60.0792 35.1371 60.2321 34.3155 60.6701 33.6401C61.1082 32.9647 61.7958 32.4904 62.5823 32.3212L119.962 20.0653C120.749 19.8994 121.57 20.0524 122.245 20.4908C122.92 20.9293 123.394 21.6174 123.563 22.4047V22.3998Z" fill="black"/>
<g filter="url(#filter1_d_3952_104635)">
<path d="M109.048 51.342C109.047 54.9013 109.974 58.3768 111.738 61.4402L108.879 71.9067L119.562 69.0982C122.517 70.711 125.828 71.5561 129.193 71.5563H129.201C140.308 71.5563 149.349 62.4952 149.354 51.3579C149.356 45.9611 147.262 40.8863 143.456 37.0683C139.652 33.2506 134.592 31.147 129.201 31.1445C118.093 31.1445 109.052 40.2052 109.048 51.342" fill="#0AB39C"/>
<path d="M108.328 51.3359C108.326 55.0234 109.287 58.6232 111.114 61.7962L108.152 72.6379L119.219 69.7288C122.268 71.3956 125.701 72.2744 129.195 72.2757H129.204C140.709 72.2757 150.075 62.8887 150.08 51.3527C150.082 45.762 147.912 40.5047 143.971 36.5499C140.029 32.5956 134.788 30.4164 129.204 30.4141C117.697 30.4141 108.332 39.7998 108.328 51.3359H108.328ZM114.918 61.2498L114.505 60.5921C112.768 57.823 111.851 54.6231 111.852 51.3373C111.856 41.7487 119.639 33.9477 129.21 33.9477C133.845 33.9496 138.201 35.7611 141.477 39.0478C144.753 42.3348 146.556 46.7042 146.555 51.3514C146.551 60.9399 138.767 68.7419 129.204 68.7419H129.197C126.083 68.7403 123.029 67.9019 120.366 66.3175L119.732 65.9407L113.165 67.6669L114.918 61.2496V61.2498Z" fill="url(#paint0_linear_3952_104635)"/>
<path d="M123.986 42.5876C123.595 41.7169 123.184 41.6993 122.812 41.684C122.508 41.6709 122.16 41.6719 121.812 41.6719C121.464 41.6719 120.899 41.8031 120.422 42.3261C119.943 42.8495 118.596 44.1146 118.596 46.6874C118.596 49.2605 120.465 51.747 120.725 52.0962C120.986 52.4448 124.334 57.8937 129.636 59.9899C134.042 61.7319 134.939 61.3854 135.895 61.2981C136.852 61.211 138.981 60.0334 139.416 58.8122C139.851 57.5912 139.851 56.5446 139.72 56.3259C139.59 56.108 139.242 55.9771 138.72 55.7157C138.199 55.4541 135.634 54.189 135.156 54.0144C134.678 53.84 134.33 53.753 133.982 54.2766C133.634 54.7995 132.636 55.9771 132.331 56.3259C132.027 56.6755 131.723 56.719 131.201 56.4574C130.679 56.195 128.999 55.6435 127.006 53.862C125.456 52.4758 124.409 50.764 124.104 50.2404C123.8 49.7176 124.072 49.4342 124.333 49.1736C124.568 48.9393 124.855 48.5629 125.116 48.2577C125.376 47.9523 125.463 47.7344 125.637 47.3856C125.811 47.0365 125.724 46.7311 125.594 46.4695C125.463 46.208 124.449 43.6218 123.986 42.5878" fill="white"/>
</g>
<path d="M122.198 20.4354L102.977 44.2242C101.194 46.4297 98.7181 47.9557 95.9582 48.5497C93.1984 49.1436 90.3201 48.77 87.7996 47.4906L60.6172 33.688C61.057 33.0511 61.7207 32.6068 62.4735 32.4452L120.005 20.0671C120.756 19.906 121.539 20.0376 122.198 20.4354Z" fill="#5B93FF"/>
<path d="M20 48.043L121.811 72.2408L137.708 89.9845L20 48.043Z" fill="#5B93FF"/>
<path opacity="0.6" d="M20 48.043L121.811 72.2408L137.708 89.9845L20 48.043Z" fill="white"/>
<path d="M57.137 71.3648L56.8633 71.832L68.1931 78.4686L68.4667 78.0014L57.137 71.3648Z" fill="#5B93FF"/>
<path d="M73.469 80.9273L73.1953 81.3945L77.2694 83.7809L77.543 83.3137L73.469 80.9273Z" fill="#5B93FF"/>
<path d="M20 48.043L121.811 72.2408L102.02 96.0922L20 48.043Z" fill="#5B93FF"/>
<path d="M156.176 104.726C156.039 104.726 155.903 104.7 155.775 104.65L139.196 98.0874C138.931 97.9806 138.718 97.7731 138.606 97.5104C138.493 97.2476 138.488 96.9509 138.593 96.6849C138.698 96.419 138.904 96.2054 139.166 96.0908C139.428 95.9762 139.725 95.9698 139.992 96.0732L156.577 102.636C156.811 102.728 157.006 102.9 157.128 103.121C157.249 103.342 157.29 103.599 157.242 103.847C157.195 104.094 157.062 104.318 156.868 104.478C156.673 104.639 156.428 104.726 156.176 104.726Z" fill="#5B93FF"/>
<path opacity="0.3" d="M156.176 104.726C156.039 104.726 155.903 104.7 155.775 104.65L139.196 98.0874C138.931 97.9806 138.718 97.7731 138.606 97.5104C138.493 97.2476 138.488 96.9509 138.593 96.6849C138.698 96.419 138.904 96.2054 139.166 96.0908C139.428 95.9762 139.725 95.9698 139.992 96.0732L156.577 102.636C156.811 102.728 157.006 102.9 157.128 103.121C157.249 103.342 157.29 103.599 157.242 103.847C157.195 104.094 157.062 104.318 156.868 104.478C156.673 104.639 156.428 104.726 156.176 104.726Z" fill="black"/>
<path d="M155.201 95.2165C155.065 95.2157 154.931 95.1881 154.806 95.1353L145.899 91.5888C145.765 91.5372 145.644 91.4597 145.541 91.3609C145.438 91.2621 145.355 91.1439 145.298 91.013C145.241 90.8822 145.21 90.7413 145.207 90.5985C145.205 90.4557 145.23 90.3138 145.283 90.181C145.335 90.0482 145.414 89.9271 145.513 89.8246C145.613 89.7222 145.731 89.6404 145.863 89.584C145.994 89.5277 146.135 89.4978 146.278 89.4962C146.42 89.4945 146.562 89.5212 146.695 89.5745L155.602 93.1049C155.869 93.2099 156.083 93.4166 156.198 93.6795C156.312 93.9424 156.318 94.2401 156.213 94.5072C156.137 94.7147 155.999 94.8938 155.818 95.0206C155.637 95.1474 155.422 95.2158 155.201 95.2165Z" fill="#5B93FF"/>
<path opacity="0.5" d="M155.201 95.2165C155.065 95.2157 154.931 95.1881 154.806 95.1353L145.899 91.5888C145.765 91.5372 145.644 91.4597 145.541 91.3609C145.438 91.2621 145.355 91.1439 145.298 91.013C145.241 90.8822 145.21 90.7413 145.207 90.5985C145.205 90.4557 145.23 90.3138 145.283 90.181C145.335 90.0482 145.414 89.9271 145.513 89.8246C145.613 89.7222 145.731 89.6404 145.863 89.584C145.994 89.5277 146.135 89.4978 146.278 89.4962C146.42 89.4945 146.562 89.5212 146.695 89.5745L155.602 93.1049C155.869 93.2099 156.083 93.4166 156.198 93.6795C156.312 93.9424 156.318 94.2401 156.213 94.5072C156.137 94.7147 155.999 94.8938 155.818 95.0206C155.637 95.1474 155.422 95.2158 155.201 95.2165Z" fill="white"/>
<path d="M136.575 104.59C136.44 104.589 136.306 104.563 136.179 104.514L120.006 98.0927C119.873 98.0411 119.751 97.9636 119.648 97.8648C119.545 97.766 119.462 97.6478 119.405 97.5169C119.348 97.3861 119.317 97.2452 119.315 97.1024C119.312 96.9596 119.338 96.8178 119.39 96.6849C119.443 96.5521 119.521 96.431 119.62 96.3285C119.72 96.2261 119.839 96.1443 119.97 96.0879C120.101 96.0316 120.242 96.0017 120.385 96.0001C120.528 95.9984 120.67 96.0251 120.802 96.0784L136.975 102.479C137.21 102.571 137.405 102.743 137.526 102.964C137.648 103.185 137.688 103.442 137.641 103.69C137.593 103.937 137.461 104.161 137.266 104.321C137.072 104.482 136.827 104.569 136.575 104.569V104.59Z" fill="#5B93FF"/>
<path opacity="0.3" d="M136.575 104.59C136.44 104.589 136.306 104.563 136.179 104.514L120.006 98.0927C119.873 98.0411 119.751 97.9636 119.648 97.8648C119.545 97.766 119.462 97.6478 119.405 97.5169C119.348 97.3861 119.317 97.2452 119.315 97.1024C119.312 96.9596 119.338 96.8178 119.39 96.6849C119.443 96.5521 119.521 96.431 119.62 96.3285C119.72 96.2261 119.839 96.1443 119.97 96.0879C120.101 96.0316 120.242 96.0017 120.385 96.0001C120.528 95.9984 120.67 96.0251 120.802 96.0784L136.975 102.479C137.21 102.571 137.405 102.743 137.526 102.964C137.648 103.185 137.688 103.442 137.641 103.69C137.593 103.937 137.461 104.161 137.266 104.321C137.072 104.482 136.827 104.569 136.575 104.569V104.59Z" fill="black"/>
</g>
<defs>
<filter id="filter0_d_3952_104635" x="0" y="0" width="180" height="124.727" filterUnits="userSpaceOnUse" color-interpolation-filters="sRGB">
<feFlood flood-opacity="0" result="BackgroundImageFix"/>
<feColorMatrix in="SourceAlpha" type="matrix" values="0 0 0 0 0 0 0 0 0 0 0 0 0 0 0 0 0 0 127 0" result="hardAlpha"/>
<feOffset/>
<feGaussianBlur stdDeviation="10"/>
<feComposite in2="hardAlpha" operator="out"/>
<feColorMatrix type="matrix" values="0 0 0 0 0 0 0 0 0 0 0 0 0 0 0 0 0 0 0.1 0"/>
<feBlend mode="normal" in2="BackgroundImageFix" result="effect1_dropShadow_3952_104635"/>
<feBlend mode="normal" in="SourceGraphic" in2="effect1_dropShadow_3952_104635" result="shape"/>
</filter>
<filter id="filter1_d_3952_104635" x="98.1523" y="20.4141" width="61.9277" height="62.3633" filterUnits="userSpaceOnUse" color-interpolation-filters="sRGB">
<feFlood flood-opacity="0" result="BackgroundImageFix"/>
<feColorMatrix in="SourceAlpha" type="matrix" values="0 0 0 0 0 0 0 0 0 0 0 0 0 0 0 0 0 0 127 0" result="hardAlpha"/>
<feOffset/>
<feGaussianBlur stdDeviation="5"/>
<feComposite in2="hardAlpha" operator="out"/>
<feColorMatrix type="matrix" values="0 0 0 0 0 0 0 0 0 0 0 0 0 0 0 0 0 0 0.1 0"/>
<feBlend mode="normal" in2="BackgroundImageFix" result="effect1_dropShadow_3952_104635"/>
<feBlend mode="normal" in="SourceGraphic" in2="effect1_dropShadow_3952_104635" result="shape"/>
</filter>
<linearGradient id="paint0_linear_3952_104635" x1="129.116" y1="72.6379" x2="129.116" y2="30.4141" gradientUnits="userSpaceOnUse">
<stop stop-color="#F9F9F9"/>
<stop offset="1" stop-color="white"/>
</linearGradient>
</defs>
</svg>
