<svg width="15" height="16" viewBox="0 0 15 16" fill="none" xmlns="http://www.w3.org/2000/svg">
<path d="M13.1486 15.272H2.23887C2.07814 15.272 1.92398 15.2082 1.81032 15.0945C1.69666 14.9808 1.63281 14.8267 1.63281 14.666V1.33262C1.63281 1.17189 1.69666 1.01773 1.81032 0.904074C1.92398 0.790415 2.07814 0.726562 2.23887 0.726562H9.51219L13.7546 4.96899V14.666C13.7546 14.7455 13.7389 14.8244 13.7085 14.8979C13.678 14.9714 13.6334 15.0382 13.5771 15.0945C13.5208 15.1508 13.454 15.1954 13.3805 15.2259C13.307 15.2563 13.2281 15.272 13.1486 15.272Z" stroke="currentColor" stroke-width="1.4" stroke-linecap="round" stroke-linejoin="round"/>
<path d="M9.50781 0.726562V4.96899H13.7508" stroke="currentColor" stroke-width="1.4" stroke-linecap="round" stroke-linejoin="round"/>
<path d="M5.875 9.81641H9.51136" stroke="currentColor" stroke-width="1.4" stroke-linecap="round" stroke-linejoin="round"/>
<path d="M7.69531 8V11.6364" stroke="currentColor" stroke-width="1.4" stroke-linecap="round" stroke-linejoin="round"/>
</svg>
