<svg width="6" height="12" viewBox="0 0 6 12" fill="none" xmlns="http://www.w3.org/2000/svg">
<path d="M0.99437 11.8999L0.995879 11.8999C1.10902 11.9003 1.22081 11.8754 1.32303 11.8269C1.4252 11.7784 1.51522 11.7077 1.58648 11.6199C1.58651 11.6199 1.58655 11.6199 1.58658 11.6198L5.72709 6.47774L5.72708 6.47774L5.72773 6.47695C5.83911 6.34148 5.9 6.17157 5.9 5.99622C5.9 5.82098 5.83919 5.65117 5.72794 5.51575C5.72787 5.51566 5.7278 5.51558 5.72773 5.5155L1.44168 0.373645L1.44159 0.373546C1.31303 0.218914 1.12829 0.121666 0.927998 0.103205C0.727707 0.0847431 0.528288 0.146582 0.37361 0.27511C0.218934 0.403637 0.12167 0.588323 0.103205 0.788534C0.084743 0.988726 0.146575 1.18806 0.27511 1.34268C0.275122 1.34269 0.275135 1.34271 0.275147 1.34272L4.10716 5.93645L4.15969 5.99942L4.10822 6.06327L0.404698 10.6571L0.404708 10.6571L0.40367 10.6584C0.311068 10.7695 0.252247 10.9048 0.234165 11.0483C0.216082 11.1918 0.239494 11.3375 0.301631 11.4681C0.363768 11.5987 0.462031 11.7088 0.584798 11.7853C0.707565 11.8619 0.849695 11.9016 0.99437 11.8999ZM0.3097 0.198197C0.134626 0.343674 0.0245285 0.552721 0.00362778 0.779351C-0.0172729 1.00598 0.0527353 1.23163 0.198252 1.40665L0.3097 0.198197Z" fill="#1491ED" stroke="#1491ED" stroke-width="0.2"/>
</svg>
