<svg width="20" height="21" viewBox="0 0 20 21" fill="none" xmlns="http://www.w3.org/2000/svg">
<path d="M18.5714 4.24V15.2857C18.5714 16.4224 18.8049 18.1951 18 19C17.3071 19.6929 15.4224 19.5714 14.2857 19.5714H3.24C3.49076 20.0058 3.85143 20.3664 4.28576 20.6172C4.72008 20.868 5.21276 21 5.71429 21H14.2857C15.1033 21 16.7017 21 18.0006 21C19.1052 21 20 20.1052 20 19.0006C20 17.7017 20 16.1033 20 15.2857V6.71429C20 6.21276 19.868 5.72008 19.6172 5.28576C19.3664 4.85143 19.0058 4.49076 18.5714 4.24ZM12.1429 9.28571C12.3323 9.28571 12.514 9.21046 12.6479 9.07651C12.7819 8.94255 12.8571 8.76087 12.8571 8.57143C12.8571 8.38199 12.7819 8.20031 12.6479 8.06635C12.514 7.9324 12.3323 7.85714 12.1429 7.85714H9.28571V5C9.28571 4.81056 9.21046 4.62888 9.07651 4.49492C8.94255 4.36097 8.76087 4.28571 8.57143 4.28571C8.38199 4.28571 8.20031 4.36097 8.06635 4.49492C7.9324 4.62888 7.85714 4.81056 7.85714 5V7.85714H5C4.81056 7.85714 4.62888 7.9324 4.49492 8.06635C4.36097 8.20031 4.28571 8.38199 4.28571 8.57143C4.28571 8.76087 4.36097 8.94255 4.49492 9.07651C4.62888 9.21046 4.81056 9.28571 5 9.28571H7.85714V12.1429C7.85714 12.3323 7.9324 12.514 8.06635 12.6479C8.20031 12.7819 8.38199 12.8571 8.57143 12.8571C8.76087 12.8571 8.94255 12.7819 9.07651 12.6479C9.21046 12.514 9.28571 12.3323 9.28571 12.1429V9.28571H12.1429ZM14.2857 0C15.0435 0 15.7702 0.301019 16.306 0.836838C16.8418 1.37266 17.1429 2.09938 17.1429 2.85714V14.2857C17.1429 15.0435 16.8418 15.7702 16.306 16.306C15.7702 16.8418 15.0435 17.1429 14.2857 17.1429H2.85714C2.09938 17.1429 1.37266 16.8418 0.836838 16.306C0.301019 15.7702 0 15.0435 0 14.2857V2.85714C0 2.09938 0.301019 1.37266 0.836838 0.836838C1.37266 0.301019 2.09938 0 2.85714 0H14.2857ZM15.7143 2.85714C15.7143 2.47826 15.5638 2.1149 15.2959 1.84699C15.028 1.57908 14.6646 1.42857 14.2857 1.42857H2.85714C2.47826 1.42857 2.1149 1.57908 1.84699 1.84699C1.57908 2.1149 1.42857 2.47826 1.42857 2.85714V14.2857C1.42857 14.6646 1.57908 15.028 1.84699 15.2959C2.1149 15.5638 2.47826 15.7143 2.85714 15.7143H14.2857C14.6646 15.7143 15.028 15.5638 15.2959 15.2959C15.5638 15.028 15.7143 14.6646 15.7143 14.2857V2.85714Z" fill="white"/>
</svg>
