<svg width="216" height="251" viewBox="0 0 216 251" fill="none" xmlns="http://www.w3.org/2000/svg">
<path d="M108.429 250.008C167.839 250.008 216.001 222.648 216.001 188.898C216.001 155.149 167.839 127.789 108.429 127.789C49.0189 127.789 0.857422 155.149 0.857422 188.898C0.857422 222.648 49.0189 250.008 108.429 250.008Z" fill="#F5F5F5"/>
<path d="M153.184 227.423L72.8862 181.059C72.1798 180.652 71.5931 180.066 71.1852 179.36C70.7773 178.654 70.5625 177.853 70.5625 177.038C70.5625 176.223 70.7773 175.422 71.1852 174.716C71.5931 174.01 72.1798 173.424 72.8862 173.017L80.8074 168.022C82.1747 167.235 83.725 166.82 85.3029 166.82C86.8809 166.82 88.4311 167.235 89.7985 168.022L170.107 214.392C170.814 214.799 171.401 215.385 171.808 216.091C172.216 216.797 172.431 217.597 172.431 218.413C172.431 219.228 172.216 220.029 171.808 220.735C171.401 221.44 170.814 222.026 170.107 222.433L162.186 227.423C160.818 228.215 159.266 228.632 157.685 228.632C156.105 228.632 154.552 228.215 153.184 227.423Z" fill="#E0E0E0"/>
<path d="M31.0934 185.146C40.7173 185.146 48.5189 180.666 48.5189 175.139C48.5189 169.613 40.7173 165.133 31.0934 165.133C21.4696 165.133 13.668 169.613 13.668 175.139C13.668 180.666 21.4696 185.146 31.0934 185.146Z" fill="#E6E6E6"/>
<path d="M181.668 187.446L189.311 191.841C189.311 191.841 185.408 179.574 187.488 167.209C188.274 162.536 189.961 160.216 190.55 158.966C191.14 157.716 195.709 149.991 191.642 146.454C187.575 142.916 178.114 150.029 178.627 169.065C178.861 175.296 179.882 181.472 181.668 187.446Z" fill="#0AB39C"/>
<path opacity="0.5" d="M181.668 187.446L189.311 191.841C189.311 191.841 185.408 179.574 187.488 167.209C188.274 162.536 189.961 160.216 190.55 158.966C191.14 157.716 195.709 149.991 191.642 146.454C187.575 142.916 178.114 150.029 178.627 169.065C178.861 175.296 179.882 181.472 181.668 187.446Z" fill="black"/>
<path d="M185.221 189.765C185.166 189.767 185.111 189.75 185.065 189.719C185.019 189.688 184.984 189.643 184.965 189.591C184.937 189.509 182.017 181.528 182.11 168.699C182.202 155.87 188.944 148.904 189.01 148.839C189.035 148.813 189.065 148.793 189.099 148.779C189.132 148.765 189.168 148.758 189.204 148.758C189.24 148.758 189.275 148.765 189.309 148.779C189.342 148.793 189.372 148.813 189.398 148.839C189.423 148.864 189.443 148.894 189.457 148.927C189.471 148.961 189.478 148.996 189.478 149.032C189.478 149.068 189.471 149.104 189.457 149.137C189.443 149.171 189.423 149.201 189.398 149.226C189.332 149.292 182.748 156.05 182.655 168.704C182.563 181.358 185.445 189.329 185.478 189.405C185.502 189.473 185.499 189.548 185.468 189.614C185.438 189.679 185.382 189.73 185.314 189.755C185.284 189.764 185.253 189.768 185.221 189.765Z" fill="white"/>
<path d="M184.856 189.321L195.304 195.326C196.393 195.969 197.684 196.179 198.921 195.913C200.157 195.647 201.248 194.925 201.975 193.89C202.667 192.814 202.959 191.529 202.8 190.26C202.297 184.833 199.939 183.583 202.827 181.165C205.715 178.746 206.468 178.577 206.304 176.252C206.141 173.926 204.552 172.911 203.799 171.994C203.045 171.076 200.96 169.155 202.379 166.316C203.799 163.477 205.737 160.731 202.8 159.476C201.047 158.722 198.127 159.727 196.205 161.812C194.284 163.898 192.7 165.399 190.861 165.901C189.021 166.403 185.189 166.485 185.352 169.657C185.516 172.829 186.357 173.915 185.604 175.329C184.184 177.971 178.01 179.473 184.856 189.321Z" fill="#0AB39C"/>
<path d="M190.022 192.555C189.954 192.553 189.889 192.526 189.839 192.48C189.789 192.434 189.757 192.371 189.749 192.304C189.749 192.118 188.144 173.383 201.028 160.914C201.081 160.87 201.149 160.848 201.218 160.852C201.286 160.856 201.351 160.886 201.399 160.936C201.446 160.985 201.473 161.051 201.475 161.12C201.476 161.189 201.451 161.256 201.405 161.307C188.707 173.595 190.279 192.069 190.295 192.255C190.301 192.326 190.279 192.397 190.233 192.453C190.187 192.508 190.121 192.543 190.05 192.55L190.022 192.555Z" fill="white"/>
<path d="M192.09 176.44C192.021 176.44 191.955 176.414 191.904 176.368C191.854 176.321 191.823 176.257 191.817 176.189C191.703 174.737 191.294 173.323 190.615 172.035C189.937 170.746 189.003 169.609 187.87 168.693C187.841 168.673 187.816 168.646 187.796 168.616C187.777 168.585 187.764 168.551 187.758 168.516C187.752 168.48 187.753 168.444 187.761 168.409C187.769 168.374 187.784 168.341 187.805 168.311C187.825 168.282 187.851 168.257 187.881 168.238C187.911 168.218 187.944 168.205 187.979 168.199C188.014 168.193 188.05 168.194 188.085 168.202C188.12 168.21 188.152 168.225 188.181 168.246C189.388 169.203 190.383 170.4 191.103 171.762C191.823 173.123 192.252 174.62 192.363 176.156C192.369 176.229 192.346 176.301 192.299 176.358C192.252 176.414 192.185 176.449 192.112 176.456L192.09 176.44Z" fill="white"/>
<path d="M191.201 179.646C191.135 179.646 191.071 179.623 191.021 179.58C190.967 179.532 190.934 179.464 190.928 179.392C190.923 179.32 190.947 179.248 190.994 179.193C191.125 179.04 194.351 175.48 201.912 176.425C201.983 176.434 202.048 176.472 202.092 176.529C202.136 176.586 202.156 176.659 202.147 176.731C202.137 176.803 202.1 176.868 202.043 176.913C201.985 176.958 201.913 176.978 201.841 176.971C194.58 176.059 191.43 179.52 191.398 179.553C191.373 179.581 191.342 179.603 191.309 179.619C191.275 179.635 191.238 179.644 191.201 179.646Z" fill="white"/>
<path d="M150.754 221.875L80.1352 181.101C75.1511 178.224 71.1113 170.505 71.1113 163.861V12.6437C71.1113 5.99997 75.1511 2.94833 80.1352 5.82528L150.754 46.5994C155.738 49.4763 159.778 57.1955 159.778 63.8392V215.057C159.778 221.695 155.738 224.752 150.754 221.875Z" fill="#455A64"/>
<path d="M158.886 41.8531L88.2618 1.07897C86.1328 -0.149328 84.1784 -0.291265 82.6335 0.462092C82.4444 0.556811 82.262 0.664427 82.0876 0.784179L74.1719 5.38621C75.7659 4.43086 77.8513 4.50183 80.1387 5.82294L150.758 46.597C155.742 49.474 159.782 57.1931 159.782 63.8369V215.054C159.782 218.57 158.652 221.059 156.85 222.238L164.662 217.691C166.655 216.632 167.938 214.039 167.938 210.321V59.1038C167.938 52.4492 163.87 44.73 158.886 41.8531Z" fill="#37474F"/>
<path d="M159.775 63.8424V215.06C159.775 218.575 158.645 221.065 156.844 222.244L164.661 217.696C166.654 216.637 167.937 214.044 167.937 210.327V59.1094L159.803 63.8315L159.775 63.8424Z" fill="#263238"/>
<path d="M167.908 70.8359L159.773 75.5308V79.1993L167.908 74.499V70.8359Z" fill="#37474F"/>
<path d="M164.349 95.2248C163.623 95.6451 163.033 95.1975 163.033 94.2312V86.3428C163.041 85.8497 163.163 85.3652 163.392 84.9281C163.62 84.4911 163.948 84.1136 164.349 83.8261C165.075 83.4058 165.664 83.8261 165.664 84.8197V92.7081C165.657 93.2012 165.534 93.6858 165.306 94.1228C165.077 94.5599 164.75 94.9373 164.349 95.2248Z" fill="#37474F"/>
<path d="M163.029 94.2671V86.3569C163.037 85.8638 163.16 85.3792 163.388 84.9422C163.617 84.5051 163.944 84.1277 164.345 83.8402C164.465 83.7565 164.604 83.7054 164.75 83.692C164.895 83.6786 165.042 83.7033 165.175 83.7638L164.187 83.2561C164.052 83.1911 163.902 83.1629 163.752 83.1744C163.603 83.1859 163.459 83.2367 163.335 83.3216C162.934 83.6091 162.606 83.9864 162.376 84.4234C162.147 84.8603 162.023 85.3449 162.014 85.8383V93.7212C161.994 93.9204 162.024 94.1214 162.102 94.3057C162.18 94.4899 162.304 94.6513 162.462 94.7748L163.493 95.3207C163.329 95.2024 163.2 95.0424 163.118 94.8571C163.036 94.6719 163.006 94.4682 163.029 94.2671Z" fill="#455A64"/>
<path d="M164.349 114.326C163.623 114.747 163.033 114.326 163.033 113.333V105.444C163.041 104.951 163.164 104.467 163.392 104.03C163.621 103.593 163.948 103.215 164.349 102.928C165.075 102.507 165.664 102.928 165.664 103.927V111.81C165.658 112.303 165.535 112.788 165.307 113.225C165.078 113.662 164.75 114.039 164.349 114.326Z" fill="#37474F"/>
<path d="M163.03 113.325V105.437C163.038 104.944 163.161 104.46 163.389 104.023C163.617 103.586 163.945 103.208 164.345 102.92C164.466 102.838 164.605 102.788 164.75 102.775C164.896 102.761 165.042 102.785 165.175 102.844L164.187 102.331C164.053 102.263 163.902 102.233 163.752 102.245C163.602 102.256 163.458 102.309 163.335 102.396C162.933 102.683 162.604 103.06 162.375 103.497C162.145 103.934 162.022 104.419 162.014 104.913V112.818C161.993 113.017 162.023 113.218 162.102 113.402C162.18 113.587 162.304 113.748 162.462 113.871L163.494 114.417C163.323 114.296 163.189 114.13 163.107 113.937C163.025 113.744 162.998 113.533 163.03 113.325Z" fill="#455A64"/>
<path d="M148.287 50.8438L78.891 10.763C78.6014 10.5964 78.2732 10.5084 77.9391 10.5078C77.605 10.5072 77.2765 10.594 76.9862 10.7595C76.696 10.925 76.4541 11.1636 76.2845 11.4515C76.1149 11.7394 76.0236 12.0667 76.0195 12.4008V163.864C76.0195 168.919 79.6062 175.126 83.9844 177.653L151.677 216.757C151.998 216.942 152.362 217.039 152.733 217.039C153.103 217.038 153.467 216.941 153.788 216.755C154.108 216.57 154.375 216.304 154.56 215.983C154.745 215.662 154.843 215.299 154.844 214.928V62.2151C154.871 58.0444 151.912 52.9292 148.287 50.8438Z" fill="#0AB39C"/>
<path opacity="0.9" d="M148.287 50.8438L78.891 10.763C78.6014 10.5964 78.2732 10.5084 77.9391 10.5078C77.605 10.5072 77.2765 10.594 76.9862 10.7595C76.696 10.925 76.4541 11.1636 76.2845 11.4515C76.1149 11.7394 76.0236 12.0667 76.0195 12.4008V163.864C76.0195 168.919 79.6062 175.126 83.9844 177.653L151.677 216.757C151.998 216.942 152.362 217.039 152.733 217.039C153.103 217.038 153.467 216.941 153.788 216.755C154.108 216.57 154.375 216.304 154.56 215.983C154.745 215.662 154.843 215.299 154.844 214.928V62.2151C154.871 58.0444 151.912 52.9292 148.287 50.8438Z" fill="white"/>
<path d="M99.6484 21.25L100.724 25.7756L123.729 39.0412L127.703 36.9231L99.6484 21.25Z" fill="#455A64"/>
<path d="M106.412 25.6039C106.412 26.3573 105.866 26.6575 105.233 26.2863C104.893 26.0606 104.611 25.7583 104.409 25.4037C104.207 25.0491 104.091 24.6521 104.07 24.2446C104.07 23.4967 104.616 23.191 105.249 23.5677C105.589 23.7922 105.872 24.0935 106.074 24.4472C106.276 24.8009 106.392 25.1971 106.412 25.6039Z" fill="#263238"/>
<path d="M121.908 35.1881C121.782 35.1871 121.658 35.1552 121.547 35.0953L109.799 28.5443C109.633 28.4469 109.512 28.2885 109.462 28.103C109.411 27.9174 109.435 27.7194 109.528 27.5512C109.622 27.383 109.777 27.258 109.961 27.2028C110.145 27.1477 110.344 27.1667 110.514 27.256L122.268 33.8069C122.411 33.8863 122.523 34.011 122.587 34.1613C122.652 34.3116 122.664 34.479 122.623 34.6371C122.582 34.7953 122.489 34.9353 122.36 35.035C122.23 35.1347 122.071 35.1886 121.908 35.1881Z" fill="#263238"/>
<path d="M90.5716 42.2977C89.8564 41.8828 89.3378 42.2431 89.3378 43.1548C89.3378 43.6107 89.4505 44.0595 89.6657 44.4614C89.8809 44.8633 90.1921 45.2058 90.5716 45.4585C90.7748 45.5819 91.008 45.6471 91.2458 45.6471C91.4835 45.6471 91.7167 45.5819 91.92 45.4585L93.0609 47.5221C92.6596 47.7435 92.2045 47.8491 91.7466 47.8269C91.2887 47.8047 90.846 47.6557 90.4679 47.3965C89.5409 46.8294 88.7681 46.0426 88.2178 45.1056C87.6674 44.1687 87.3565 43.1105 87.3125 42.0247C87.3125 39.9994 88.6718 39.2952 90.5443 40.387C91.6017 41.0679 92.4679 42.0074 93.0609 43.1166L91.92 44.0228C91.6386 43.3341 91.1719 42.737 90.5716 42.2977Z" fill="#0AB39C"/>
<path d="M99.6291 49.1308C99.6291 51.1725 98.2479 51.8603 96.3536 50.7685C95.4002 50.1987 94.6023 49.4023 94.0309 48.4499C93.4595 47.4975 93.1322 46.4187 93.0781 45.3094C93.0781 43.2677 94.4593 42.5798 96.3536 43.6716C97.3093 44.2388 98.1089 45.0346 98.6807 45.9876C99.2525 46.9405 99.5783 48.0206 99.6291 49.1308ZM95.1035 46.5268C95.113 46.9955 95.2338 47.4552 95.4559 47.8681C95.678 48.281 95.9951 48.6352 96.3809 48.9015C97.0578 49.2945 97.6037 48.9015 97.6037 47.9734C97.6019 47.5153 97.4898 47.0643 97.277 46.6586C97.0641 46.2528 96.7568 45.9043 96.3809 45.6424C95.693 45.2439 95.1035 45.5823 95.1035 46.5268Z" fill="#0AB39C"/>
<path d="M101.829 46.9733L104.187 51.8865V48.349L105.973 49.3808V56.2647L104.335 55.3148L101.987 50.4453V53.961L100.191 52.9237V46.0234L101.829 46.9733Z" fill="#0AB39C"/>
<path d="M111.808 52.7281V54.5296L110.104 53.547V58.6349L108.134 57.4939V52.406L106.441 51.4289V49.6328L111.808 52.7281Z" fill="#0AB39C"/>
<path d="M115.65 60.8625L113.412 59.5687L113.106 60.3657L111.086 59.1974L113.603 53.7656L115.628 54.9339L118.052 63.2208L115.95 62.0089L115.65 60.8625ZM115.164 58.9518L114.552 56.5989L113.925 58.2366L115.164 58.9518Z" fill="#0AB39C"/>
<path d="M121.181 59.9696C120.466 59.5601 119.947 59.915 119.947 60.8321C119.948 61.2878 120.061 61.7363 120.276 62.1381C120.492 62.5398 120.802 62.8825 121.181 63.1359C121.386 63.258 121.62 63.3225 121.858 63.3225C122.096 63.3225 122.33 63.258 122.535 63.1359L123.676 65.1994C123.273 65.4183 122.817 65.5224 122.359 65.5003C121.901 65.4781 121.457 65.3306 121.077 65.0738C120.15 64.5062 119.376 63.7185 118.826 62.7805C118.275 61.8426 117.965 60.7833 117.922 59.6966C117.922 57.6713 119.287 56.9671 121.154 58.0589C122.21 58.7431 123.077 59.6817 123.676 60.7884L122.535 61.6892C122.247 61.0042 121.779 60.4099 121.181 59.9696Z" fill="#0AB39C"/>
<path d="M129.06 62.686V64.482L127.356 63.4994V68.6036L125.386 67.4627V62.3748L123.693 61.3976V59.6016L129.06 62.686Z" fill="#0AB39C"/>
<path d="M134.884 71.1412C135.369 71.4196 135.741 71.2012 135.741 70.5189V66.5501L137.717 67.6856V71.6543C137.717 73.4832 136.625 74.0291 134.878 73.03C134.037 72.5627 133.329 71.887 132.823 71.0678C132.318 70.2487 132.031 69.3134 131.99 68.3516V64.3828L133.966 65.5238V69.4925C133.974 69.8211 134.062 70.1429 134.221 70.4302C134.381 70.7174 134.608 70.9614 134.884 71.1412Z" fill="#0AB39C"/>
<path d="M140.904 71.1507C140.68 71.0252 140.538 71.0197 140.538 71.2271C140.538 72.0897 143.623 73.3344 143.623 75.8292C143.623 77.3577 142.46 77.3632 141.117 76.588C139.937 75.8646 138.92 74.9035 138.131 73.7656L138.862 72.4773C139.463 73.4067 140.233 74.2143 141.133 74.8574C141.423 75.0267 141.608 75.0267 141.608 74.781C141.608 73.8857 138.518 72.6956 138.518 70.2773C138.518 68.9016 139.523 68.6395 141.073 69.513C142.072 70.1171 142.951 70.8998 143.666 71.8222L142.951 73.1433C142.361 72.391 141.672 71.7209 140.904 71.1507Z" fill="#0AB39C"/>
<path d="M80.6402 76.2152C82.8552 73.4948 83.9702 70.0429 83.7652 66.5408C83.5602 63.0386 82.05 59.7404 79.5327 57.297C77.0154 54.8536 73.6737 53.4423 70.167 53.3417C66.6603 53.2411 63.2432 54.4584 60.5899 56.7534C57.9366 59.0485 56.2398 62.2546 55.8343 65.7393C55.4288 69.2239 56.344 72.734 58.3993 75.577C60.4547 78.4201 63.501 80.3895 66.9371 81.0968C70.3732 81.8042 73.9497 81.198 76.9608 79.3979L83.7956 82.3677L80.6402 76.2152Z" fill="#0AB39C"/>
<path opacity="0.4" d="M80.6402 76.2152C82.8552 73.4948 83.9702 70.0429 83.7652 66.5408C83.5602 63.0386 82.05 59.7404 79.5327 57.297C77.0154 54.8536 73.6737 53.4423 70.167 53.3417C66.6603 53.2411 63.2432 54.4584 60.5899 56.7534C57.9366 59.0485 56.2398 62.2546 55.8343 65.7393C55.4288 69.2239 56.344 72.734 58.3993 75.577C60.4547 78.4201 63.501 80.3895 66.9371 81.0968C70.3732 81.8042 73.9497 81.198 76.9608 79.3979L83.7956 82.3677L80.6402 76.2152Z" fill="black"/>
<path d="M64.5702 66.6136C64.5702 66.4007 64.4174 66.2806 64.1389 66.2806C63.4932 66.3652 62.89 66.6496 62.4139 67.094L61.6387 65.5873C62.4547 64.9733 63.4404 64.6263 64.461 64.5938C65.7712 64.5938 66.7648 65.2816 66.7648 66.3079C66.7648 67.0394 66.2189 67.7437 65.5201 68.4479L64.5429 69.4141H66.8521V71.0191H61.8898V69.7035L64.1007 67.4161C64.3388 67.2055 64.5033 66.9243 64.5702 66.6136Z" fill="white"/>
<path d="M70.889 64.6719L69.3823 68.2858H69.9991V67.0684H71.8989V68.2858H72.6195V69.7761H71.8989V71.0044H69.9991V69.7761H67.2969V68.4223L68.9346 64.6719H70.889Z" fill="white"/>
<path d="M78.4828 67.8555V71.0054H76.452V68.4396C76.4638 68.356 76.4574 68.271 76.4334 68.1901C76.4094 68.1092 76.3684 68.0344 76.313 67.9707C76.2576 67.9071 76.1892 67.8561 76.1125 67.8211C76.0357 67.7861 75.9523 67.7681 75.8679 67.7681C75.4694 67.7681 75.2183 68.0793 75.2183 68.5597V71.0054H73.1875V64.3125H75.2183V66.7746C75.3772 66.5235 75.5986 66.318 75.8608 66.1782C76.123 66.0385 76.4171 65.9693 76.7141 65.9775C76.9575 65.9713 77.1995 66.0164 77.4242 66.1101C77.649 66.2037 77.8514 66.3437 78.0184 66.521C78.1853 66.6982 78.313 66.9087 78.393 67.1387C78.473 67.3686 78.5037 67.6129 78.4828 67.8555Z" fill="white"/>
<path d="M144.693 118.583V186.412C144.694 187.179 144.493 187.933 144.11 188.598C143.727 189.263 143.176 189.815 142.512 190.199C141.848 190.583 141.094 190.786 140.327 190.786C139.56 190.786 138.806 190.585 138.142 190.201L101.61 169.107L95.1351 165.373C92.9056 164.084 91.0536 162.232 89.7641 160.003C88.4746 157.774 87.7929 155.245 87.7871 152.67V84.8347C87.786 84.0675 87.987 83.3136 88.3698 82.6488C88.7526 81.984 89.3039 81.4317 89.968 81.0477C90.6321 80.6636 91.3856 80.4612 92.1528 80.4609C92.92 80.4607 93.6737 80.6625 94.338 81.046L137.356 105.88C139.586 107.167 141.439 109.018 142.726 111.248C144.014 113.478 144.693 116.008 144.693 118.583Z" fill="#0AB39C"/>
<path opacity="0.5" d="M144.693 118.583V186.412C144.694 187.179 144.493 187.933 144.11 188.598C143.727 189.263 143.176 189.815 142.512 190.199C141.848 190.583 141.094 190.786 140.327 190.786C139.56 190.786 138.806 190.585 138.142 190.201L101.61 169.107L95.1351 165.373C92.9056 164.084 91.0536 162.232 89.7641 160.003C88.4746 157.774 87.7929 155.245 87.7871 152.67V84.8347C87.786 84.0675 87.987 83.3136 88.3698 82.6488C88.7526 81.984 89.3039 81.4317 89.968 81.0477C90.6321 80.6636 91.3856 80.4612 92.1528 80.4609C92.92 80.4607 93.6737 80.6625 94.338 81.046L137.356 105.88C139.586 107.167 141.439 109.018 142.726 111.248C144.014 113.478 144.693 116.008 144.693 118.583Z" fill="white"/>
<path d="M123.654 158.719C123.654 158.719 130.495 170.063 125.554 182.853L101.6 169.107L123.654 158.719Z" fill="#263238"/>
<path d="M134.559 107.754C135.077 103.55 132.088 99.7222 127.884 99.2045C123.68 98.6868 119.852 101.675 119.334 105.88C118.816 110.084 121.805 113.912 126.009 114.43C130.213 114.947 134.041 111.959 134.559 107.754Z" fill="#263238"/>
<path d="M126.984 85.2997C126.984 85.2997 129.337 81.4783 130.058 81.7567C130.778 82.0351 129.588 85.6763 129.588 85.6763C129.588 85.6763 133.148 86.4188 132.487 87.3141C131.827 88.2094 127.476 87.9965 127.476 87.9965L126.984 85.2997Z" fill="#263238"/>
<path d="M128.619 95.151C126.982 107.456 116.609 107.456 116.609 107.456L94.8821 97.8915C94.8821 97.8915 93.2444 96.4558 92.7422 93.1585C92.5495 91.8078 92.5495 90.4366 92.7422 89.086C92.7422 89.086 92.7422 89.0587 92.7422 89.0478C93.4355 83.8725 97.306 78.3097 105.735 76.601C107.582 76.228 109.462 76.0451 111.347 76.0551C112.258 76.0519 113.17 76.0974 114.076 76.1916C120.627 76.8357 125.218 79.8928 127.408 84.6477C127.9 85.7209 128.266 86.8475 128.499 88.0051C128.944 90.3631 128.984 92.7794 128.619 95.151Z" fill="#263238"/>
<path d="M76.4589 118.954C76.4589 118.954 68.7451 118.687 65.7754 126.204C65.7754 126.204 69.0509 128.415 73.3472 126.204C77.6435 123.993 76.4589 118.954 76.4589 118.954Z" fill="#0AB39C"/>
<path opacity="0.5" d="M76.4589 118.954C76.4589 118.954 68.7451 118.687 65.7754 126.204C65.7754 126.204 69.0509 128.415 73.3472 126.204C77.6435 123.993 76.4589 118.954 76.4589 118.954Z" fill="black"/>
<path d="M76.2407 122.575C76.2407 122.575 74.057 113.087 72.9052 112.972C71.7533 112.857 71.5295 115.865 71.6223 117.563L68.8927 111.689C68.8061 111.507 68.6831 111.344 68.5311 111.211C68.3792 111.077 68.2016 110.977 68.0093 110.915C67.8169 110.853 67.614 110.831 67.4129 110.851C67.2118 110.87 67.0169 110.931 66.8401 111.029C64.1105 112.53 59.3229 117.094 69.4168 128.378L76.2407 122.575Z" fill="#E7C6C6"/>
<path d="M104.191 116.005L102.553 115.792C100.903 115.573 99.2239 115.798 97.6888 116.443C96.1538 117.087 94.818 118.129 93.8188 119.461L84.0743 132.432L76.4315 118.948C76.4315 118.948 75.5144 128.119 65.748 126.197L76.235 143.847C76.8987 144.964 77.8224 145.904 78.9277 146.588C80.0329 147.272 81.2869 147.678 82.583 147.773C83.8791 147.868 85.179 147.648 86.372 147.133C87.565 146.618 88.6158 145.822 89.4351 144.813L98.4099 133.78L104.191 116.005Z" fill="#0AB39C"/>
<path d="M124.988 146.288C122.804 151.824 122.564 152.905 123.896 155.673C124.824 157.717 125.555 159.844 126.08 162.027C126.08 162.027 115.958 173.371 101.552 169.124L95.0772 165.39C93.7308 164.613 92.5179 163.625 91.4851 162.464L93.4559 147.768C93.5551 146.994 93.4767 146.208 93.2266 145.47L91.1576 139.404C90.148 136.442 89.9977 133.255 90.7242 130.21C91.4507 127.166 93.0243 124.39 95.2629 122.203L102.218 115.406L120.484 117.743L123.213 118.523C125 119.04 126.541 120.184 127.552 121.746C128.563 123.307 128.976 125.181 128.716 127.023C127.821 133.465 126.358 142.811 124.988 146.288Z" fill="#0AB39C"/>
<path opacity="0.5" d="M124.988 146.288C122.804 151.824 122.564 152.905 123.896 155.673C124.824 157.717 125.555 159.844 126.08 162.027C126.08 162.027 115.958 173.371 101.552 169.124L95.0772 165.39C93.7308 164.613 92.5179 163.625 91.4851 162.464L93.4559 147.768C93.5551 146.994 93.4767 146.208 93.2266 145.47L91.1576 139.404C90.148 136.442 89.9977 133.255 90.7242 130.21C91.4507 127.166 93.0243 124.39 95.2629 122.203L102.218 115.406L120.484 117.743L123.213 118.523C125 119.04 126.541 120.184 127.552 121.746C128.563 123.307 128.976 125.181 128.716 127.023C127.821 133.465 126.358 142.811 124.988 146.288Z" fill="black"/>
<path d="M113.972 129.747L110.314 126.63C109.927 126.299 109.46 126.074 108.959 125.978C108.458 125.883 107.941 125.919 107.459 126.084L103.037 127.607L102.442 125.129C102.349 124.743 102.179 124.38 101.942 124.062C101.705 123.744 101.407 123.477 101.064 123.278C100.721 123.079 100.341 122.951 99.9477 122.902C99.5541 122.853 99.1547 122.885 98.7736 122.994L96.8574 123.54L100.1 117.328C101.159 115.304 102.79 113.638 104.79 112.535L106.061 111.836L116.57 112.382C116.57 112.382 120.484 114.02 120.484 117.704L113.972 129.715" fill="#0AB39C"/>
<path d="M116.618 117.027L106.082 125.237V99.0938H116.618V117.027Z" fill="#E7C6C6"/>
<path d="M106.242 114.883L103.037 127.63L116.57 117.039L106.242 114.883Z" fill="#E7C6C6"/>
<path d="M106.08 112.976C108.423 112.106 110.564 110.769 112.374 109.046C114.185 107.323 115.626 105.25 116.61 102.953V99.0938H106.074L106.08 112.976Z" fill="#D79A9A"/>
<path d="M108.349 79.7344C104.353 79.7344 95.859 81.9617 94.8764 92.4213C93.8938 102.881 94.8436 110.982 100.237 111.768C105.631 112.555 118.165 108.64 119.846 95.1018C121.528 81.5632 112.242 79.7344 108.349 79.7344Z" fill="#E7C6C6"/>
<path d="M102.061 96.8516V103.015L98.4473 101.907L102.061 96.8516Z" fill="#D79A9A"/>
<path d="M106.078 99.1674C106.771 99.1674 107.333 98.6053 107.333 97.9118C107.333 97.2184 106.771 96.6562 106.078 96.6562C105.384 96.6562 104.822 97.2184 104.822 97.9118C104.822 98.6053 105.384 99.1674 106.078 99.1674Z" fill="#263238"/>
<path d="M99.0717 97.0345C99.0706 97.2826 98.9961 97.5248 98.8575 97.7306C98.7188 97.9363 98.5224 98.0964 98.2929 98.1906C98.0633 98.2848 97.811 98.3089 97.5678 98.2598C97.3246 98.2108 97.1014 98.0908 96.9264 97.9149C96.7513 97.7391 96.6323 97.5154 96.5843 97.272C96.5363 97.0286 96.5614 96.7764 96.6566 96.5473C96.7518 96.3182 96.9128 96.1224 97.1191 95.9847C97.3255 95.8469 97.568 95.7734 97.8161 95.7734C97.9815 95.7734 98.1452 95.8061 98.2979 95.8695C98.4506 95.933 98.5892 96.0259 98.7059 96.1431C98.8226 96.2603 98.9149 96.3994 98.9777 96.5523C99.0405 96.7053 99.0724 96.8691 99.0717 97.0345Z" fill="#263238"/>
<path d="M96.2867 94.4118L98.7433 92.9542C98.7433 92.9542 97.8043 91.977 96.8654 92.5612C95.9264 93.1453 96.2867 94.4118 96.2867 94.4118Z" fill="#263238"/>
<path d="M100.369 105.5C101.565 105.587 102.756 105.268 103.748 104.594C103.748 104.594 103.983 106.379 102.487 106.717C100.991 107.056 100.369 105.5 100.369 105.5Z" fill="#D79A9A"/>
<path d="M98.2207 83.2904C98.2207 83.2904 99.722 97.7298 119.358 98.1829C119.358 98.1829 125.292 83.8309 113.566 79.1688C101.84 74.5067 98.2207 83.2904 98.2207 83.2904Z" fill="#263238"/>
<path d="M125.138 96.0136L122.725 94.6161C121.807 94.0701 120.541 94.1466 119.138 94.9545C116.354 96.5595 114.094 100.474 114.094 103.689C114.094 105.3 114.64 106.419 115.579 106.965L117.948 108.329L118.084 108.406L118.166 108.455C119.062 108.892 120.257 108.788 121.573 108.029C124.357 106.391 126.617 102.51 126.617 99.2945C126.601 97.6677 126.038 96.5431 125.138 96.0136Z" fill="#0AB39C"/>
<path d="M125.118 104.239C127.087 100.829 127.087 97.1428 125.118 96.0061C123.149 94.8695 119.957 96.7124 117.989 100.122C116.02 103.532 116.02 107.218 117.989 108.355C119.957 109.492 123.149 107.649 125.118 104.239Z" fill="#0AB39C"/>
<path opacity="0.5" d="M125.118 104.239C127.087 100.829 127.087 97.1428 125.118 96.0061C123.149 94.8695 119.957 96.7124 117.989 100.122C116.02 103.532 116.02 107.218 117.989 108.355C119.957 109.492 123.149 107.649 125.118 104.239Z" fill="black"/>
<path d="M126.103 99.054L124.466 98.0986C123.843 97.7274 122.975 97.7765 122.015 98.3279C121.011 98.9838 120.176 99.8667 119.576 100.905C118.977 101.944 118.63 103.108 118.564 104.306C118.564 105.397 118.952 106.178 119.58 106.538L121.218 107.472C121.247 107.493 121.278 107.511 121.31 107.526L121.365 107.559C121.749 107.705 122.163 107.754 122.57 107.703C122.977 107.651 123.366 107.501 123.701 107.264C124.704 106.609 125.539 105.727 126.139 104.69C126.738 103.652 127.085 102.488 127.152 101.292C127.108 100.184 126.726 99.4143 126.103 99.054Z" fill="#0AB39C"/>
<path d="M127.109 101.27C127.042 102.467 126.695 103.63 126.096 104.668C125.497 105.705 124.662 106.587 123.659 107.243C121.748 108.335 120.203 107.45 120.203 105.25C120.268 104.053 120.615 102.888 121.215 101.85C121.816 100.812 122.653 99.9307 123.659 99.2779C125.564 98.1751 127.109 99.065 127.109 101.27Z" fill="#0AB39C"/>
<path opacity="0.3" d="M127.109 101.27C127.042 102.467 126.695 103.63 126.096 104.668C125.497 105.705 124.662 106.587 123.659 107.243C121.748 108.335 120.203 107.45 120.203 105.25C120.268 104.053 120.615 102.888 121.215 101.85C121.816 100.812 122.653 99.9307 123.659 99.2779C125.564 98.1751 127.109 99.065 127.109 101.27Z" fill="black"/>
<path d="M117.644 76.9116C116.079 75.7028 114.162 75.0377 112.185 75.0173H111.699C109.697 74.9958 107.698 75.1787 105.732 75.5632C106.093 75.5632 106.453 75.5632 106.824 75.5632H105.732V76.5786H106.748C110.247 76.6977 113.563 78.1727 115.995 80.6921C118.427 83.2114 119.784 86.5775 119.779 90.079V94.3753C119.779 94.5452 119.814 94.7131 119.883 94.8683C119.952 95.0236 120.053 95.1625 120.179 95.2763C120.305 95.39 120.454 95.476 120.615 95.5287C120.777 95.5813 120.947 95.5994 121.116 95.5818H121.242L122.334 95.2433C122.261 95.2662 122.186 95.2809 122.11 95.287C122.435 95.2428 122.733 95.0804 122.947 94.8307C123.16 94.5811 123.274 94.2615 123.267 93.9331V89.948C123.256 82.7365 120.139 78.8605 117.644 76.9116Z" fill="#0AB39C"/>
<path d="M110.77 111.46C110.319 111.46 109.874 111.363 109.465 111.176L106.053 109.598C106 109.579 105.951 109.549 105.909 109.51C105.868 109.471 105.836 109.424 105.814 109.372C105.791 109.32 105.781 109.263 105.781 109.207C105.782 109.15 105.795 109.094 105.818 109.043C105.842 108.991 105.876 108.945 105.918 108.907C105.96 108.869 106.01 108.841 106.064 108.823C106.118 108.806 106.174 108.799 106.231 108.805C106.287 108.811 106.342 108.828 106.391 108.856L109.803 110.433C110.238 110.636 110.726 110.697 111.198 110.609C111.669 110.521 112.102 110.288 112.435 109.942L115.71 106.557C115.787 106.481 115.891 106.438 115.999 106.438C116.108 106.438 116.212 106.481 116.289 106.557C116.364 106.635 116.406 106.739 116.406 106.847C116.406 106.955 116.364 107.058 116.289 107.136L113.013 110.521C112.722 110.82 112.373 111.057 111.987 111.219C111.602 111.38 111.187 111.462 110.77 111.46Z" fill="#0AB39C"/>
<path opacity="0.5" d="M110.77 111.46C110.319 111.46 109.874 111.363 109.465 111.176L106.053 109.598C106 109.579 105.951 109.549 105.909 109.51C105.868 109.471 105.836 109.424 105.814 109.372C105.791 109.32 105.781 109.263 105.781 109.207C105.782 109.15 105.795 109.094 105.818 109.043C105.842 108.991 105.876 108.945 105.918 108.907C105.96 108.869 106.01 108.841 106.064 108.823C106.118 108.806 106.174 108.799 106.231 108.805C106.287 108.811 106.342 108.828 106.391 108.856L109.803 110.433C110.238 110.636 110.726 110.697 111.198 110.609C111.669 110.521 112.102 110.288 112.435 109.942L115.71 106.557C115.787 106.481 115.891 106.438 115.999 106.438C116.108 106.438 116.212 106.481 116.289 106.557C116.364 106.635 116.406 106.739 116.406 106.847C116.406 106.955 116.364 107.058 116.289 107.136L113.013 110.521C112.722 110.82 112.373 111.057 111.987 111.219C111.602 111.38 111.187 111.462 110.77 111.46Z" fill="black"/>
<path d="M106.946 108.446C106.946 108.761 106.852 109.069 106.677 109.331C106.502 109.593 106.253 109.798 105.962 109.918C105.671 110.039 105.35 110.071 105.041 110.009C104.732 109.948 104.448 109.796 104.225 109.573C104.002 109.35 103.85 109.066 103.788 108.757C103.727 108.447 103.758 108.127 103.879 107.836C104 107.544 104.204 107.295 104.466 107.12C104.728 106.945 105.037 106.852 105.352 106.852C105.775 106.852 106.18 107.02 106.479 107.318C106.778 107.617 106.946 108.023 106.946 108.446Z" fill="#0AB39C"/>
<path opacity="0.5" d="M106.946 108.446C106.946 108.761 106.852 109.069 106.677 109.331C106.502 109.593 106.253 109.798 105.962 109.918C105.671 110.039 105.35 110.071 105.041 110.009C104.732 109.948 104.448 109.796 104.225 109.573C104.002 109.35 103.85 109.066 103.788 108.757C103.727 108.447 103.758 108.127 103.879 107.836C104 107.544 104.204 107.295 104.466 107.12C104.728 106.945 105.037 106.852 105.352 106.852C105.775 106.852 106.18 107.02 106.479 107.318C106.778 107.617 106.946 108.023 106.946 108.446Z" fill="black"/>
<path d="M123.259 89.9496V93.9347C123.266 94.2632 123.151 94.5827 122.938 94.8323C122.725 95.082 122.427 95.2444 122.101 95.2886C121.921 95.3078 121.74 95.2888 121.567 95.2331C121.395 95.1773 121.237 95.086 121.103 94.965C120.968 94.8439 120.861 94.696 120.787 94.5307C120.714 94.3655 120.676 94.1866 120.676 94.0057V89.9496C120.679 88.0138 120.291 86.0973 119.534 84.3156C118.777 82.5338 117.668 80.9236 116.272 79.5818C114.877 78.24 113.225 77.1944 111.415 76.5078C109.605 75.8212 107.674 75.5079 105.74 75.5867C107.705 75.2021 109.705 75.0192 111.707 75.0408H112.182C114.159 75.0612 116.076 75.7263 117.641 76.9351C120.141 78.8621 123.259 82.7381 123.259 89.9496Z" fill="#0AB39C"/>
<path opacity="0.5" d="M123.259 89.9496V93.9347C123.266 94.2632 123.151 94.5827 122.938 94.8323C122.725 95.082 122.427 95.2444 122.101 95.2886C121.921 95.3078 121.74 95.2888 121.567 95.2331C121.395 95.1773 121.237 95.086 121.103 94.965C120.968 94.8439 120.861 94.696 120.787 94.5307C120.714 94.3655 120.676 94.1866 120.676 94.0057V89.9496C120.679 88.0138 120.291 86.0973 119.534 84.3156C118.777 82.5338 117.668 80.9236 116.272 79.5818C114.877 78.24 113.225 77.1944 111.415 76.5078C109.605 75.8212 107.674 75.5079 105.74 75.5867C107.705 75.2021 109.705 75.0192 111.707 75.0408H112.182C114.159 75.0612 116.076 75.7263 117.641 76.9351C120.141 78.8621 123.259 82.7381 123.259 89.9496Z" fill="black"/>
<path d="M117.119 165.053C117.119 165.053 114.477 172.33 123.921 175.605C123.921 175.605 127.006 171.074 123.921 167.368C120.837 163.661 117.119 165.053 117.119 165.053Z" fill="#0AB39C"/>
<path opacity="0.7" d="M117.119 165.053C117.119 165.053 114.477 172.33 123.921 175.605C123.921 175.605 127.006 171.074 123.921 167.368C120.837 163.661 117.119 165.053 117.119 165.053Z" fill="black"/>
<path d="M120.435 165.383C120.435 165.383 111.209 168.762 111.258 170.072C111.308 171.382 115.178 170.487 115.178 170.487L113.764 171.415C112.275 172.387 111.122 173.793 110.461 175.444C110.317 175.808 110.312 176.212 110.447 176.58C110.582 176.947 110.848 177.252 111.193 177.437L114.698 179.293C114.896 179.398 115.113 179.462 115.336 179.482C115.559 179.501 115.784 179.476 115.997 179.407C116.21 179.339 116.408 179.228 116.577 179.082C116.747 178.935 116.886 178.756 116.985 178.556C117.18 178.17 117.45 177.826 117.779 177.545C118.108 177.264 118.489 177.051 118.901 176.918C120.806 176.285 124.36 174.461 125.785 169.472L120.435 165.383Z" fill="#E7C6C6"/>
<path d="M123.203 118.508C123.203 118.508 118.289 121.237 120.899 129.524C123.508 137.811 128.405 150.667 128.405 150.667L117.121 165.052C118.327 165.198 119.488 165.596 120.529 166.22C121.571 166.845 122.468 167.682 123.164 168.677C123.831 169.689 124.247 170.845 124.379 172.049C124.511 173.254 124.355 174.472 123.923 175.605L137.931 157.59C139.227 155.925 140.087 153.963 140.434 151.883C140.781 149.802 140.604 147.667 139.918 145.672L133.913 128.138C133.179 125.996 131.959 124.053 130.349 122.461C128.739 120.869 126.783 119.671 124.633 118.961L123.203 118.508Z" fill="#0AB39C"/>
<path d="M40.2756 69.5614L18.5648 57.0054C18.3149 56.8323 18.0259 56.7241 17.7237 56.6907C17.4215 56.6574 17.1158 56.6999 16.8342 56.8144C16.7749 56.8418 16.7182 56.8747 16.665 56.9126L11.9429 59.6804H11.9756C11.3806 60.0188 11.0039 60.805 11.0039 61.9295V86.0806C11.0039 88.1223 12.2431 90.4971 13.7771 91.3814L35.488 103.937C35.7635 104.137 36.0914 104.251 36.4311 104.265C36.7707 104.28 37.1072 104.194 37.3987 104.019C37.3839 104.025 37.3708 104.035 37.3605 104.047L42.0499 101.317C42.6613 100.989 43.0489 100.192 43.0489 99.0515V74.8622C43.0489 72.8205 41.8315 70.4458 40.2756 69.5614Z" fill="#0AB39C"/>
<path d="M42.2722 71.8487C41.833 70.9146 41.1408 70.1222 40.2742 69.5614L18.5633 57.0054C18.3135 56.8323 18.0244 56.7241 17.7222 56.6907C17.4201 56.6574 17.1144 56.6999 16.8328 56.8143C16.7734 56.8418 16.7168 56.8747 16.6635 56.9126L11.9414 59.6804C12.2303 59.5327 12.5542 59.4674 12.8777 59.4914C13.2012 59.5155 13.5118 59.6281 13.7757 59.8169L35.4865 72.3728C36.3827 72.9587 37.0929 73.7882 37.5337 74.7639L42.2722 71.8487Z" fill="#0AB39C"/>
<path d="M38.2621 101.801C38.2621 102.893 37.9127 103.652 37.3613 103.985L42.0507 101.255C42.6621 100.928 43.0497 100.13 43.0497 98.9895V74.8494C43.0266 73.7986 42.7614 72.7674 42.2745 71.8359L37.536 74.7511C37.991 75.6551 38.239 76.649 38.2621 77.6608V101.801Z" fill="#0AB39C"/>
<path opacity="0.3" d="M42.2722 71.8487C41.833 70.9146 41.1408 70.1222 40.2742 69.5614L18.5633 57.0054C18.3135 56.8323 18.0244 56.7241 17.7222 56.6907C17.4201 56.6574 17.1144 56.6999 16.8328 56.8143C16.7734 56.8418 16.7168 56.8747 16.6635 56.9126L11.9414 59.6804C12.2303 59.5327 12.5542 59.4674 12.8777 59.4914C13.2012 59.5155 13.5118 59.6281 13.7757 59.8169L35.4865 72.3728C36.3827 72.9587 37.0929 73.7882 37.5337 74.7639L42.2722 71.8487Z" fill="black"/>
<path opacity="0.6" d="M38.2621 101.801C38.2621 102.893 37.9127 103.652 37.3613 103.985L42.0507 101.255C42.6621 100.928 43.0497 100.13 43.0497 98.9895V74.8494C43.0266 73.7986 42.7614 72.7674 42.2745 71.8359L37.536 74.7511C37.991 75.6551 38.239 76.649 38.2621 77.6608V101.801Z" fill="black"/>
<path d="M31.8944 84.5828C31.8944 87.7109 30.6552 88.7754 28.7991 87.7C28.287 87.4084 27.8393 87.0163 27.4828 86.5472C27.1263 86.0782 26.8684 85.5418 26.7246 84.9704C26.1787 85.6419 25.3325 85.6855 24.1424 84.9977C22.1881 83.8677 20.6486 81.1763 20.6486 78.5614C20.6486 75.9465 22.1717 75.0457 24.1424 76.1812C25.1425 76.7706 25.9502 77.6372 26.468 78.676V77.6443L28.5261 78.8344V84.49C28.4955 84.7876 28.5469 85.088 28.6749 85.3584C28.8029 85.6288 29.0026 85.859 29.2522 86.024C29.9455 86.428 30.3713 85.7456 30.3713 83.7203C30.3713 80.1773 28.1003 76.4214 24.7429 74.4835C21.3856 72.5455 19.1201 73.8939 19.1201 77.5406C19.164 79.4756 19.6972 81.368 20.6699 83.0413C21.6427 84.7147 23.0232 86.1145 24.6829 87.1104C25.5841 87.6655 26.6074 87.9916 27.6636 88.0603L28.1494 89.9436C26.9196 89.8444 25.7312 89.4533 24.6829 88.8027C20.3156 86.2751 17.4277 81.1872 17.4277 76.5798C17.4277 71.9723 20.3429 70.3018 24.7429 72.8457C28.9956 75.2969 31.8944 80.2046 31.8944 84.5828ZM26.5008 81.957C26.5114 81.2647 26.3425 80.5816 26.0105 79.974C25.6785 79.3665 25.1948 78.8554 24.6065 78.4904C23.5146 77.8517 22.734 78.2994 22.734 79.7842C22.7199 80.4776 22.8849 81.1629 23.2129 81.7739C23.5409 82.385 24.0208 82.9011 24.6065 83.2726C25.6983 83.8895 26.5008 83.491 26.5008 81.957Z" fill="#0AB39C"/>
<g opacity="0.9">
<path d="M31.8944 84.5906C31.8944 87.7187 30.6552 88.7832 28.7991 87.7078C28.287 87.4163 27.8393 87.0241 27.4828 86.5551C27.1263 86.086 26.8684 85.5496 26.7246 84.9782C26.1787 85.6497 25.3325 85.6934 24.1424 85.0055C22.1881 83.8755 20.6486 81.1841 20.6486 78.5692C20.6486 75.9543 22.1717 75.0536 24.1424 76.1891C25.1425 76.7784 25.9502 77.645 26.468 78.6839V77.6521L28.5261 78.8422V84.4978C28.4955 84.7954 28.5469 85.0958 28.6749 85.3662C28.8029 85.6366 29.0026 85.8668 29.2522 86.0318C29.9455 86.4358 30.3713 85.7534 30.3713 83.7281C30.3713 80.1851 28.1003 76.4293 24.7429 74.4913C21.3856 72.5533 19.1201 73.9017 19.1201 77.5484C19.164 79.4834 19.6972 81.3758 20.6699 83.0491C21.6427 84.7225 23.0232 86.1223 24.6829 87.1182C25.5841 87.6733 26.6074 87.9994 27.6636 88.0681L28.1494 89.9515C26.9196 89.8522 25.7312 89.4611 24.6829 88.8105C20.3156 86.2829 17.4277 81.195 17.4277 76.5876C17.4277 71.9801 20.3429 70.3096 24.7429 72.8535C28.9956 75.3047 31.8944 80.2124 31.8944 84.5906ZM26.5008 81.9648C26.5114 81.2726 26.3425 80.5894 26.0105 79.9819C25.6785 79.3743 25.1948 78.8632 24.6065 78.4983C23.5146 77.8595 22.734 78.3072 22.734 79.7921C22.7199 80.4854 22.8849 81.1707 23.2129 81.7817C23.5409 82.3928 24.0208 82.9089 24.6065 83.2804C25.6983 83.8973 26.5008 83.4988 26.5008 81.9648Z" fill="white"/>
</g>
<path d="M40.2756 112.561L18.5648 100.005C18.3153 99.8308 18.0258 99.7224 17.7233 99.69C17.4208 99.6575 17.115 99.702 16.8342 99.8193C16.7749 99.8467 16.7182 99.8796 16.665 99.9175L11.9429 102.685H11.9756C11.3806 103.024 11.0039 103.81 11.0039 104.929V129.069C11.0039 131.116 12.2431 133.486 13.7771 134.37L35.488 146.926C35.7629 147.127 36.091 147.241 36.431 147.256C36.7709 147.27 37.1076 147.184 37.3987 147.008L37.3605 147.041L42.0499 144.284C42.6613 143.962 43.0489 143.192 43.0489 142.018V117.856C43.0489 115.814 41.8315 113.445 40.2756 112.561Z" fill="#0AB39C"/>
<path d="M42.2722 114.848C41.8345 113.913 41.142 113.12 40.2742 112.561L18.5633 100.005C18.3138 99.8308 18.0244 99.7224 17.7219 99.69C17.4193 99.6575 17.1135 99.702 16.8328 99.8193C16.7734 99.8467 16.7168 99.8796 16.6635 99.9175L11.9414 102.685C12.2296 102.536 12.5533 102.47 12.877 102.493C13.2006 102.516 13.5116 102.628 13.7757 102.816L35.4865 115.372C36.3841 115.959 37.0945 116.791 37.5337 117.769L42.2722 114.848Z" fill="#0AB39C"/>
<path d="M38.2621 144.811C38.2621 145.903 37.9127 146.662 37.3613 147.022L42.0507 144.265C42.6621 143.943 43.0497 143.173 43.0497 142V117.86C43.0266 116.811 42.7613 115.781 42.2745 114.852L37.536 117.767C37.9909 118.669 38.2389 119.661 38.2621 120.671V144.811Z" fill="#0AB39C"/>
<path opacity="0.3" d="M42.2722 114.848C41.8345 113.913 41.142 113.12 40.2742 112.561L18.5633 100.005C18.3138 99.8308 18.0244 99.7224 17.7219 99.69C17.4193 99.6575 17.1135 99.702 16.8328 99.8193C16.7734 99.8467 16.7168 99.8796 16.6635 99.9175L11.9414 102.685C12.2296 102.536 12.5533 102.47 12.877 102.493C13.2006 102.516 13.5116 102.628 13.7757 102.816L35.4865 115.372C36.3841 115.959 37.0945 116.791 37.5337 117.769L42.2722 114.848Z" fill="black"/>
<path opacity="0.6" d="M38.2621 144.811C38.2621 145.903 37.9127 146.662 37.3613 147.022L42.0507 144.265C42.6621 143.943 43.0497 143.173 43.0497 142V117.86C43.0266 116.811 42.7613 115.781 42.2745 114.852L37.536 117.767C37.9909 118.669 38.2389 119.661 38.2621 120.671V144.811Z" fill="black"/>
<path d="M22.206 123.357L16.9707 114.852V126.376L22.206 123.357Z" fill="#0AB39C"/>
<path d="M27.0684 125.79L32.2927 134.836V123.328L27.0684 125.79Z" fill="#0AB39C"/>
<path d="M17.7637 114.461L23.1409 123.196C23.1637 123.215 23.1838 123.237 23.2009 123.261C23.2057 123.283 23.2057 123.305 23.2009 123.327L24.8005 125.925L26.1543 125.286C26.1754 125.263 26.1992 125.243 26.2253 125.226C26.2787 125.195 26.3384 125.176 26.4 125.172L31.8591 122.611L17.7637 114.461Z" fill="#0AB39C"/>
<path d="M26.2812 126.181L24.8182 126.869C24.7618 126.896 24.7002 126.909 24.638 126.908C24.5627 126.908 24.4884 126.89 24.4224 126.853C24.3564 126.817 24.3009 126.764 24.2613 126.7L22.6618 124.102L17.4102 127.137L31.5438 135.293L26.2812 126.181Z" fill="#0AB39C"/>
<g opacity="0.9">
<path d="M22.2001 123.357L16.9648 114.852V126.376L22.2001 123.357Z" fill="white"/>
<path d="M27.0664 125.821L32.2908 134.867V123.359L27.0664 125.821Z" fill="white"/>
<path d="M17.7559 114.469L23.1331 123.203C23.1558 123.222 23.176 123.244 23.1931 123.269C23.1979 123.29 23.1979 123.313 23.1931 123.334L24.7927 125.933L26.1465 125.294C26.1676 125.271 26.1914 125.251 26.2175 125.234C26.2708 125.203 26.3306 125.184 26.3922 125.18L31.8513 122.619L17.7559 114.469Z" fill="white"/>
<path d="M26.2753 126.181L24.8123 126.869C24.7559 126.896 24.6943 126.909 24.6322 126.908C24.5568 126.908 24.4825 126.89 24.4165 126.853C24.3505 126.817 24.295 126.764 24.2555 126.7L22.656 124.102L17.4043 127.137L31.5379 135.293L26.2753 126.181Z" fill="white"/>
</g>
<path d="M40.2756 26.5686L18.5648 14.0127C18.3153 13.8386 18.0258 13.7303 17.7233 13.6978C17.4208 13.6654 17.115 13.7098 16.8342 13.8271C16.7749 13.8545 16.7182 13.8874 16.665 13.9253L11.9429 16.6931H11.9756C11.3806 17.0261 11.0039 17.8177 11.0039 18.9368V43.077C11.0039 45.1187 12.2431 47.4934 13.7771 48.3778L35.488 60.9337C35.7629 61.1343 36.091 61.2491 36.431 61.2637C36.7709 61.2783 37.1076 61.192 37.3987 61.0156L37.3605 61.0429L42.0499 58.3134C42.6613 57.9913 43.0489 57.2215 43.0489 56.0478V31.8476C43.0489 29.8059 41.8315 27.4312 40.2756 26.5686Z" fill="#0AB39C"/>
<path d="M42.2722 28.8396C41.8346 27.903 41.1422 27.1084 40.2742 26.5468L18.5633 14.0127C18.3138 13.8386 18.0244 13.7303 17.7219 13.6978C17.4193 13.6654 17.1135 13.7098 16.8328 13.8271C16.7734 13.8545 16.7168 13.8874 16.6635 13.9253L11.9414 16.6931C12.2296 16.5441 12.5533 16.4775 12.877 16.5006C13.2006 16.5237 13.5116 16.6357 13.7757 16.8241L35.4865 29.3801C36.3841 29.9667 37.0945 30.7985 37.5337 31.7766L42.2722 28.8396Z" fill="#0AB39C"/>
<path d="M38.2621 58.7737C38.2621 59.8655 37.9127 60.6243 37.3613 60.9573L42.0507 58.2278C42.6621 57.9057 43.0497 57.136 43.0497 55.9623V31.8439C43.0266 30.7949 42.7613 29.7655 42.2745 28.8359L37.536 31.7511C37.9909 32.6532 38.2389 33.6453 38.2621 34.6553V58.7737Z" fill="#0AB39C"/>
<path opacity="0.3" d="M42.2722 28.8396C41.8346 27.903 41.1422 27.1084 40.2742 26.5468L18.5633 14.0127C18.3138 13.8386 18.0244 13.7303 17.7219 13.6978C17.4193 13.6654 17.1135 13.7098 16.8328 13.8271C16.7734 13.8545 16.7168 13.8874 16.6635 13.9253L11.9414 16.6931C12.2296 16.5441 12.5533 16.4775 12.877 16.5006C13.2006 16.5237 13.5116 16.6357 13.7757 16.8241L35.4865 29.3801C36.3841 29.9667 37.0945 30.7985 37.5337 31.7766L42.2722 28.8396Z" fill="black"/>
<path opacity="0.6" d="M38.2621 58.7737C38.2621 59.8655 37.9127 60.6243 37.3613 60.9573L42.0507 58.2278C42.6621 57.9057 43.0497 57.136 43.0497 55.9623V31.8439C43.0266 30.7949 42.7613 29.7655 42.2745 28.8359L37.536 31.7511C37.9909 32.6532 38.2389 33.6453 38.2621 34.6553V58.7737Z" fill="black"/>
<path d="M31.1624 48.418C30.3272 47.0423 29.4865 45.6884 28.6512 44.3018C28.5188 44.0392 28.3336 43.8067 28.1072 43.6188C27.8808 43.431 27.6182 43.2918 27.3356 43.21C26.9316 43.1281 26.5277 43.0353 26.1128 42.9152C25.965 42.8536 25.8407 42.7465 25.7579 42.6095C24.3912 40.2703 23.3046 37.7784 22.5207 35.1851C22.504 35.1297 22.4993 35.0713 22.5068 35.0139C22.5143 34.9565 22.5339 34.9014 22.5643 34.8521C22.8209 34.5955 23.1103 34.3608 23.3723 34.1315C23.6343 33.9022 23.7708 33.3727 23.5797 32.6848C23.1758 31.2273 22.7882 29.7697 22.3842 28.3176C22.306 27.905 22.1206 27.5202 21.8465 27.2021C21.5724 26.8839 21.2194 26.6435 20.8229 26.5051C19.9425 26.2604 19.0079 26.2947 18.1479 26.6034C17.8149 26.729 17.6402 27.0292 17.6348 27.5478C17.7767 28.5468 17.8695 29.5349 18.0606 30.5503C19.4072 37.8728 22.6462 44.6057 27.7778 50.749C27.9118 50.9528 28.0917 51.1221 28.3032 51.2435C28.5147 51.3649 28.7517 51.4349 28.9952 51.4478C29.8447 51.4276 30.6609 51.1131 31.3044 50.558C31.7902 50.1212 31.7411 49.346 31.1624 48.418Z" fill="#0AB39C"/>
<path d="M31.0949 40.9608C30.9807 39.3906 30.5479 37.86 29.8229 36.4625C29.2816 35.3708 28.5928 34.3586 27.7758 33.4545C27.5628 33.2143 27.3827 33.1379 27.2735 33.3181C27.1643 33.4982 27.2735 33.7548 27.481 33.9895L27.6939 34.2352C29.2028 35.9769 30.1537 38.1318 30.4234 40.4204C30.4208 40.5873 30.4372 40.754 30.4726 40.9172C30.5411 41.1049 30.6512 41.2747 30.7946 41.4139C30.9093 41.4958 31.0403 41.4139 31.1331 41.4139C31.1003 41.1901 31.1058 41.0755 31.0949 40.9608Z" fill="#0AB39C"/>
<path d="M26.1489 36.4832C26.8344 37.2372 27.251 38.197 27.3335 39.2128C27.3695 39.3672 27.4264 39.516 27.5027 39.6549C27.8357 39.9279 27.9995 39.8351 27.9995 39.4912C27.8828 38.1888 27.3442 36.9602 26.4655 35.9919C26.2581 35.779 26.0888 35.7135 25.9906 35.8936C25.9552 35.9965 25.9514 36.1076 25.9796 36.2126C26.0078 36.3177 26.0668 36.4119 26.1489 36.4832Z" fill="#0AB39C"/>
<g opacity="0.9">
<path d="M31.1566 48.3867C30.3213 47.0111 29.4806 45.6572 28.6454 44.2706C28.5129 44.0079 28.3277 43.7754 28.1013 43.5876C27.875 43.3997 27.6123 43.2605 27.3297 43.1788C26.9258 43.0969 26.5218 43.0041 26.1069 42.884C25.9591 42.8224 25.8349 42.7153 25.7521 42.5783C24.3853 40.2391 23.2988 37.7471 22.5148 35.1539C22.4981 35.0984 22.4934 35.0401 22.5009 34.9827C22.5085 34.9253 22.5281 34.8701 22.5585 34.8209C22.8151 34.5643 23.1044 34.3295 23.3664 34.1003C23.6285 33.871 23.7649 33.3414 23.5739 32.6536C23.1699 31.196 22.7823 29.7384 22.3783 28.2863C22.3002 27.8737 22.1147 27.489 21.8406 27.1708C21.5665 26.8526 21.2135 26.6123 20.817 26.4739C19.9367 26.2291 19.0021 26.2635 18.1421 26.5721C17.8091 26.6977 17.6344 26.998 17.6289 27.5166C17.7708 28.5156 17.8636 29.5037 18.0547 30.5191C19.4013 37.8416 22.6404 44.5745 27.7719 50.7178C27.9059 50.9215 28.0859 51.0909 28.2973 51.2123C28.5088 51.3336 28.7458 51.4036 28.9893 51.4166C29.8389 51.3964 30.6551 51.0818 31.2985 50.5267C31.7844 50.09 31.7352 49.3148 31.1566 48.3867Z" fill="white"/>
<path d="M31.091 40.9452C30.9768 39.375 30.544 37.8444 29.819 36.4469C29.2777 35.3551 28.5889 34.343 27.7718 33.4389C27.5589 33.1987 27.3788 33.1223 27.2696 33.3024C27.1604 33.4826 27.2696 33.7392 27.4771 33.9739L27.69 34.2196C29.1989 35.9613 30.1498 38.1161 30.4195 40.4047C30.4168 40.5717 30.4333 40.7384 30.4686 40.9015C30.5372 41.0893 30.6473 41.2591 30.7907 41.3983C30.9054 41.4802 31.0364 41.3983 31.1292 41.3983C31.0964 41.1745 31.1019 41.0598 31.091 40.9452Z" fill="white"/>
<path d="M26.145 36.452C26.8305 37.206 27.2471 38.1658 27.3296 39.1815C27.3656 39.3359 27.4225 39.4847 27.4988 39.6237C27.8318 39.8966 27.9956 39.8038 27.9956 39.4599C27.8789 38.1576 27.3403 36.9289 26.4616 35.9606C26.2542 35.7477 26.0849 35.6822 25.9867 35.8624C25.9513 35.9652 25.9475 36.0763 25.9757 36.1814C26.0039 36.2864 26.0629 36.3806 26.145 36.452Z" fill="white"/>
</g>
<path d="M151.658 12.087L156.774 14.9967V13.1843C156.774 13.0587 156.774 12.9277 156.774 12.8022C156.774 12.6766 156.774 12.5565 156.774 12.4364V12.3709C156.959 9.97433 158.777 9.05174 160.993 10.3346C161.997 10.9518 162.857 11.7764 163.516 12.753C164.012 9.47755 166.671 8.32022 169.886 10.1709C173.457 12.2344 176.35 17.2677 176.35 21.373V25.2489C176.345 25.559 176.421 25.8649 176.572 26.1361C176.722 26.4072 176.941 26.6341 177.207 26.7938L180.22 28.5571C180.871 28.9427 181.41 29.4906 181.785 30.147C182.16 30.8034 182.358 31.546 182.36 32.3021C182.36 32.6158 182.278 32.9239 182.121 33.1955C181.964 33.4671 181.738 33.6926 181.467 33.8492C181.195 34.0059 180.887 34.0881 180.573 34.0878C180.259 34.0874 179.951 34.0043 179.68 33.847L151.735 17.6935C150.993 17.263 150.378 16.6459 149.949 15.9037C149.52 15.1615 149.292 14.32 149.289 13.4627C149.289 13.1852 149.361 12.9125 149.5 12.672C149.638 12.4314 149.837 12.2314 150.077 12.0921C150.317 11.9528 150.59 11.8789 150.867 11.8781C151.145 11.8772 151.417 11.9492 151.658 12.087Z" fill="#E6E6E6"/>
<path d="M190.651 11.3333L194.369 13.4678V12.1358C194.369 12.043 194.369 11.9502 194.369 11.8574C194.369 11.7646 194.369 11.6773 194.369 11.5899V11.5572C194.505 9.8157 195.826 9.14423 197.437 10.0777C198.166 10.5246 198.792 11.122 199.271 11.8301C199.637 9.46086 201.569 8.60378 203.906 9.95218C206.505 11.4534 208.606 15.1001 208.606 18.0972V20.9195C208.608 21.1408 208.668 21.3577 208.779 21.5491C208.89 21.7405 209.048 21.8998 209.24 22.0114L211.423 23.2942C211.898 23.5737 212.292 23.9727 212.565 24.4516C212.838 24.9305 212.981 25.4726 212.979 26.0238C212.979 26.2496 212.919 26.4714 212.807 26.6673C212.695 26.8632 212.534 27.0265 212.339 27.1412C212.145 27.2558 211.924 27.3177 211.698 27.3209C211.472 27.3241 211.25 27.2684 211.052 27.1593L190.706 15.4113C190.167 15.0994 189.719 14.6513 189.408 14.1119C189.096 13.5724 188.932 12.9607 188.932 12.3378C188.931 12.1362 188.984 11.9381 189.084 11.7631C189.184 11.5882 189.328 11.4426 189.503 11.3409C189.677 11.2393 189.874 11.1851 190.076 11.1837C190.277 11.1824 190.476 11.234 190.651 11.3333Z" fill="#E6E6E6"/>
</svg>
