<svg width="19" height="18" viewBox="0 0 19 18" fill="none" xmlns="http://www.w3.org/2000/svg">
<path d="M9.5 11.625C11.3122 11.625 12.7812 10.1559 12.7812 8.34375C12.7812 6.53157 11.3122 5.0625 9.5 5.0625C7.68782 5.0625 6.21875 6.53157 6.21875 8.34375C6.21875 10.1559 7.68782 11.625 9.5 11.625Z" stroke="
currentColor" stroke-width="1.4" stroke-miterlimit="10"/>
<path d="M4.23242 14.8549C4.72675 13.883 5.48038 13.0669 6.40988 12.4968C7.33939 11.9267 8.40851 11.625 9.49889 11.625C10.5893 11.625 11.6584 11.9267 12.5879 12.4968C13.5174 13.0668 14.271 13.883 14.7654 14.8549" stroke="
currentColor" stroke-width="1.4" stroke-linecap="round" stroke-linejoin="round"/>
<path d="M15.4062 4.40625C16.1311 4.40625 16.7188 3.81862 16.7188 3.09375C16.7188 2.36888 16.1311 1.78125 15.4062 1.78125C14.6814 1.78125 14.0938 2.36888 14.0938 3.09375C14.0938 3.81862 14.6814 4.40625 15.4062 4.40625Z" stroke="
currentColor" stroke-width="1.4" stroke-linecap="round" stroke-linejoin="round"/>
<path d="M15.4062 1.78125V0.796875" stroke="
currentColor" stroke-width="1.4" stroke-linecap="round" stroke-linejoin="round"/>
<path d="M14.2705 2.4375L13.418 1.94531" stroke="
currentColor" stroke-width="1.4" stroke-linecap="round" stroke-linejoin="round"/>
<path d="M14.2705 3.75L13.418 4.24219" stroke="
currentColor" stroke-width="1.4" stroke-linecap="round" stroke-linejoin="round"/>
<path d="M15.4062 4.40625V5.39062" stroke="
currentColor" stroke-width="1.4" stroke-linecap="round" stroke-linejoin="round"/>
<path d="M16.541 3.75L17.3935 4.24219" stroke="
currentColor" stroke-width="1.4" stroke-linecap="round" stroke-linejoin="round"/>
<path d="M16.541 2.4375L17.3935 1.94531" stroke="
currentColor" stroke-width="1.4" stroke-linecap="round" stroke-linejoin="round"/>
<path d="M17.3191 8.05665C17.3564 8.36971 17.3751 8.68472 17.375 9C17.375 10.5575 16.9131 12.0801 16.0478 13.3751C15.1825 14.6702 13.9526 15.6795 12.5136 16.2756C11.0747 16.8716 9.49127 17.0275 7.96367 16.7237C6.43607 16.4198 5.03288 15.6698 3.93154 14.5685C2.8302 13.4671 2.08018 12.0639 1.77632 10.5363C1.47246 9.00874 1.62841 7.42534 2.22445 5.98637C2.82049 4.5474 3.82985 3.31749 5.12489 2.45218C6.41993 1.58686 7.94248 1.125 9.5 1.125C9.7464 1.125 9.98999 1.13615 10.2308 1.15846" stroke="
currentColor" stroke-width="1.4" stroke-linecap="round" stroke-linejoin="round"/>
</svg>
