<svg width="21" height="25" viewBox="0 0 22 23" fill="none" xmlns="http://www.w3.org/2000/svg">
<path d="M4.82951 9.43745C4.82837 8.62208 4.98862 7.81455 5.30103 7.0614C5.61344 6.30826 6.07182 5.6244 6.64976 5.04923C7.2277 4.47407 7.91376 4.01898 8.6684 3.7102C9.42304 3.40142 10.2313 3.24506 11.0467 3.25012C14.4489 3.27541 17.1703 6.10336 17.1703 9.51512V10.1249C17.1703 13.2029 17.8142 14.9889 18.3814 15.9651C18.4425 16.0694 18.475 16.188 18.4757 16.3089C18.4763 16.4297 18.4451 16.5487 18.3851 16.6536C18.3251 16.7586 18.2385 16.8458 18.134 16.9066C18.0296 16.9675 17.9109 16.9996 17.79 16.9999H4.20909C4.08819 16.9996 3.96952 16.9674 3.86503 16.9066C3.76055 16.8458 3.67395 16.7585 3.61398 16.6535C3.55401 16.5486 3.52278 16.4296 3.52345 16.3087C3.52412 16.1878 3.55666 16.0693 3.61778 15.965C4.18525 14.9887 4.8295 13.2027 4.8295 10.1249L4.82951 9.43745Z" stroke="currentColor" stroke-width="1.4" stroke-linecap="round" stroke-linejoin="round"/>
<path d="M8.25 17V17.6875C8.25 18.4168 8.53973 19.1163 9.05546 19.632C9.57118 20.1478 10.2707 20.4375 11 20.4375C11.7293 20.4375 12.4288 20.1478 12.9445 19.632C13.4603 19.1163 13.75 18.4168 13.75 17.6875V17" stroke="currentColor" stroke-width="1.4" stroke-linecap="round" stroke-linejoin="round"/>
</svg>
