<svg width="36" height="36" viewBox="0 0 36 36" fill="none" xmlns="http://www.w3.org/2000/svg">
<rect width="36" height="36" rx="18" fill="#FFF6F6"/>
<path d="M11.125 10.4375L24.875 25.5625" stroke="#E11D48" stroke-width="1.6" stroke-linecap="round" stroke-linejoin="round"/>
<path d="M16.2031 11.9387C16.797 11.8545 17.3961 11.8124 17.996 11.8125C21.3074 11.8053 24.4872 13.1083 26.8414 15.4371" stroke="#E11D48" stroke-width="1.6" stroke-linecap="round" stroke-linejoin="round"/>
<path d="M9.15625 15.437C10.3236 14.2821 11.7065 13.3679 13.2264 12.7461" stroke="#E11D48" stroke-width="1.6" stroke-linecap="round" stroke-linejoin="round"/>
<path d="M20.0703 16.1914C21.5259 16.5553 22.8578 17.3019 23.9277 18.3538" stroke="#E11D48" stroke-width="1.6" stroke-linecap="round" stroke-linejoin="round"/>
<path d="M12.0703 18.3538C13.2289 17.2147 14.6925 16.4356 16.2844 16.1104" stroke="#E11D48" stroke-width="1.6" stroke-linecap="round" stroke-linejoin="round"/>
<path d="M14.9844 21.2707C15.7594 20.5309 16.7793 20.1018 17.8501 20.0651C18.9209 20.0284 19.9678 20.3866 20.7917 21.0716" stroke="#E11D48" stroke-width="1.6" stroke-linecap="round" stroke-linejoin="round"/>
<path d="M18 25.2188C18.5695 25.2188 19.0312 24.757 19.0312 24.1875C19.0312 23.618 18.5695 23.1562 18 23.1562C17.4305 23.1562 16.9688 23.618 16.9688 24.1875C16.9688 24.757 17.4305 25.2188 18 25.2188Z" fill="#E11D48"/>
</svg>
