<svg width="36" height="36" viewBox="0 0 36 36" fill="none" xmlns="http://www.w3.org/2000/svg">
<rect width="36" height="36" rx="18" fill="#EA2F50" fill-opacity="0.05"/>
<path d="M20.2227 8.96834C20.3253 8.86212 20.3821 8.71985 20.3808 8.57217C20.3795 8.4245 20.3203 8.28323 20.2158 8.17881C20.1114 8.07438 19.9701 8.01515 19.8225 8.01386C19.6748 8.01258 19.5325 8.06935 19.4263 8.17195L18.1348 9.46342L16.8433 8.17195C16.7914 8.11815 16.7292 8.07524 16.6605 8.04573C16.5918 8.01621 16.5179 8.00067 16.4431 8.00002C16.3683 7.99937 16.2942 8.01362 16.225 8.04194C16.1557 8.07026 16.0928 8.11208 16.04 8.16496C15.9871 8.21785 15.9453 8.28073 15.9169 8.34995C15.8886 8.41917 15.8744 8.49333 15.875 8.56812C15.8757 8.6429 15.8912 8.71681 15.9207 8.78552C15.9502 8.85424 15.9932 8.91639 16.0469 8.96834L17.3384 10.2598L16.0469 11.5513C15.9443 11.6575 15.8876 11.7998 15.8889 11.9475C15.8901 12.0951 15.9494 12.2364 16.0538 12.3408C16.1582 12.4453 16.2995 12.5045 16.4472 12.5058C16.5948 12.5071 16.7371 12.4503 16.8433 12.3477L18.1348 11.0562L19.4263 12.3477C19.532 12.4533 19.6753 12.5126 19.8247 12.5125C19.9741 12.5125 20.1174 12.4531 20.223 12.3474C20.3286 12.2417 20.3879 12.0984 20.3878 11.949C20.3878 11.7996 20.3284 11.6563 20.2227 11.5507L18.9312 10.2598L20.2227 8.96834Z" fill="#EA2F50"/>
<path fill-rule="evenodd" clip-rule="evenodd" d="M8.3855 19.5226L10.2531 20.1449V24.9019C10.2531 25.019 10.2897 25.1332 10.3576 25.2286C10.4255 25.324 10.5215 25.3958 10.6322 25.4341L17.9496 27.967C18.0652 28.0085 18.1914 28.0107 18.3084 27.9732L18.3163 27.9709L18.3247 27.9681L25.6444 25.4341C25.755 25.3958 25.851 25.324 25.919 25.2286C25.9869 25.1332 26.0234 25.019 26.0234 24.9019V20.1449L27.8911 19.5226C27.9772 19.4939 28.0552 19.4449 28.1183 19.3796C28.1814 19.3143 28.2278 19.2347 28.2535 19.1477C28.2792 19.0606 28.2835 18.9686 28.266 18.8795C28.2485 18.7904 28.2097 18.7069 28.153 18.636L25.9001 15.8199C25.8333 15.7367 25.7442 15.6742 25.6432 15.6397L18.3225 13.1052C18.2031 13.0639 18.0734 13.0639 17.9541 13.1052L10.6333 15.6397C10.5324 15.6742 10.4433 15.7367 10.3765 15.8199L8.1236 18.636C8.06685 18.7069 8.02807 18.7904 8.01057 18.8795C7.99306 18.9686 7.99736 19.0606 8.02308 19.1477C8.0488 19.2347 8.09519 19.3143 8.15829 19.3796C8.2214 19.4449 8.29935 19.4939 8.3855 19.5226ZM16.6283 21.8453L17.5751 20.4935V26.6456L11.3796 24.5009V20.52L15.989 22.0565C16.1042 22.0948 16.2286 22.0948 16.3438 22.0567C16.459 22.0185 16.5588 21.9442 16.6283 21.8447V21.8453ZM12.5381 16.1719L18.1383 18.1105L23.7384 16.1719L18.1383 14.2333L12.5381 16.1719ZM19.6483 21.8453L18.7015 20.4941V26.6462L24.897 24.5014V20.52L20.2875 22.0565C20.1724 22.0948 20.048 22.0948 19.9328 22.0567C19.8176 22.0185 19.7178 21.9442 19.6483 21.8447V21.8453ZM11.0079 16.8343L9.508 18.7093L12.6119 19.7439L15.9462 20.8551L17.2489 18.9948L17.1729 18.9683L11.0079 16.8337V16.8343ZM26.7686 18.7093L25.2687 16.8337L19.0276 18.9948L20.3303 20.8551L26.7686 18.7093Z" fill="#EA2F50"/>
</svg>
