<svg width="15" height="15" viewBox="0 0 11 12" fill="none" xmlns="http://www.w3.org/2000/svg">
<path d="M10.7521 3.47393L8.02607 0.747897C7.86703 0.589767 7.65208 0.500697 7.42781 0.5H3.57219C3.34792 0.500697 3.13297 0.589767 2.97393 0.747897L0.247897 3.47393C0.0897667 3.63297 0.000696983 3.84792 0 4.07219V7.92781C0.000697211 8.15208 0.0897669 8.36703 0.247897 8.52607L2.97393 11.2521C3.13297 11.4102 3.34792 11.4993 3.57219 11.5H7.42781C7.65208 11.4993 7.86703 11.4102 8.02607 11.2521L10.7521 8.52607C10.9102 8.36703 10.9993 8.15208 11 7.92781V4.07219C10.9993 3.84792 10.9102 3.63297 10.7521 3.47393ZM5.07692 3.46154C5.07692 3.34933 5.1215 3.24172 5.20084 3.16238C5.28018 3.08304 5.38779 3.03846 5.5 3.03846C5.61221 3.03846 5.71982 3.08304 5.79916 3.16238C5.8785 3.24172 5.92308 3.34933 5.92308 3.46154V6.42308C5.92308 6.53528 5.8785 6.6429 5.79916 6.72224C5.71982 6.80158 5.61221 6.84615 5.5 6.84615C5.38779 6.84615 5.28018 6.80158 5.20084 6.72224C5.1215 6.6429 5.07692 6.53528 5.07692 6.42308V3.46154ZM5.5 8.96154C5.37449 8.96154 5.25179 8.92432 5.14743 8.85459C5.04307 8.78485 4.96172 8.68574 4.91369 8.56978C4.86566 8.45382 4.85309 8.32622 4.87758 8.20312C4.90207 8.08001 4.96251 7.96694 5.05126 7.87818C5.14001 7.78943 5.25309 7.72899 5.37619 7.7045C5.4993 7.68002 5.6269 7.69258 5.74286 7.74062C5.85882 7.78865 5.95793 7.86999 6.02766 7.97435C6.0974 8.07871 6.13462 8.20141 6.13462 8.32692C6.13461 8.49523 6.06774 8.65664 5.94873 8.77565C5.82972 8.89467 5.66831 8.96153 5.5 8.96154Z" fill="white"/>
</svg>
