<svg width="20" height="20" viewBox="0 0 20 20" fill="none" xmlns="http://www.w3.org/2000/svg">
<path d="M17.5 13.851V6.14453C17.5 6.03363 17.4705 5.92473 17.4145 5.829C17.3585 5.73327 17.2781 5.65417 17.1814 5.5998L10.3064 1.73261C10.2129 1.67999 10.1073 1.65234 10 1.65234C9.89266 1.65234 9.78714 1.67999 9.69359 1.73261L2.81859 5.5998C2.72193 5.65417 2.64148 5.73327 2.58549 5.829C2.52951 5.92473 2.5 6.03363 2.5 6.14453V13.851C2.5 13.9619 2.52951 14.0708 2.58549 14.1665C2.64148 14.2622 2.72193 14.3413 2.81859 14.3957L9.69359 18.2629C9.78714 18.3155 9.89266 18.3432 10 18.3432C10.1073 18.3432 10.2129 18.3155 10.3064 18.2629L17.1814 14.3957C17.2781 14.3413 17.3585 14.2622 17.4145 14.1665C17.4705 14.0708 17.5 13.9619 17.5 13.851Z" stroke="currentColor" stroke-width="1.2" stroke-linecap="round" stroke-linejoin="round"/>
<path d="M13.8298 7.84852L6.25 3.66797" stroke="currentColor" stroke-width="1.2" stroke-linecap="round" stroke-linejoin="round"/>
<path d="M17.4132 5.82891L10.0735 9.99867L2.58594 5.82812" stroke="currentColor" stroke-width="1.2" stroke-linecap="round" stroke-linejoin="round"/>
<path d="M10.0733 9.99609L10 18.3415" stroke="currentColor" stroke-width="1.2" stroke-linecap="round" stroke-linejoin="round"/>
</svg>
