<svg width="219" height="205" viewBox="0 0 219 205" fill="none" xmlns="http://www.w3.org/2000/svg">
<path d="M128.496 134.745C128.343 134.745 128.19 134.745 128.031 134.745C128.186 134.724 128.342 134.724 128.496 134.745Z" fill="#EBEBEB"/>
<path d="M107.005 22.6267V204.002H105.605L91.4309 203.976H91.344L63.9813 203.93H63.3784L54.6407 203.92L52.9954 203.915H52.9034L29.1585 203.874L25.5459 203.859L24.9378 203.854L13.0781 203.798V22.6267H107.005Z" fill="#EBEBEB"/>
<path d="M52.9477 35.0382L46.0188 34.9666H39.0951L25.2375 34.9207H24.7266V35.4316L24.8083 57.521V57.9349H25.2171L39.1718 57.7612L52.9272 57.521L38.9776 57.2809L25.6259 57.1122V57.521L25.2171 57.1071H25.6259L25.7127 35.9171H25.2018L25.7127 35.4061V35.9171L39.0747 35.8711L45.9984 35.8404L52.5798 35.774V35.4265L52.9323 35.7689H52.5849L52.6462 40.8786L52.7279 46.3665L52.9323 57.5006L53.1316 46.5351L53.2134 40.9859L53.2798 35.4112V35.0637L52.9477 35.0382Z" fill="#DBDBDB"/>
<path d="M91.6764 40.9655L91.7428 35.3908V35.0433H91.3852L84.4615 34.9718H77.5275L63.675 34.9258H63.1641V35.4368L63.2509 57.5262V57.9401H63.6546L77.6093 57.7663L91.3647 57.5262L77.41 57.286L64.0685 57.1174V57.5262L63.6546 57.1123H64.0685L64.1502 35.9222H63.6393L64.1502 35.4112V35.9222L77.5071 35.8762L84.441 35.8455L91.0224 35.7791V35.4316L91.3698 35.774H91.0275L91.0837 40.8837L91.1705 46.3716L91.3698 57.5057L91.5691 46.5402L91.656 40.991" fill="#DBDBDB"/>
<path d="M52.9477 69.4012L25.2375 69.345H24.7266V69.8559L24.7828 101.582C24.7828 106.869 24.8049 112.158 24.8492 117.448L24.9616 133.314V133.59H25.2324L39.1462 133.462L52.9425 133.319L39.0287 133.171L25.5084 133.048V133.314L25.2324 133.038H25.5084L25.6003 117.438C25.6344 112.148 25.6565 106.859 25.6668 101.572L25.7281 70.3414H25.2171L25.7281 69.8304V70.3414L52.5031 70.2903V69.8457L52.9425 70.2903H52.5133C52.5133 75.4 52.5133 80.5098 52.5644 85.6195L52.6768 101.46L52.9528 133.309L53.2236 101.695L53.3411 85.783C53.3871 80.4791 53.3769 75.1599 53.3922 69.8457V69.4063L52.9477 69.4012Z" fill="#DBDBDB"/>
<path d="M91.3851 69.4012L63.675 69.345H63.1641V69.8559L63.2305 101.582C63.2305 106.871 63.2611 112.159 63.2918 117.448L63.3889 133.319V133.595H63.6597L77.5735 133.467L91.3698 133.324L77.456 133.176L63.9356 133.053V133.314L63.6597 133.038H63.9356L64.0276 117.438C64.0685 112.148 64.0906 106.859 64.094 101.572L64.1553 70.3414H63.6444L64.1553 69.8304V70.3414L90.9253 70.2903V69.8457L91.3698 70.2903H90.9253C90.9253 75.4 90.9253 80.5098 90.9815 85.6195L91.0939 101.46L91.3698 133.309L91.6457 101.695L91.753 85.783C91.8041 80.4791 91.7939 75.1599 91.8093 69.8457V69.4063L91.3851 69.4012Z" fill="#DBDBDB"/>
<path d="M52.9477 145.22L25.2375 145.168H24.7266V145.679L24.7828 177.411C24.7828 182.701 24.8049 187.99 24.8492 193.277L24.9207 203.655V203.854H25.5288V203.644L25.585 193.256C25.6191 187.969 25.6412 182.681 25.6514 177.39L25.7127 146.155H25.2018L25.7127 145.644V146.155L52.5133 146.088V145.649L52.9528 146.088H52.5133C52.5133 151.198 52.5133 156.308 52.5644 161.417L52.6768 177.258L52.9017 203.568V203.89H52.9936V203.568L53.2134 177.482L53.3309 161.576C53.3769 156.267 53.3666 150.953 53.382 145.639V145.194L52.9477 145.22Z" fill="#DBDBDB"/>
<path d="M91.3851 145.22L63.675 145.168H63.1641V145.679L63.2305 177.411C63.2305 182.699 63.2611 187.988 63.2918 193.277L63.3531 203.593V203.946H63.9561V203.593L64.0174 193.277C64.0583 187.99 64.0804 182.701 64.0838 177.411L64.1451 146.175H63.6342L64.1451 145.664V146.175L90.9151 146.119V145.679L91.3596 146.119H90.9151C90.9151 151.229 90.9151 156.338 90.9713 161.448L91.0837 177.288L91.3085 203.537V203.982H91.3954V203.537L91.6253 177.513L91.7326 161.606C91.7837 156.297 91.7735 150.983 91.7888 145.669V145.225L91.3851 145.22Z" fill="#DBDBDB"/>
<path d="M115.403 13.9861V203.987L107.002 204.002V22.6267H13.075V203.798L4.67969 203.762V13.9861H115.403Z" fill="#DBDBDB"/>
<path d="M103.659 133.304H95.1406V156.63H103.659V133.304Z" fill="#DBDBDB"/>
<path d="M102.83 137.366C102.812 138.042 102.595 138.697 102.206 139.251C101.817 139.804 101.274 140.23 100.644 140.477C100.015 140.723 99.3262 140.778 98.6653 140.635C98.0044 140.492 97.4002 140.158 96.9285 139.673C96.4567 139.189 96.1382 138.576 96.0128 137.912C95.8874 137.247 95.9606 136.56 96.2234 135.937C96.4862 135.314 96.9268 134.783 97.4901 134.409C98.0535 134.035 98.7146 133.835 99.3908 133.835C99.8484 133.841 100.3 133.937 100.721 134.118C101.141 134.298 101.522 134.56 101.842 134.888C102.161 135.216 102.412 135.604 102.582 136.029C102.752 136.454 102.836 136.908 102.83 137.366Z" fill="#C7C7C7"/>
<path d="M200.243 0.000732422H182.727V7.40475H200.243V0.000732422Z" fill="#EBEBEB"/>
<path d="M190.469 9.33618H172.953V16.7402H190.469V9.33618Z" fill="#EBEBEB"/>
<path d="M210.016 9.33618H192.5V16.7402H210.016V9.33618Z" fill="#EBEBEB"/>
<path d="M145.547 76.3606H128.031V83.7646H145.547V76.3606Z" fill="#EBEBEB"/>
<path d="M18.399 0.0109863H0.882812V7.415H18.399V0.0109863Z" fill="#EBEBEB"/>
<path d="M182.726 168.837H200.242V161.433H182.726V168.837Z" fill="#EBEBEB"/>
<path d="M192.499 159.501H210.016V152.097H192.499V159.501Z" fill="#EBEBEB"/>
<path d="M153.188 28.7626L152.234 55.6587L194.644 57.1619L195.597 30.2658L153.188 28.7626Z" fill="#EBEBEB"/>
<path d="M195.585 30.2658C193.817 31.8447 192.009 33.3316 190.236 34.9003C188.462 36.469 186.659 37.9355 184.829 39.4326C182.942 40.9962 181.053 42.5462 179.163 44.0825L178.994 44.2307L173.956 48.3185L173.711 48.5075L173.481 48.298C171.903 46.8298 170.328 45.3565 168.754 43.8781C168.694 43.8313 168.638 43.78 168.586 43.7248C166.802 42.059 165.009 40.383 163.256 38.6764C161.565 37.0668 159.873 35.4266 158.192 33.7864C156.511 32.1461 154.835 30.4855 153.18 28.7839C154.953 30.2555 156.69 31.7885 158.438 33.2907C160.185 34.793 161.928 36.3566 163.66 37.8895C165.584 39.5927 167.509 41.3318 169.434 43.1065L173.751 47.0513C175.284 45.8402 176.817 44.619 178.35 43.4233C180.394 41.8087 182.438 40.2076 184.482 38.6202C186.315 37.2031 188.156 35.7962 190.006 34.3995C191.886 33.0148 193.725 31.6301 195.585 30.2658Z" fill="white"/>
<path d="M169.49 43.7197L169.434 43.7606C169.204 43.9446 168.974 44.1285 168.744 44.3022C167.65 45.1658 166.531 45.9833 165.392 46.7805C164.007 47.7666 162.592 48.7017 161.166 49.6317C159.741 50.5617 158.305 51.4508 156.838 52.3194C155.372 53.1881 153.895 54.0312 152.367 54.7976C153.696 53.7195 155.07 52.7129 156.455 51.7318C157.84 50.7507 159.265 49.8105 160.686 48.8806C162.106 47.9506 163.552 47.0564 165.019 46.1877C166.184 45.4979 167.369 44.8183 168.596 44.1847C168.872 44.0365 169.153 43.8935 169.439 43.7504L169.49 43.7197Z" fill="white"/>
<path d="M194.563 56.2946C193.097 55.4209 191.676 54.4704 190.281 53.5047C188.886 52.539 187.512 51.5323 186.148 50.5206C184.783 49.5089 183.445 48.4512 182.131 47.373C181.058 46.4993 180.001 45.6102 178.979 44.6751L178.319 44.0772C178.305 44.0606 178.29 44.0453 178.273 44.0312L178.335 44.0619L179.147 44.5729C180.307 45.2934 181.436 46.0496 182.555 46.8263C183.955 47.792 185.32 48.7986 186.684 49.8155C188.048 50.8323 189.382 51.8594 190.695 52.9631C192.008 54.0668 193.327 55.1347 194.563 56.2946Z" fill="white"/>
<path d="M189.296 67.5385L183.227 86.219L212.681 95.7893L218.751 77.1088L189.296 67.5385Z" fill="#EBEBEB"/>
<path d="M218.734 77.1067C217.176 77.8579 215.612 78.5528 214.048 79.2835C212.485 80.0142 210.916 80.6887 209.347 81.3785C207.779 82.0683 206.072 82.8041 204.437 83.5041L204.289 83.5757L199.94 85.4152L199.726 85.4969L199.608 85.3079C198.794 83.9453 197.983 82.5946 197.176 81.2559L197.094 81.1179C196.175 79.585 195.265 78.052 194.366 76.5191C193.466 74.9862 192.649 73.5606 191.811 72.0685C190.973 70.5765 190.12 69.0793 189.297 67.5566C190.247 68.9414 191.157 70.367 192.082 71.7722C193.007 73.1774 193.916 74.6183 194.821 76.0541C195.842 77.6484 196.844 79.2562 197.825 80.8777C198.576 82.0836 199.317 83.2998 200.063 84.5108C201.376 83.964 202.695 83.4173 204.008 82.8859C205.766 82.1637 207.522 81.4517 209.276 80.75C210.845 80.1215 212.424 79.5032 213.997 78.8952C215.571 78.2871 217.155 77.6586 218.734 77.1067Z" fill="white"/>
<path d="M197.712 81.2915H197.666L197.074 81.5368C196.133 81.92 195.183 82.2675 194.222 82.5996C193.052 83.0135 191.872 83.3865 190.686 83.7544C189.501 84.1223 188.31 84.4544 187.11 84.7763C185.909 85.0983 184.698 85.3895 183.477 85.6195C184.621 85.1085 185.786 84.6997 186.956 84.2909C188.126 83.8821 189.317 83.5091 190.497 83.1412C191.678 82.7733 192.878 82.4361 194.074 82.1193C195.03 81.8638 195.995 81.6083 196.971 81.4244L197.651 81.2915H197.712Z" fill="white"/>
<path d="M212.788 95.1543C211.935 94.2448 211.127 93.2944 210.345 92.3338C209.564 91.3731 208.813 90.3972 208.041 89.411C207.269 88.4248 206.564 87.4182 205.859 86.3962C205.282 85.5685 204.715 84.7305 204.183 83.872C204.071 83.683 203.958 83.5041 203.846 83.3202C203.839 83.3059 203.83 83.2922 203.82 83.2793L203.856 83.3151L204.326 83.826C204.996 84.5618 205.634 85.3232 206.268 86.0897C207.055 87.0503 207.801 88.0314 208.562 89.0175C209.324 90.0037 210.044 91.0103 210.749 92.0323C211.454 93.0542 212.149 94.0813 212.788 95.1543Z" fill="white"/>
<path d="M3.64062 203.746L29.9098 203.624L56.179 203.578L108.717 203.491L161.256 203.578L187.525 203.624L213.794 203.746L187.525 203.869L161.256 203.915L108.717 204.002L56.179 203.915L29.9098 203.869L3.64062 203.746Z" fill="#263238"/>
<path d="M68.0312 153.625C68.0312 153.625 79.9165 197.298 82.7831 203.746H128.883C120.927 182.914 112.506 155.654 112.266 153.758C112.266 153.671 112.266 153.625 112.266 153.625H68.0312Z" fill="#37474F"/>
<path d="M74.4844 159.435C74.7756 162.981 87.6726 200.696 88.7559 203.746H89.4201C89.4201 203.746 75.4144 162.02 74.6632 159.435C74.6428 159.327 74.4844 159.327 74.4844 159.435Z" fill="#263238"/>
<path d="M105.864 153.62L99.9109 192.832L99.7014 194.16L99.1904 197.707L99.1496 197.957L99.0065 198.902L98.2758 203.731H82.7831C79.9216 197.283 68.0312 153.604 68.0312 153.604L105.864 153.62Z" fill="#263238"/>
<path d="M44.9139 203.747H88.5357C88.5357 203.563 88.5664 203.414 88.5715 203.292C88.5766 203.169 88.597 202.995 88.597 202.995L89.3277 202.602C91.8826 201.202 94.1462 200.113 96.001 199.286C96.3178 199.148 96.6193 199.015 96.9157 198.877C97.7537 198.514 98.5048 198.208 99.1282 197.962C100.738 197.329 101.627 197.043 101.627 197.043C101.683 196.91 101.729 196.782 101.775 196.649C108.096 180.559 111.908 156.042 112.265 153.758C112.265 153.635 112.265 153.584 112.265 153.584H49.9623C46.2628 165.183 38.8282 186.511 44.9139 203.747Z" fill="#37474F"/>
<path d="M103.85 195.893C98.5667 197.712 93.4672 200.292 88.5925 203C88.5583 203.023 88.5333 203.058 88.5221 203.098C88.5109 203.137 88.5143 203.18 88.5315 203.217C88.5487 203.255 88.5787 203.285 88.616 203.302C88.6534 203.32 88.6958 203.323 88.7356 203.312C93.876 201.105 99.1134 198.994 104.126 196.506C104.2 196.465 104.257 196.398 104.284 196.317C104.311 196.237 104.306 196.149 104.271 196.072C104.237 195.995 104.174 195.933 104.096 195.9C104.018 195.867 103.93 195.864 103.85 195.893Z" fill="#263238"/>
<path d="M105.484 160.62C105.484 160.441 105.157 160.401 105.157 160.595C105.198 166.696 104.81 172.066 104.299 177.769C104.059 180.415 101.928 195.05 97.3343 193.982C96.5678 193.803 96.1744 193.047 96.0569 191.892C95.9087 190.497 96.435 188.785 96.6649 187.4C97.1759 184.335 97.5847 181.269 97.8453 178.172C98.3794 172.411 98.3178 166.609 97.6613 160.86C97.6613 160.821 97.6457 160.783 97.6179 160.756C97.5901 160.728 97.5524 160.712 97.5131 160.712C97.4738 160.712 97.4361 160.728 97.4084 160.756C97.3806 160.783 97.365 160.821 97.365 160.86C97.365 168.857 97.1606 176.839 95.9649 184.759C95.3926 188.565 93.4764 194.293 97.4569 194.881C101.437 195.469 104.12 185.893 104.631 183.267C106.006 175.944 106.062 168.06 105.484 160.62Z" fill="#263238"/>
<path d="M97.4832 194.375C97.0794 195.364 96.738 196.378 96.4612 197.41C96.165 198.208 96.0195 199.053 96.032 199.904C96.0398 199.937 96.0569 199.967 96.0812 199.991C96.1055 200.014 96.1361 200.031 96.1693 200.038C96.2025 200.045 96.2371 200.042 96.2688 200.03C96.3006 200.018 96.3284 199.997 96.3488 199.97C96.8904 199.291 97.1153 198.356 97.4167 197.543C97.7693 196.608 98.1372 195.678 98.4387 194.728C98.473 194.604 98.4597 194.472 98.4012 194.358C98.3428 194.244 98.2436 194.156 98.1233 194.111C98.0029 194.067 97.8703 194.07 97.7517 194.118C97.6332 194.167 97.5373 194.259 97.4832 194.375Z" fill="#263238"/>
<path d="M76.6826 165.408C76.6952 164.769 76.63 164.131 76.4884 163.507C76.4819 163.488 76.4695 163.471 76.453 163.459C76.4365 163.448 76.4167 163.441 76.3964 163.441C76.3761 163.441 76.3563 163.448 76.3398 163.459C76.3233 163.471 76.3109 163.488 76.3044 163.507C76.1739 164.045 76.102 164.595 76.0898 165.147C76.0234 165.776 75.9416 166.404 75.8752 167.038C75.74 168.326 75.5146 169.603 75.2007 170.86C74.6203 173.237 73.4093 175.414 71.6954 177.16C69.9931 178.836 67.9795 180.162 65.7682 181.064C63.3002 182.086 60.7044 182.495 58.1598 183.246C58.138 183.253 58.1195 183.268 58.1077 183.288C58.0958 183.308 58.0913 183.331 58.095 183.354C58.0987 183.376 58.1103 183.397 58.1278 183.412C58.1452 183.427 58.1674 183.435 58.1904 183.435C61.015 183.428 63.8116 182.876 66.4273 181.81C68.7419 180.943 70.8483 179.599 72.6101 177.866C74.3814 176.076 75.6289 173.835 76.2176 171.386C76.513 170.129 76.6841 168.845 76.7285 167.554C76.7565 166.838 76.7411 166.122 76.6826 165.408Z" fill="#263238"/>
<path d="M51.0302 203.746C49.7323 199.97 48.9252 196.043 48.6286 192.06C48.2914 188.078 48.2709 184.074 48.5673 180.088C48.7717 178.106 48.925 176.113 49.2622 174.146C49.4258 173.16 49.5433 172.168 49.7732 171.192L50.3864 168.264C50.4937 167.753 50.5857 167.288 50.7032 166.803L51.0915 165.357L51.8733 162.475C52.1492 161.52 52.4967 160.584 52.8033 159.639C53.1099 158.694 53.442 157.754 53.7741 156.819C53.3347 158.76 52.7931 160.666 52.3587 162.603L51.7149 165.505L51.4032 166.956C51.301 167.442 51.2295 167.927 51.1426 168.418L50.6317 171.34C50.4528 172.311 50.3608 173.298 50.2229 174.273C49.9163 176.225 49.7732 178.198 49.5842 180.165C49.2895 184.103 49.2349 188.055 49.4206 191.999C49.4769 192.985 49.5228 193.972 49.6301 194.953L49.763 196.429L49.9469 197.901C50.1823 199.871 50.5441 201.823 51.0302 203.746Z" fill="#263238"/>
<path d="M90.1804 94.5617C98.5399 108.292 115.09 129.921 123.077 134.734C131.953 140.084 157.312 121.924 173.735 111.051C176.995 108.889 161.788 82.5282 158.406 84.9911C149.622 91.4856 131.457 106.57 129.045 106.059C127.073 105.64 110.303 93.9587 100.906 87.265C85.9751 76.6265 84.294 84.8992 90.1804 94.5617Z" fill="#D3766A"/>
<path d="M151.996 88.859L166.099 119.155C166.099 119.155 135.394 139.231 125.844 136.788C116.294 134.346 95.9981 106.232 90.0452 95.1951C84.0924 84.158 86.8619 77.9599 98.3996 85.3639C109.937 92.768 127.699 104.607 129.569 104.669C131.439 104.73 151.996 88.859 151.996 88.859Z" fill="#0AB39C"/>
<path d="M157.406 122.772C153.375 109.829 147.187 96.8354 146.247 94.4952C146.206 94.3879 146.032 94.4696 146.078 94.5769C147.1 96.8252 152.583 112.461 157.222 122.864C157.268 122.982 157.447 122.895 157.406 122.772Z" fill="#263238"/>
<path opacity="0.1" d="M135.095 135.526C131.405 136.773 128.12 137.361 125.846 136.778C116.296 134.336 95.9949 106.232 90.0421 95.2003C87.4872 90.4789 86.547 86.6466 87.2011 84.3728C98.6418 96.6668 125.412 125.215 135.095 135.526Z" fill="black"/>
<path d="M164.615 117.147L152.102 89.881C152.541 89.3138 154.421 88.1897 156.276 86.4421C156.276 86.4421 161.141 79.7484 163.103 72.4874C164.758 66.3864 166.521 57.1582 169.837 57.9093C174.671 59.0182 173.844 70.9749 172.954 77.8373C176.429 76.4373 179.556 75.5584 181.559 75.7117C188.202 76.2227 189.735 106.283 184.114 110.116C178.688 113.759 168.299 117.678 164.615 117.147Z" fill="#D3766A"/>
<path d="M182.661 119.967L138.508 116.671L142.851 58.4919L187.004 61.7928L182.661 119.967Z" fill="#455A64"/>
<path d="M182.539 65.206L146.758 62.5344L142.972 113.245L178.753 115.917L182.539 65.206Z" fill="white"/>
<path d="M160.164 63.5349L146.758 62.5339L142.972 113.245L156.378 114.246L160.164 63.5349Z" fill="#EBEBEB"/>
<path d="M154.789 73.4583C154.286 73.7247 153.726 73.8671 153.157 73.8736C152.587 73.8801 152.024 73.7505 151.515 73.4956C151.006 73.2407 150.565 72.8679 150.228 72.4081C149.892 71.9483 149.671 71.4149 149.582 70.8523C149.48 70.2032 149.559 69.5385 149.81 68.9312C150.061 68.3239 150.474 67.7975 151.005 67.4096C151.535 67.0218 152.162 66.7876 152.817 66.7327C153.472 66.6778 154.129 66.8044 154.717 67.0985C155.304 67.3926 155.8 67.8428 156.148 68.3999C156.497 68.9569 156.685 69.5992 156.692 70.2563C156.7 70.9133 156.526 71.5597 156.191 72.1246C155.855 72.6894 155.37 73.1509 154.789 73.4583Z" fill="#A6A6A6"/>
<path d="M154.249 69.9532C154.235 70.1699 154.156 70.3775 154.023 70.5496C153.891 70.7218 153.71 70.8507 153.504 70.9201C153.298 70.9895 153.077 70.9963 152.867 70.9397C152.657 70.883 152.469 70.7654 152.326 70.6018C152.183 70.4381 152.092 70.2357 152.064 70.0203C152.036 69.8048 152.072 69.5859 152.169 69.3912C152.265 69.1965 152.418 69.0348 152.606 68.9266C152.794 68.8183 153.011 68.7684 153.227 68.783C153.518 68.8027 153.789 68.937 153.981 69.1564C154.172 69.3759 154.269 69.6625 154.249 69.9532Z" fill="white"/>
<path d="M154.815 73.019L154.784 73.4738C154.189 73.7796 153.522 73.9148 152.855 73.8643C152.189 73.8138 151.549 73.5796 151.008 73.1877L151.044 72.738C151.062 72.4904 151.129 72.2488 151.241 72.0271C151.353 71.8055 151.507 71.6079 151.695 71.4459C151.883 71.2839 152.102 71.1605 152.337 71.0828C152.573 71.0051 152.822 70.9746 153.07 70.993C153.317 71.0115 153.559 71.0785 153.78 71.1903C154.002 71.3021 154.2 71.4565 154.362 71.6446C154.524 71.8328 154.647 72.051 154.725 72.2868C154.803 72.5226 154.833 72.7714 154.815 73.019Z" fill="white"/>
<path d="M171.867 68.72L162.211 67.999L162.161 68.6665L171.817 69.3875L171.867 68.72Z" fill="#EBEBEB"/>
<path d="M178.758 71.088L162.07 69.842L162.02 70.5096L178.708 71.7556L178.758 71.088Z" fill="#EBEBEB"/>
<path d="M174.906 72.6555L161.938 71.6873L161.888 72.3548L174.856 73.323L174.906 72.6555Z" fill="#EBEBEB"/>
<path d="M169.149 75.9417L161.664 75.3828L161.614 76.0503L169.1 76.6092L169.149 75.9417Z" fill="#EBEBEB"/>
<path d="M174.492 78.1948L161.523 77.2266L161.474 77.8941L174.442 78.8623L174.492 78.1948Z" fill="#EBEBEB"/>
<path d="M178.079 80.3163L161.391 79.0703L161.341 79.7378L178.029 80.9838L178.079 80.3163Z" fill="#EBEBEB"/>
<path d="M170.898 81.637L161.242 80.916L161.192 81.5835L170.848 82.3045L170.898 81.637Z" fill="#EBEBEB"/>
<path d="M178.695 85.2791L161.961 84.1077L161.914 84.777L178.648 85.9484L178.695 85.2791Z" fill="#EBEBEB"/>
<path d="M172.943 87.3583L160.836 86.4543L160.786 87.1219L172.893 88.0258L172.943 87.3583Z" fill="#EBEBEB"/>
<path d="M169.684 88.9709L160.695 88.2998L160.645 88.9673L169.634 89.6384L169.684 88.9709Z" fill="#EBEBEB"/>
<path d="M175.594 91.2652L160.562 90.1428L160.513 90.8103L175.545 91.9327L175.594 91.2652Z" fill="#EBEBEB"/>
<path d="M172.388 94.7367L160.281 93.8328L160.231 94.5003L172.338 95.4042L172.388 94.7367Z" fill="#EBEBEB"/>
<path d="M176.836 96.9274L160.148 95.6814L160.099 96.3489L176.787 97.5949L176.836 96.9274Z" fill="#EBEBEB"/>
<path d="M174.899 100.493L159.867 99.3706L159.817 100.038L174.849 101.16L174.899 100.493Z" fill="#EBEBEB"/>
<path d="M168.636 101.886L159.734 101.222L159.685 101.889L168.586 102.554L168.636 101.886Z" fill="#EBEBEB"/>
<path d="M177.391 103.792L160.656 102.621L160.609 103.29L177.344 104.462L177.391 103.792Z" fill="#EBEBEB"/>
<path d="M171.427 107.664L159.32 106.76L159.27 107.427L171.378 108.331L171.427 107.664Z" fill="#EBEBEB"/>
<path d="M177 109.343L160.266 108.172L160.219 108.841L176.953 110.012L177 109.343Z" fill="#EBEBEB"/>
<path d="M175.207 111.082L160.133 110.027L160.086 110.696L175.16 111.752L175.207 111.082Z" fill="#EBEBEB"/>
<path d="M154.43 76.1317L149.984 75.8206L149.938 76.4899L154.383 76.8011L154.43 76.1317Z" fill="#A6A6A6"/>
<path d="M156.308 78.6932L148.93 78.1423L148.88 78.8099L156.258 79.3607L156.308 78.6932Z" fill="#A6A6A6"/>
<path d="M154.963 80.4474L148.797 79.9871L148.747 80.6546L154.913 81.1149L154.963 80.4474Z" fill="#A6A6A6"/>
<path d="M155.902 84.232L148.523 83.6812L148.474 84.3487L155.852 84.8996L155.902 84.232Z" fill="#A6A6A6"/>
<path d="M156.22 86.1056L148.383 85.5205L148.333 86.188L156.17 86.7732L156.22 86.1056Z" fill="#A6A6A6"/>
<path d="M153.74 87.7809L148.242 87.3704L148.192 88.0379L153.69 88.4484L153.74 87.7809Z" fill="#A6A6A6"/>
<path d="M155.585 89.2385L149.07 88.7825L149.023 89.4519L155.538 89.9079L155.585 89.2385Z" fill="#A6A6A6"/>
<path d="M176.372 57.5972L153.992 55.9263L153.4 63.855L175.78 65.5259L176.372 57.5972Z" fill="#A6A6A6"/>
<path d="M172.914 60.4386L156.992 59.2481L157.452 53.0959L173.374 54.2814L172.914 60.4386Z" fill="#A6A6A6"/>
<path d="M171.13 76.9227C169.684 80.0856 174.236 79.9885 174.236 79.9885C174.236 79.9885 167.721 81.7054 167.481 85.5428C167.272 89.2422 172.765 88.9203 173.158 88.8999C172.816 88.997 166.868 90.7445 167.027 94.6177C167.2 98.6493 172.647 97.3821 173.01 97.2952C172.714 97.4894 168.835 100.08 169.627 102.998C170.997 108.01 181.104 101.649 185.161 102.758C185.161 102.758 184.078 109.85 184.088 110.059C184.088 110.059 193.822 104.204 195.007 98.6493C195.191 97.844 195.094 97.0003 194.734 96.2572C194.374 95.5142 193.771 94.9161 193.025 94.5615C193.025 94.5615 196.372 93.0286 196.341 89.9627C196.316 88.394 193.786 87.0297 193.786 87.0297C193.786 87.0297 196.418 85.6859 196.218 82.9675C196.065 80.801 193.551 79.7688 193.551 79.7688C193.551 79.7688 195.478 77.3059 194.604 75.1445C192.861 70.7705 174.231 70.1625 171.13 76.9227Z" fill="#D3766A"/>
<path d="M193.202 79.5491C193.212 79.5458 193.221 79.5393 193.227 79.5306C193.233 79.5218 193.237 79.5114 193.237 79.5006C193.237 79.4898 193.233 79.4793 193.227 79.4706C193.221 79.4619 193.212 79.4554 193.202 79.452C187.121 77.7556 179.916 77.7556 173.974 79.963C173.774 80.0346 173.81 80.3871 174.04 80.3463C180.632 79.2425 186.549 78.7929 193.202 79.5491Z" fill="#263238"/>
<path d="M193.902 86.9941C193.974 86.9941 193.989 86.8868 193.902 86.8664C187.633 85.1495 179.524 85.3743 172.952 88.7212C172.728 88.8387 172.641 89.1657 172.906 89.0533C177.459 87.1576 187.924 86.3043 193.902 86.9941Z" fill="#263238"/>
<path d="M172.648 97.6886C179.066 94.7199 185.79 94.1118 192.785 94.4695C192.877 94.4695 192.872 94.3469 192.785 94.3213C189.408 93.2125 184.926 93.4424 181.452 93.9228C178.219 94.3022 175.143 95.5232 172.53 97.4638C172.443 97.5456 172.515 97.7499 172.648 97.6886Z" fill="#263238"/>
<path d="M112.241 153.625L110.438 133.902C110.438 133.902 115.706 125.849 114.934 116.334C114.377 109.405 94.5975 85.1649 93.3252 83.9999C88.2154 79.2325 79.5851 81.1333 76.044 83.8108C56.4329 98.629 56.6015 122.323 49.9844 153.584L112.241 153.625Z" fill="#0AB39C"/>
<path d="M112.244 153.625L110.44 133.902C110.44 133.902 117.226 124.857 114.936 116.334C112.647 107.811 105.902 100.034 105.902 100.034H76.736C76.736 100.034 74.0942 125.552 67.4158 129.895C63.3609 132.599 58.4127 133.618 53.6195 132.737L49.9609 153.584L112.244 153.625Z" fill="#37474F"/>
<path d="M91.8304 131.321C94.6555 131.156 97.489 131.2 100.307 131.454C101.708 131.597 103.087 131.806 104.472 132.041C105.167 132.164 105.857 132.256 106.546 132.348C107.271 132.466 108.007 132.495 108.739 132.435C108.752 132.435 108.765 132.44 108.775 132.45C108.784 132.459 108.79 132.472 108.79 132.486C108.79 132.5 108.784 132.513 108.775 132.522C108.765 132.532 108.752 132.537 108.739 132.537C107.396 132.828 106.014 132.892 104.651 132.726C103.23 132.593 101.82 132.394 100.399 132.246C97.538 131.944 94.6765 131.648 91.7998 131.556C91.6976 131.551 91.6976 131.331 91.8304 131.321Z" fill="#263238"/>
<path d="M85.3099 134.816C87.5699 134.234 89.861 133.78 92.1723 133.457C93.3322 133.298 94.487 133.206 95.6572 133.145C96.209 133.12 96.7711 133.099 97.328 133.089C97.885 133.079 98.5544 133.145 99.1676 133.125C99.234 133.125 99.2442 133.222 99.1676 133.222C98.5902 133.263 98.0128 133.396 97.4405 133.467L95.7083 133.677C94.5535 133.82 93.4038 133.978 92.2439 134.111C89.9291 134.377 87.6451 134.663 85.3202 135.005C85.218 135.026 85.218 134.847 85.3099 134.816Z" fill="#263238"/>
<path d="M80.2146 92.1957C76.6071 97.331 49.3007 129.783 41.5901 134.688C35.7292 138.424 20.3234 140.702 21.1154 126.16C21.6263 116.452 60.4604 89.0634 76.1268 82.4259C83.3264 79.3549 87.7719 81.4244 80.2146 92.1957Z" fill="#0AB39C"/>
<path d="M27.2969 136.947C29.5972 137.571 32.0071 137.677 34.3534 137.259C36.6847 136.878 38.9229 136.06 40.9501 134.847C41.9596 134.237 42.9228 133.554 43.832 132.803C44.7415 132.057 45.6102 131.244 46.4686 130.427C48.1804 128.776 49.8359 127.06 51.4659 125.317C54.7566 121.873 57.9349 118.307 61.1182 114.755L70.6326 104.025C69.1763 105.916 67.6638 107.76 66.1616 109.646C64.6593 111.531 63.0957 113.32 61.5628 115.144C58.4663 118.775 55.2795 122.338 52.0025 125.833C50.3469 127.565 48.6709 129.272 46.9285 130.917C46.0547 131.735 45.1707 132.547 44.2306 133.309C43.2898 134.078 42.2826 134.762 41.2209 135.353C39.1087 136.546 36.7883 137.324 34.3841 137.647C33.1973 137.792 31.9986 137.815 30.8073 137.713C29.6073 137.622 28.4259 137.364 27.2969 136.947Z" fill="#263238"/>
<path d="M66.9844 108.383C67.6105 107.872 68.2638 107.394 68.9414 106.953L70.9495 105.609C70.4575 106.267 69.8497 106.829 69.156 107.27C68.4826 107.732 67.7528 108.106 66.9844 108.383Z" fill="#263238"/>
<path d="M76.7335 100.034H81.1892C81.3661 93.6249 80.4538 87.2321 78.4913 81.1282L75.6094 81.8589C75.6094 81.8589 78.4453 93.6726 76.7335 100.034Z" fill="#37474F"/>
<path d="M94.836 82.8961C94.836 82.8961 100.845 91.552 105.904 100.034H103.073L91.7344 81.7056L94.836 82.8961Z" fill="#37474F"/>
<path d="M80.1058 84.4648C80.4583 85.7013 86.0944 92.9725 91.8173 92.4258C93.6823 92.2469 93.8969 82.6202 93.8969 82.6202L94.0298 81.8537L95.8846 71.1692L83.0847 63.8214L81.2401 62.8506C81.2401 62.8506 80.9284 65.8091 80.5707 69.4932C80.5707 69.6619 80.5401 69.8356 80.5248 70.0042C80.5094 70.1728 80.4685 70.4079 80.4532 70.6021C80.397 71.1488 80.3357 71.7109 80.2897 72.2729C80.2539 72.7022 80.2131 73.1161 80.1926 73.5657C80.1722 74.0154 80.1313 74.4497 80.0955 74.9045C79.8503 79.3499 79.9678 83.9334 80.1058 84.4648Z" fill="#D3766A"/>
<path d="M80.5703 69.4779C81.7819 72.3943 83.6139 75.012 85.939 77.1491C88.2641 79.2863 91.0265 80.8916 94.0345 81.8537L95.8893 71.1692L83.0843 63.8214L81.2397 62.8506C81.2397 62.8506 80.928 65.7938 80.5703 69.4779Z" fill="#263238"/>
<path d="M84.4353 61.8183C81.0271 59.5343 71.4514 56.1721 66.3928 63.6118C59.1676 74.2248 74.8136 92.8396 75.6159 102.625C77.0721 120.35 86.2799 130.304 94.4504 125.353C103.612 119.804 103.04 104.699 85.8507 87.6685C75.1202 77.0147 73.4647 69.2326 75.9378 67.4442C78.4109 65.6557 82.2585 67.2347 82.2585 67.2347L84.4353 61.8183Z" fill="#263238"/>
<path d="M83.0791 61.0314C81.3258 60.1287 79.4693 59.4424 77.5504 58.9875C75.5975 58.502 73.5649 58.429 71.5822 58.7729C69.5479 59.1404 67.6813 60.1399 66.2476 61.6292C64.8184 63.1063 63.7667 64.9065 63.1818 66.8769C62.6589 68.8471 62.5631 70.9064 62.9008 72.9166C63.2397 74.8819 63.802 76.8019 64.5768 78.6395C66.1514 82.256 68.1277 85.6841 70.4683 88.859C68.5057 85.4876 66.7977 81.9742 65.3585 78.3483C64.6944 76.5453 64.2167 74.679 63.9329 72.7787C63.6435 70.9141 63.7497 69.0095 64.2446 67.1886C64.7616 65.3835 65.7024 63.728 66.9886 62.3599C68.2566 60.9853 69.9148 60.0313 71.7406 59.6262C73.6119 59.2232 75.5438 59.1903 77.4277 59.5291C78.3879 59.6716 79.3384 59.873 80.2739 60.1321C81.2209 60.3944 82.156 60.6941 83.0791 61.0314Z" fill="#263238"/>
<path d="M80.0703 81.6543C81.6543 83.4631 83.4325 85.088 85.1443 86.764C86.8561 88.44 88.5985 90.0854 90.254 91.792C91.9096 93.4987 93.5447 95.2564 95.0214 97.1113C96.5266 98.9353 97.8479 100.904 98.9661 102.987C100.099 105.032 100.836 107.272 101.138 109.589C101.35 111.922 101.153 114.274 100.555 116.538C99.9692 118.818 98.8541 120.928 97.3004 122.696C96.5198 123.586 95.6266 124.371 94.6433 125.031C94.1531 125.359 93.6409 125.652 93.1104 125.91C92.5799 126.188 92.0119 126.387 91.4242 126.502C92.6255 126.33 93.7787 125.913 94.8119 125.276C95.8701 124.67 96.8441 123.928 97.7091 123.069C98.5718 122.195 99.322 121.216 99.9421 120.156C100.557 119.09 101.047 117.957 101.403 116.779C101.76 115.613 102.003 114.415 102.129 113.202L102.211 112.282L102.247 111.367C102.273 110.747 102.256 110.126 102.195 109.507C101.907 107.049 101.149 104.669 99.9625 102.497C97.6376 98.169 94.3418 94.536 90.8774 91.2044C89.1401 89.5335 87.3313 87.9495 85.5071 86.391C83.6829 84.8326 81.8332 83.2843 80.0703 81.6543Z" fill="#263238"/>
<path d="M84.9945 61.3635C84.3149 60.4642 82.7717 59.8306 82.0768 60.1474C81.3819 60.4642 78.638 65.6557 79.1489 67.0251C79.6599 68.3945 82.2965 67.8376 82.2965 67.8376L84.9945 61.3635Z" fill="#0AB39C"/>
<path d="M109.88 52.3142C113.891 70.9188 103.206 75.4205 99.19 76.284C95.5467 77.0607 83.0483 79.263 77.1363 61.1745C71.2244 43.0861 78.6028 35.3397 86.8448 33.1118C95.0868 30.884 105.868 33.7097 109.88 52.3142Z" fill="#D3766A"/>
<path d="M103.789 49.5703C103.352 49.5645 102.915 49.5355 102.481 49.4835C102.014 49.5201 101.548 49.3996 101.157 49.1411C101.051 49.0367 100.981 48.9 100.96 48.7523C100.939 48.6045 100.967 48.4538 101.04 48.3236C101.225 48.0885 101.469 47.9069 101.747 47.7973C102.026 47.6878 102.328 47.6542 102.624 47.7002C103.236 47.7024 103.826 47.9318 104.279 48.344C104.378 48.4438 104.445 48.5701 104.473 48.7076C104.501 48.845 104.488 48.9876 104.436 49.1178C104.383 49.248 104.295 49.3601 104.18 49.4405C104.065 49.5209 103.929 49.566 103.789 49.5703Z" fill="#263238"/>
<path d="M90.7486 54.4042C91.1688 54.2772 91.5816 54.1271 91.9852 53.9545C92.4414 53.8556 92.8525 53.6097 93.1553 53.2545C93.2291 53.1245 93.2576 52.9736 93.2363 52.8256C93.2151 52.6776 93.1452 52.5409 93.0378 52.4369C92.7953 52.2625 92.5105 52.1563 92.2131 52.1294C91.9156 52.1024 91.6164 52.1557 91.3465 52.2836C90.7567 52.4542 90.2531 52.8411 89.9362 53.3669C89.8706 53.49 89.8421 53.6296 89.8543 53.7686C89.8665 53.9076 89.9188 54.0401 90.0048 54.1499C90.0909 54.2598 90.207 54.3423 90.339 54.3874C90.471 54.4326 90.6134 54.4384 90.7486 54.4042Z" fill="#263238"/>
<path d="M93.9425 56.724C93.9425 56.678 93.8506 56.8006 93.8608 56.8517C94.1163 58.1241 94.1929 59.6263 93.1096 60.2395C93.0739 60.2395 93.1096 60.3264 93.1096 60.311C94.5097 59.8767 94.3871 57.889 93.9425 56.724Z" fill="#263238"/>
<path d="M92.5773 55.5793C90.4976 55.7684 91.0444 59.9175 92.9554 59.7438C94.8665 59.5701 94.3197 55.4261 92.5773 55.5793Z" fill="#263238"/>
<path d="M91.7892 55.9065C91.457 56.1875 91.1556 56.6474 90.7212 56.7445C90.2869 56.8416 89.7862 56.4737 89.4029 56.0956C89.362 56.0598 89.3314 56.0956 89.3365 56.1518C89.4285 56.9489 89.8475 57.7256 90.7059 57.7358C91.4979 57.7358 91.9629 56.9693 92.06 56.1467C92.0804 55.9934 91.922 55.789 91.7892 55.9065Z" fill="#263238"/>
<path d="M101.639 55.0683C101.639 55.0172 101.746 55.1194 101.746 55.1756C101.792 56.4684 102.068 57.9451 103.279 58.2926C103.315 58.2926 103.315 58.3692 103.279 58.3641C101.823 58.2619 101.475 56.2998 101.639 55.0683Z" fill="#263238"/>
<path d="M102.705 53.6377C104.774 53.3362 105.224 57.4955 103.308 57.7715C101.392 58.0474 100.967 53.8881 102.705 53.6377Z" fill="#263238"/>
<path d="M103.543 53.7655C103.931 53.9648 104.335 54.3378 104.774 54.3378C105.214 54.3378 105.622 53.8524 105.909 53.3976C105.939 53.3516 105.98 53.3976 105.985 53.4385C106.082 54.2356 105.868 55.0838 105.025 55.2984C104.258 55.4926 103.619 54.8437 103.333 54.067C103.282 53.9239 103.389 53.6889 103.543 53.7655Z" fill="#263238"/>
<path d="M96.2987 66.6675C96.6309 66.9434 96.9732 67.3369 97.4484 67.3369C97.9273 67.2874 98.3904 67.1377 98.8076 66.8974C98.8485 66.8974 98.8945 66.8974 98.8689 66.9587C98.7055 67.2288 98.4719 67.4494 98.1929 67.597C97.9139 67.7446 97.6001 67.8136 97.2849 67.7967C97.0167 67.7485 96.7687 67.6226 96.5715 67.4345C96.3744 67.2464 96.2369 67.0046 96.1761 66.739C96.1505 66.6624 96.2476 66.6266 96.2987 66.6675Z" fill="#263238"/>
<path d="M101.016 61.2666C101.016 61.2666 101.527 63.147 101.675 64.0514C101.675 64.1332 101.476 64.2047 101.164 64.266C101.164 64.266 101.164 64.266 101.129 64.266C100.372 64.5144 99.5617 64.5504 98.786 64.3702C98.0103 64.19 97.2988 63.8005 96.7291 63.2441C96.7102 63.2285 96.6982 63.206 96.6958 63.1816C96.6934 63.1571 96.7008 63.1328 96.7164 63.1138C96.7319 63.0948 96.7544 63.0828 96.7789 63.0804C96.8033 63.078 96.8277 63.0854 96.8466 63.101C98.1117 63.728 99.5452 63.9305 100.934 63.6784C100.965 63.4178 99.9125 60.4899 100.056 60.4593C100.767 60.4225 101.48 60.481 102.176 60.633C101.18 56.6883 99.5599 52.9326 98.6299 48.9879C98.5993 48.8448 98.7986 48.7733 98.8548 48.8959C100.832 52.7129 102.079 57.2299 103.208 61.2768C103.356 61.8031 101.399 61.3841 101.016 61.2666Z" fill="#263238"/>
<path d="M76.0636 60.6993C79.2981 60.9497 80.039 54.1691 80.039 54.1691C80.039 54.1691 86.6101 54.1691 88.7817 44.7365C88.7817 44.7365 88.6387 49.136 85.8692 52.5493C85.8692 52.5493 97.4581 51.3229 102.338 41.6247C102.338 41.6247 100.391 46.5658 98.5669 48.3235C98.5669 48.3235 103.426 46.9643 105.797 43.0196C105.797 43.0196 107.841 48.6403 109.374 50.1732C109.374 50.1732 108.899 29.8978 90.1154 32.0541C90.1154 32.0541 78.363 32.8359 74.1321 42.1459C69.9012 51.4558 76.0636 60.6993 76.0636 60.6993Z" fill="#263238"/>
<path d="M80.3975 61.9665C80.3975 61.9665 75.5331 56.5911 73.0446 58.3897C70.5562 60.1883 74.736 68.3486 78.0266 69.1201C78.4412 69.2481 78.8774 69.2907 79.3089 69.2455C79.7404 69.2003 80.1583 69.0682 80.5374 68.8572C80.9165 68.6462 81.249 68.3606 81.5147 68.0176C81.7805 67.6746 81.9741 67.2814 82.0838 66.8616L80.3975 61.9665Z" fill="#D3766A"/>
<path d="M74.2961 60.7096C74.245 60.7096 74.245 60.7812 74.2961 60.7914C76.6108 61.4045 78.0262 63.3003 79.1044 65.3135C78.3482 64.5828 77.4029 64.2507 76.4065 65.1653C76.3554 65.2164 76.4065 65.2982 76.4831 65.2777C76.8542 65.1056 77.2695 65.0524 77.6721 65.1256C78.0746 65.1988 78.4446 65.3947 78.7314 65.6865C79.2066 66.1804 79.6279 66.7234 79.9884 67.3063C80.1161 67.4902 80.4585 67.337 80.3512 67.1223C80.3503 67.1053 80.3503 67.0883 80.3512 67.0712C80.0241 64.2609 77.3466 60.6074 74.2961 60.7096Z" fill="#263238"/>
<path d="M78.4922 69.258C78.4922 69.4602 78.5521 69.6577 78.6644 69.8258C78.7767 69.9939 78.9363 70.1248 79.1231 70.2022C79.3098 70.2795 79.5153 70.2998 79.7135 70.2603C79.9117 70.2209 80.0938 70.1236 80.2368 69.9807C80.3797 69.8377 80.477 69.6556 80.5165 69.4574C80.5559 69.2592 80.5356 69.0537 80.4583 68.8669C80.3809 68.6802 80.25 68.5206 80.0819 68.4083C79.9138 68.296 79.7163 68.2361 79.5141 68.2361C79.2431 68.2361 78.9832 68.3438 78.7915 68.5354C78.5999 68.7271 78.4922 68.987 78.4922 69.258Z" fill="white"/>
<path d="M104.041 34.8186C101.829 34.9923 90.4849 39.0699 86.065 42.9584C81.6451 46.8469 74.9207 57.2299 74.5783 57.7766C74.236 58.3234 65.7231 40.2093 79.9078 31.7732C95.3545 22.5807 104.041 34.8186 104.041 34.8186Z" fill="#0AB39C"/>
<path d="M75.2109 56.7137C75.2109 56.7137 80.9747 40.0662 85.6041 35.1864C90.2336 30.3066 102.262 24.4559 111.153 25.3604C118.097 26.0553 105.823 38.7019 105.823 38.7019C105.823 38.7019 104.704 36.658 102.502 36.5354C98.2201 36.2697 91.3986 39.7749 87.7451 42.4933C83.177 45.9373 75.2109 56.7137 75.2109 56.7137Z" fill="#0AB39C"/>
<path opacity="0.2" d="M75.2109 56.7137C75.2109 56.7137 80.9747 40.0662 85.6041 35.1864C90.2336 30.3066 102.262 24.4559 111.153 25.3604C118.097 26.0553 105.823 38.7019 105.823 38.7019C105.823 38.7019 104.704 36.658 102.502 36.5354C98.2201 36.2697 91.3986 39.7749 87.7451 42.4933C83.177 45.9373 75.2109 56.7137 75.2109 56.7137Z" fill="black"/>
<path d="M117.327 119.962H48.8359V162.455H117.327V119.962Z" fill="#0AB39C"/>
<path opacity="0.2" d="M117.327 119.962H48.8359V162.455H117.327V119.962Z" fill="black"/>
<path opacity="0.2" d="M48.8442 162.455H74.7812V119.962H48.8442V162.455Z" fill="black"/>
<path d="M50.625 159.527C52.5463 156.505 54.4505 153.473 56.3377 150.431L61.9584 141.295L67.5127 132.098C69.3556 129.032 71.1798 125.966 72.9852 122.9C71.064 125.918 69.1614 128.948 67.2776 131.99L61.6569 141.132L56.1026 150.329C54.2597 153.375 52.4338 156.44 50.625 159.527Z" fill="#0AB39C"/>
<path d="M50.625 122.89C52.4338 125.956 54.258 129.022 56.0975 132.087L61.6518 141.285L67.2725 150.421C69.1529 153.467 71.0554 156.498 72.9801 159.516C71.1747 156.43 69.3505 153.356 67.5076 150.293L61.9533 141.096L56.3326 131.955C54.4522 128.933 52.5497 125.911 50.625 122.89Z" fill="#0AB39C"/>
<path d="M65.6995 119.962H57.8203V127.841H65.6995V119.962Z" fill="#EBEBEB"/>
<path d="M102.935 151.142H102.383V158.924H102.935V151.142Z" fill="#263238"/>
<path d="M104.263 151.142H103.711V158.924H104.263V151.142Z" fill="#263238"/>
<path d="M105.583 151.142H105.031V158.924H105.583V151.142Z" fill="#263238"/>
<path d="M106.911 151.142H106.359V158.924H106.911V151.142Z" fill="#263238"/>
<path d="M108.232 151.142H107.68V158.924H108.232V151.142Z" fill="#263238"/>
<path d="M109.552 151.142H109V158.924H109.552V151.142Z" fill="#263238"/>
<path d="M110.88 151.142H110.328V158.924H110.88V151.142Z" fill="#263238"/>
<path d="M112.2 151.142H111.648V158.924H112.2V151.142Z" fill="#263238"/>
<path d="M113.528 151.142H112.977V158.924H113.528V151.142Z" fill="#263238"/>
<path d="M96.9708 158.352L99.0914 158.939H94.1094L96.235 158.341V155.485C94.7021 155.286 94.1094 153.783 94.1094 151.162H99.0914C99.0914 153.778 98.4884 155.286 96.9708 155.485V158.352Z" fill="#263238"/>
<path d="M92.9453 155.112H91.6423V158.919H88.3108V155.112H87.0078L89.9766 151.142L92.9453 155.112Z" fill="#263238"/>
<path opacity="0.1" d="M117.33 162.455V158.73L74.7812 151.832V162.45L117.33 162.455Z" fill="black"/>
<path d="M113.531 118.593H55.6172V119.962H113.531V118.593Z" fill="#EBEBEB"/>
<path d="M112.031 117.228H54.1172V118.598H112.031V117.228Z" fill="#C7C7C7"/>
<path d="M115.929 129.882L74.0078 137.08L78.5726 163.663L120.494 156.465L115.929 129.882Z" fill="white"/>
<path d="M114.708 129.901C113.292 131.796 111.831 133.631 110.4 135.521C108.97 137.412 107.488 139.205 106.021 141.03C104.488 142.936 102.955 144.826 101.422 146.712L101.285 146.891C99.9202 148.551 98.5457 150.212 97.1967 151.873L96.9923 152.108L96.7266 151.949C94.8871 150.828 93.051 149.704 91.2183 148.577L91.0242 148.459C88.9496 147.182 86.8751 145.904 84.8056 144.586C82.8281 143.349 80.8507 142.082 78.8783 140.82C76.906 139.558 74.9336 138.265 72.9766 136.932C75.0205 138.01 77.0081 139.165 79.0214 140.284C81.0346 141.403 83.0427 142.578 85.0458 143.748C87.2736 145.042 89.5032 146.359 91.7344 147.698C93.407 148.693 95.0762 149.691 96.742 150.692C97.9887 149.205 99.2406 147.703 100.498 146.231C102.169 144.249 103.839 142.271 105.531 140.314C107.043 138.563 108.562 136.819 110.089 135.082C111.627 133.314 113.144 131.582 114.708 129.901Z" fill="#DBDBDB"/>
<path d="M91.8602 148.27L91.8193 148.321C91.6303 148.546 91.4463 148.771 91.2573 148.99C90.358 150.053 89.428 151.08 88.4725 152.082C87.3126 153.324 86.1169 154.524 84.8956 155.72C83.6744 156.916 82.4583 158.065 81.2013 159.205C79.9443 160.344 78.6464 161.468 77.3281 162.526C78.4063 161.203 79.5509 159.946 80.7108 158.714C81.8707 157.483 83.0715 156.277 84.2876 155.081C85.5037 153.886 86.73 152.726 87.987 151.581C89.009 150.677 90.0309 149.772 91.0529 148.914C91.2982 148.709 91.5383 148.515 91.7887 148.321L91.8602 148.27Z" fill="#DBDBDB"/>
<path d="M118.911 155.551C117.301 154.989 115.723 154.345 114.169 153.676C112.616 153.007 111.068 152.302 109.53 151.586C107.991 150.871 106.464 150.11 104.977 149.312C103.755 148.674 102.539 148.015 101.349 147.304L100.593 146.855C100.573 146.841 100.553 146.829 100.531 146.819H100.603C100.904 146.926 101.201 147.033 101.492 147.146C102.774 147.616 104.047 148.132 105.278 148.679C106.837 149.343 108.375 150.053 109.908 150.779C111.441 151.504 112.973 152.256 114.466 153.048C115.958 153.84 117.46 154.652 118.911 155.551Z" fill="#DBDBDB"/>
<path d="M83.9325 137.732L83.0703 164.57L125.393 165.929L126.255 139.092L83.9325 137.732Z" fill="#EBEBEB"/>
<path d="M126.257 139.088C124.494 140.672 122.705 142.179 120.927 143.733C119.149 145.286 117.35 146.768 115.552 148.27C113.678 149.84 111.805 151.394 109.931 152.93L109.757 153.078L104.75 157.166L104.499 157.36L104.269 157.151C102.692 155.689 101.115 154.224 99.5378 152.756C99.4797 152.709 99.425 152.658 99.3743 152.603C97.5859 150.947 95.806 149.275 94.0346 147.585C92.3433 145.981 90.652 144.351 88.9709 142.721C87.2898 141.091 85.6087 139.435 83.9531 137.744C85.7211 139.205 87.4635 140.733 89.2162 142.225C90.9688 143.717 92.7061 145.265 94.4383 146.824C96.3647 148.531 98.2962 150.268 100.217 152.015L104.535 155.935C106.068 154.724 107.575 153.497 109.093 152.302C111.137 150.687 113.171 149.084 115.194 147.493C117.023 146.073 118.858 144.662 120.697 143.262C122.562 141.847 124.397 140.432 126.257 139.088Z" fill="#C7C7C7"/>
<path d="M100.242 152.598C100.222 152.61 100.205 152.626 100.191 152.644L99.5212 153.186C98.4277 154.049 97.3138 154.872 96.1795 155.669C94.7998 156.655 93.3895 157.595 91.9741 158.53C90.5587 159.465 89.1229 160.354 87.6615 161.223C86.2001 162.092 84.7336 162.94 83.2109 163.712C84.5293 162.628 85.8987 161.622 87.2987 160.646C88.6988 159.67 90.0989 158.714 91.5092 157.784C92.9194 156.854 94.3655 155.95 95.8269 155.081C96.9868 154.386 98.1671 153.707 99.373 153.073C99.649 152.92 99.93 152.777 100.211 152.634L100.242 152.598Z" fill="#C7C7C7"/>
<path d="M125.318 165.066C123.852 164.197 122.431 163.257 121.036 162.296C119.641 161.336 118.267 160.334 116.903 159.333C115.538 158.331 114.2 157.289 112.886 156.206C111.813 155.337 110.751 154.448 109.729 153.518C109.504 153.324 109.289 153.124 109.069 152.925L109.023 152.879C109.041 152.896 109.062 152.908 109.085 152.915L109.897 153.426C111.057 154.136 112.181 154.892 113.305 155.659C114.705 156.625 116.07 157.621 117.434 158.633C118.798 159.644 120.132 160.677 121.45 161.755C122.769 162.833 124.051 163.901 125.318 165.066Z" fill="#C7C7C7"/>
<path d="M81.2196 147.335C75.3945 142.159 41.9206 123.442 35.14 121.102C28.3593 118.761 18.7888 121.837 21.8547 132.031C24.9205 142.225 59.3039 172.327 72.2827 174.442C76.8457 175.214 83.3299 149.205 81.2196 147.335Z" fill="#D3766A"/>
<path d="M91.0859 156.389C89.7523 155.367 90.2837 154.652 93.2831 154.627C96.2825 154.601 108.158 157.038 108.658 152.823C109.159 148.607 92.3685 145.409 87.3609 145.833C82.3534 146.257 74.4844 148.694 74.4844 148.694C77.6115 149.972 84.9491 153.804 91.0859 156.389Z" fill="#D3766A"/>
<path d="M67.6484 172.756C76.6416 176.031 87.6377 180.661 98.2609 178.698C99.4391 178.508 100.519 177.927 101.327 177.048C106.104 176.256 107.162 173.762 107.162 173.762C111.388 171.657 112.118 168.959 112.118 168.959C112.118 168.959 117.739 167.968 117.678 164.483C117.647 160.579 109.788 162.736 104.745 161.284C93.1818 157.953 77.6635 149.987 74.4444 148.694L67.6484 172.756Z" fill="#D3766A"/>
<path d="M90.1988 166.307C93.6224 167.222 96.959 168.208 100.485 168.648C104.358 169.159 108.149 168.959 112.043 168.872C112.067 168.872 112.091 168.882 112.108 168.899C112.125 168.917 112.135 168.94 112.135 168.964C112.135 168.989 112.125 169.012 112.108 169.029C112.091 169.047 112.067 169.056 112.043 169.056C105.048 170.324 96.6831 169.21 90.1375 166.461C89.9944 166.394 90.0251 166.261 90.1988 166.307Z" fill="#263238"/>
<path d="M87.1708 172.996C90.5484 173.696 96.4961 174.892 107.17 173.645C107.206 173.645 107.221 173.701 107.17 173.711C100.573 175.392 93.6375 175.204 87.1402 173.17C86.9307 173.093 86.946 172.945 87.1708 172.996Z" fill="#263238"/>
<path d="M85.614 176.619C91.4034 177.595 95.1795 177.477 101.321 177.028C101.357 177.028 101.372 177.084 101.321 177.089C94.3977 178.336 91.7406 177.999 85.5425 176.813C85.3381 176.772 85.3892 176.578 85.614 176.619Z" fill="#263238"/>
<path d="M82.9692 145.802L66.7049 177.769C66.7049 177.769 38.2437 161.228 22.986 135.107C17.9018 126.421 23.0115 114.73 38.4276 120.974C53.8437 127.218 82.9692 145.802 82.9692 145.802Z" fill="#0AB39C"/>
<path d="M76.4068 143.472C73.852 148.147 63.9953 167.646 62.1558 172.005C62.028 172.306 62.1864 172.465 62.3602 172.163C70.4131 158.367 74.2965 148.291 76.5857 143.579C76.647 143.462 76.4733 143.354 76.4068 143.472Z" fill="#263238"/>
<path d="M154.755 32.0795C154.418 35.3121 153.189 38.3876 151.206 40.9625C149.223 43.5375 146.563 45.5106 143.524 46.6618C140.484 47.8129 137.185 48.0967 133.993 47.4815C130.802 46.8663 127.844 45.3763 125.45 43.1779L116.672 44.4655L121.061 36.8775C120.056 34.4082 119.626 31.7422 119.805 29.082C119.985 26.4219 120.768 23.8376 122.096 21.5256C123.424 19.2135 125.261 17.2346 127.468 15.7391C129.676 14.2437 132.195 13.2711 134.834 12.8952C137.474 12.5193 140.165 12.75 142.702 13.5699C145.239 14.3898 147.555 15.7771 149.476 17.6266C151.396 19.4761 152.87 21.739 153.784 24.2434C154.699 26.7477 155.031 29.4277 154.755 32.0795Z" fill="white"/>
<path d="M154.751 32.0796C154.413 35.3147 153.188 38.3935 151.21 40.9757C150.718 41.617 150.187 42.2279 149.621 42.805C149.038 43.366 148.42 43.8899 147.771 44.3737C146.478 45.353 145.054 46.1459 143.54 46.7292C142.026 47.3192 140.437 47.6975 138.819 47.8534C138.009 47.9275 137.194 47.9429 136.382 47.8994C135.567 47.8828 134.755 47.799 133.954 47.649C130.716 47.056 127.708 45.5713 125.268 43.3619L125.477 43.4283L116.709 44.7722L116.07 44.8693L116.392 44.3072L120.761 36.709V37.0054C119.731 34.4915 119.293 31.7747 119.48 29.0645C119.667 26.3544 120.474 23.7234 121.839 21.3747C123.205 19.0351 125.083 17.0349 127.332 15.5241C129.579 14.0351 132.133 13.0749 134.804 12.7156C137.476 12.3562 140.193 12.6072 142.753 13.4495C145.289 14.3094 147.601 15.7253 149.519 17.5935C151.43 19.4552 152.893 21.7261 153.8 24.2353C154.706 26.7445 155.031 29.4265 154.751 32.0796ZM154.751 32.0796C155.027 29.4389 154.694 26.7699 153.778 24.2778C152.862 21.7857 151.387 19.5368 149.466 17.7037C147.545 15.8707 145.23 14.5023 142.698 13.7037C140.165 12.9051 137.484 12.6975 134.859 13.0969C132.263 13.4894 129.79 14.468 127.629 15.9584C125.48 17.4636 123.684 19.4181 122.366 21.6864C121.072 23.9595 120.31 26.4961 120.138 29.1057C119.972 31.7209 120.394 34.3401 121.374 36.7704L121.441 36.9237L121.354 37.0718L116.939 44.6394L116.622 44.1795L125.406 42.948H125.528L125.615 43.0298C127.959 45.2241 130.868 46.7212 134.016 47.3526C134.8 47.5137 135.597 47.6111 136.397 47.6439C138.804 47.8157 141.219 47.4672 143.479 46.6219C144.994 46.0758 146.42 45.3078 147.71 44.343C148.36 43.8715 148.979 43.3596 149.565 42.8101C150.132 42.2401 150.665 41.636 151.159 41.0012C153.16 38.4176 154.403 35.3289 154.751 32.0796Z" fill="#263238"/>
<path d="M135.249 40.2604L127.758 32.6775L130.272 30.1891L134.651 34.6192L143.741 20.363L146.725 22.269L135.249 40.2604Z" fill="#0AB39C"/>
<path d="M207.014 145.204H131.477V203.746H207.014V145.204Z" fill="#0AB39C"/>
<path opacity="0.2" d="M207.014 145.204H131.477V203.746H207.014V145.204Z" fill="black"/>
<path opacity="0.2" d="M131.477 203.751H160.086V145.209H131.477V203.751Z" fill="black"/>
<path d="M133.445 199.74C135.568 195.578 137.668 191.401 139.746 187.211L145.949 174.621L152.081 161.974C154.124 157.754 156.136 153.516 158.115 149.261C156 153.424 153.901 157.6 151.82 161.79L145.612 174.386L139.48 187.032C137.446 191.236 135.435 195.472 133.445 199.74Z" fill="#0AB39C"/>
<path d="M133.445 149.236C135.438 153.487 137.45 157.725 139.48 161.949L145.612 174.595L151.82 187.186C153.894 191.376 155.993 195.552 158.115 199.715C156.126 195.464 154.114 191.228 152.081 187.007L145.949 174.36L139.746 161.765C137.664 157.575 135.564 153.399 133.445 149.236Z" fill="#0AB39C"/>
<path d="M150.069 145.204H141.383V152.348H150.069V145.204Z" fill="#EBEBEB"/>
<path d="M191.139 191.269H190.531V199.853H191.139V191.269Z" fill="#263238"/>
<path d="M192.6 191.269H191.992V199.853H192.6V191.269Z" fill="#263238"/>
<path d="M194.061 191.269H193.453V199.853H194.061V191.269Z" fill="#263238"/>
<path d="M195.522 191.269H194.914V199.853H195.522V191.269Z" fill="#263238"/>
<path d="M196.983 191.269H196.375V199.853H196.983V191.269Z" fill="#263238"/>
<path d="M198.444 191.269H197.836V199.853H198.444V191.269Z" fill="#263238"/>
<path d="M199.905 191.269H199.297V199.853H199.905V191.269Z" fill="#263238"/>
<path d="M201.366 191.269H200.758V199.853H201.366V191.269Z" fill="#263238"/>
<path d="M202.827 191.269H202.219V199.853H202.827V191.269Z" fill="#263238"/>
<path d="M184.559 199.199L186.899 199.848H181.406L183.747 199.194V196.036C182.071 195.816 181.406 194.166 181.406 191.273H186.899C186.899 194.155 186.235 195.816 184.559 196.036V199.199Z" fill="#263238"/>
<path d="M180.129 195.647H178.693V199.848H175.019V195.647H173.578L176.859 191.273L180.129 195.647Z" fill="#263238"/>
<path opacity="0.1" d="M207.014 203.746V199.638L160.086 192.03V203.746H207.014Z" fill="black"/>
<path d="M204.288 124.561H145.93V145.204H204.288V124.561Z" fill="#0AB39C"/>
<path opacity="0.2" d="M204.288 124.561H145.93V145.204H204.288V124.561Z" fill="black"/>
<path opacity="0.2" d="M145.94 145.204H163.773V124.561H145.94V145.204Z" fill="black"/>
<path d="M147.164 143.784C148.482 142.312 149.796 140.84 151.088 139.364L154.956 134.923L158.778 130.462C160.046 128.974 161.299 127.48 162.539 125.981C161.218 127.449 159.909 128.923 158.615 130.401L154.742 134.847L150.925 139.307C149.658 140.789 148.404 142.281 147.164 143.784Z" fill="#0AB39C"/>
<path d="M147.164 125.981C148.404 127.477 149.658 128.97 150.925 130.462L154.742 134.923L158.615 139.364C159.909 140.842 161.218 142.315 162.539 143.784C161.296 142.281 160.042 140.788 158.778 139.302L154.956 134.847L151.088 130.406C149.796 128.919 148.482 127.448 147.164 125.981Z" fill="#0AB39C"/>
<path d="M157.518 124.561H152.102V129.395H157.518V124.561Z" fill="#EBEBEB"/>
<path d="M194.402 137.427H194.023V142.777H194.402V137.427Z" fill="#263238"/>
<path d="M195.308 137.427H194.93V142.777H195.308V137.427Z" fill="#263238"/>
<path d="M196.214 137.427H195.836V142.777H196.214V137.427Z" fill="#263238"/>
<path d="M197.128 137.427H196.75V142.777H197.128V137.427Z" fill="#263238"/>
<path d="M198.034 137.427H197.656V142.777H198.034V137.427Z" fill="#263238"/>
<path d="M198.948 137.427H198.57V142.777H198.948V137.427Z" fill="#263238"/>
<path d="M199.862 137.427H199.484V142.777H199.862V137.427Z" fill="#263238"/>
<path d="M200.769 137.427H200.391V142.777H200.769V137.427Z" fill="#263238"/>
<path d="M201.683 137.427H201.305V142.777H201.683V137.427Z" fill="#263238"/>
<path d="M190.295 142.368L191.757 142.777H188.328L189.79 142.363V140.396C188.768 140.263 188.328 139.231 188.328 137.427H191.757C191.757 139.226 191.343 140.263 190.295 140.396V142.368Z" fill="#263238"/>
<path d="M187.528 140.156H186.634V142.777H184.345V140.156H183.445L185.489 137.427L187.528 140.156Z" fill="#263238"/>
<path opacity="0.1" d="M204.291 145.204V142.644L163.766 137.902V145.204H204.291Z" fill="black"/>
</svg>
