<svg width="34" height="34" viewBox="0 0 34 34" fill="none" xmlns="http://www.w3.org/2000/svg">
<rect width="34" height="34" rx="17" fill="#F3F7FE"/>
<path d="M10.125 12V22C10.125 22.3315 10.2567 22.6495 10.4911 22.8839C10.7255 23.1183 11.0435 23.25 11.375 23.25H23.875C24.0408 23.25 24.1997 23.1842 24.3169 23.0669C24.4342 22.9497 24.5 22.7908 24.5 22.625V13.875C24.5 13.7092 24.4342 13.5503 24.3169 13.4331C24.1997 13.3158 24.0408 13.25 23.875 13.25H11.375C11.0435 13.25 10.7255 13.1183 10.4911 12.8839C10.2567 12.6495 10.125 12.3315 10.125 12ZM10.125 12C10.125 11.6685 10.2567 11.3505 10.4911 11.1161C10.7255 10.8817 11.0435 10.75 11.375 10.75H22" stroke="#4B5563" stroke-width="1.2" stroke-linecap="round" stroke-linejoin="round"/>
<path d="M21.0625 19.1875C21.5803 19.1875 22 18.7678 22 18.25C22 17.7322 21.5803 17.3125 21.0625 17.3125C20.5447 17.3125 20.125 17.7322 20.125 18.25C20.125 18.7678 20.5447 19.1875 21.0625 19.1875Z" fill="#4B5563"/>
</svg>
