<svg width="18" height="16" viewBox="0 0 18 16" fill="none" xmlns="http://www.w3.org/2000/svg">
<path d="M1.4375 2.5V13.5C1.4375 13.8647 1.58237 14.2144 1.84023 14.4723C2.09809 14.7301 2.44783 14.875 2.8125 14.875H16.5625C16.7448 14.875 16.9197 14.8026 17.0486 14.6736C17.1776 14.5447 17.25 14.3698 17.25 14.1875V4.5625C17.25 4.38016 17.1776 4.2053 17.0486 4.07636C16.9197 3.94743 16.7448 3.875 16.5625 3.875H2.8125C2.44783 3.875 2.09809 3.73013 1.84023 3.47227C1.58237 3.21441 1.4375 2.86467 1.4375 2.5ZM1.4375 2.5C1.4375 2.13533 1.58237 1.78559 1.84023 1.52773C2.09809 1.26987 2.44783 1.125 2.8125 1.125H14.5" stroke="#81888E" stroke-width="1.4" stroke-linecap="round" stroke-linejoin="round"/>
<path d="M13.4688 10.4062C14.0383 10.4062 14.5 9.94454 14.5 9.375C14.5 8.80546 14.0383 8.34375 13.4688 8.34375C12.8992 8.34375 12.4375 8.80546 12.4375 9.375C12.4375 9.94454 12.8992 10.4062 13.4688 10.4062Z" fill="#81888E"/>
</svg>
