<svg width="18" height="18" viewBox="0 0 18 18" fill="none" xmlns="http://www.w3.org/2000/svg">
<path d="M5.0625 2.25H14.625C14.7742 2.25 14.9173 2.30926 15.0227 2.41475C15.1282 2.52024 15.1875 2.66332 15.1875 2.8125V10.125C15.1875 10.2742 15.1282 10.4173 15.0227 10.5227C14.9173 10.6282 14.7742 10.6875 14.625 10.6875H3.375C3.22582 10.6875 3.08274 10.6282 2.97725 10.5227C2.87176 10.4173 2.8125 10.2742 2.8125 10.125V4.5C2.8125 3.90326 3.04955 3.33097 3.47151 2.90901C3.89347 2.48705 4.46576 2.25 5.0625 2.25V2.25Z" stroke="#6B7280" stroke-width="1.4" stroke-linecap="round" stroke-linejoin="round"/>
<path d="M7.875 10.6875L7.3125 14.625C7.3125 15.0726 7.49029 15.5018 7.80676 15.8182C8.12322 16.1347 8.55245 16.3125 9 16.3125C9.44755 16.3125 9.87678 16.1347 10.1932 15.8182C10.5097 15.5018 10.6875 15.0726 10.6875 14.625L10.125 10.6875" stroke="#6B7280" stroke-width="1.4" stroke-linecap="round" stroke-linejoin="round"/>
<path d="M2.8125 7.875H15.1875" stroke="#6B7280" stroke-width="1.4" stroke-linecap="round" stroke-linejoin="round"/>
<path d="M11.8125 2.25V5.0625" stroke="#6B7280" stroke-width="1.4" stroke-linecap="round" stroke-linejoin="round"/>
</svg>
