<svg width="22" height="22" viewBox="0 0 22 22" fill="none" xmlns="http://www.w3.org/2000/svg">
<path d="M18.8677 10.4003L4.35154 2.27125C4.22942 2.20286 4.08933 2.17337 3.95001 2.18673C3.81068 2.20009 3.67875 2.25566 3.57185 2.346C3.46495 2.43635 3.38817 2.55717 3.35177 2.69232C3.31538 2.82747 3.3211 2.97051 3.36818 3.10232L6.10624 10.7689C6.15964 10.9184 6.15964 11.0818 6.10624 11.2314L3.36818 18.8979C3.3211 19.0297 3.31538 19.1728 3.35177 19.3079C3.38817 19.4431 3.46495 19.5639 3.57185 19.6542C3.67875 19.7446 3.81068 19.8002 3.95001 19.8135C4.08933 19.8269 4.22942 19.7974 4.35154 19.729L18.8677 11.6C18.9743 11.5403 19.0631 11.4532 19.1249 11.3478C19.1867 11.2423 19.2192 11.1223 19.2192 11.0001C19.2192 10.8779 19.1867 10.7579 19.1249 10.6525C19.0631 10.547 18.9743 10.46 18.8677 10.4003V10.4003Z" stroke="white" stroke-width="1.4" stroke-linecap="round" stroke-linejoin="round"/>
<path d="M6.1875 11H11.6875" stroke="white" stroke-width="1.4" stroke-linecap="round" stroke-linejoin="round"/>
</svg>
