<svg width="20" height="19" viewBox="0 0 20 21" fill="none" xmlns="http://www.w3.org/2000/svg">
<path d="M13.75 4.875H17.5" stroke="currentColor" stroke-width="1.4" stroke-linecap="round" stroke-linejoin="round"/>
<path d="M15.625 3V6.75" stroke="currentColor" stroke-width="1.4" stroke-linecap="round" stroke-linejoin="round"/>
<path d="M2.42188 17.3743C3.19028 16.0442 4.29517 14.9398 5.62553 14.172C6.9559 13.4042 8.4649 13 10.0009 13C11.537 13 13.046 13.4043 14.3763 14.1721C15.7067 14.94 16.8116 16.0444 17.5799 17.3744" stroke="currentColor" stroke-width="1.4" stroke-linecap="round" stroke-linejoin="round"/>
<path d="M14.6915 9.73303C14.3573 10.6354 13.7696 11.4221 12.9991 11.9987C12.2286 12.5752 11.3081 12.917 10.348 12.983C9.38797 13.049 8.42929 12.8364 7.58713 12.3708C6.74498 11.9052 6.05517 11.2063 5.60058 10.3581C5.14599 9.50997 4.94595 8.54859 5.02449 7.5895C5.10303 6.6304 5.45682 5.71438 6.04334 4.95148C6.62987 4.18857 7.42419 3.61124 8.33088 3.28883C9.23757 2.96642 10.2181 2.91265 11.1546 3.13397" stroke="currentColor" stroke-width="1.4" stroke-linecap="round" stroke-linejoin="round"/>
</svg>
