<svg width="20" height="22" viewBox="0 0 20 22" fill="none" xmlns="http://www.w3.org/2000/svg">
<path d="M9.79883 15.3999C10.9034 15.3999 11.7988 14.5045 11.7988 13.3999C11.7988 12.2953 10.9034 11.3999 9.79883 11.3999C8.69426 11.3999 7.79883 12.2953 7.79883 13.3999C7.79883 14.5045 8.69426 15.3999 9.79883 15.3999Z" stroke="#1491ED" stroke-width="2" stroke-linecap="round" stroke-linejoin="round"/>
<path d="M9.79883 15.3999V17.7999" stroke="#1491ED" stroke-width="2" stroke-linecap="round" stroke-linejoin="round"/>
<path d="M17.799 8.2002H1.79902C1.3572 8.2002 0.999023 8.55837 0.999023 9.0002V20.2002C0.999023 20.642 1.3572 21.0002 1.79902 21.0002H17.799C18.2409 21.0002 18.599 20.642 18.599 20.2002V9.0002C18.599 8.55837 18.2409 8.2002 17.799 8.2002Z" stroke="#1491ED" stroke-width="2" stroke-linecap="round" stroke-linejoin="round"/>
<path d="M6.19922 8.2V4.6C6.19922 3.64522 6.5785 2.72955 7.25363 2.05442C7.92877 1.37928 8.84444 1 9.79922 1C10.754 1 11.6697 1.37928 12.3448 2.05442C13.0199 2.72955 13.3992 3.64522 13.3992 4.6V8.2" stroke="#1491ED" stroke-width="2" stroke-linecap="round" stroke-linejoin="round"/>
</svg>
