<svg width="30" height="30" viewBox="0 0 30 30" fill="none" xmlns="http://www.w3.org/2000/svg">
<circle opacity="0.05" cx="15" cy="15" r="15" fill="#F2133B"/>
<path d="M11.9949 13.2325H9V10.2324" stroke="#F2133B" stroke-width="1.6" stroke-linecap="round" stroke-linejoin="round"/>
<path d="M18.8825 11.1109C18.3727 10.6002 17.7674 10.1951 17.1013 9.91867C16.4351 9.64226 15.7211 9.5 15.0001 9.5C14.2791 9.5 13.5651 9.64226 12.899 9.91867C12.2328 10.1951 11.6275 10.6002 11.1177 11.1109L9 13.2323" stroke="#F2133B" stroke-width="1.6" stroke-linecap="round" stroke-linejoin="round"/>
<path d="M18.0039 16.7676H20.9988V19.7676" stroke="#F2133B" stroke-width="1.6" stroke-linecap="round" stroke-linejoin="round"/>
<path d="M11.1172 18.8889C11.627 19.3997 12.2323 19.8048 12.8985 20.0812C13.5646 20.3576 14.2786 20.4999 14.9996 20.4999C15.7206 20.4999 16.4346 20.3576 17.1008 20.0812C17.7669 19.8048 18.3722 19.3997 18.882 18.8889L20.9997 16.7676" stroke="#F2133B" stroke-width="1.6" stroke-linecap="round" stroke-linejoin="round"/>
</svg>
