<svg  viewBox="0 0 22 25" fill="none" xmlns="http://www.w3.org/2000/svg">
<g filter="url(#filter0_d)">
<path d="M10 10.5V12C8.80653 12 7.66193 12.4741 6.81802 13.318C5.97411 14.1619 5.5 15.3065 5.5 16.5H4C4 14.9087 4.63214 13.3826 5.75736 12.2574C6.88258 11.1321 8.4087 10.5 10 10.5ZM10 9.75C7.51375 9.75 5.5 7.73625 5.5 5.25C5.5 2.76375 7.51375 0.75 10 0.75C12.4862 0.75 14.5 2.76375 14.5 5.25C14.5 7.73625 12.4862 9.75 10 9.75ZM10 8.25C11.6575 8.25 13 6.9075 13 5.25C13 3.5925 11.6575 2.25 10 2.25C8.3425 2.25 7 3.5925 7 5.25C7 6.9075 8.3425 8.25 10 8.25ZM11.9462 14.109C11.8512 13.7088 11.8512 13.2919 11.9462 12.8917L11.2022 12.462L11.9522 11.163L12.6962 11.5927C12.9949 11.3099 13.3558 11.1013 13.75 10.9838V10.125H15.25V10.9838C15.649 11.1023 16.009 11.3138 16.3037 11.5927L17.0477 11.163L17.7977 12.462L17.0537 12.8917C17.1487 13.2917 17.1487 13.7083 17.0537 14.1083L17.7977 14.538L17.0477 15.837L16.3037 15.4072C16.0051 15.6901 15.6442 15.8987 15.25 16.0162V16.875H13.75V16.0162C13.3558 15.8987 12.9949 15.6901 12.6962 15.4072L11.9522 15.837L11.2022 14.538L11.9462 14.109ZM14.5 14.625C14.7984 14.625 15.0845 14.5065 15.2955 14.2955C15.5065 14.0845 15.625 13.7984 15.625 13.5C15.625 13.2016 15.5065 12.9155 15.2955 12.7045C15.0845 12.4935 14.7984 12.375 14.5 12.375C14.2016 12.375 13.9155 12.4935 13.7045 12.7045C13.4935 12.9155 13.375 13.2016 13.375 13.5C13.375 13.7984 13.4935 14.0845 13.7045 14.2955C13.9155 14.5065 14.2016 14.625 14.5 14.625Z" fill="currentColor"/>
</g>
<defs>
<filter id="filter0_d" x="-3" y="0" width="26" height="26" filterUnits="userSpaceOnUse" color-interpolation-filters="sRGB">
<feFlood flood-opacity="0" result="BackgroundImageFix"/>
<feColorMatrix in="SourceAlpha" type="matrix" values="0 0 0 0 0 0 0 0 0 0 0 0 0 0 0 0 0 0 127 0" result="hardAlpha"/>
<feOffset dy="4"/>
<feGaussianBlur stdDeviation="2"/>
<feComposite in2="hardAlpha" operator="out"/>
<feColorMatrix type="matrix" values="0 0 0 0 0 0 0 0 0 0 0 0 0 0 0 0 0 0 0.25 0"/>
<feBlend mode="normal" in2="BackgroundImageFix" result="effect1_dropShadow"/>
<feBlend mode="normal" in="SourceGraphic" in2="effect1_dropShadow" result="shape"/>
</filter>
</defs>
</svg>
