<svg width="20" height="20" viewBox="0 0 20 20" fill="none" xmlns="http://www.w3.org/2000/svg">
<path d="M13.75 8.74972V6.24972C13.7522 6.16758 13.7366 6.08594 13.7042 6.01042C13.6719 5.93489 13.6235 5.86728 13.5625 5.81222L9.1875 1.43722C9.13248 1.37619 9.06486 1.32782 8.98933 1.29545C8.9138 1.26308 8.83215 1.24748 8.75 1.24972H2.5C2.16878 1.25071 1.85142 1.38273 1.61721 1.61693C1.383 1.85114 1.25099 2.16851 1.25 2.49972V17.4997C1.25 17.8312 1.3817 18.1492 1.61612 18.3836C1.85054 18.618 2.16848 18.7497 2.5 18.7497H12.5V17.4997H2.5V2.49972H7.5V6.24972C7.50099 6.58094 7.633 6.89831 7.86721 7.13251C8.10142 7.36672 8.41878 7.49874 8.75 7.49972H12.5V8.74972H13.75ZM8.75 6.24972V2.74972L12.25 6.24972H8.75Z" fill="#354049"/>
<path d="M8.51062 11.7089C8.51062 12.0123 8.4375 12.2966 8.29125 12.5621C8.15042 12.8275 7.92563 13.0414 7.61688 13.2039C7.31354 13.3664 6.92896 13.4477 6.46312 13.4477H5.5125V15.6252H4.375V9.95393H6.46312C6.90188 9.95393 7.27562 10.0298 7.58438 10.1814C7.89313 10.3331 8.12333 10.5416 8.275 10.8071C8.43208 11.0725 8.51062 11.3731 8.51062 11.7089ZM6.41438 12.5296C6.72854 12.5296 6.96146 12.4591 7.11313 12.3183C7.26479 12.1721 7.34062 11.9689 7.34062 11.7089C7.34062 11.1564 7.03188 10.8802 6.41438 10.8802H5.5125V12.5296H6.41438Z" fill="#354049"/>
<path d="M10.4557 14.7233H12.3245V15.6252H9.31824V9.95393H10.4557V14.7233Z" fill="#354049"/>
<path d="M14.185 10.8721V12.2939H16.0944V13.1958H14.185V14.6989H16.3381V15.6252H13.0475V9.9458H16.3381V10.8721H14.185Z" fill="#354049"/>
</svg>
