<svg width="21" height="21" viewBox="0 0 21 21" fill="none" xmlns="http://www.w3.org/2000/svg">
<path d="M9.54154 1.22234L2.61029 2.60858L1.22404 9.53983C1.20185 9.65081 1.20739 9.76556 1.24019 9.87389C1.27299 9.98221 1.33203 10.0808 1.41206 10.1608L10.3885 19.1372C10.4523 19.201 10.5281 19.2517 10.6115 19.2862C10.6949 19.3208 10.7843 19.3386 10.8746 19.3386C10.9649 19.3386 11.0543 19.3208 11.1377 19.2862C11.2211 19.2517 11.2969 19.201 11.3607 19.1372L19.1389 11.359C19.2028 11.2952 19.2534 11.2194 19.2879 11.136C19.3225 11.0526 19.3403 10.9632 19.3403 10.8729C19.3403 10.7826 19.3225 10.6932 19.2879 10.6098C19.2534 10.5264 19.2028 10.4506 19.1389 10.3868L10.1625 1.41035C10.0825 1.33032 9.98392 1.27128 9.87559 1.23848C9.76727 1.20569 9.65252 1.20014 9.54154 1.22234V1.22234Z" stroke="#11D1B7" stroke-width="1.4" stroke-linecap="round" stroke-linejoin="round"/>
<path d="M6.21851 7.24902C6.78805 7.24902 7.24976 6.78732 7.24976 6.21777C7.24976 5.64823 6.78805 5.18652 6.21851 5.18652C5.64896 5.18652 5.18726 5.64823 5.18726 6.21777C5.18726 6.78732 5.64896 7.24902 6.21851 7.24902Z" fill="#11D1B7"/>
</svg>
