<svg width="17" height="15" viewBox="0 0 21 18" fill="none" xmlns="http://www.w3.org/2000/svg">
<path d="M13.752 0C14.0475 0 14.3401 0.058198 14.613 0.171271C14.886 0.284344 15.1341 0.450078 15.343 0.65901C15.5519 0.867941 15.7177 1.11598 15.8307 1.38896C15.9438 1.66194 16.002 1.95453 16.002 2.25V3.003H16.752C17.614 3.00353 18.4405 3.34605 19.0502 3.95537C19.6599 4.56469 20.0029 5.39103 20.004 6.253L20.007 12.25C20.0071 12.5453 19.9491 12.8378 19.8362 13.1107C19.7233 13.3836 19.5577 13.6316 19.349 13.8406C19.1402 14.0495 18.8924 14.2153 18.6196 14.3284C18.3468 14.4416 18.0543 14.4999 17.759 14.5H16V15.75C16 16.3467 15.7629 16.919 15.341 17.341C14.919 17.7629 14.3467 18 13.75 18H6.25C5.65326 18 5.08097 17.7629 4.65901 17.341C4.23705 16.919 4 16.3467 4 15.75V14.5H2.25C1.65326 14.5 1.08097 14.2629 0.65901 13.841C0.237053 13.419 0 12.8467 0 12.25V6.254C0 5.39205 0.34241 4.5654 0.951903 3.9559C1.5614 3.34641 2.38805 3.004 3.25 3.004L3.999 3.003L4 2.25C4 1.65326 4.23705 1.08097 4.65901 0.65901C5.08097 0.237053 5.65326 0 6.25 0H13.752ZM13.75 10.5H6.25C6.05109 10.5 5.86032 10.579 5.71967 10.7197C5.57902 10.8603 5.5 11.0511 5.5 11.25V15.75C5.5 16.164 5.836 16.5 6.25 16.5H13.75C13.9489 16.5 14.1397 16.421 14.2803 16.2803C14.421 16.1397 14.5 15.9489 14.5 15.75V11.25C14.5 11.0511 14.421 10.8603 14.2803 10.7197C14.1397 10.579 13.9489 10.5 13.75 10.5ZM16.752 4.504H3.25C2.78587 4.504 2.34075 4.68837 2.01256 5.01656C1.68437 5.34475 1.5 5.78987 1.5 6.254V12.25C1.5 12.664 1.836 13 2.25 13H4V11.25C4 10.6533 4.23705 10.081 4.65901 9.65901C5.08097 9.23705 5.65326 9 6.25 9H13.75C14.3467 9 14.919 9.23705 15.341 9.65901C15.7629 10.081 16 10.6533 16 11.25V13H17.783C17.9773 12.9935 18.1614 12.9117 18.2965 12.772C18.4316 12.6322 18.5071 12.4454 18.507 12.251L18.504 6.254C18.5029 5.78985 18.318 5.34504 17.9896 5.01702C17.6612 4.68901 17.2162 4.50453 16.752 4.504ZM13.752 1.5H6.25C6.05109 1.5 5.86032 1.57902 5.71967 1.71967C5.57902 1.86032 5.5 2.05109 5.5 2.25L5.499 3.003H14.502V2.25C14.502 2.05109 14.423 1.86032 14.2823 1.71967C14.1417 1.57902 13.9509 1.5 13.752 1.5Z" fill="currentColor"/>
</svg>
