<svg width="18" height="20" viewBox="0 0 18 20" fill="none" xmlns="http://www.w3.org/2000/svg">
<path d="M17.25 14.2329V5.75586C17.25 5.63387 17.2175 5.51408 17.156 5.40878C17.0944 5.30348 17.0059 5.21646 16.8996 5.15665L9.33705 0.902745C9.23415 0.84486 9.11807 0.814453 9 0.814453C8.88193 0.814453 8.76585 0.84486 8.66295 0.902745L1.10045 5.15665C0.994123 5.21646 0.905629 5.30348 0.844044 5.40878C0.782458 5.51408 0.75 5.63387 0.75 5.75586V14.2329C0.75 14.3549 0.782458 14.4747 0.844044 14.58C0.905629 14.6853 0.994123 14.7723 1.10045 14.8322L8.66295 19.0861C8.76585 19.1439 8.88193 19.1743 9 19.1743C9.11807 19.1743 9.23415 19.1439 9.33705 19.0861L16.8996 14.8322C17.0059 14.7723 17.0944 14.6853 17.156 14.58C17.2175 14.4747 17.25 14.3549 17.25 14.2329Z" stroke="currentColor" stroke-width="1.4" stroke-linecap="round" stroke-linejoin="round"/>
<path d="M13.2128 7.62985L4.875 3.03125" stroke="currentColor" stroke-width="1.4" stroke-linecap="round" stroke-linejoin="round"/>
<path d="M17.1537 5.40906L9.08009 9.9958L0.84375 5.4082" stroke="currentColor" stroke-width="1.4" stroke-linecap="round" stroke-linejoin="round"/>
<path d="M9.08068 9.99219L9 19.1721" stroke="currentColor" stroke-width="1.4" stroke-linecap="round" stroke-linejoin="round"/>
</svg>
