<svg width="16" height="16" viewBox="0 0 16 16" fill="none" xmlns="http://www.w3.org/2000/svg">
<path d="M8 0.6875C6.55373 0.6875 5.13993 1.11637 3.9374 1.91988C2.73486 2.72339 1.7976 3.86544 1.24413 5.20163C0.690668 6.53781 0.545857 8.00811 0.828011 9.4266C1.11017 10.8451 1.80661 12.148 2.82928 13.1707C3.85196 14.1934 5.15492 14.8898 6.57341 15.172C7.99189 15.4541 9.46219 15.3093 10.7984 14.7559C12.1346 14.2024 13.2766 13.2651 14.0801 12.0626C14.8836 10.8601 15.3125 9.44628 15.3125 8C15.3103 6.06129 14.5391 4.20263 13.1682 2.83176C11.7974 1.46088 9.93871 0.689741 8 0.6875ZM10.7839 8.82397L8.39839 11.2095C8.29264 11.315 8.14937 11.3742 8 11.3742C7.85064 11.3742 7.70737 11.315 7.60161 11.2095L5.21607 8.82397C5.11078 8.71846 5.05168 8.57546 5.05176 8.42639C5.05184 8.27733 5.11109 8.13439 5.21649 8.02899C5.3219 7.92358 5.46483 7.86433 5.6139 7.86425C5.76296 7.86417 5.90596 7.92327 6.01148 8.02856L7.4375 9.45459V5.1875C7.4375 5.03832 7.49677 4.89524 7.60226 4.78975C7.70775 4.68426 7.85082 4.625 8 4.625C8.14919 4.625 8.29226 4.68426 8.39775 4.78975C8.50324 4.89524 8.5625 5.03832 8.5625 5.1875V9.45459L9.98853 8.02856C10.094 7.92327 10.237 7.86417 10.3861 7.86425C10.5352 7.86433 10.6781 7.92358 10.7835 8.02899C10.8889 8.13439 10.9482 8.27733 10.9482 8.42639C10.9483 8.57546 10.8892 8.71846 10.7839 8.82397Z" fill="#9CA3AF"/>
</svg>
