<svg width="34" height="34" viewBox="0 0 34 34" fill="none" xmlns="http://www.w3.org/2000/svg">
<rect width="34" height="34" rx="17" fill="#0F8BFF" fill-opacity="0.06"/>
<path d="M23.875 13.25H10.125C9.77982 13.25 9.5 13.5298 9.5 13.875V16.375C9.5 16.7202 9.77982 17 10.125 17H23.875C24.2202 17 24.5 16.7202 24.5 16.375V13.875C24.5 13.5298 24.2202 13.25 23.875 13.25Z" stroke="#414141" stroke-width="1.2" stroke-linecap="round" stroke-linejoin="round"/>
<path d="M23.25 17V22.625C23.25 22.7908 23.1842 22.9497 23.0669 23.0669C22.9497 23.1842 22.7908 23.25 22.625 23.25H11.375C11.2092 23.25 11.0503 23.1842 10.9331 23.0669C10.8158 22.9497 10.75 22.7908 10.75 22.625V17" stroke="#414141" stroke-width="1.2" stroke-linecap="round" stroke-linejoin="round"/>
<path d="M17 13.25V23.25" stroke="#414141" stroke-width="1.2" stroke-linecap="round" stroke-linejoin="round"/>
<path d="M20.5355 12.3661C19.6517 13.25 17 13.25 17 13.25C17 13.25 17 10.5983 17.8839 9.71444C18.2356 9.36314 18.7124 9.16587 19.2095 9.16602C19.7066 9.16616 20.1833 9.36369 20.5348 9.71519C20.8863 10.0667 21.0838 10.5434 21.084 11.0405C21.0841 11.5376 20.8868 12.0144 20.5355 12.3661V12.3661Z" stroke="#414141" stroke-width="1.2" stroke-linecap="round" stroke-linejoin="round"/>
<path d="M13.4625 12.3661C14.3464 13.25 16.998 13.25 16.998 13.25C16.998 13.25 16.998 10.5983 16.1141 9.71444C15.7624 9.36314 15.2856 9.16587 14.7885 9.16602C14.2914 9.16616 13.8147 9.36369 13.4632 9.71519C13.1117 10.0667 12.9142 10.5434 12.9141 11.0405C12.9139 11.5376 13.1112 12.0144 13.4625 12.3661V12.3661Z" stroke="#414141" stroke-width="1.2" stroke-linecap="round" stroke-linejoin="round"/>
</svg>
