<svg width="25" height="28" viewBox="0 0 25 28" fill="none" xmlns="http://www.w3.org/2000/svg">
<path d="M11.2222 17.0952V19.5714C9.1889 19.5714 7.23885 20.3541 5.80107 21.7472C4.36329 23.1403 3.55556 25.0298 3.55556 27H1C1 24.3731 2.07698 21.8538 3.99402 19.9963C5.91106 18.1388 8.51112 17.0952 11.2222 17.0952ZM11.2222 15.8571C6.98639 15.8571 3.55556 12.5329 3.55556 8.42857C3.55556 4.32429 6.98639 1 11.2222 1C15.4581 1 18.8889 4.32429 18.8889 8.42857C18.8889 12.5329 15.4581 15.8571 11.2222 15.8571ZM11.2222 13.381C14.0461 13.381 16.3333 11.1648 16.3333 8.42857C16.3333 5.69238 14.0461 3.47619 11.2222 3.47619C8.39833 3.47619 6.11111 5.69238 6.11111 8.42857C6.11111 11.1648 8.39833 13.381 11.2222 13.381ZM22.7222 20.8095H24V27H13.7778V20.8095H15.0556V19.5714C15.0556 18.5863 15.4594 17.6416 16.1783 16.945C16.8972 16.2485 17.8722 15.8571 18.8889 15.8571C19.9056 15.8571 20.8806 16.2485 21.5995 16.945C22.3184 17.6416 22.7222 18.5863 22.7222 19.5714V20.8095ZM20.1667 20.8095V19.5714C20.1667 19.2431 20.032 18.9282 19.7924 18.696C19.5528 18.4638 19.2278 18.3333 18.8889 18.3333C18.55 18.3333 18.225 18.4638 17.9854 18.696C17.7457 18.9282 17.6111 19.2431 17.6111 19.5714V20.8095H20.1667Z" fill="#4A4A4A" stroke="white" stroke-width="0.1"/>
</svg>
