<svg width="22" height="22" viewBox="0 0 22 22" fill="none" xmlns="http://www.w3.org/2000/svg">
<path d="M11 19.25C15.5563 19.25 19.25 15.5563 19.25 11C19.25 6.44365 15.5563 2.75 11 2.75C6.44365 2.75 2.75 6.44365 2.75 11C2.75 15.5563 6.44365 19.25 11 19.25Z" stroke="#81888E" stroke-width="1.4" stroke-linecap="round" stroke-linejoin="round"/>
<path d="M11 16.5C11.5695 16.5 12.0312 16.0383 12.0312 15.4688C12.0312 14.8992 11.5695 14.4375 11 14.4375C10.4305 14.4375 9.96875 14.8992 9.96875 15.4688C9.96875 16.0383 10.4305 16.5 11 16.5Z" fill="#81888E"/>
<path d="M11 12.375V11.6875C11.4759 11.6875 11.9411 11.5464 12.3368 11.282C12.7325 11.0176 13.041 10.6418 13.2231 10.2021C13.4052 9.7624 13.4529 9.27858 13.36 8.81181C13.2672 8.34505 13.038 7.9163 12.7015 7.57978C12.365 7.24326 11.9362 7.01408 11.4694 6.92124C11.0027 6.82839 10.5189 6.87604 10.0792 7.05817C9.63948 7.24029 9.26368 7.5487 8.99928 7.94441C8.73487 8.34012 8.59375 8.80534 8.59375 9.28125" stroke="#81888E" stroke-width="1.4" stroke-linecap="round" stroke-linejoin="round"/>
</svg>
