<svg width="320" height="248" viewBox="0 0 320 248" fill="none" xmlns="http://www.w3.org/2000/svg">
<path d="M319.648 218.367H0V218.527H319.648V218.367Z" fill="#EBEBEB"/>
<path d="M287.619 228.656H266.445V228.816H287.619V228.656Z" fill="#EBEBEB"/>
<path d="M211.747 230.391H206.191V230.55H211.747V230.391Z" fill="#EBEBEB"/>
<path d="M265.807 222.719H253.539V222.879H265.807V222.719Z" fill="#EBEBEB"/>
<path d="M61.1483 223.797H33.5371V223.957H61.1483V223.797Z" fill="#EBEBEB"/>
<path d="M70.8925 223.797H66.8457V223.957H70.8925V223.797Z" fill="#EBEBEB"/>
<path d="M143.938 226.492H84.0488V226.652H143.938V226.492Z" fill="#EBEBEB"/>
<path d="M151.513 189.855H28.0717C27.1047 189.854 26.1778 189.468 25.4946 188.784C24.8114 188.1 24.4277 187.172 24.4277 186.205V12.6809C24.4362 11.7194 24.8236 10.8001 25.5059 10.1226C26.1882 9.44509 27.1102 9.06415 28.0717 9.0625H151.513C152.482 9.0625 153.41 9.44709 154.095 10.1317C154.779 10.8163 155.164 11.7447 155.164 12.7129V186.205C155.164 187.173 154.779 188.102 154.095 188.786C153.41 189.471 152.482 189.855 151.513 189.855ZM28.0717 9.19036C27.1471 9.19205 26.2609 9.56055 25.6077 10.215C24.9544 10.8694 24.5876 11.7563 24.5876 12.6809V186.205C24.5876 187.13 24.9544 188.017 25.6077 188.671C26.2609 189.325 27.1471 189.694 28.0717 189.696H151.513C152.439 189.694 153.326 189.326 153.98 188.671C154.634 188.017 155.002 187.13 155.004 186.205V12.6809C155.002 11.7557 154.634 10.8688 153.98 10.2146C153.326 9.56035 152.439 9.19205 151.513 9.19036H28.0717Z" fill="#EBEBEB"/>
<path d="M289.8 189.855H166.352C165.384 189.854 164.456 189.469 163.772 188.784C163.088 188.1 162.703 187.173 162.701 186.205V12.6809C162.711 11.7188 163.1 10.7995 163.783 10.1222C164.467 9.44487 165.389 9.06413 166.352 9.0625H289.8C290.76 9.06583 291.681 9.44752 292.361 10.1248C293.042 10.8022 293.429 11.7205 293.437 12.6809V186.205C293.437 187.171 293.054 188.098 292.373 188.782C291.691 189.466 290.766 189.852 289.8 189.855ZM166.352 9.19036C165.426 9.19205 164.539 9.56035 163.885 10.2146C163.231 10.8688 162.863 11.7557 162.861 12.6809V186.205C162.863 187.13 163.231 188.017 163.885 188.671C164.539 189.326 165.426 189.694 166.352 189.696H289.8C290.725 189.694 291.612 189.326 292.266 188.671C292.92 188.017 293.289 187.13 293.29 186.205V12.6809C293.289 11.7557 292.92 10.8688 292.266 10.2146C291.612 9.56035 290.725 9.19205 289.8 9.19036H166.352Z" fill="#EBEBEB"/>
<path d="M264.547 118.717V39.7891H211.779V118.717H264.547Z" fill="#E6E6E6"/>
<path d="M262.943 118.709V39.7812H210.176V118.709H262.943Z" fill="#F5F5F5"/>
<path d="M256.159 46.5625H216.957V111.931H256.159V46.5625Z" fill="white"/>
<path d="M217.854 111.931V46.5625H216.965V111.931H217.854Z" fill="#E6E6E6"/>
<path d="M137.339 218.367H159.715V146.197H137.339V218.367Z" fill="#E6E6E6"/>
<path d="M141.585 218.367H137.334V208.125H146.041L141.585 218.367Z" fill="#F0F0F0"/>
<path d="M256.908 218.352H279.283V146.181H256.908V218.352Z" fill="#E6E6E6"/>
<path d="M137.34 216.867H260.615V146.199H137.34V216.867Z" fill="#F0F0F0"/>
<path d="M140.633 150.505V166.75H215.52V150.505H140.633Z" fill="#E6E6E6"/>
<path d="M218.377 150.498V166.742H257.323V150.498H218.377Z" fill="#E6E6E6"/>
<path d="M233.982 152.462H241.686C244.78 152.528 247.835 151.765 250.533 150.25H225.141C227.837 151.763 230.89 152.527 233.982 152.462Z" fill="#F0F0F0"/>
<path d="M155.855 152.462H199.5C202.594 152.528 205.649 151.765 208.348 150.25H147.039C149.729 151.758 152.772 152.522 155.855 152.462Z" fill="#F0F0F0"/>
<path d="M140.639 171.396V187.641H215.526V171.396H140.639Z" fill="#E6E6E6"/>
<path d="M218.377 171.396V187.641H257.323V171.396H218.377Z" fill="#E6E6E6"/>
<path d="M233.982 173.362H241.686C244.779 173.427 247.833 172.666 250.533 171.156H225.141C227.839 172.665 230.891 173.426 233.982 173.362Z" fill="#F0F0F0"/>
<path d="M155.855 173.36H199.5C202.594 173.427 205.649 172.663 208.348 171.148H147.039C149.729 172.657 152.772 173.42 155.855 173.36Z" fill="#F0F0F0"/>
<path d="M140.633 192.295V208.539H215.52V192.295H140.633Z" fill="#E6E6E6"/>
<path d="M218.377 192.295V208.539H257.323V192.295H218.377Z" fill="#E6E6E6"/>
<path d="M233.982 194.251H241.686C244.78 194.317 247.835 193.554 250.533 192.039H225.141C227.838 193.552 230.89 194.316 233.982 194.251Z" fill="#F0F0F0"/>
<path d="M155.861 194.251H199.5C202.596 194.317 205.653 193.553 208.354 192.039H147.039C149.73 193.549 152.776 194.313 155.861 194.251Z" fill="#F0F0F0"/>
<path d="M256.364 218.367H260.609V208.125H251.908L256.364 218.367Z" fill="#F0F0F0"/>
<path d="M268.012 133.352C268.012 133.352 267.372 140.684 242.44 140.684C217.507 140.684 216.906 133.352 216.906 133.352H268.012Z" fill="#FAFAFA"/>
<path d="M268.013 138.836C268.013 138.836 267.374 146.169 242.441 146.169C217.508 146.169 216.939 138.836 216.939 138.836H268.013Z" fill="#EBEBEB"/>
<path d="M93.7148 218.365H119.299L111.717 152.562H93.7148V218.365Z" fill="#E6E6E6"/>
<path d="M50.5371 218.368H107.434L113.437 141.352H56.5401L50.5371 218.368Z" fill="#E0E0E0"/>
<path d="M46.4395 218.368H105.651L111.654 141.352H52.4488L46.4395 218.368Z" fill="#F5F5F5"/>
<path d="M100.056 212.298L105.113 147.422H58.0412L52.9844 212.298H100.056Z" fill="white"/>
<path d="M184.769 22.2891H39.7832V127.958H184.769V22.2891Z" fill="#EBEBEB"/>
<path d="M179.808 27.875H44.7441V122.363H179.808V27.875Z" fill="#FAFAFA"/>
<path d="M73.806 122.369H59.6328L72.9813 27.875H87.1545L73.806 122.369Z" fill="white"/>
<path d="M108.834 122.369H94.6543L108.003 27.875H122.182L108.834 122.369Z" fill="white"/>
<path d="M153.988 122.369H146.898L160.247 27.875H167.337L153.988 122.369Z" fill="white"/>
<path d="M121.301 122.369H114.211L127.559 27.875H134.649L121.301 122.369Z" fill="white"/>
<path d="M90.0185 27.875H83.3379V122.363H90.0185V27.875Z" fill="#EBEBEB"/>
<path d="M90.0202 122.375H91.5098L91.5098 27.887H90.0202L90.0202 122.375Z" fill="#E0E0E0"/>
<path d="M184.77 127.961H185.838V22.2916H184.77V127.961Z" fill="#E0E0E0"/>
<path d="M159.824 247.239C228.282 247.239 283.777 243.999 283.777 240.002C283.777 236.006 228.282 232.766 159.824 232.766C91.3668 232.766 35.8711 236.006 35.8711 240.002C35.8711 243.999 91.3668 247.239 159.824 247.239Z" fill="#F5F5F5"/>
<path d="M189.604 221.508L197.71 216.828L202.658 226.731L195.888 230.656L189.604 221.508Z" fill="#FFC3BD"/>
<path opacity="0.2" d="M189.609 221.508L197.716 216.828L200.484 222.377L193.126 226.635L189.609 221.508Z" fill="black"/>
<path d="M192.518 189.567C198.272 176.27 207.714 160.799 203.84 146.555L178.038 142.477C178.038 142.477 172.706 174.352 173.761 187.425C174.861 201.017 190.907 225.144 190.907 225.144L200.145 219.723C200.145 219.723 196.13 199.099 192.518 189.567Z" fill="#407BFF"/>
<g opacity="0.4">
<path d="M192.518 189.567C198.272 176.27 207.714 160.799 203.84 146.555L178.038 142.477C178.038 142.477 172.706 174.352 173.761 187.425C174.861 201.017 190.907 225.144 190.907 225.144L200.145 219.723C200.145 219.723 196.13 199.099 192.518 189.567Z" fill="black"/>
</g>
<path d="M201.08 219.615L190.525 225.848L187.162 221.482L199.603 214.891L201.08 219.615Z" fill="#407BFF"/>
<path opacity="0.2" d="M194.404 185.37C197.511 178.638 201.091 171.466 203.118 164.273C197.025 165.296 191.86 170.244 194.404 185.37Z" fill="black"/>
<path d="M202.389 224.383C202.351 224.332 202.302 224.291 202.244 224.264C202.187 224.236 202.124 224.224 202.061 224.227C201.997 224.23 201.936 224.249 201.881 224.282C201.827 224.315 201.782 224.36 201.749 224.415C200.42 226.697 196.59 228.89 195.107 229.67C194.762 229.858 194.504 230.172 194.385 230.546C193.662 232.771 190.805 236.095 190.805 236.095C190.921 236.607 191.095 237.105 191.323 237.578C191.393 237.725 191.497 237.854 191.624 237.956C191.752 238.057 191.901 238.129 192.06 238.165C192.219 238.201 192.384 238.201 192.543 238.165C192.702 238.129 192.851 238.057 192.978 237.955L204.748 228.366C204.848 228.285 204.931 228.184 204.989 228.069C205.048 227.954 205.082 227.828 205.088 227.699C205.094 227.571 205.072 227.442 205.025 227.322C204.977 227.202 204.904 227.094 204.812 227.004C203.946 226.186 203.136 225.31 202.389 224.383Z" fill="#263238"/>
<path d="M204.824 226.023L214.177 226.113L213.327 237.16L205.508 237.096L204.824 226.023Z" fill="#FFC3BD"/>
<path d="M214.166 235.453C214.174 235.394 214.165 235.334 214.143 235.279C214.12 235.224 214.083 235.176 214.036 235.139C213.989 235.102 213.933 235.079 213.874 235.07C213.815 235.061 213.755 235.068 213.7 235.089C211.142 236.022 206.853 235.313 205.235 234.987C204.843 234.915 204.439 234.995 204.104 235.211C202.032 236.489 198.35 237.256 198.35 237.256C198.093 237.701 197.879 238.17 197.711 238.656C197.657 238.818 197.643 238.991 197.669 239.16C197.695 239.328 197.76 239.488 197.86 239.627C197.96 239.765 198.091 239.878 198.243 239.956C198.395 240.034 198.563 240.075 198.734 240.076H213.156C213.279 240.076 213.4 240.051 213.514 240.003C213.627 239.955 213.729 239.885 213.814 239.797C213.899 239.708 213.966 239.604 214.01 239.489C214.054 239.374 214.075 239.252 214.07 239.129C214.015 237.903 214.047 236.675 214.166 235.453Z" fill="#263238"/>
<path opacity="0.2" d="M204.824 226.023L214.184 226.107L213.704 232.295L205.208 232.218L204.824 226.023Z" fill="black"/>
<path d="M220.105 188.805C223.02 174.913 228.269 156.84 224.58 149.68L194.348 145C194.348 145 198.1 173.768 199.091 187.136C200.121 201.053 204.206 229.815 204.206 229.815H214.326C214.326 229.815 221.39 205.375 220.105 188.805Z" fill="#407BFF"/>
<path opacity="0.4" d="M220.105 188.805C223.02 174.913 228.269 156.84 224.58 149.68L194.348 145C194.348 145 198.1 173.768 199.091 187.136C200.121 201.053 204.206 229.815 204.206 229.815H214.326C214.326 229.815 221.39 205.375 220.105 188.805Z" fill="black"/>
<path d="M215.445 230.224H203.266L203.074 225.148L216.493 225.366L215.445 230.224Z" fill="#407BFF"/>
<path d="M202.338 101.121L201.571 101.76L200.855 102.323C200.375 102.687 199.896 103.032 199.41 103.384C198.451 104.081 197.46 104.726 196.469 105.379C194.455 106.671 192.374 107.857 190.236 108.933C188.029 110.06 185.743 111.026 183.396 111.823C180.865 112.715 178.235 113.299 175.564 113.562L175.047 113.613C173.723 113.742 172.399 113.363 171.345 112.551C169.504 111.111 168.039 109.246 167.075 107.117C166.655 106.241 166.313 105.33 166.052 104.394C165.788 103.531 165.574 102.654 165.412 101.766C165.28 100.914 165.178 100.062 165.105 99.2093C165.048 98.3718 165.035 97.5407 165.035 96.7161C165.035 95.8914 165.099 95.0795 165.169 94.2739L165.316 93.0529L165.527 91.7743C165.645 91.065 165.989 90.4127 166.508 89.9155C167.027 89.4182 167.694 89.1027 168.408 89.0163C169.121 88.9299 169.844 89.0772 170.467 89.4361C171.09 89.7951 171.58 90.3463 171.863 91.0071L172.131 91.6464C172.227 91.883 172.342 92.2474 172.457 92.5542L172.79 93.5068C173.007 94.1461 173.25 94.7854 173.487 95.4247C173.929 96.6123 174.439 97.7734 175.015 98.9024C175.48 99.864 176.057 100.767 176.734 101.594C177.091 102.091 177.587 102.471 178.16 102.687L173.941 101.671C175.622 101.261 177.262 100.693 178.838 99.9765C179.688 99.6057 180.544 99.1773 181.395 98.7298C182.245 98.2823 183.121 97.822 183.952 97.3234C185.665 96.3261 187.391 95.2649 189.066 94.1269C189.917 93.5707 190.754 92.989 191.592 92.42L192.832 91.5442L193.976 90.7322L194.238 90.5469C195.64 89.4727 197.412 88.9996 199.163 89.2316C200.914 89.4636 202.501 90.3817 203.575 91.7839C204.649 93.1861 205.122 94.9575 204.89 96.7085C204.658 98.4596 203.74 100.047 202.338 101.121Z" fill="#FFC3BD"/>
<path d="M171.876 91.4908L168.571 93.6453C164.524 94.5339 164.281 89.1318 164.281 89.1318L163.118 86.5747C162.939 86.1108 162.932 85.5987 163.097 85.1301C163.263 84.6615 163.589 84.2671 164.019 84.0175L166.314 82.4959C166.767 82.1534 167.336 82.0011 167.899 82.0715C168.463 82.142 168.977 82.4296 169.331 82.8731L170.7 84.9061C171.095 85.4965 171.341 86.1746 171.416 86.8815L171.876 91.4908Z" fill="#FFC3BD"/>
<path d="M202.121 87.6924C195.792 87.3152 182.782 95.479 182.782 95.479C181.286 100.248 183.894 109.288 187.711 111.525C187.711 111.525 197.396 107.364 201.948 103.317C207.459 98.4389 214.926 88.4595 202.121 87.6924Z" fill="#263238"/>
<path d="M202.709 87.6988C211.396 88.2163 220 89.6892 228.364 92.0908C233.191 93.5484 236.196 97.1604 234.035 107.172C229.649 127.482 230.007 144.072 226.255 151.04C226.255 151.04 182.348 153.751 176.473 143.624C177.662 118.545 189.681 99.4363 195.012 91.5346C195.857 90.2872 197.009 89.2789 198.358 88.6069C199.706 87.935 201.205 87.6222 202.709 87.6988Z" fill="#263238"/>
<path d="M205.214 90.4914C206.346 89.6795 207.285 90.3955 207.989 89.021C208.385 87.9155 208.385 86.7064 207.989 85.6008L220.672 81.0938C219.777 85.3642 219.074 88.7653 220.717 90.7471C220.775 94.0395 213.161 97.0506 206.729 95.8295C201.02 94.7299 203.565 91.6613 205.214 90.4914Z" fill="#FFC3BD"/>
<path opacity="0.2" d="M208.061 85.9916L217.65 85.1094C214.748 88.4209 210.228 89.7826 208.105 88.5424C208.306 87.702 208.291 86.8244 208.061 85.9916Z" fill="black"/>
<path d="M207.133 73.972C206.627 69.0559 211.416 62.8355 215.443 64.9835C219.471 67.1316 207.133 73.972 207.133 73.972Z" fill="#263238"/>
<path d="M224.017 76.7795C221.46 82.3734 219.632 86.126 215.38 87.2768C206.942 89.5718 204.161 84.9369 204.973 78.6718C205.708 73.0396 209.735 64.8247 216.211 64.7352C217.645 64.7155 219.06 65.0598 220.325 65.7359C221.589 66.4121 222.662 67.3978 223.441 68.6011C224.221 69.8044 224.683 71.1858 224.784 72.6161C224.885 74.0464 224.621 75.4789 224.017 76.7795Z" fill="#FFC3BD"/>
<path d="M222.553 81.2561C219.657 80.8405 217.534 75.6111 220.565 72.8749C223.595 70.1387 222.553 67.5176 220.354 66.7377C218.154 65.9577 214.159 66.5203 213.245 64.5641C212.33 62.6078 218.423 61.1886 221.958 63.4389C225.494 65.6892 225.315 64.3275 225.315 64.3275C225.417 64.4508 225.483 64.6005 225.504 64.7594C225.525 64.9183 225.5 65.0799 225.434 65.2256C225.367 65.3712 225.26 65.4951 225.126 65.5828C224.992 65.6705 224.836 65.7184 224.675 65.7212C227.456 67.5688 230.538 72.0183 227.667 73.8403C231.26 75.8796 225.673 80.7127 222.553 81.2561Z" fill="#263238"/>
<path d="M226.754 73.5342C227.236 73.7428 227.777 73.7738 228.28 73.6216C228.784 73.4695 229.217 73.1441 229.503 72.7031C229.503 72.7031 230.11 75.0813 226.754 73.5342Z" fill="#263238"/>
<path d="M212.56 79.4671C212.834 79.3503 213.097 79.209 213.346 79.0452C213.36 79.0315 213.372 79.0151 213.379 78.997C213.387 78.9788 213.391 78.9594 213.391 78.9397C213.391 78.92 213.387 78.9006 213.379 78.8824C213.372 78.8643 213.36 78.8479 213.346 78.8342C213.32 78.8003 213.282 78.7771 213.239 78.7689C213.197 78.7607 213.153 78.768 213.116 78.7895C212.558 79.1616 211.924 79.4037 211.26 79.4978C210.596 79.5918 209.919 79.5355 209.28 79.3329C209.244 79.3185 209.203 79.3191 209.167 79.3347C209.131 79.3503 209.103 79.3795 209.088 79.416C209.074 79.4524 209.075 79.4931 209.09 79.5291C209.106 79.5651 209.135 79.5934 209.172 79.6078C210.279 79.9874 211.488 79.9372 212.56 79.4671Z" fill="#263238"/>
<path opacity="0.2" d="M215.969 75.0589C216.688 74.9086 217.437 75.0487 218.053 75.4489C217.339 75.4548 216.632 75.3224 215.969 75.0589Z" fill="black"/>
<path opacity="0.2" d="M215.91 75.5469C216.242 75.5474 216.569 75.6203 216.869 75.7606C217.17 75.9008 217.436 76.105 217.649 76.3588C217.018 76.2154 216.425 75.9385 215.91 75.5469Z" fill="black"/>
<path d="M223.659 82.8333C223.091 83.3439 222.427 83.7362 221.706 83.9876C220.985 84.2389 220.221 84.3442 219.459 84.2973C217.413 84.1567 217.682 82.5456 218.82 80.973C219.83 79.5473 221.486 77.5208 223.295 78.4158C225.104 79.3108 225.034 81.5611 223.659 82.8333Z" fill="#FFC3BD"/>
<path d="M214.804 74.9127C214.625 75.3793 214.229 75.6606 213.928 75.552C213.628 75.4433 213.519 74.9574 213.698 74.4907C213.877 74.024 214.267 73.7427 214.574 73.8514C214.881 73.9601 214.957 74.414 214.804 74.9127Z" fill="#263238"/>
<path d="M209.378 72.772C209.205 73.2387 208.809 73.52 208.508 73.4113C208.208 73.3027 208.099 72.8168 208.278 72.3501C208.457 71.8834 208.847 71.6021 209.148 71.7108C209.448 71.8195 209.557 72.3054 209.378 72.772Z" fill="#263238"/>
<path d="M211.065 73.5391L209.703 77.6306C209.212 77.7545 208.696 77.7355 208.216 77.5758C207.736 77.4161 207.311 77.1223 206.992 76.7291C208.347 74.6259 211.065 73.5391 211.065 73.5391Z" fill="#ED847E"/>
<path d="M217.267 72.1566C217.314 72.1726 217.366 72.1726 217.414 72.1566C217.49 72.1411 217.557 72.0961 217.6 72.0315C217.643 71.9668 217.659 71.8876 217.644 71.8113C217.565 71.3501 217.378 70.9142 217.098 70.5396C216.818 70.1649 216.453 69.8624 216.033 69.6569C215.997 69.6414 215.959 69.6332 215.92 69.6328C215.881 69.6325 215.843 69.64 215.807 69.6549C215.771 69.6699 215.739 69.6919 215.711 69.7197C215.684 69.7475 215.663 69.7805 215.649 69.8167C215.621 69.8889 215.622 69.9691 215.652 70.0406C215.682 70.1121 215.738 70.1693 215.809 70.2003C216.143 70.3648 216.434 70.6066 216.656 70.9057C216.878 71.2047 217.026 71.5524 217.088 71.92C217.094 71.9718 217.114 72.0209 217.145 72.0625C217.176 72.1041 217.218 72.1365 217.267 72.1566Z" fill="#263238"/>
<path d="M207.35 70.5916C207.397 70.6049 207.446 70.606 207.493 70.5948C207.54 70.5836 207.583 70.5605 207.619 70.5277C207.887 70.275 208.211 70.0899 208.564 69.9876C208.918 69.8853 209.291 69.8688 209.652 69.9395C209.689 69.9501 209.727 69.9532 209.766 69.9486C209.804 69.9441 209.841 69.9319 209.874 69.9128C209.907 69.8937 209.937 69.8682 209.96 69.8376C209.983 69.8071 210 69.7722 210.01 69.7349C210.021 69.6976 210.024 69.6585 210.019 69.6199C210.015 69.5813 210.003 69.544 209.984 69.5101C209.965 69.4762 209.939 69.4464 209.908 69.4225C209.878 69.3985 209.843 69.3809 209.805 69.3705C209.353 69.2789 208.885 69.296 208.44 69.4205C207.996 69.545 207.587 69.7732 207.248 70.0866C207.193 70.1417 207.162 70.2164 207.162 70.2943C207.162 70.3722 207.193 70.447 207.248 70.5021C207.274 70.5398 207.309 70.5706 207.35 70.5916Z" fill="#263238"/>
<path d="M139.649 107.514L136.874 115.09C136.647 115.743 136.247 116.323 135.717 116.767C135.187 117.212 134.546 117.505 133.863 117.615L96.995 123.196C94.6168 123.561 93.2104 126.003 93.8561 128.649L106.763 181.8C107.403 184.454 109.858 186.307 112.236 185.949L199.992 172.659C202.37 172.294 203.777 169.858 203.137 167.205L187.583 103.154C186.944 100.501 184.489 98.6472 182.111 99.0052L142.66 104.957C141.973 105.07 141.33 105.368 140.8 105.818C140.269 106.269 139.872 106.855 139.649 107.514Z" fill="#407BFF"/>
<path opacity="0.3" d="M139.649 107.514L136.874 115.09C136.647 115.743 136.247 116.323 135.717 116.767C135.187 117.212 134.546 117.505 133.863 117.615L96.995 123.196C94.6168 123.561 93.2104 126.003 93.8561 128.649L106.763 181.8C107.403 184.454 109.858 186.307 112.236 185.949L199.992 172.659C202.37 172.294 203.777 169.858 203.137 167.205L187.583 103.154C186.944 100.501 184.489 98.6472 182.111 99.0052L142.66 104.957C141.973 105.07 141.33 105.368 140.8 105.818C140.269 106.269 139.872 106.855 139.649 107.514Z" fill="black"/>
<path d="M120.732 29.782C121.597 29.7835 122.461 29.8305 123.321 29.9226C126.594 25.3874 131.029 21.8182 136.159 19.5905C141.289 17.3628 146.924 16.5589 152.473 17.2636C158.021 17.9682 163.276 20.1553 167.687 23.5947C172.097 27.034 175.499 31.5985 177.534 36.8079C182.818 37.7128 187.569 40.5693 190.847 44.8117C194.124 49.054 195.689 54.3726 195.23 59.7139C194.772 65.0552 192.324 70.0295 188.372 73.6514C184.419 77.2733 179.251 79.2786 173.89 79.2699H120.732C114.239 79.1656 108.046 76.5127 103.491 71.8837C98.9358 67.2546 96.3828 61.0204 96.3828 54.526C96.3828 48.0315 98.9358 41.7973 103.491 37.1683C108.046 32.5392 114.239 29.8864 120.732 29.782Z" fill="#407BFF"/>
<path d="M123.027 70.6172V132.309H168.264V84.0488L154.839 70.6172H123.027Z" fill="#407BFF"/>
<path opacity="0.6" d="M123.027 70.6172V132.309H168.264V84.0488L154.839 70.6172H123.027Z" fill="white"/>
<path opacity="0.4" d="M154.838 84.0488V70.6172L168.263 84.0488H154.838Z" fill="#407BFF"/>
<path d="M124.484 185.719L121.279 186.203L121.376 186.842L124.581 186.357L124.484 185.719Z" fill="#407BFF"/>
<path d="M139.257 183.496L128.062 185.188L128.159 185.826L139.354 184.135L139.257 183.496Z" fill="#407BFF"/>
<path d="M155.784 113.566L151.61 120.528C151.243 121.14 150.747 121.666 150.156 122.068C149.565 122.47 148.894 122.738 148.19 122.855L111.328 128.442C110.153 128.646 109.09 129.266 108.334 130.188C107.578 131.111 107.179 132.275 107.211 133.467L109.352 181.951C109.36 182.504 109.488 183.049 109.726 183.548C109.964 184.048 110.308 184.49 110.733 184.844C111.158 185.198 111.655 185.456 112.189 185.6C112.723 185.744 113.282 185.77 113.827 185.678L201.584 172.381C202.759 172.177 203.821 171.557 204.577 170.635C205.333 169.712 205.732 168.548 205.701 167.356L203.144 108.937C203.136 108.384 203.008 107.839 202.77 107.34C202.531 106.84 202.188 106.399 201.763 106.045C201.338 105.691 200.841 105.433 200.307 105.289C199.773 105.145 199.214 105.118 198.668 105.21L159.186 111.213C158.481 111.333 157.812 111.606 157.224 112.013C156.637 112.419 156.145 112.949 155.784 113.566Z" fill="#407BFF"/>
<path d="M157.07 61.6698C156.912 61.6706 156.758 61.6246 156.627 61.5375C156.496 61.4505 156.394 61.3264 156.333 61.181C156.273 61.0357 156.257 60.8756 156.288 60.7213C156.319 60.567 156.395 60.4254 156.507 60.3145C158.647 58.1666 160.103 55.4327 160.691 52.4578C161.279 49.483 160.972 46.4008 159.809 43.6003C158.646 40.7998 156.68 38.4067 154.158 36.7231C151.636 35.0396 148.671 34.141 145.639 34.141C142.607 34.141 139.642 35.0396 137.12 36.7231C134.598 38.4067 132.632 40.7998 131.469 43.6003C130.306 46.4008 129.999 49.483 130.587 52.4578C131.175 55.4327 132.631 58.1666 134.771 60.3145C134.845 60.3882 134.904 60.4758 134.944 60.5724C134.984 60.669 135.005 60.7725 135.005 60.8771C135.005 60.9817 134.984 61.0852 134.944 61.1818C134.904 61.2783 134.845 61.366 134.771 61.4397C134.62 61.5865 134.419 61.6687 134.208 61.6687C133.998 61.6687 133.796 61.5865 133.646 61.4397C131.276 59.0695 129.661 56.0497 129.007 52.7622C128.353 49.4746 128.689 46.0669 129.972 42.9701C131.254 39.8733 133.427 37.2263 136.214 35.3641C139.001 33.5018 142.277 32.5078 145.629 32.5078C148.981 32.5078 152.258 33.5018 155.045 35.3641C157.832 37.2263 160.004 39.8733 161.287 42.9701C162.57 46.0669 162.905 49.4746 162.251 52.7622C161.597 56.0497 159.983 59.0695 157.613 61.4397C157.468 61.5835 157.274 61.6659 157.07 61.6698Z" fill="white"/>
<path d="M152.441 66.4163V48.727C152.441 47.9623 152.137 47.2289 151.596 46.6882C151.056 46.1475 150.322 45.8437 149.558 45.8438H141.733C140.968 45.8437 140.235 46.1475 139.694 46.6882C139.153 47.2289 138.85 47.9623 138.85 48.727V66.4163H135.902L145.645 74.8103L155.382 66.4163H152.441Z" fill="white"/>
<path d="M231.298 110.368L230.908 111.244L230.543 112.043C230.294 112.574 230.032 113.085 229.776 113.603C229.258 114.632 228.696 115.629 228.133 116.633C226.987 118.641 225.738 120.589 224.393 122.47C223.703 123.416 223 124.388 222.245 125.289C221.491 126.191 220.692 127.118 219.848 128.013C218.099 129.897 216.151 131.586 214.037 133.05L213.596 133.351C213.369 133.503 213.127 133.629 212.873 133.728C210.622 134.553 208.25 134.998 205.854 135.045C203.837 135.116 201.817 135.037 199.812 134.808C197.901 134.585 196.002 134.265 194.123 133.849C192.253 133.438 190.409 132.919 188.599 132.296C187.875 132.04 187.26 131.544 186.856 130.891C186.453 130.237 186.286 129.465 186.382 128.703C186.478 127.941 186.833 127.235 187.386 126.702C187.94 126.169 188.659 125.842 189.424 125.775H189.558L194.743 125.334C196.469 125.18 198.169 125.014 199.819 124.79C200.643 124.682 201.455 124.573 202.242 124.439C203.028 124.305 203.795 124.138 204.524 123.979C205.723 123.741 206.879 123.327 207.957 122.751L206.8 123.429C208.05 122.273 209.201 121.013 210.239 119.663C210.802 118.954 211.345 118.199 211.876 117.426C212.407 116.652 212.944 115.86 213.461 115.054C214.478 113.424 215.488 111.742 216.434 110.023C216.92 109.166 217.374 108.29 217.841 107.427L219.119 104.921L219.273 104.621C220.075 103.096 221.438 101.941 223.074 101.4C224.71 100.858 226.492 100.972 228.046 101.717C229.6 102.461 230.805 103.779 231.408 105.394C232.01 107.008 231.964 108.793 231.279 110.374L231.298 110.368Z" fill="#FFC3BD"/>
<path d="M233.345 99.0728C236.42 110.12 228.614 121.103 228.614 121.103C224.478 122.286 213.578 118.041 211.264 113.975C211.264 113.975 215.067 103.529 219.575 97.9924C223.756 92.8141 231.536 92.5968 233.345 99.0728Z" fill="#263238"/>
<path d="M190.709 126.05L191.349 129.95C190.492 134.003 185.467 132.009 185.467 132.009H182.667C182.173 131.98 181.705 131.776 181.346 131.434C180.988 131.092 180.763 130.634 180.711 130.142L180.263 127.419C180.137 126.865 180.232 126.283 180.529 125.799C180.825 125.314 181.298 124.964 181.849 124.823L184.259 124.414C184.96 124.293 185.681 124.348 186.356 124.574L190.709 126.05Z" fill="#FFC3BD"/>
</svg>
