<svg width="15" height="15" viewBox="0 0 11 12" fill="none" xmlns="http://www.w3.org/2000/svg">
<path d="M10.0833 0.5H0.916667C0.673625 0.50024 0.440607 0.596894 0.268751 0.768751C0.0968942 0.940607 0.000239952 1.17363 0 1.41667V10.5833C0.000240103 10.8264 0.0968942 11.0594 0.268751 11.2312C0.440607 11.4031 0.673625 11.4998 0.916667 11.5H10.0833C10.3264 11.4998 10.5594 11.4031 10.7312 11.2312C10.9031 11.0594 10.9998 10.8264 11 10.5833V1.41667C10.9998 1.17363 10.9031 0.940607 10.7312 0.76875C10.5594 0.596894 10.3264 0.50024 10.0833 0.5ZM7.65739 7.50928C7.70002 7.55182 7.73385 7.60234 7.75694 7.65796C7.78003 7.71358 7.79193 7.77321 7.79196 7.83344C7.792 7.89366 7.78016 7.9533 7.75712 8.00894C7.73409 8.06459 7.70032 8.11515 7.65773 8.15773C7.61515 8.20032 7.56459 8.23409 7.50894 8.25713C7.4533 8.28016 7.39366 8.292 7.33343 8.29196C7.27321 8.29193 7.21358 8.28003 7.15796 8.25694C7.10234 8.23385 7.05182 8.20002 7.00928 8.15739L5.5 6.64811L3.99072 8.15739C3.90475 8.24318 3.78823 8.29134 3.66677 8.29127C3.54531 8.29121 3.42884 8.24293 3.34296 8.15704C3.25707 8.07116 3.20879 7.95469 3.20873 7.83323C3.20866 7.71177 3.25682 7.59525 3.34261 7.50928L4.85189 6L3.34261 4.49072C3.25682 4.40475 3.20866 4.28823 3.20873 4.16677C3.20879 4.04531 3.25707 3.92884 3.34296 3.84296C3.42884 3.75707 3.54531 3.70879 3.66677 3.70873C3.78823 3.70866 3.90475 3.75682 3.99072 3.84261L5.5 5.35189L7.00928 3.84261C7.09525 3.75682 7.21177 3.70866 7.33323 3.70873C7.45469 3.70879 7.57116 3.75707 7.65704 3.84296C7.74293 3.92884 7.79121 4.04531 7.79127 4.16677C7.79134 4.28823 7.74318 4.40475 7.65739 4.49072L6.14811 6L7.65739 7.50928Z" fill="white"/>
</svg>
