<svg width="16" height="16" viewBox="0 0 16 18" fill="none" xmlns="http://www.w3.org/2000/svg">
<path d="M13.6673 17H1.66667C1.48986 17 1.32029 16.9298 1.19526 16.8047C1.07024 16.6797 1 16.5101 1 16.3333V1.66667C1 1.48986 1.07024 1.32029 1.19526 1.19526C1.32029 1.07024 1.48986 1 1.66667 1H9.66732L14.334 5.66667V16.3333C14.334 16.4209 14.3167 16.5076 14.2832 16.5885C14.2497 16.6693 14.2006 16.7428 14.1387 16.8047C14.0768 16.8666 14.0033 16.9157 13.9224 16.9493C13.8416 16.9828 13.7549 17 13.6673 17Z" stroke="currentColor" stroke-width="1.4" stroke-linecap="round" stroke-linejoin="round"/>
<path d="M9.66602 1V5.66667H14.3333" stroke="currentColor" stroke-width="1.4" stroke-linecap="round" stroke-linejoin="round"/>
<path d="M5.66602 11H9.66601" stroke="currentColor" stroke-width="1.4" stroke-linecap="round" stroke-linejoin="round"/>
<path d="M7.66602 9V13" stroke="currentColor" stroke-width="1.4" stroke-linecap="round" stroke-linejoin="round"/>
</svg>
