<svg width="34" height="34" viewBox="0 0 34 34" fill="none" xmlns="http://www.w3.org/2000/svg">
<rect width="34" height="34" rx="17" fill="#0F8BFF" fill-opacity="0.06"/>
<path d="M22.6237 24.5H11.373C11.2073 24.5 11.0483 24.4342 10.9311 24.3169C10.8139 24.1997 10.748 24.0408 10.748 23.875V10.125C10.748 9.95924 10.8139 9.80027 10.9311 9.68306C11.0483 9.56585 11.2073 9.5 11.373 9.5H18.8737L23.2487 13.875V23.875C23.2487 23.9571 23.2325 24.0383 23.2011 24.1142C23.1697 24.19 23.1236 24.2589 23.0656 24.3169C23.0076 24.375 22.9387 24.421 22.8628 24.4524C22.787 24.4838 22.7057 24.5 22.6237 24.5Z" stroke="#414141" stroke-width="1.2" stroke-linecap="round" stroke-linejoin="round"/>
<path d="M18.875 9.5V13.875H23.2506" stroke="#414141" stroke-width="1.2" stroke-linecap="round" stroke-linejoin="round"/>
<path d="M14.498 17.624H19.498" stroke="#414141" stroke-width="1.2" stroke-linecap="round" stroke-linejoin="round"/>
<path d="M14.498 20.126H19.498" stroke="#414141" stroke-width="1.2" stroke-linecap="round" stroke-linejoin="round"/>
</svg>
