<svg width="16" height="16" viewBox="0 0 20 22" fill="none" xmlns="http://www.w3.org/2000/svg">
<path d="M9.99956 15.4004C11.1292 15.4004 12.045 14.505 12.045 13.4004C12.045 12.2958 11.1292 11.4004 9.99956 11.4004C8.86988 11.4004 7.9541 12.2958 7.9541 13.4004C7.9541 14.505 8.86988 15.4004 9.99956 15.4004Z" stroke="currentColor" stroke-width="2" stroke-linecap="round" stroke-linejoin="round"/>
<path d="M10 15.4004V17.8004" stroke="currentColor" stroke-width="2" stroke-linecap="round" stroke-linejoin="round"/>
<path d="M18.1818 8.19995H1.81818C1.36631 8.19995 1 8.55812 1 8.99995V20.1999C1 20.6418 1.36631 20.9999 1.81818 20.9999H18.1818C18.6337 20.9999 19 20.6418 19 20.1999V8.99995C19 8.55812 18.6337 8.19995 18.1818 8.19995Z" stroke="currentColor" stroke-width="2" stroke-linecap="round" stroke-linejoin="round"/>
<path d="M6.31836 8.20001V4.60001C6.31836 3.64523 6.70626 2.72955 7.39674 2.05442C8.08721 1.37929 9.0237 1 10.0002 1C10.9767 1 11.9131 1.37929 12.6036 2.05442C13.2941 2.72955 13.682 3.64523 13.682 4.60001V8.20001" stroke="currentColor" stroke-width="2" stroke-linecap="round" stroke-linejoin="round"/>
</svg>
