<svg width="22" height="22" viewBox="0 0 22 22" fill="none" xmlns="http://www.w3.org/2000/svg">
<path d="M5.91227 17.7212L5.91224 17.7214L5.91881 17.7219L6.01026 17.7283L6.01024 17.7285H6.01724H14.9828C15.17 17.7285 15.3506 17.6594 15.4912 17.5343C15.6317 17.4093 15.7228 17.237 15.748 17.0494L15.7482 17.0495L15.7487 17.0428L15.7549 16.9495L15.7552 16.9496V16.9428V10.5427C15.7552 10.3868 15.8159 10.2376 15.9235 10.1279C16.031 10.0182 16.1764 9.957 16.3276 9.957C16.4653 9.95701 16.5987 10.0079 16.7031 10.1007C16.8067 10.1928 16.8746 10.3201 16.8942 10.4596L16.9 10.5461V16.9428C16.9001 17.4394 16.7153 17.917 16.3835 18.2794C16.0522 18.6413 15.5991 18.8613 15.1157 18.8955L14.9811 18.9H6.01724C5.53202 18.9001 5.06453 18.7123 4.70931 18.3741C4.35446 18.0362 4.13809 17.5733 4.10438 17.0787L4.1 16.9412L4.1 10.5428C4.1 10.5427 4.1 10.5427 4.1 10.5427C4.10005 10.3938 4.15557 10.2507 4.25481 10.1423C4.35401 10.0341 4.48943 9.96861 4.63353 9.95857C4.77763 9.94853 4.92036 9.9946 5.0329 10.088C5.14469 10.1807 5.21847 10.3133 5.23901 10.4597L5.24483 10.5461V16.9428C5.24483 17.3392 5.53359 17.6695 5.91227 17.7212ZM10.9308 14.5902C10.8404 14.6959 10.7161 14.7646 10.5809 14.7843L10.4967 14.7902C10.3601 14.7894 10.228 14.7386 10.1245 14.6466C10.0209 14.5544 9.95294 14.4271 9.9334 14.2876L9.92759 14.2011V5.33671V5.0919L9.75619 5.26669L7.31668 7.75449C7.31668 7.75449 7.31667 7.7545 7.31667 7.7545C7.21946 7.85359 7.09092 7.91346 6.95461 7.9237C6.81941 7.93387 6.68491 7.8946 6.57518 7.81263L6.50566 7.75186C6.40997 7.65299 6.35159 7.52224 6.34152 7.3829C6.33144 7.24344 6.37047 7.10513 6.45117 6.99279L6.5109 6.92173L10.0926 3.27093L10.0926 3.27091C10.1897 3.17189 10.3181 3.11201 10.4542 3.10162C10.5892 3.09132 10.7236 3.13032 10.8333 3.21194L10.9029 3.27278L14.49 6.92452L14.4902 6.92469C14.5931 7.02893 14.6538 7.16942 14.6595 7.31799C14.6651 7.46657 14.6154 7.61154 14.5207 7.72374C14.4261 7.83588 14.2937 7.90689 14.1504 7.92309C14.0083 7.93916 13.8653 7.90027 13.7497 7.81377L13.6799 7.75197L11.2437 5.27301L11.0724 5.09868V5.34311V14.2045C11.0724 14.3466 11.0219 14.4836 10.9308 14.5902Z" fill="currentColor" stroke="currentColor" stroke-width="0.2"/>
</svg>
