<svg width="20" height="20" viewBox="0 0 18 18" fill="none" xmlns="http://www.w3.org/2000/svg">
<path d="M15.751 3.5625V13.3125C15.751 13.3998 15.7306 13.486 15.6916 13.5641C15.6525 13.6422 15.5958 13.7101 15.526 13.7625C15.4561 13.8149 15.375 13.8503 15.2891 13.8659C15.2032 13.8815 15.1148 13.877 15.031 13.8525L2.65598 10.2431C2.53914 10.209 2.4365 10.138 2.36348 10.0406C2.29045 9.94326 2.25098 9.82483 2.25098 9.70312V7.17187C2.25098 7.05017 2.29045 6.93174 2.36348 6.83437C2.4365 6.73701 2.53914 6.66595 2.65598 6.63187L15.031 3.0225C15.1148 2.99805 15.2032 2.99345 15.2891 3.00907C15.375 3.02469 15.4561 3.0601 15.526 3.1125C15.5958 3.1649 15.6525 3.23284 15.6916 3.31094C15.7306 3.38905 15.751 3.47517 15.751 3.5625V3.5625Z" stroke="currentColor" stroke-width="1.2" stroke-linecap="round" stroke-linejoin="round"/>
<path d="M5.0625 10.9451V13.4999C5.0625 13.6491 5.12176 13.7921 5.22725 13.8976C5.33274 14.0031 5.47582 14.0624 5.625 14.0624H7.875C8.02418 14.0624 8.16726 14.0031 8.27275 13.8976C8.37824 13.7921 8.4375 13.6491 8.4375 13.4999V4.94531" stroke="currentColor" stroke-width="1.2" stroke-linecap="round" stroke-linejoin="round"/>
</svg>
