   <svg xmlns="http://www.w3.org/2000/svg" width="17" height="18" viewBox="0 0 17 18"
                                      fill="none">
                                      <path
                                        d="M8.75 0.875C7.14303 0.875 5.57214 1.35152 4.236 2.24431C2.89985 3.1371 1.85844 4.40605 1.24348 5.8907C0.62852 7.37535 0.467618 9.00901 0.781123 10.5851C1.09463 12.1612 1.86846 13.6089 3.00476 14.7452C4.14106 15.8815 5.5888 16.6554 7.1649 16.9689C8.74099 17.2824 10.3747 17.1215 11.8593 16.5065C13.344 15.8916 14.6129 14.8502 15.5057 13.514C16.3985 12.1779 16.875 10.607 16.875 9C16.8725 6.84588 16.0157 4.7807 14.4925 3.25751C12.9693 1.73431 10.9041 0.87749 8.75 0.875ZM11.8433 9.91553L9.19266 12.5661C9.07515 12.6833 8.91596 12.7491 8.75 12.7491C8.58404 12.7491 8.42486 12.6833 8.30735 12.5661L5.65674 9.91553C5.53975 9.79829 5.47409 9.6394 5.47417 9.47377C5.47426 9.30814 5.5401 9.14933 5.65721 9.03221C5.77433 8.91509 5.93315 8.84926 6.09877 8.84917C6.2644 8.84908 6.42329 8.91475 6.54053 9.03174L8.125 10.6162V5.875C8.125 5.70924 8.19085 5.55027 8.30806 5.43306C8.42527 5.31585 8.58424 5.25 8.75 5.25C8.91576 5.25 9.07474 5.31585 9.19195 5.43306C9.30916 5.55027 9.375 5.70924 9.375 5.875V10.6162L10.9595 9.03174C11.0767 8.91475 11.2356 8.84908 11.4012 8.84917C11.5669 8.84926 11.7257 8.91509 11.8428 9.03221C11.9599 9.14933 12.0257 9.30814 12.0258 9.47377C12.0259 9.6394 11.9603 9.79829 11.8433 9.91553Z"
                                        fill="#1E3A8A" />
                                    </svg>