<svg width="24" height="22" viewBox="0 0 24 22" fill="none" xmlns="http://www.w3.org/2000/svg">
<path d="M11.52 12.4348V20.087H1.92V12.4348H11.52ZM11.52 10.5217H1.92C1.41078 10.5217 0.922425 10.7233 0.562355 11.0821C0.202285 11.4408 0 11.9274 0 12.4348V20.087C0 20.5943 0.202285 21.0809 0.562355 21.4397C0.922425 21.7984 1.41078 22 1.92 22H11.52C12.0292 22 12.5176 21.7984 12.8776 21.4397C13.2377 21.0809 13.44 20.5943 13.44 20.087V12.4348C13.44 11.9274 13.2377 11.4408 12.8776 11.0821C12.5176 10.7233 12.0292 10.5217 11.52 10.5217Z" fill="white"/>
<path d="M22.0801 1.91304V6.69565H12.4801V1.91304H22.0801ZM22.0801 0H12.4801C11.9708 0 11.4825 0.201552 11.1224 0.560317C10.7623 0.919083 10.5601 1.40567 10.5601 1.91304V6.69565C10.5601 7.20302 10.7623 7.68961 11.1224 8.04838C11.4825 8.40714 11.9708 8.6087 12.4801 8.6087H22.0801C22.5893 8.6087 23.0776 8.40714 23.4377 8.04838C23.7978 7.68961 24.0001 7.20302 24.0001 6.69565V1.91304C24.0001 1.40567 23.7978 0.919083 23.4377 0.560317C23.0776 0.201552 22.5893 0 22.0801 0Z" fill="white"/>
<path d="M22.0801 12.4348V17.2174H17.2801V12.4348H22.0801ZM22.0801 10.5217H17.2801C16.7709 10.5217 16.2825 10.7233 15.9225 11.082C15.5624 11.4408 15.3601 11.9274 15.3601 12.4348V17.2174C15.3601 17.7248 15.5624 18.2113 15.9225 18.5701C16.2825 18.9289 16.7709 19.1304 17.2801 19.1304H22.0801C22.5893 19.1304 23.0777 18.9289 23.4378 18.5701C23.7978 18.2113 24.0001 17.7248 24.0001 17.2174V12.4348C24.0001 11.9274 23.7978 11.4408 23.4378 11.082C23.0777 10.7233 22.5893 10.5217 22.0801 10.5217Z" fill="white"/>
<path d="M6.72 1.91304V6.69565H1.92V1.91304H6.72ZM6.72 0H1.92C1.41078 0 0.922425 0.201552 0.562355 0.560317C0.202285 0.919083 0 1.40567 0 1.91304V6.69565C0 7.20302 0.202285 7.68961 0.562355 8.04838C0.922425 8.40714 1.41078 8.6087 1.92 8.6087H6.72C7.22922 8.6087 7.71758 8.40714 8.07765 8.04838C8.43771 7.68961 8.64 7.20302 8.64 6.69565V1.91304C8.64 1.40567 8.43771 0.919083 8.07765 0.560317C7.71758 0.201552 7.22922 0 6.72 0Z" fill="white"/>
</svg>
