<svg width="32" height="32" viewBox="0 0 32 32" fill="none" xmlns="http://www.w3.org/2000/svg">
<circle opacity="0.1" cx="16" cy="16" r="16" fill="#2490DE"/>
<path d="M10.8293 21.1707C10.1821 20.5236 10.6114 19.1649 10.282 18.3688C9.94049 17.5435 8.6875 16.8793 8.6875 16C8.6875 15.1207 9.9405 14.4565 10.282 13.6312C10.6114 12.8351 10.1821 11.4764 10.8293 10.8293C11.4764 10.1821 12.8351 10.6114 13.6312 10.282C14.4565 9.94049 15.1207 8.6875 16 8.6875C16.8793 8.6875 17.5435 9.9405 18.3688 10.282C19.1649 10.6114 20.5236 10.1821 21.1707 10.8293C21.8179 11.4764 21.3886 12.8351 21.718 13.6312C22.0595 14.4565 23.3125 15.1207 23.3125 16C23.3125 16.8793 22.0595 17.5435 21.718 18.3688C21.3886 19.1649 21.8179 20.5236 21.1707 21.1707C20.5236 21.8179 19.1649 21.3886 18.3688 21.718C17.5435 22.0595 16.8793 23.3125 16 23.3125C15.1207 23.3125 14.4565 22.0595 13.6312 21.718C12.8351 21.3886 11.4764 21.8179 10.8293 21.1707Z" stroke="#2490DE" stroke-width="1.5" stroke-linecap="round" stroke-linejoin="round"/>
<path d="M19.0938 14.3125L14.9687 18.25L12.9062 16.2812" stroke="#2490DE" stroke-width="1.5" stroke-linecap="round" stroke-linejoin="round"/>
</svg>
