<svg width="32" height="32" viewBox="0 0 32 32" fill="none" xmlns="http://www.w3.org/2000/svg">
<circle opacity="0.05" cx="16" cy="16" r="16" fill="#F2133B"/>
<path d="M18.75 16C18.75 16.7293 18.4603 17.4288 17.9445 17.9445C17.4288 18.4603 16.7293 18.75 16 18.75C15.2707 18.75 14.5712 18.4603 14.0555 17.9445C13.5397 17.4288 13.25 16.7293 13.25 16C13.25 15.2707 13.5397 14.5712 14.0555 14.0555C14.5712 13.5397 15.2707 13.25 16 13.25C16.7293 13.25 17.4288 13.5397 17.9445 14.0555C18.4603 14.5712 18.75 15.2707 18.75 16V16Z" stroke="#F2133B" stroke-width="1.66667" stroke-linecap="round" stroke-linejoin="round"/>
<path d="M7.25391 16.0007C8.42174 12.2817 11.8968 9.58398 16.0007 9.58398C20.1056 9.58398 23.5797 12.2817 24.7476 16.0007C23.5797 19.7196 20.1056 22.4173 16.0007 22.4173C11.8968 22.4173 8.42174 19.7196 7.25391 16.0007Z" stroke="#F2133B" stroke-width="1.66667" stroke-linecap="round" stroke-linejoin="round"/>
</svg>
