<svg width="20" height="20" viewBox="0 0 20 20" fill="none" xmlns="http://www.w3.org/2000/svg">
<path d="M6.875 18.125H13.125" stroke="#6B7280" stroke-width="1.4" stroke-linecap="round" stroke-linejoin="round"/>
<path d="M6.14873 13.0478C5.40556 12.4674 4.80363 11.726 4.38818 10.8795C3.97273 10.033 3.75457 9.10328 3.7501 8.16031C3.73138 4.77263 6.4625 1.95653 9.8493 1.87681C11.1617 1.84521 12.4507 2.22765 13.5335 2.96987C14.6164 3.71209 15.438 4.77641 15.8819 6.01187C16.3258 7.24732 16.3694 8.59118 16.0065 9.85281C15.6437 11.1144 14.8928 12.2298 13.8604 13.0407C13.633 13.2168 13.4486 13.4424 13.3212 13.7003C13.1938 13.9582 13.1267 14.2417 13.125 14.5294L13.125 15C13.125 15.1658 13.0592 15.3248 12.942 15.442C12.8247 15.5592 12.6658 15.625 12.5 15.625H7.49999C7.33423 15.625 7.17526 15.5592 7.05805 15.442C6.94084 15.3248 6.87499 15.1658 6.87499 15L6.87498 14.5289C6.87427 14.2431 6.80851 13.9612 6.68268 13.7046C6.55685 13.448 6.37425 13.2234 6.14873 13.0478V13.0478Z" stroke="#6B7280" stroke-width="1.4" stroke-linecap="round" stroke-linejoin="round"/>
<path d="M10.6328 4.43652C11.3973 4.56647 12.1025 4.93057 12.6512 5.47854C13.1998 6.02651 13.5648 6.73132 13.6957 7.49562" stroke="#6B7280" stroke-width="1.4" stroke-linecap="round" stroke-linejoin="round"/>
</svg>
