<svg width="22" height="22" viewBox="0 0 22 22" fill="none" xmlns="http://www.w3.org/2000/svg">
<path d="M3.87679 16.8451C3.89822 16.9354 3.93771 17.0205 3.99289 17.0953C4.04807 17.17 4.11779 17.2327 4.19787 17.2798C4.27794 17.3269 4.3667 17.3572 4.45882 17.3691C4.55094 17.381 4.6445 17.3741 4.73389 17.3489C8.83218 16.2173 13.1604 16.2169 17.2589 17.3477C17.3483 17.3729 17.4418 17.3798 17.5339 17.3679C17.626 17.356 17.7147 17.3257 17.7948 17.2786C17.8748 17.2316 17.9445 17.1688 17.9997 17.0942C18.0549 17.0195 18.0944 16.9345 18.1158 16.8441L20.3063 7.53564C20.3356 7.41103 20.3296 7.2807 20.2888 7.15934C20.2481 7.03798 20.1742 6.9304 20.0757 6.84873C19.9771 6.76706 19.8576 6.71454 19.7308 6.69708C19.604 6.67962 19.4748 6.69792 19.3578 6.74991L15.0108 8.68193C14.8538 8.7517 14.6764 8.76017 14.5135 8.70569C14.3506 8.65121 14.214 8.53772 14.1306 8.38757L11.5995 3.83165C11.54 3.72447 11.4529 3.63517 11.3472 3.57299C11.2415 3.51081 11.1212 3.47803 10.9985 3.47803C10.8759 3.47803 10.7556 3.51081 10.6499 3.57299C10.5442 3.63517 10.4571 3.72447 10.3976 3.83165L7.8665 8.38757C7.78308 8.53772 7.64647 8.65121 7.48357 8.70569C7.32066 8.76017 7.14327 8.7517 6.9863 8.68193L2.6386 6.74962C2.52163 6.69764 2.39248 6.67934 2.26568 6.69678C2.13888 6.71422 2.01947 6.76672 1.92089 6.84835C1.82231 6.92999 1.74847 7.03752 1.7077 7.15884C1.66692 7.28017 1.66082 7.41046 1.69009 7.53507L3.87679 16.8451Z" stroke="white" stroke-width="1.4" stroke-linecap="round" stroke-linejoin="round"/>
<path d="M8.25 13.8943C10.0783 13.7019 11.9217 13.7019 13.75 13.8943" stroke="white" stroke-width="1.4" stroke-linecap="round" stroke-linejoin="round"/>
</svg>
