<svg width="14" height="18" viewBox="0 0 14 18" fill="none" xmlns="http://www.w3.org/2000/svg">
<path d="M6.99844 5.14922V0.199219H2.04844C1.61083 0.199219 1.19115 0.373058 0.881711 0.682493C0.572276 0.991928 0.398438 1.41161 0.398438 1.84922V16.1492C0.398438 16.5868 0.572276 17.0065 0.881711 17.3159C1.19115 17.6254 1.61083 17.7992 2.04844 17.7992H11.9484C12.386 17.7992 12.8057 17.6254 13.1152 17.3159C13.4246 17.0065 13.5984 16.5868 13.5984 16.1492V6.79922H8.64844C8.21083 6.79922 7.79115 6.62538 7.48171 6.31595C7.17228 6.00651 6.99844 5.58683 6.99844 5.14922ZM3.14844 8.99922H10.8484C10.9943 8.99922 11.1342 9.05717 11.2373 9.16031C11.3405 9.26345 11.3984 9.40335 11.3984 9.54922C11.3984 9.69509 11.3405 9.83498 11.2373 9.93813C11.1342 10.0413 10.9943 10.0992 10.8484 10.0992H3.14844C3.00257 10.0992 2.86267 10.0413 2.75953 9.93813C2.65638 9.83498 2.59844 9.69509 2.59844 9.54922C2.59844 9.40335 2.65638 9.26345 2.75953 9.16031C2.86267 9.05717 3.00257 8.99922 3.14844 8.99922ZM3.14844 11.1992H10.8484C10.9943 11.1992 11.1342 11.2572 11.2373 11.3603C11.3405 11.4635 11.3984 11.6033 11.3984 11.7492C11.3984 11.8951 11.3405 12.035 11.2373 12.1381C11.1342 12.2413 10.9943 12.2992 10.8484 12.2992H3.14844C3.00257 12.2992 2.86267 12.2413 2.75953 12.1381C2.65638 12.035 2.59844 11.8951 2.59844 11.7492C2.59844 11.6033 2.65638 11.4635 2.75953 11.3603C2.86267 11.2572 3.00257 11.1992 3.14844 11.1992ZM3.14844 13.3992H10.8484C10.9943 13.3992 11.1342 13.4572 11.2373 13.5603C11.3405 13.6635 11.3984 13.8033 11.3984 13.9492C11.3984 14.0951 11.3405 14.235 11.2373 14.3381C11.1342 14.4413 10.9943 14.4992 10.8484 14.4992H3.14844C3.00257 14.4992 2.86267 14.4413 2.75953 14.3381C2.65638 14.235 2.59844 14.0951 2.59844 13.9492C2.59844 13.8033 2.65638 13.6635 2.75953 13.5603C2.86267 13.4572 3.00257 13.3992 3.14844 13.3992ZM8.09844 5.14922V0.474219L13.3234 5.69922H8.64844C8.50257 5.69922 8.36267 5.64127 8.25953 5.53813C8.15638 5.43498 8.09844 5.29509 8.09844 5.14922Z" fill="currentColor"/>
</svg>
