<svg width="18" height="18" viewBox="0 0 22 22" fill="none" xmlns="http://www.w3.org/2000/svg">
<mask id="mask0_3869_101381" style="mask-type:alpha" maskUnits="userSpaceOnUse" x="3" y="3" width="16" height="16">
<path d="M7.78972 3.52295C7.9533 3.52295 8.11391 3.56673 8.25487 3.64974C8.39583 3.73275 8.512 3.85197 8.59134 3.99503L9.71242 6.01445C9.78471 6.14471 9.82416 6.29063 9.82735 6.43958C9.83055 6.58852 9.79739 6.736 9.73076 6.86924L8.65092 9.02982C8.65092 9.02982 8.96397 10.639 10.2739 11.9494C11.5843 13.2593 13.188 13.5673 13.188 13.5673L15.3481 12.487C15.4814 12.4203 15.629 12.3871 15.778 12.3903C15.927 12.3935 16.073 12.433 16.2033 12.5054L18.2292 13.6319C18.3719 13.7114 18.4908 13.8276 18.5736 13.9685C18.6563 14.1093 18.6999 14.2697 18.6999 14.4331V16.7582C18.6999 17.9426 17.5999 18.7978 16.4779 18.4192C14.1734 17.6414 10.5961 16.161 8.32872 13.8937C6.0618 11.6263 4.58092 8.04945 3.80359 5.74449C3.42501 4.62295 4.28026 3.52295 5.46459 3.52295H7.78926H7.78972Z" fill="white"/>
</mask>
<g mask="url(#mask0_3869_101381)">
<path d="M0 0H22V22H0V0Z" fill="currentColor"/>
</g>
</svg>
