<svg width="38" height="38" viewBox="0 0 38 38" fill="none" xmlns="http://www.w3.org/2000/svg">
<rect width="38" height="38" rx="19" fill="#0F8BFF"/>
<path d="M12.125 19.9922V25.8713C12.125 26.0537 12.1974 26.2285 12.3264 26.3575C12.4553 26.4864 12.6302 26.5588 12.8125 26.5588H25.1875C25.3698 26.5588 25.5447 26.4864 25.6736 26.3575C25.8026 26.2285 25.875 26.0537 25.875 25.8713V19.9923" stroke="white" stroke-width="1.4" stroke-linecap="round" stroke-linejoin="round"/>
<path d="M12.6436 11.4375H25.3564C25.5058 11.4375 25.6512 11.4862 25.7704 11.5761C25.8897 11.6661 25.9764 11.7925 26.0175 11.9361L27.25 16.25H10.75L11.9825 11.9361C12.0236 11.7925 12.1103 11.6661 12.2296 11.5761C12.3488 11.4862 12.4942 11.4375 12.6436 11.4375Z" stroke="white" stroke-width="1.4" stroke-linecap="round" stroke-linejoin="round"/>
<path d="M16.25 16.25V17.625C16.25 18.3543 15.9603 19.0538 15.4445 19.5695C14.9288 20.0853 14.2293 20.375 13.5 20.375C12.7707 20.375 12.0712 20.0853 11.5555 19.5695C11.0397 19.0538 10.75 18.3543 10.75 17.625V16.25" stroke="white" stroke-width="1.4" stroke-linecap="round" stroke-linejoin="round"/>
<path d="M21.75 16.25V17.625C21.75 18.3543 21.4603 19.0538 20.9445 19.5695C20.4288 20.0853 19.7293 20.375 19 20.375C18.2707 20.375 17.5712 20.0853 17.0555 19.5695C16.5397 19.0538 16.25 18.3543 16.25 17.625V16.25" stroke="white" stroke-width="1.4" stroke-linecap="round" stroke-linejoin="round"/>
<path d="M27.25 16.25V17.625C27.25 18.3543 26.9603 19.0538 26.4445 19.5695C25.9288 20.0853 25.2293 20.375 24.5 20.375C23.7707 20.375 23.0712 20.0853 22.5555 19.5695C22.0397 19.0538 21.75 18.3543 21.75 17.625V16.25" stroke="white" stroke-width="1.4" stroke-linecap="round" stroke-linejoin="round"/>
</svg>
