<svg width="18" height="12" viewBox="0 0 18 12" fill="none" xmlns="http://www.w3.org/2000/svg">
<path d="M17.2286 4.8H0.771428C0.0617142 4.8 0 5.3364 0 6C0 6.6636 0.0617142 7.2 0.771428 7.2H17.2286C17.9383 7.2 18 6.6636 18 6C18 5.3364 17.9383 4.8 17.2286 4.8ZM17.2286 9.6H0.771428C0.0617142 9.6 0 10.1364 0 10.8C0 11.4636 0.0617142 12 0.771428 12H17.2286C17.9383 12 18 11.4636 18 10.8C18 10.1364 17.9383 9.6 17.2286 9.6ZM0.771428 2.4H17.2286C17.9383 2.4 18 1.8636 18 1.2C18 0.5364 17.9383 0 17.2286 0H0.771428C0.0617142 0 0 0.5364 0 1.2C0 1.8636 0.0617142 2.4 0.771428 2.4Z" fill="#263B50"/>
</svg>
