<svg width="16" height="20" viewBox="0 0 16 20" fill="none" xmlns="http://www.w3.org/2000/svg">
<path d="M7.9974 2.66698V1.02615C7.9974 0.613646 7.5024 0.411979 7.21823 0.705313L4.65156 3.26281C4.46823 3.44615 4.46823 3.73031 4.65156 3.91365L7.20906 6.47115C7.5024 6.75531 7.9974 6.55365 7.9974 6.14115V4.50031C11.0316 4.50031 13.4974 6.96615 13.4974 10.0003C13.4974 10.7245 13.3599 11.4303 13.0941 12.0628C12.9566 12.3928 13.0574 12.7686 13.3049 13.0161C13.7724 13.4836 14.5607 13.3186 14.8082 12.7045C15.1474 11.8703 15.3307 10.9536 15.3307 10.0003C15.3307 5.94865 12.0491 2.66698 7.9974 2.66698ZM7.9974 15.5003C4.96323 15.5003 2.4974 13.0345 2.4974 10.0003C2.4974 9.27615 2.6349 8.57031 2.90073 7.93781C3.03823 7.60781 2.9374 7.23198 2.6899 6.98448C2.2224 6.51698 1.43406 6.68198 1.18656 7.29615C0.847396 8.13031 0.664062 9.04698 0.664062 10.0003C0.664062 14.052 3.94573 17.3336 7.9974 17.3336V18.9745C7.9974 19.387 8.4924 19.5886 8.77656 19.2953L11.3341 16.7378C11.5174 16.5545 11.5174 16.2703 11.3341 16.087L8.77656 13.5295C8.71194 13.4661 8.63002 13.4233 8.54111 13.4065C8.45221 13.3896 8.3603 13.3995 8.27697 13.4347C8.19365 13.47 8.12264 13.5292 8.07288 13.6048C8.02313 13.6804 7.99686 13.769 7.9974 13.8595V15.5003Z" fill="white"/>
</svg>
