<svg width="52" height="52" viewBox="0 0 62 62" fill="none" xmlns="http://www.w3.org/2000/svg">
<path d="M30.6187 27.7952C30.664 27.7373 30.7219 27.6905 30.788 27.6583C30.8541 27.6261 30.9267 27.6094 31.0002 27.6094C31.0737 27.6094 31.1462 27.6261 31.2123 27.6583C31.2784 27.6905 31.3363 27.7373 31.3816 27.7952L38.1629 36.3747C38.2188 36.4461 38.2535 36.5318 38.263 36.622C38.2725 36.7121 38.2564 36.8032 38.2166 36.8846C38.1768 36.9661 38.1149 37.0347 38.038 37.0827C37.961 37.1306 37.8721 37.156 37.7814 37.1558H33.307V51.8323C33.307 52.0987 33.089 52.3167 32.8226 52.3167H29.1898C28.9234 52.3167 28.7054 52.0987 28.7054 51.8323V37.1618H24.2189C23.8133 37.1618 23.5892 36.6956 23.8375 36.3808L30.6187 27.7952Z" fill="#8594A0"/>
<path d="M12.8723 22.2025C15.6453 14.8885 22.7111 9.6875 30.9879 9.6875C39.2646 9.6875 46.3305 14.8824 49.1035 22.1965C54.2924 23.5588 58.125 28.2875 58.125 33.9062C58.125 40.5967 52.7061 46.0156 46.0217 46.0156H43.5938C43.3273 46.0156 43.1094 45.7977 43.1094 45.5312V41.8984C43.1094 41.632 43.3273 41.4141 43.5938 41.4141H46.0217C48.0621 41.4141 49.9814 40.6027 51.4104 39.1314C52.8332 37.6662 53.59 35.6924 53.5234 33.6459C53.4689 32.0475 52.924 30.5459 51.9371 29.2805C50.926 27.9908 49.5092 27.0523 47.935 26.6346L45.6402 26.0352L44.7986 23.8191C44.2779 22.4387 43.5514 21.149 42.6371 19.9805C41.7345 18.8223 40.6654 17.8041 39.4645 16.9592C36.976 15.2094 34.0455 14.283 30.9879 14.283C27.9303 14.283 24.9998 15.2094 22.5113 16.9592C21.3064 17.8068 20.2408 18.824 19.3387 19.9805C18.4244 21.149 17.6979 22.4447 17.1772 23.8191L16.3416 26.0291L14.0529 26.6346C10.7713 27.5186 8.47656 30.5035 8.47656 33.9062C8.47656 35.9104 9.25762 37.7994 10.6744 39.2162C11.3692 39.9151 12.1958 40.4692 13.1062 40.8465C14.0166 41.2237 14.9928 41.4166 15.9783 41.4141H18.4062C18.6727 41.4141 18.8906 41.632 18.8906 41.8984V45.5312C18.8906 45.7977 18.6727 46.0156 18.4062 46.0156H15.9783C9.29395 46.0156 3.875 40.5967 3.875 33.9062C3.875 28.2936 7.69551 23.5709 12.8723 22.2025Z" fill="#8594A0"/>
</svg>
