<svg width="20" height="22" viewBox="0 0 20 22" fill="none" xmlns="http://www.w3.org/2000/svg">
<path d="M18.0415 19.667C18.0415 19.8106 17.9844 19.9484 17.8829 20.05C17.7813 20.1516 17.6435 20.2087 17.4998 20.2087H4.49984C4.35618 20.2087 4.2184 20.1516 4.11682 20.05C4.01524 19.9484 3.95817 19.8106 3.95817 19.667V16.417H2.33317V19.667C2.33317 20.2416 2.56144 20.7927 2.96777 21.1991C3.3741 21.6054 3.9252 21.8337 4.49984 21.8337H17.4998C18.0745 21.8337 18.6256 21.6054 19.0319 21.1991C19.4382 20.7927 19.6665 20.2416 19.6665 19.667V8.64732C19.6664 8.07274 19.438 7.52173 19.0317 7.11549L12.7169 0.801825C12.7002 0.786255 12.6824 0.771781 12.6638 0.758492C12.6504 0.748146 12.6374 0.737305 12.6248 0.725992C12.5503 0.655652 12.471 0.5905 12.3876 0.530992C12.3598 0.513098 12.3309 0.49717 12.3009 0.483326L12.2489 0.457325L12.1948 0.425909C12.1363 0.392326 12.0767 0.357659 12.0149 0.331659C11.7992 0.245494 11.5709 0.195001 11.3389 0.182159C11.3173 0.181075 11.2956 0.177825 11.275 0.174575C11.2456 0.170034 11.2159 0.167501 11.1862 0.166992H4.49984C3.9252 0.166992 3.3741 0.395265 2.96777 0.801594C2.56144 1.20792 2.33317 1.75902 2.33317 2.33366V12.0837H3.95817V2.33366C3.95817 2.19 4.01524 2.05222 4.11682 1.95064C4.2184 1.84906 4.35618 1.79199 4.49984 1.79199H10.9998V6.66699C10.9998 7.24163 11.2281 7.79273 11.6344 8.19906C12.0408 8.60538 12.5919 8.83366 13.1665 8.83366H18.0415V19.667ZM12.6248 3.00641L16.826 7.20866H13.1665C13.0228 7.20866 12.8851 7.15159 12.7835 7.05001C12.6819 6.94843 12.6248 6.81065 12.6248 6.66699V3.00641ZM7.479 10.4587C7.26351 10.4587 7.05685 10.5443 6.90448 10.6966C6.75211 10.849 6.6665 11.0557 6.6665 11.2712C6.6665 11.4866 6.75211 11.6933 6.90448 11.8457C7.05685 11.9981 7.26351 12.0837 7.479 12.0837H14.5207C14.7362 12.0837 14.9428 11.9981 15.0952 11.8457C15.2476 11.6933 15.3332 11.4866 15.3332 11.2712C15.3332 11.0557 15.2476 10.849 15.0952 10.6966C14.9428 10.5443 14.7362 10.4587 14.5207 10.4587H7.479ZM0.979004 13.4378C0.763515 13.4378 0.556853 13.5234 0.40448 13.6758C0.252106 13.8282 0.166504 14.0348 0.166504 14.2503C0.166504 14.4658 0.252106 14.6725 0.40448 14.8248C0.556853 14.9772 0.763515 15.0628 0.979004 15.0628H8.02067C8.23616 15.0628 8.44282 14.9772 8.59519 14.8248C8.74757 14.6725 8.83317 14.4658 8.83317 14.2503C8.83317 14.0348 8.74757 13.8282 8.59519 13.6758C8.44282 13.5234 8.23616 13.4378 8.02067 13.4378H0.979004ZM7.479 16.417C7.26351 16.417 7.05685 16.5026 6.90448 16.655C6.75211 16.8073 6.6665 17.014 6.6665 17.2295C6.6665 17.445 6.75211 17.6516 6.90448 17.804C7.05685 17.9564 7.26351 18.042 7.479 18.042H14.5207C14.7362 18.042 14.9428 17.9564 15.0952 17.804C15.2476 17.6516 15.3332 17.445 15.3332 17.2295C15.3332 17.014 15.2476 16.8073 15.0952 16.655C14.9428 16.5026 14.7362 16.417 14.5207 16.417H7.479Z" fill="#208FF6"/>
</svg>
