<svg viewBox="0 0 26 22" fill="none" width="22px" heigth="22px" xmlns="http://www.w3.org/2000/svg">
<path d="M4.5942 11.5971C4.75403 11.5422 4.92591 11.5136 5.09968 11.5131C5.27345 11.5126 5.44558 11.5402 5.6059 11.5942C5.76621 11.6482 5.91147 11.7276 6.03306 11.8276C6.15466 11.9277 6.25014 12.0463 6.31385 12.1766C6.37756 12.3069 6.40821 12.4462 6.404 12.5861C6.39978 12.7261 6.36078 12.864 6.28929 12.9917C6.21781 13.1193 6.1153 13.2341 5.98782 13.3293C5.86034 13.4244 5.71048 13.498 5.5471 13.5457C4.6781 13.8216 3.93227 14.3019 3.40666 14.9241C2.88104 15.5463 2.59996 16.2816 2.6 17.0343V18.8571C2.6 19.135 2.73696 19.4015 2.98076 19.5979C3.22456 19.7944 3.55522 19.9048 3.9 19.9048H14.3C14.6448 19.9048 14.9754 19.7944 15.2192 19.5979C15.463 19.4015 15.6 19.135 15.6 18.8571V17.1317C15.6001 16.3549 15.3073 15.5963 14.7603 14.9567C14.2134 14.317 13.4381 13.8264 12.5372 13.5499C12.3728 13.5039 12.2215 13.4318 12.0924 13.3379C11.9632 13.2439 11.8587 13.13 11.7852 13.0029C11.7116 12.8758 11.6705 12.7381 11.6642 12.598C11.658 12.4578 11.6867 12.3181 11.7486 12.1871C11.8106 12.056 11.9046 11.9364 12.0251 11.8351C12.1455 11.7339 12.2899 11.6532 12.4498 11.5978C12.6096 11.5424 12.7817 11.5134 12.9557 11.5126C13.1297 11.5118 13.3021 11.5391 13.4628 11.593C14.8559 12.0206 16.0549 12.7792 16.9008 13.7683C17.7468 14.7575 18.1999 15.9304 18.2 17.1317V18.8571C18.2 19.6907 17.7891 20.4901 17.0577 21.0795C16.3263 21.6689 15.3343 22 14.3 22H3.9C2.86566 22 1.87368 21.6689 1.14228 21.0795C0.410892 20.4901 0 19.6907 0 18.8571V17.0343C0.000178881 15.8611 0.43846 14.7151 1.25783 13.7454C2.0772 12.7757 3.23973 12.0272 4.5942 11.5971ZM9.1 1.04762C10.4791 1.04762 11.8018 1.48911 12.777 2.27498C13.7521 3.06085 14.3 4.12671 14.3 5.2381V7.33333C14.3 8.44472 13.7521 9.51058 12.777 10.2964C11.8018 11.0823 10.4791 11.5238 9.1 11.5238C7.72087 11.5238 6.39823 11.0823 5.42304 10.2964C4.44786 9.51058 3.9 8.44472 3.9 7.33333V5.2381C3.9 4.12671 4.44786 3.06085 5.42304 2.27498C6.39823 1.48911 7.72087 1.04762 9.1 1.04762ZM9.1 3.14286C8.41044 3.14286 7.74912 3.36361 7.26152 3.75654C6.77393 4.14947 6.5 4.6824 6.5 5.2381V7.33333C6.5 7.88903 6.77393 8.42196 7.26152 8.81489C7.74912 9.20782 8.41044 9.42857 9.1 9.42857C9.78956 9.42857 10.4509 9.20782 10.9385 8.81489C11.4261 8.42196 11.7 7.88903 11.7 7.33333V5.2381C11.7 4.6824 11.4261 4.14947 10.9385 3.75654C10.4509 3.36361 9.78956 3.14286 9.1 3.14286ZM20.8 20.9524C20.4552 20.9524 20.1246 20.842 19.8808 20.6455C19.637 20.4491 19.5 20.1826 19.5 19.9048C19.5 19.6269 19.637 19.3605 19.8808 19.164C20.1246 18.9675 20.4552 18.8571 20.8 18.8571H22.1C22.4448 18.8571 22.7754 18.7468 23.0192 18.5503C23.263 18.3538 23.4 18.0874 23.4 17.8095V15.884C23.3999 15.1393 23.1091 14.4135 22.5688 13.8094C22.0284 13.2053 21.2659 12.7535 20.3892 12.518C20.062 12.4302 19.7915 12.2413 19.6372 11.9927C19.4828 11.7442 19.4574 11.4564 19.5663 11.1928C19.6753 10.9291 19.9097 10.7111 20.2181 10.5867C20.5265 10.4624 20.8836 10.4418 21.2108 10.5296C22.6054 10.9041 23.8184 11.6228 24.678 12.5838C25.5376 13.5448 26.0001 14.6994 26 15.884V17.8095C26 18.6431 25.5891 19.4425 24.8577 20.0319C24.1263 20.6213 23.1343 20.9524 22.1 20.9524H20.8ZM16.9 2.09524C16.5552 2.09524 16.2246 1.98486 15.9808 1.7884C15.737 1.59193 15.6 1.32546 15.6 1.04762C15.6 0.769773 15.737 0.503307 15.9808 0.30684C16.2246 0.110374 16.5552 0 16.9 0C18.2791 0 19.6018 0.441495 20.577 1.22736C21.5521 2.01323 22.1 3.07909 22.1 4.19048V6.28571C22.1 7.3971 21.5521 8.46296 20.577 9.24883C19.6018 10.0347 18.2791 10.4762 16.9 10.4762C16.5552 10.4762 16.2246 10.3658 15.9808 10.1694C15.737 9.97288 15.6 9.70642 15.6 9.42857C15.6 9.15073 15.737 8.88426 15.9808 8.68779C16.2246 8.49133 16.5552 8.38095 16.9 8.38095C17.5896 8.38095 18.2509 8.1602 18.7385 7.76727C19.2261 7.37434 19.5 6.84141 19.5 6.28571V4.19048C19.5 3.63478 19.2261 3.10185 18.7385 2.70892C18.2509 2.31599 17.5896 2.09524 16.9 2.09524Z" fill="white"/>
</svg>
