<svg width="200" height="199" viewBox="0 0 200 199" fill="none" xmlns="http://www.w3.org/2000/svg">
<path d="M19.4304 24.1009C20.2504 23.6458 21.154 23.3612 22.0868 23.264C23.0196 23.1669 23.9624 23.2592 24.8586 23.5354C26.6484 24.0927 28.287 25.0521 29.6491 26.34C32.3632 28.7601 34.1093 32.5282 35.1723 35.9842C31.264 36.916 27.1068 34.8081 25.0667 33.6048C21.8414 31.7275 17.1686 26.34 19.4304 24.1009Z" fill="#EBEBEB"/>
<path d="M42.048 36.5821C41.0912 36.155 40.2644 35.4822 39.6518 34.632C39.0393 33.7819 38.6627 32.7847 38.5604 31.7419C38.4767 30.6982 38.6016 29.6484 38.9278 28.6535C39.254 27.6587 39.7749 26.7387 40.4603 25.9472C41.08 25.2053 41.9123 24.5223 42.8759 24.5313C43.3279 24.5647 43.7629 24.7182 44.1358 24.9758C44.5088 25.2335 44.8062 25.586 44.9974 25.997C45.3676 26.8252 45.5127 27.7365 45.4181 28.6387C45.2371 31.7283 44.5134 34.6867 42.048 36.5821" fill="#EBEBEB"/>
<path d="M46.7344 44.3286C46.1151 43.8225 45.551 43.2524 45.0516 42.6277C44.4806 41.9665 43.9887 41.2408 43.586 40.4655C43.0726 39.5334 42.6193 38.5694 42.229 37.5795C41.5154 35.7572 41.2637 33.7867 41.4961 31.8436C41.5898 31.26 41.7413 30.6872 41.9485 30.1337C42.0104 29.9253 42.1084 29.7293 42.238 29.5547C42.3059 29.5818 41.9485 30.4323 41.7856 31.8798C41.6448 33.7714 41.9276 35.6707 42.6135 37.4392C42.9947 38.4133 43.4312 39.3647 43.9208 40.2891C44.2972 41.0534 44.752 41.7765 45.2778 42.4468C45.8044 43.0412 46.291 43.6698 46.7344 44.3286V44.3286Z" fill="#E0E0E0"/>
<path d="M23.3613 27.8906C23.7273 28.0588 24.0771 28.2601 24.4063 28.4923C25.0712 28.8994 26.0212 29.5055 27.1837 30.261C29.5179 31.7763 32.716 33.9069 36.1901 36.3451C39.6642 38.7833 42.7492 41.0768 44.9431 42.7867C46.0424 43.6416 46.9245 44.3427 47.5216 44.8403C47.8477 45.0782 48.1506 45.3462 48.4263 45.641C48.074 45.4442 47.7395 45.2172 47.4266 44.9625L44.7713 43.0173C42.5366 41.3663 39.429 39.1135 35.9594 36.6844L27.0299 30.5007L24.3158 28.6234C23.9788 28.4048 23.6596 28.1597 23.3613 27.8906V27.8906Z" fill="#E0E0E0"/>
<path d="M40.5154 41.1014C38.4162 40.4153 36.1836 40.2396 34.0029 40.5889C31.8222 40.9382 29.7561 41.8024 27.9762 43.1098C27.0715 43.7838 26.1668 44.8061 26.4698 45.8918C26.7729 46.9774 28.035 47.4388 29.1523 47.5655C31.4874 47.7817 33.8342 47.3022 35.8972 46.1873C37.9603 45.0725 39.6474 43.3721 40.7461 41.3004" fill="#EBEBEB"/>
<path d="M31.1465 43.9823C31.1465 43.9597 31.3184 43.8285 31.6712 43.6159C32.024 43.4033 32.5352 43.1184 33.1866 42.7881C34.8952 41.9096 36.7503 41.3515 38.6601 41.1416C39.7226 41.0554 40.792 41.1425 41.8266 41.3994C43.2328 41.7672 44.5358 42.4528 45.6354 43.4033C45.943 43.6702 46.0877 43.8285 46.0877 43.8557C46.0877 43.8828 45.3504 43.3264 44.0838 42.6479C42.4306 41.7676 40.5576 41.3857 38.6918 41.5487C36.8284 41.7598 35.011 42.2684 33.3087 43.055C32.607 43.4067 31.885 43.7163 31.1465 43.9823V43.9823Z" fill="#E0E0E0"/>
<path d="M81.2013 196.535C87.2131 191.292 87.7786 182.706 86.702 175.161C86.5255 173.903 86.521 172.555 85.7973 171.51C85.0735 170.465 83.5943 169.859 82.5177 170.511C81.613 171.053 81.337 172.193 80.9073 173.152C80.3371 174.438 79.415 175.535 78.2475 176.319C77.4875 176.821 76.5195 177.183 75.6781 176.83C74.5201 176.346 74.2306 174.853 74.1039 173.596C73.8626 171.253 73.6244 168.908 73.3892 166.562C73.3292 165.296 73.0649 164.048 72.6066 162.866C72.0864 161.717 71.1048 160.699 69.8699 160.491C68.6349 160.283 67.2326 161.138 67.115 162.395C67.123 162.921 67.1668 163.445 67.2462 163.965C67.2827 164.224 67.2415 164.488 67.128 164.724C67.0145 164.96 66.8337 165.157 66.6084 165.29C66.1199 165.494 65.5815 165.191 65.1654 164.865C63.7269 163.734 62.6729 162.192 61.6732 160.654C60.6735 159.116 59.6964 157.537 58.371 156.28C57.0456 155.022 55.295 154.099 53.4856 154.194C51.6762 154.289 49.8668 155.606 49.6089 157.42C49.3511 159.233 50.5724 160.93 51.8707 162.242C53.7684 164.191 55.938 165.857 58.3122 167.186C58.7695 167.375 59.1535 167.706 59.4069 168.131C59.7688 168.941 59.0631 169.859 58.267 170.221C57.3623 170.637 56.3354 170.646 55.3674 170.868C54.3993 171.09 53.3816 171.637 53.1056 172.605C52.7302 173.962 53.9515 175.174 55.105 175.943C57.4147 177.482 59.9715 178.613 62.6639 179.286C63.6229 179.526 64.6316 179.739 65.4458 180.286C66.2601 180.833 66.821 181.946 66.4727 182.851C66.1244 183.756 64.9935 184.208 64.0028 184.122C63.0122 184.036 62.0939 183.615 61.1304 183.367C59.321 182.914 57.1135 183.258 56.1545 184.873C55.8728 185.423 55.7221 186.032 55.7143 186.65C55.7064 187.268 55.8416 187.88 56.1092 188.437C56.6599 189.547 57.4293 190.533 58.371 191.337C61.463 194.333 65.2956 196.453 69.4763 197.48C73.6335 198.439 77.388 198.416 81.2149 196.53" fill="#EBEBEB"/>
<path d="M78.7375 192.002C77.0343 188.01 75.1041 184.12 72.9564 180.349L71.2827 177.373C70.7354 176.4 70.188 175.432 69.5954 174.518C68.4519 172.768 67.2136 171.081 65.8861 169.465C64.6286 167.918 63.3801 166.493 62.204 165.168C61.0278 163.843 59.897 162.635 58.8249 161.576C57.1417 159.893 55.3265 158.347 53.3966 156.953C52.7181 156.46 52.1753 156.094 51.8043 155.85L51.3837 155.578C51.3387 155.542 51.2883 155.513 51.2344 155.492L51.3701 155.596L51.7817 155.89C52.1391 156.144 52.6864 156.524 53.3423 157.026C55.2459 158.444 57.0393 160.005 58.7073 161.694C59.7658 162.757 60.8831 163.956 62.0547 165.313C63.2263 166.67 64.4703 168.068 65.7188 169.619C67.0361 171.231 68.2653 172.914 69.4009 174.658C69.989 175.563 70.5273 176.527 71.0792 177.504C71.631 178.481 72.1874 179.476 72.7483 180.48C74.8933 184.241 76.8249 188.119 78.534 192.097" fill="#E0E0E0"/>
<path d="M69.5298 174.517C69.5685 174.335 69.5897 174.15 69.5932 173.965C69.6248 173.612 69.6474 173.096 69.6701 172.459C69.7108 171.187 69.7108 169.432 69.7017 167.483C69.6927 165.533 69.7017 163.791 69.7786 162.507C69.8103 161.874 69.8374 161.362 69.8646 161.01C69.8872 160.825 69.8872 160.638 69.8646 160.453C69.814 160.632 69.7806 160.815 69.7651 161C69.7108 161.353 69.6565 161.864 69.6067 162.498C69.5027 163.769 69.4529 165.529 69.462 167.474C69.471 169.419 69.462 171.115 69.4936 172.45V173.951C69.4852 174.141 69.4974 174.33 69.5298 174.517V174.517Z" fill="#E0E0E0"/>
<path d="M53.0371 173.241C53.2538 173.259 53.4718 173.259 53.6885 173.241C54.1092 173.241 54.7153 173.218 55.4617 173.241C56.9635 173.241 59.0308 173.313 61.3107 173.494C63.5905 173.675 65.6488 173.946 67.1279 174.159C67.8698 174.268 68.485 174.372 68.8831 174.439C69.0957 174.488 69.3121 174.518 69.5299 174.53C69.3275 174.448 69.1166 174.389 68.9012 174.354C68.4895 174.254 67.897 174.127 67.1551 173.996C65.6759 173.725 63.6132 173.444 61.3288 173.259C59.373 173.097 57.4102 173.035 55.4482 173.073C54.6973 173.073 54.0911 173.128 53.6704 173.164C53.4574 173.169 53.2453 173.195 53.0371 173.241V173.241Z" fill="#E0E0E0"/>
<path d="M78.5098 191.724C78.5496 191.659 78.5801 191.589 78.6002 191.516C78.6545 191.353 78.7269 191.149 78.8128 190.9C78.9938 190.367 79.2381 189.589 79.5276 188.639C80.1111 186.703 80.8258 184.002 81.5767 181.012C82.3276 178.022 83.0243 175.317 83.5626 173.372C83.8249 172.426 84.0466 171.648 84.2049 171.069C84.2773 170.82 84.3316 170.617 84.3813 170.44C84.4068 170.369 84.4206 170.294 84.422 170.219C84.3852 170.284 84.3563 170.354 84.3361 170.427L84.119 171.042C83.938 171.576 83.6937 172.358 83.4042 173.326C82.8252 175.262 82.106 177.963 81.3551 180.953C80.6042 183.943 79.9121 186.644 79.3738 188.589C79.1069 189.534 78.8897 190.312 78.7269 190.891C78.659 191.145 78.6002 191.344 78.555 191.52C78.5315 191.586 78.5163 191.654 78.5098 191.724V191.724Z" fill="#E0E0E0"/>
<path d="M56.2793 187.119C56.3508 187.148 56.4251 187.169 56.5009 187.182L57.1478 187.323L59.5272 187.82C61.5357 188.241 64.3086 188.856 67.3665 189.535C70.4244 190.213 73.2064 190.806 75.2284 191.186C76.2372 191.376 77.0378 191.521 77.6214 191.611L78.2773 191.706C78.3536 191.719 78.4316 191.719 78.508 191.706C78.4359 191.679 78.3618 191.658 78.2863 191.643L77.6395 191.502L75.2556 191.005C73.2471 190.584 70.4787 189.969 67.4163 189.29C64.3538 188.612 61.5764 188.019 59.5589 187.639C58.5501 187.449 57.7494 187.305 57.1614 187.214L56.51 187.119C56.4336 187.106 56.3556 187.106 56.2793 187.119Z" fill="#E0E0E0"/>
<path d="M186.251 93.5592L181.668 100.005L179.963 99.2499L166.949 106.99L164.633 100.155C164.633 100.155 171.934 98.2094 173.562 95.9477C175.191 93.6859 173.807 92.9169 173.807 92.9169L177.579 89.7188L186.251 93.5592Z" fill="#EBEBEB"/>
<path d="M183.727 78.6317C183.727 78.6317 178.688 76.7137 172.396 68.5849C166.103 60.4561 164.036 50.5903 163.131 50.4908C162.227 50.3912 158.581 48.0073 148.742 63.1205C138.903 78.2336 141.283 82.427 142.771 82.6124C144.259 82.7979 154.74 81.477 160.924 83.1191C167.108 84.7611 174.707 89.2259 174.707 89.2259L183.727 78.6317Z" fill="#EBEBEB"/>
<path d="M193.49 89.0982L191.228 92.2149L190.206 93.6127C189.533 94.5344 188.532 95.163 187.41 95.3692C186.287 95.5754 185.128 95.3434 184.172 94.721L173.582 89.1842L182.267 75.2969L192.536 82.8874C193.482 83.5872 194.114 84.6328 194.292 85.7962C194.471 86.9596 194.183 88.1465 193.49 89.0982V89.0982Z" fill="#E0E0E0"/>
<path d="M149.3 63.5128C144.043 71.7094 141.239 79.2909 143.044 80.4489C144.848 81.6069 150.566 75.8937 155.823 67.697C161.079 59.5004 163.884 51.9189 162.083 50.7654C160.283 49.6119 154.56 55.3161 149.3 63.5128Z" fill="#E0E0E0"/>
<path d="M193.729 94.1194L190.848 92.7216L193.241 89.4375L195.303 91.1836L193.729 94.1194Z" fill="#E0E0E0"/>
<path d="M191.032 89.956C190.973 90.0464 189.549 89.2367 187.866 88.1465C186.183 87.0564 184.84 86.0974 184.898 86.0069C184.957 85.9164 186.378 86.7261 188.065 87.8163C189.752 88.9065 191.091 89.861 191.032 89.956Z" fill="#EBEBEB"/>
<path d="M192.276 87.9665C192.217 88.0569 190.919 87.2789 189.412 86.2294C187.906 85.18 186.698 84.2617 186.775 84.1712C186.852 84.0807 188.132 84.8588 189.638 85.9083C191.145 86.9577 192.339 87.8579 192.276 87.9665Z" fill="#EBEBEB"/>
<path d="M189.513 92.0021C189.491 92.0519 189.143 91.9162 188.609 91.6538C188.333 91.5226 188.012 91.3598 187.654 91.1743C187.297 90.9888 186.944 90.722 186.555 90.4822C185.013 89.4735 183.841 88.5326 183.913 88.4511C183.986 88.3697 185.243 89.1523 186.772 90.1565C187.152 90.4008 187.505 90.6631 187.844 90.8667C188.184 91.0703 188.487 91.2512 188.749 91.4095C189.251 91.7307 189.554 91.9524 189.513 92.0021Z" fill="#EBEBEB"/>
<path d="M157.671 62.7534C157.671 62.7534 153.559 59.2793 150.18 65.0152C146.801 70.751 151.419 72.479 151.419 72.479C153.951 69.5477 156.055 66.2734 157.671 62.7534V62.7534Z" fill="#EBEBEB"/>
<path d="M163.562 56.1953C163.477 56.5857 163.361 56.9684 163.214 57.3398C162.96 58.0635 162.594 59.1175 162.11 60.4067C161.82 61.0355 161.508 61.7231 161.169 62.4559L160.644 63.5958L160.364 64.1929C160.269 64.392 160.147 64.5865 160.038 64.7855L158.627 67.2735C158.505 67.4906 158.382 67.7258 158.256 67.9249C158.129 68.1239 157.975 68.3455 157.84 68.5627L156.948 69.8293L156.08 71.123C155.931 71.3311 155.799 71.5754 155.628 71.7473L155.175 72.3308C154.551 73.1043 153.945 73.8462 153.366 74.5564C153.217 74.7328 153.081 74.9092 152.913 75.0766L152.461 75.5515L151.588 76.4563L150.023 78.0802C149.005 78.9849 148.155 79.7223 147.576 80.2244C147.285 80.4996 146.97 80.7479 146.635 80.9662C146.89 80.659 147.17 80.3731 147.472 80.1113L149.837 77.8766C150.29 77.37 150.81 76.8181 151.357 76.2301L152.203 75.3254L152.656 74.8459C152.805 74.683 152.936 74.5021 153.081 74.3257C153.642 73.6155 154.234 72.8736 154.85 72.1046L155.302 71.5211C155.46 71.3266 155.591 71.1094 155.754 70.9013L156.627 69.6212L157.5 68.341C157.641 68.1284 157.794 67.9294 157.916 67.7123L158.305 67.0518C158.799 66.1969 159.274 65.3736 159.73 64.591C159.839 64.392 159.961 64.2065 160.061 64.0075C160.16 63.8084 160.251 63.6139 160.341 63.4194L160.884 62.293C161.237 61.5693 161.562 60.8968 161.861 60.2755C162.368 59.018 162.766 58.0138 163.078 57.2629C163.209 56.894 163.371 56.5368 163.562 56.1953V56.1953Z" fill="#E0E0E0"/>
<path d="M155.075 147.597C155.075 147.597 158.065 148.804 154.622 155.155C151.18 161.506 148.805 164.632 148.805 164.632C148.805 164.632 148.181 166.111 149.434 166.378C150.687 166.645 153.464 166.27 153.989 167.826C154.514 169.382 153.329 170.911 150.945 172.173C148.561 173.435 143.436 176.384 142.974 176.651C142.513 176.918 142.07 177.597 142.879 177.913C143.689 178.23 149.913 179.044 149.352 181.985C148.792 184.925 141.567 187.309 140.789 187.589C140.011 187.87 139.812 188.195 139.885 188.621C139.957 189.046 142.052 189.127 143.811 189.43C145.571 189.733 147.552 190.389 147.086 192.049C146.62 193.71 142.291 197.111 131.978 197.853L127.178 197.885L124.672 193.764C119.845 184.617 120.443 179.148 121.605 177.873C122.768 176.597 124.378 177.936 125.563 179.266C126.748 180.596 127.934 182.351 128.323 182.17C128.712 181.989 128.888 181.65 128.712 180.84C128.535 180.03 126.766 172.616 128.951 170.594C131.136 168.572 135.112 173.417 135.814 173.946C136.515 174.475 136.854 173.72 136.836 173.195C136.818 172.671 136.614 166.754 136.424 164.062C136.234 161.371 136.849 159.575 138.505 159.181C140.161 158.788 141.255 161.357 142.124 162.28C142.992 163.203 143.933 161.891 143.933 161.891C143.933 161.891 145.345 158.236 148.909 151.939C152.474 145.642 155.138 147.624 155.138 147.624" fill="#EBEBEB"/>
<path d="M126.876 199.001C129.477 194.373 133.959 186.072 137.845 178.966C141.731 171.859 145.25 165.431 147.829 160.79C149.118 158.479 150.158 156.602 150.887 155.299L151.714 153.806L151.927 153.417C151.952 153.373 151.975 153.328 151.995 153.281L151.913 153.408C151.859 153.498 151.787 153.63 151.687 153.792L150.832 155.258C150.095 156.543 149.023 158.425 147.738 160.727C145.137 165.355 141.6 171.778 137.714 178.88C133.828 185.982 129.355 194.31 126.785 198.951" fill="#E0E0E0"/>
<path d="M150.123 168.5C150.009 168.514 149.897 168.542 149.789 168.581C149.571 168.645 149.268 168.744 148.884 168.871C148.128 169.129 147.074 169.509 145.957 169.948L143.062 171.097L142.18 171.431C142.069 171.466 141.963 171.513 141.863 171.571C141.977 171.554 142.089 171.527 142.198 171.49C142.415 171.427 142.723 171.323 143.103 171.196C143.858 170.929 144.885 170.54 146.02 170.101L148.929 168.984L149.811 168.654C149.921 168.614 150.025 168.563 150.123 168.5V168.5Z" fill="#E0E0E0"/>
<path d="M141.538 171.238C141.579 171.238 140.891 169.058 140 166.393C139.109 163.729 138.363 161.594 138.322 161.594C138.281 161.594 138.973 163.774 139.86 166.438C140.747 169.103 141.498 171.252 141.538 171.238Z" fill="#E0E0E0"/>
<path d="M136.064 182.398C136.014 182.291 135.952 182.189 135.878 182.095C135.729 181.883 135.544 181.62 135.326 181.304C134.874 180.634 134.232 179.707 133.571 178.658C132.911 177.608 132.336 176.64 131.934 175.943L131.45 175.111C131.397 175.005 131.333 174.905 131.26 174.812C131.294 174.926 131.341 175.035 131.4 175.138C131.5 175.342 131.649 175.636 131.852 175.998C132.237 176.717 132.793 177.699 133.458 178.748C134.123 179.797 134.77 180.72 135.268 181.376C135.512 181.702 135.72 181.964 135.856 182.141C135.917 182.233 135.987 182.319 136.064 182.398Z" fill="#E0E0E0"/>
<path d="M144.374 181.649C144.264 181.638 144.153 181.638 144.043 181.649L143.139 181.695C142.388 181.74 141.329 181.817 140.207 181.907C139.086 181.998 138.027 182.088 137.276 182.165L136.394 182.26C136.283 182.261 136.174 182.28 136.068 182.314C136.178 182.326 136.289 182.326 136.399 182.314L137.303 182.269C138.054 182.224 139.09 182.147 140.235 182.057C141.379 181.966 142.415 181.876 143.161 181.799L144.066 181.704C144.17 181.698 144.273 181.679 144.374 181.649V181.649Z" fill="#E0E0E0"/>
<path d="M140.796 192.134C140.656 192.122 140.516 192.122 140.376 192.134L139.236 192.193C138.272 192.247 136.942 192.328 135.477 192.432C134.011 192.536 132.681 192.64 131.722 192.722L130.582 192.826C130.442 192.833 130.303 192.852 130.166 192.88C130.306 192.898 130.447 192.898 130.587 192.88L131.727 192.826C132.69 192.772 134.02 192.686 135.486 192.582C136.951 192.478 138.281 192.378 139.24 192.297L140.38 192.193C140.52 192.186 140.66 192.166 140.796 192.134V192.134Z" fill="#E0E0E0"/>
<path d="M130.413 192.808C130.35 192.672 130.275 192.541 130.187 192.419L129.531 191.388C128.974 190.519 128.21 189.316 127.405 187.964C126.6 186.611 125.903 185.367 125.405 184.462L124.826 183.377C124.76 183.243 124.682 183.114 124.596 182.992C124.643 183.135 124.703 183.273 124.777 183.404C124.899 183.666 125.089 184.042 125.324 184.499C125.799 185.403 126.487 186.67 127.292 188.022C128.097 189.375 128.875 190.578 129.454 191.433C129.744 191.885 129.983 192.207 130.155 192.437C130.233 192.567 130.319 192.691 130.413 192.808V192.808Z" fill="#E0E0E0"/>
<path d="M150.501 0.179688H46.1387V41.448H150.501V0.179688Z" fill="#FF7E35"/>
<path d="M150.504 41.4447C150.504 41.4447 150.504 41.1914 150.504 40.7119C150.504 40.2324 150.504 39.5131 150.504 38.5768C150.504 36.704 150.504 33.9447 150.504 30.3846C150.504 23.2691 150.477 12.9599 150.459 0.176418L150.54 0.257842L46.1867 0.294031L46.3043 0.176418C46.3043 14.611 46.3043 28.5571 46.3043 41.4447L46.1912 41.3316L121.011 41.3814L142.724 41.413H148.536H150.038H150.554H150.052H148.564H142.778L121.088 41.4447L46.1912 41.499H46.0781V41.3859C46.0781 28.4983 46.0781 14.5522 46.0781 0.117613V0H46.2048L150.504 0.0995185H150.604V0.180942C150.604 12.9871 150.567 23.3098 150.558 30.4389C150.558 33.9899 150.558 36.7447 150.558 38.613C150.558 39.5448 150.558 40.2505 150.558 40.7345C150.558 41.2185 150.504 41.4447 150.504 41.4447Z" fill="#263238"/>
<path d="M59.9662 32.8778C59.3572 32.8745 58.7598 32.7109 58.2341 32.4036C57.7084 32.0962 57.2728 31.6559 56.9712 31.1269C56.6695 30.5979 56.5124 29.9988 56.5157 29.3898C56.5189 28.7808 56.6824 28.1834 56.9897 27.6576L67.0772 10.3641C67.3813 9.83742 67.8193 9.40053 68.3469 9.09784C68.8744 8.79514 69.4726 8.63742 70.0808 8.64067V8.64067C70.6895 8.64208 71.2869 8.80484 71.8122 9.11237C72.3374 9.4199 72.7717 9.8612 73.0709 10.3913L83.0227 27.7707C83.3252 28.3001 83.483 28.8998 83.4803 29.5095C83.4776 30.1193 83.3145 30.7175 83.0074 31.2442C82.7002 31.771 82.2599 32.2076 81.7306 32.5102C81.2013 32.8128 80.6016 32.9708 79.9919 32.9683L59.9752 32.8778H59.9662ZM70.0808 9.68109C69.6532 9.67699 69.2322 9.78669 68.861 9.99893C68.4898 10.2112 68.1817 10.5183 67.9683 10.8889L57.8672 28.1779C57.6527 28.5468 57.5386 28.9655 57.5366 29.3923C57.5346 29.8191 57.6447 30.2389 57.8558 30.6099C58.0669 30.9808 58.3716 31.2898 58.7396 31.506C59.1076 31.7222 59.5258 31.838 59.9526 31.8419V31.8419L79.9693 31.9324C80.3974 31.9352 80.8186 31.825 81.1905 31.613C81.5624 31.4009 81.8718 31.0945 82.0875 30.7247C82.3031 30.3549 82.4174 29.9347 82.4188 29.5066C82.4202 29.0785 82.3086 28.6576 82.0953 28.2864L72.1435 10.907C71.9367 10.5403 71.6374 10.2343 71.2755 10.0192C70.9136 9.80413 70.5017 9.68756 70.0808 9.68109V9.68109Z" fill="white"/>
<path d="M68.5859 27.326C68.5862 27.1516 68.6222 26.9791 68.6915 26.8191C68.7609 26.6591 68.8622 26.5149 68.9893 26.3955C69.1164 26.276 69.2665 26.1838 69.4305 26.1245C69.5945 26.0651 69.7689 26.0399 69.943 26.0504C70.2837 26.0504 70.6105 26.1857 70.8514 26.4267C71.0923 26.6676 71.2277 26.9943 71.2277 27.3351C71.2277 27.6758 71.0923 28.0026 70.8514 28.2435C70.6105 28.4844 70.2837 28.6198 69.943 28.6198C69.7679 28.6283 69.5928 28.6012 69.4284 28.5401C69.2641 28.4789 69.1139 28.385 68.987 28.264C68.8601 28.143 68.7591 27.9974 68.6901 27.8362C68.6212 27.6749 68.5857 27.5014 68.5859 27.326V27.326ZM68.7036 16.9219H71.1598L70.7391 24.6797H69.0971L68.7036 16.9219Z" fill="white"/>
<path d="M88.2991 19.5536H85.6619L85.1688 20.7659H83.3594L86.1142 14.5234H87.8558L90.6197 20.7659H88.7831L88.2991 19.5536ZM87.7834 18.2508L86.9827 16.2514L86.1775 18.2508H87.7834Z" fill="white"/>
<path d="M92.1439 15.9335H90.2305V14.5312H95.8216V15.9335H93.9126V20.7737H92.1439V15.9335Z" fill="white"/>
<path d="M97.8945 15.9335H95.9766V14.5312H101.568V15.9335H99.6587V20.7737H97.8945V15.9335Z" fill="white"/>
<path d="M107.243 19.4076V20.7647H102.23V14.5312H107.129V15.8883H103.963V16.9423H106.736V18.2632H103.963V19.4031L107.243 19.4076Z" fill="white"/>
<path d="M114.163 14.5312V20.7737H112.711L109.957 17.4444V20.7737H108.229V14.5312H109.681L112.435 17.8561V14.5312H114.163Z" fill="white"/>
<path d="M116.746 15.9335H114.828V14.5312H120.419V15.9335H118.51V20.7737H116.746V15.9335Z" fill="white"/>
<path d="M121.076 14.5312H122.84V20.7737H121.076V14.5312Z" fill="white"/>
<path d="M123.781 17.6542C123.781 15.7814 125.256 14.4062 127.251 14.4062C129.246 14.4062 130.72 15.7633 130.72 17.6542C130.72 19.545 129.25 20.9111 127.251 20.9111C125.251 20.9111 123.781 19.5269 123.781 17.6542ZM128.938 17.6542C128.92 17.3251 128.805 17.0087 128.609 16.744C128.412 16.4793 128.143 16.2779 127.833 16.1647C127.524 16.0514 127.188 16.0312 126.867 16.1067C126.546 16.1821 126.255 16.3498 126.028 16.5892C125.802 16.8285 125.65 17.1289 125.592 17.4534C125.535 17.7778 125.573 18.1121 125.703 18.4149C125.833 18.7177 126.049 18.9758 126.324 19.1573C126.599 19.3389 126.921 19.4359 127.251 19.4364C127.481 19.4388 127.71 19.3935 127.922 19.3036C128.134 19.2136 128.325 19.0808 128.483 18.9135C128.642 18.7462 128.764 18.548 128.842 18.3313C128.92 18.1146 128.953 17.8841 128.938 17.6542V17.6542Z" fill="white"/>
<path d="M137.587 14.5312V20.7737H136.13L133.375 17.4444V20.7737H131.643V14.5312H133.099L135.854 17.8561V14.5312H137.587Z" fill="white"/>
<path d="M99.3744 26.6729C99.3744 27.7224 98.5783 28.3783 97.3162 28.3783H96.511V29.5861H95.1992V24.9766H97.3162C98.5828 24.9766 99.3744 25.6144 99.3744 26.6729ZM98.0491 26.6729C98.0491 26.2205 97.7776 25.9898 97.2348 25.9898H96.511V27.3469H97.2258C97.7776 27.3469 98.0491 27.0936 98.0491 26.6729Z" fill="white"/>
<path d="M100.004 24.9766H101.294V28.5683H103.506V29.6041H99.9863L100.004 24.9766Z" fill="white"/>
<path d="M107.761 28.5954V29.6041H104.047V24.9766H107.666V25.9717H105.332V26.7498H107.39V27.7314H105.332V28.5954H107.761Z" fill="white"/>
<path d="M111.585 28.6904H109.631L109.264 29.5951H107.93L109.974 24.9766H111.25L113.299 29.6041H111.942L111.585 28.6904ZM111.205 27.7224L110.608 26.2432L110.015 27.7224H111.205Z" fill="white"/>
<path d="M113.357 29.1742L113.787 28.2107C114.245 28.4998 114.774 28.6564 115.316 28.663C115.859 28.663 116.072 28.5092 116.072 28.283C116.072 27.5502 113.439 28.0885 113.439 26.3696C113.439 25.5418 114.113 24.8678 115.488 24.8678C116.073 24.8571 116.65 24.9956 117.166 25.2704L116.764 26.2429C116.372 26.0188 115.93 25.896 115.479 25.8856C114.932 25.8856 114.733 26.071 114.733 26.3017C114.733 27.0074 117.361 26.4781 117.361 28.188C117.361 28.9932 116.687 29.6808 115.307 29.6808C114.622 29.6999 113.946 29.5242 113.357 29.1742V29.1742Z" fill="white"/>
<path d="M121.677 28.5954V29.6041H117.963V24.9766H121.582V25.9717H119.257V26.7498H121.315V27.7314H119.257V28.5954H121.677Z" fill="white"/>
<path d="M122.186 28.9552C122.2 28.7667 122.285 28.5907 122.424 28.4623C122.563 28.3339 122.745 28.2626 122.934 28.2626C123.123 28.2626 123.305 28.3339 123.444 28.4623C123.583 28.5907 123.668 28.7667 123.683 28.9552C123.668 29.1437 123.583 29.3198 123.444 29.4482C123.305 29.5766 123.123 29.6479 122.934 29.6479C122.745 29.6479 122.563 29.5766 122.424 29.4482C122.285 29.3198 122.2 29.1437 122.186 28.9552V28.9552ZM122.186 24.9609H123.678L123.43 27.9058H122.43L122.186 24.9609Z" fill="white"/>
<path d="M52.1774 4.12192C52.1774 4.47979 52.0713 4.82962 51.8725 5.12717C51.6737 5.42473 51.3911 5.65665 51.0604 5.7936C50.7298 5.93055 50.366 5.96638 50.015 5.89657C49.664 5.82675 49.3416 5.65442 49.0886 5.40137C48.8355 5.14832 48.6632 4.82591 48.5934 4.47492C48.5235 4.12392 48.5594 3.76011 48.6963 3.42948C48.8333 3.09885 49.0652 2.81626 49.3628 2.61744C49.6603 2.41862 50.0101 2.3125 50.368 2.3125C50.8479 2.3125 51.3081 2.50313 51.6475 2.84246C51.9868 3.1818 52.1774 3.64203 52.1774 4.12192Z" fill="#E0E0E0"/>
<path d="M52.1801 4.12854C52.1801 4.12854 52.1801 3.97022 52.076 3.70333C51.9644 3.32852 51.7342 2.99999 51.4201 2.76695C51.1901 2.59962 50.9223 2.49182 50.6405 2.45314C50.3588 2.41446 50.0718 2.44613 49.8052 2.5453C49.4833 2.66654 49.206 2.88302 49.0103 3.16588C48.8146 3.44875 48.7097 3.78456 48.7097 4.12854C48.7097 4.47252 48.8146 4.80833 49.0103 5.09119C49.206 5.37406 49.4833 5.59054 49.8052 5.71178C50.0722 5.81032 50.3593 5.84123 50.6411 5.80176C50.9229 5.7623 51.1905 5.65368 51.4201 5.4856C51.7334 5.25374 51.9635 4.92691 52.076 4.55375C52.1575 4.28234 52.1575 4.1014 52.1801 4.1014C52.2155 4.25011 52.2155 4.40504 52.1801 4.55375C52.0991 4.97442 51.8715 5.35272 51.5377 5.62131C51.2873 5.82244 50.9891 5.95558 50.6722 6.00788C50.3552 6.06018 50.0301 6.02986 49.7283 5.91986C49.365 5.78555 49.0516 5.54315 48.8303 5.22531C48.6089 4.90747 48.4902 4.52944 48.4902 4.14211C48.4902 3.75478 48.6089 3.37675 48.8303 3.05891C49.0516 2.74107 49.365 2.49867 49.7283 2.36436C50.0298 2.25374 50.3546 2.22269 50.6716 2.27419C50.9885 2.32569 51.2868 2.45801 51.5377 2.65839C51.8704 2.91899 52.0997 3.28934 52.1846 3.70333C52.2153 3.84358 52.2137 3.98897 52.1801 4.12854V4.12854Z" fill="#263238"/>
<path d="M51.3527 3.23655C50.9495 3.43017 50.5675 3.66515 50.2128 3.9377C49.9091 4.26603 49.6407 4.62536 49.4121 5.00978C49.4199 4.76772 49.4817 4.53044 49.5928 4.31524C49.7039 4.10005 49.8616 3.91235 50.0545 3.76581C50.2188 3.58774 50.4202 3.44801 50.6446 3.35654C50.869 3.26507 51.1107 3.22411 51.3527 3.23655V3.23655Z" fill="#263238"/>
<path d="M50.9674 4.92123C50.8995 4.94385 50.705 4.46888 50.2481 4.01652C49.7912 3.56417 49.3027 3.41942 49.3208 3.35156C49.7288 3.39004 50.1123 3.56355 50.4105 3.84459C50.7088 4.12563 50.9047 4.49815 50.9674 4.90314V4.92123Z" fill="#263238"/>
<path d="M53.3473 37.2313C53.3473 37.5892 53.2412 37.939 53.0424 38.2366C52.8436 38.5341 52.561 38.766 52.2304 38.903C51.8997 39.0399 51.5359 39.0758 51.1849 39.0059C50.8339 38.9361 50.5115 38.7638 50.2585 38.5107C50.0054 38.2577 49.8331 37.9353 49.7633 37.5843C49.6935 37.2333 49.7293 36.8695 49.8663 36.5389C50.0032 36.2082 50.2351 35.9256 50.5327 35.7268C50.8302 35.528 51.1801 35.4219 51.5379 35.4219C52.0178 35.4219 52.4781 35.6125 52.8174 35.9518C53.1567 36.2912 53.3473 36.7514 53.3473 37.2313Z" fill="#E0E0E0"/>
<path d="M53.3477 37.2302C53.3251 37.2302 53.3251 37.0673 53.2437 36.7778C53.1311 36.4047 52.9011 36.0778 52.5878 35.846C52.3358 35.6569 52.0361 35.5418 51.7223 35.5136C51.4086 35.4853 51.0931 35.5449 50.8114 35.6858C50.5296 35.8267 50.2926 36.0432 50.127 36.3112C49.9614 36.5792 49.8736 36.888 49.8736 37.203C49.8736 37.518 49.9614 37.8269 50.127 38.0948C50.2926 38.3628 50.5296 38.5794 50.8114 38.7203C51.0931 38.8611 51.4086 38.9208 51.7223 38.8925C52.0361 38.8642 52.3358 38.7491 52.5878 38.5601C52.9019 38.327 53.132 37.9985 53.2437 37.6237C53.3251 37.3568 53.3251 37.1714 53.3477 37.1985C53.3843 37.3471 53.3843 37.5023 53.3477 37.6509C53.2606 38.064 53.0318 38.4336 52.7009 38.6958C52.4518 38.8911 52.1575 39.0205 51.8452 39.0719C51.5328 39.1233 51.2126 39.095 50.9141 38.9898C50.5431 38.86 50.2216 38.6182 49.9942 38.2976C49.7667 37.9771 49.6445 37.5938 49.6445 37.2008C49.6445 36.8077 49.7667 36.4244 49.9942 36.1039C50.2216 35.7834 50.5431 35.5415 50.9141 35.4117C51.2126 35.3065 51.5328 35.2783 51.8452 35.3297C52.1575 35.3811 52.4518 35.5104 52.7009 35.7057C53.0318 35.9679 53.2606 36.3376 53.3477 36.7507C53.3876 36.908 53.3876 37.0728 53.3477 37.2302V37.2302Z" fill="#263238"/>
<path d="M52.5148 36.3438C52.1105 36.5353 51.7282 36.7704 51.3749 37.0449C51.0707 37.3712 50.8023 37.7291 50.5742 38.1125C50.6325 37.6342 50.8604 37.1927 51.2165 36.8681C51.5725 36.5436 52.0332 36.3575 52.5148 36.3438V36.3438Z" fill="#263238"/>
<path d="M52.1334 38.0228C52.0655 38.0228 51.871 37.5705 51.4141 37.1181C50.9573 36.6658 50.4687 36.5165 50.4868 36.4532C50.6934 36.4517 50.8978 36.495 51.086 36.5801C51.2742 36.6653 51.4417 36.7902 51.577 36.9462C51.7418 37.075 51.8768 37.2379 51.9729 37.4237C52.0689 37.6095 52.1237 37.8139 52.1334 38.0228V38.0228Z" fill="#263238"/>
<path d="M147.383 4.16879C147.383 4.52666 147.276 4.87649 147.078 5.17405C146.879 5.47161 146.596 5.70353 146.266 5.84048C145.935 5.97743 145.571 6.01326 145.22 5.94344C144.869 5.87362 144.547 5.70129 144.294 5.44824C144.041 5.19519 143.868 4.87278 143.798 4.52179C143.729 4.1708 143.764 3.80699 143.901 3.47636C144.038 3.14573 144.27 2.86314 144.568 2.66432C144.865 2.4655 145.215 2.35938 145.573 2.35938C146.053 2.35938 146.513 2.55001 146.853 2.88934C147.192 3.22867 147.383 3.6889 147.383 4.16879Z" fill="#E0E0E0"/>
<path d="M147.381 4.16766C147.381 4.16766 147.358 4.00482 147.281 3.71531C147.169 3.34065 146.937 3.01322 146.621 2.78346C146.369 2.59615 146.071 2.48249 145.758 2.45515C145.446 2.42782 145.132 2.4879 144.851 2.62868C144.571 2.76946 144.335 2.9854 144.171 3.25237C144.006 3.51935 143.919 3.82685 143.919 4.14052C143.919 4.4542 144.006 4.7617 144.171 5.02867C144.335 5.29565 144.571 5.51159 144.851 5.65237C145.132 5.79315 145.446 5.85323 145.758 5.82589C146.071 5.79856 146.369 5.68489 146.621 5.49759C146.937 5.26525 147.169 4.93664 147.281 4.56121C147.358 4.29432 147.363 4.136 147.381 4.136C147.422 4.28396 147.422 4.4404 147.381 4.58835C147.296 5.00234 147.067 5.37269 146.734 5.63329C146.486 5.82976 146.191 5.95983 145.879 6.01126C145.566 6.0627 145.246 6.03381 144.947 5.92732C144.576 5.79755 144.255 5.55565 144.027 5.23513C143.8 4.9146 143.678 4.53129 143.678 4.13826C143.678 3.74523 143.8 3.36192 144.027 3.0414C144.255 2.72087 144.576 2.47897 144.947 2.3492C145.246 2.24398 145.566 2.21577 145.878 2.26716C146.191 2.31856 146.485 2.4479 146.734 2.64323C147.067 2.91369 147.293 3.29364 147.372 3.71531C147.415 3.86261 147.418 4.01875 147.381 4.16766V4.16766Z" fill="#263238"/>
<path d="M146.562 3.26562C146.157 3.45605 145.774 3.69124 145.422 3.96677C145.117 4.29261 144.849 4.65056 144.621 5.03433C144.679 4.55607 144.907 4.11457 145.263 3.79002C145.619 3.46548 146.08 3.27941 146.562 3.26562Z" fill="#263238"/>
<path d="M146.17 4.94467C146.107 4.94467 145.912 4.49231 145.455 4.03996C144.998 3.58761 144.51 3.44285 144.528 3.375C144.937 3.40898 145.322 3.58109 145.621 3.86304C145.919 4.14499 146.113 4.52003 146.17 4.92657V4.94467Z" fill="#263238"/>
<path d="M147.383 37.2313C147.383 37.5892 147.276 37.939 147.078 38.2366C146.879 38.5341 146.596 38.766 146.266 38.903C145.935 39.0399 145.571 39.0758 145.22 39.0059C144.869 38.9361 144.547 38.7638 144.294 38.5107C144.041 38.2577 143.868 37.9353 143.798 37.5843C143.729 37.2333 143.764 36.8695 143.901 36.5389C144.038 36.2082 144.27 35.9256 144.568 35.7268C144.865 35.528 145.215 35.4219 145.573 35.4219C146.053 35.4219 146.513 35.6125 146.853 35.9518C147.192 36.2912 147.383 36.7514 147.383 37.2313Z" fill="#E0E0E0"/>
<path d="M147.381 37.2302C147.381 37.2302 147.358 37.0673 147.281 36.7778C147.169 36.4032 146.937 36.0757 146.621 35.846C146.369 35.6587 146.071 35.545 145.758 35.5177C145.446 35.4903 145.132 35.5504 144.851 35.6912C144.571 35.832 144.335 36.0479 144.171 36.3149C144.006 36.5819 143.919 36.8893 143.919 37.203C143.919 37.5167 144.006 37.8242 144.171 38.0912C144.335 38.3581 144.571 38.5741 144.851 38.7149C145.132 38.8556 145.446 38.9157 145.758 38.8884C146.071 38.8611 146.369 38.7474 146.621 38.5601C146.937 38.3277 147.169 37.9991 147.281 37.6237C147.358 37.3568 147.363 37.1714 147.381 37.1985C147.422 37.3464 147.422 37.5029 147.381 37.6509C147.294 38.064 147.065 38.4336 146.734 38.6958C146.485 38.8911 146.191 39.0205 145.878 39.0719C145.566 39.1233 145.246 39.095 144.947 38.9898C144.576 38.86 144.255 38.6182 144.027 38.2976C143.8 37.9771 143.678 37.5938 143.678 37.2008C143.678 36.8077 143.8 36.4244 144.027 36.1039C144.255 35.7834 144.576 35.5415 144.947 35.4117C145.246 35.3065 145.566 35.2783 145.878 35.3297C146.191 35.3811 146.485 35.5104 146.734 35.7057C147.065 35.9679 147.294 36.3376 147.381 36.7507C147.426 36.9073 147.426 37.0735 147.381 37.2302Z" fill="#263238"/>
<path d="M146.562 36.3438C146.157 36.5342 145.774 36.7694 145.422 37.0449C145.116 37.3698 144.847 37.7278 144.621 38.1125C144.679 37.6342 144.907 37.1927 145.263 36.8681C145.619 36.5436 146.08 36.3575 146.562 36.3438V36.3438Z" fill="#263238"/>
<path d="M146.17 38.0228C146.107 38.0228 145.912 37.5704 145.455 37.1181C144.998 36.6657 144.51 36.5165 144.528 36.4531C144.937 36.4871 145.322 36.6592 145.621 36.9412C145.919 37.2231 146.113 37.5982 146.17 38.0047V38.0228Z" fill="#263238"/>
<path d="M17.8418 181.195L20.4428 198.281H35.5469L39.0527 181.444L17.8418 181.195Z" fill="#FF7E35"/>
<path d="M36.9433 192.153C36.9433 192.203 33.0711 192.239 28.2988 192.239C23.5264 192.239 19.6543 192.203 19.6543 192.153C19.6543 192.103 23.5264 192.062 28.2988 192.062C33.0711 192.062 36.9433 192.103 36.9433 192.153Z" fill="#FAFAFA"/>
<path d="M37.0003 191.305C37.0003 191.354 33.1056 191.395 28.297 191.395C23.4885 191.395 19.5938 191.354 19.5938 191.305C19.5938 191.255 23.493 191.219 28.297 191.219C33.101 191.219 37.0003 191.255 37.0003 191.305Z" fill="#FAFAFA"/>
<path d="M36.9665 190.359C36.9665 190.409 33.0718 190.45 28.2677 190.45C23.4637 190.45 19.5645 190.409 19.5645 190.359C19.5645 190.31 23.4592 190.273 28.2677 190.273C33.0763 190.273 36.9665 190.314 36.9665 190.359Z" fill="#FAFAFA"/>
<path d="M22.1794 197.326C21.9735 196.621 21.8223 195.901 21.727 195.173C21.5739 194.454 21.4771 193.725 21.4375 192.992C21.647 193.695 21.7983 194.413 21.8899 195.141C22.047 195.86 22.1439 196.591 22.1794 197.326V197.326Z" fill="#FAFAFA"/>
<path d="M23.2112 197.129C23.1043 196.434 23.0408 195.733 23.0212 195.03C22.9447 194.33 22.9115 193.626 22.9217 192.922C23.0884 193.608 23.1809 194.31 23.1977 195.016C23.2738 195.718 23.2784 196.426 23.2112 197.129V197.129Z" fill="#FAFAFA"/>
<path d="M25.0828 197.123C24.8757 196.422 24.7438 195.702 24.6893 194.974C24.5748 194.252 24.5354 193.519 24.5717 192.789C24.7098 193.504 24.808 194.226 24.8657 194.951C24.9777 195.671 25.0502 196.395 25.0828 197.123Z" fill="#FAFAFA"/>
<path d="M26.3934 197.215C26.2496 196.495 26.1798 195.763 26.1853 195.03C26.1305 194.298 26.1533 193.563 26.2532 192.836C26.3308 193.563 26.367 194.294 26.3617 195.025C26.4163 195.754 26.4269 196.485 26.3934 197.215V197.215Z" fill="#FAFAFA"/>
<path d="M28.725 197.134C28.5608 195.754 28.5138 194.364 28.5848 192.977C28.6939 193.669 28.7468 194.37 28.7431 195.071C28.7937 195.758 28.7876 196.448 28.725 197.134V197.134Z" fill="#FAFAFA"/>
<path d="M30.4181 197.223C30.3405 196.509 30.3178 195.791 30.3502 195.074C30.3256 194.357 30.3604 193.64 30.4543 192.93C30.5379 193.641 30.5621 194.358 30.5267 195.074C30.5509 195.792 30.5146 196.511 30.4181 197.223V197.223Z" fill="#FAFAFA"/>
<path d="M32.0156 196.993C32.0455 195.493 32.1967 193.999 32.468 192.523C32.4826 193.28 32.4387 194.036 32.3368 194.785C32.2887 195.528 32.1813 196.267 32.0156 196.993V196.993Z" fill="#FAFAFA"/>
<path d="M34.0703 196.766C34.0749 196.121 34.16 195.48 34.3236 194.857C34.4351 194.222 34.6234 193.604 34.8846 193.016C34.7929 193.648 34.6645 194.275 34.5001 194.893C34.3919 195.525 34.2484 196.15 34.0703 196.766V196.766Z" fill="#FAFAFA"/>
<path d="M16.1113 177.812V181.011C16.1107 181.176 16.1429 181.34 16.2058 181.493C16.2688 181.645 16.3614 181.784 16.4783 181.901C16.5952 182.018 16.7341 182.111 16.8869 182.174C17.0398 182.237 17.2036 182.269 17.3689 182.268H39.2447C39.5783 182.268 39.8981 182.136 40.134 181.9C40.3698 181.664 40.5023 181.344 40.5023 181.011V177.812H16.1113Z" fill="#FF7E35"/>
<g opacity="0.4">
<path d="M18.0059 182.273L18.1868 183.291L38.3708 184.73L38.882 182.273H18.0059Z" fill="black"/>
</g>
<path d="M24.0459 177.804C20.8297 175.941 19.1107 171.607 18.984 168.061C18.8574 164.514 20.3411 160.823 23.2407 158.774C26.3077 156.634 30.6729 156.67 33.8213 158.688C35.3771 159.736 36.6393 161.164 37.488 162.837C38.3367 164.51 38.7438 166.372 38.6705 168.246C38.5645 170.118 38.0441 171.944 37.1468 173.591C36.2495 175.237 34.9978 176.664 33.482 177.768" fill="#455A64"/>
<path d="M29.1771 178.152C29.1302 177.883 29.1105 177.61 29.1183 177.338C29.1183 176.759 29.0775 176.017 29.0549 175.126C29.0052 173.258 28.9328 170.679 28.8061 167.829C28.6795 164.979 28.5302 162.401 28.4126 160.542C28.3583 159.637 28.3131 158.909 28.2814 158.33C28.2578 158.059 28.2578 157.787 28.2814 157.516C28.3528 157.779 28.3968 158.049 28.4126 158.321C28.4759 158.841 28.5528 159.592 28.6388 160.524C28.8107 162.387 28.9961 164.966 29.1228 167.82C29.2494 170.675 29.2856 173.249 29.2811 175.126C29.2811 176.058 29.2811 176.818 29.2494 177.338C29.2499 177.611 29.2257 177.883 29.1771 178.152V178.152Z" fill="white"/>
<path d="M19.9362 167.254C19.9362 167.335 19.416 167.362 18.7918 167.312C18.1675 167.263 17.6654 167.15 17.67 167.068C17.6745 166.987 18.1902 166.96 18.8144 167.009C19.4387 167.059 19.9453 167.172 19.9362 167.254Z" fill="#263238"/>
<path d="M20.109 164.074C20.0729 164.151 19.6567 164.029 19.1229 163.803C18.5891 163.577 18.2182 163.328 18.2544 163.256C18.2906 163.183 18.7067 163.301 19.245 163.527C19.7833 163.753 20.1407 164.002 20.109 164.074Z" fill="#263238"/>
<path d="M21.7468 161.713C21.7016 161.781 21.2085 161.546 20.6883 161.121C20.1681 160.695 19.8469 160.248 19.9103 160.193C19.9736 160.139 20.3626 160.474 20.8828 160.885C21.403 161.297 21.7921 161.641 21.7468 161.713Z" fill="#263238"/>
<path d="M23.3927 159.481C23.3158 159.517 23.0806 159.142 22.8635 158.649C22.6463 158.156 22.5287 157.744 22.6056 157.699C22.6825 157.654 22.9177 158.038 23.1349 158.527C23.352 159.015 23.4922 159.45 23.3927 159.481Z" fill="#263238"/>
<path d="M25.9767 157.902C25.9044 157.934 25.6465 157.54 25.4792 156.997C25.3118 156.454 25.2937 155.975 25.3751 155.961C25.4565 155.948 25.6013 156.382 25.7641 156.907C25.927 157.431 26.0536 157.866 25.9767 157.902Z" fill="#263238"/>
<path d="M30.2771 156.119C30.354 156.146 30.3043 156.485 30.1686 156.874C30.0329 157.263 29.8565 157.557 29.7796 157.53C29.7027 157.503 29.7479 157.164 29.8836 156.775C30.0193 156.386 30.2093 156.092 30.2771 156.119Z" fill="#263238"/>
<path d="M33.4906 157.489C33.5448 157.548 33.3413 157.833 33.0382 158.118C32.7351 158.403 32.432 158.57 32.3732 158.525C32.3144 158.48 32.5225 158.181 32.8256 157.896C33.1287 157.611 33.4453 157.426 33.4906 157.489Z" fill="#263238"/>
<path d="M36.3056 159.33C36.3554 159.398 36.1021 159.647 35.7492 159.891C35.3964 160.135 35.0662 160.271 35.0209 160.199C34.9757 160.126 35.2245 159.882 35.5819 159.642C35.9392 159.402 36.2604 159.24 36.3056 159.33Z" fill="#263238"/>
<path d="M38.3009 162.016C38.3371 162.093 37.939 162.332 37.4234 162.554C36.9077 162.776 36.4553 162.893 36.4237 162.816C36.392 162.74 36.7855 162.5 37.3284 162.278C37.8712 162.056 38.2693 161.939 38.3009 162.016Z" fill="#263238"/>
<path d="M39.0898 164.981C39.0898 165.062 38.7007 165.18 38.185 165.243C37.6694 165.306 37.2803 165.288 37.2532 165.207C37.2261 165.125 37.6467 165.008 38.1579 164.944C38.6691 164.881 39.0807 164.899 39.0898 164.981Z" fill="#263238"/>
<path d="M39.5022 168.621C39.4705 168.693 39.0499 168.585 38.5477 168.367C38.0456 168.15 37.6792 167.915 37.7109 167.843C37.7426 167.77 38.1632 167.879 38.6699 168.091C39.1765 168.304 39.5339 168.544 39.5022 168.621Z" fill="#263238"/>
<path d="M39.1439 171.741C39.1167 171.817 38.5784 171.686 38.013 171.315C37.4476 170.944 37.1083 170.506 37.1716 170.451C37.235 170.397 37.624 170.718 38.1804 171.067C38.7368 171.415 39.1755 171.659 39.1439 171.741Z" fill="#263238"/>
<path d="M37.516 174.585C37.4662 174.648 37.0365 174.395 36.6113 173.951C36.1861 173.508 35.978 173.047 36.0458 173.01C36.1137 172.974 36.4349 173.318 36.8329 173.743C37.231 174.168 37.5657 174.517 37.516 174.585Z" fill="#263238"/>
<path d="M22.0743 174.916C22.1105 174.988 21.6582 175.3 21.0656 175.608C20.473 175.915 19.9573 176.11 19.9166 176.037C19.8759 175.965 20.3283 175.653 20.9254 175.341C21.5225 175.029 22.0336 174.839 22.0743 174.916Z" fill="#263238"/>
<path d="M20.663 172.344C20.6991 172.421 20.3373 172.656 19.8532 172.878C19.3692 173.099 18.9485 173.208 18.9214 173.136C18.8942 173.063 19.2471 172.819 19.7311 172.602C20.2151 172.385 20.6268 172.267 20.663 172.344Z" fill="#263238"/>
<path d="M19.6257 170.069C19.6257 170.155 19.1734 170.286 18.6305 170.363C18.0877 170.44 17.6037 170.44 17.5901 170.363C17.5766 170.286 18.0425 170.15 18.5853 170.069C19.1281 169.987 19.6122 169.987 19.6257 170.069Z" fill="#263238"/>
<path d="M23.0434 168.828C23.0434 168.905 22.6318 169.108 22.0528 169.172C21.4738 169.235 21.0033 169.135 21.0078 169.059C21.0124 168.982 21.4602 168.936 22.0166 168.873C22.573 168.81 23.0027 168.728 23.0434 168.828Z" fill="#263238"/>
<path d="M25.8481 166.002C25.8752 166.078 25.5269 166.255 25.061 166.3C24.5951 166.345 24.2196 166.241 24.2287 166.164C24.2377 166.088 24.5996 166.047 25.0293 166.002C25.4591 165.956 25.8255 165.92 25.8481 166.002Z" fill="#263238"/>
<path d="M26.3908 163.745C26.3637 163.827 25.9882 163.768 25.5539 163.619C25.1197 163.469 24.7849 163.279 24.8121 163.202C24.8392 163.126 25.2147 163.202 25.6489 163.334C26.0832 163.465 26.4179 163.668 26.3908 163.745Z" fill="#263238"/>
<path d="M27.4301 161.472C27.3712 161.531 27.1134 161.359 26.9279 161.02C26.7425 160.681 26.7289 160.391 26.8058 160.369C26.8827 160.346 27.0275 160.586 27.1903 160.866C27.3532 161.147 27.4889 161.414 27.4301 161.472Z" fill="#263238"/>
<path d="M26.1804 170.794C26.1804 170.876 25.8728 171.025 25.4521 171.129C25.2539 171.181 25.0507 171.212 24.8459 171.219L24.7871 171.043C24.8957 171.02 24.9635 171.043 24.9771 171.043C24.9907 171.043 24.95 171.133 24.8595 171.197L24.8007 171.025C24.9866 170.935 25.1824 170.866 25.3842 170.821C25.8004 170.731 26.1577 170.713 26.1804 170.794Z" fill="#263238"/>
<path d="M26.7607 174.79C26.7923 174.867 26.3807 175.102 25.8559 175.315C25.3312 175.528 24.8517 175.636 24.8201 175.559C24.7884 175.482 25.2046 175.247 25.7248 175.035C26.245 174.822 26.7335 174.713 26.7607 174.79Z" fill="#263238"/>
<path d="M23.5739 173.012C23.6011 173.089 23.3252 173.256 22.9542 173.379C22.5833 173.501 22.2712 173.541 22.244 173.465C22.2169 173.388 22.4928 173.22 22.8592 173.094C23.2256 172.967 23.5468 172.931 23.5739 173.012Z" fill="#263238"/>
<path d="M23.8171 164.882C23.8171 164.964 23.315 164.914 22.7631 164.719C22.2112 164.525 21.8041 164.267 21.8584 164.181C21.9127 164.095 22.3424 164.244 22.8852 164.434C23.428 164.624 23.8352 164.801 23.8171 164.882Z" fill="#263238"/>
<path d="M31.5363 164.003C31.5816 164.071 31.3102 164.329 30.9347 164.582C30.5592 164.835 30.2064 164.98 30.1612 164.908C30.1159 164.835 30.3874 164.582 30.7673 164.329C31.1473 164.075 31.4911 163.931 31.5363 164.003Z" fill="#263238"/>
<path d="M31.9593 168.014C31.9593 168.096 31.6924 168.222 31.326 168.299C30.9596 168.376 30.6429 168.372 30.6294 168.299C30.6158 168.227 30.8963 168.091 31.2627 168.014C31.6291 167.937 31.9412 167.928 31.9593 168.014Z" fill="#263238"/>
<path d="M32.4462 172.522C32.41 172.599 31.9938 172.481 31.5415 172.264C31.0891 172.047 30.7182 171.812 30.7544 171.735C30.7906 171.658 31.2067 171.771 31.6591 171.993C32.1115 172.214 32.4824 172.45 32.4462 172.522Z" fill="#263238"/>
<path d="M31.4115 176.913C31.3482 176.967 31.0813 176.75 30.8189 176.429C30.5565 176.108 30.3937 175.805 30.457 175.75C30.5204 175.696 30.7872 175.918 31.0541 176.239C31.321 176.56 31.4793 176.863 31.4115 176.913Z" fill="#263238"/>
<path d="M31.1853 161.052C31.2351 161.115 31.0586 161.337 30.7601 161.504C30.4615 161.671 30.1766 161.662 30.1539 161.581C30.1313 161.499 30.353 161.368 30.6063 161.232C30.8596 161.097 31.1491 160.984 31.1853 161.052Z" fill="#263238"/>
<path d="M34.9806 165.096C35.0123 165.173 34.6594 165.367 34.1799 165.431C33.7004 165.494 33.3114 165.408 33.3205 165.326C33.3295 165.245 33.6914 165.195 34.1392 165.132C34.5871 165.069 34.9535 165.014 34.9806 165.096Z" fill="#263238"/>
<path d="M34.2355 161.465C34.2717 161.537 33.9234 161.786 33.4303 161.917C32.9372 162.048 32.5256 162.075 32.4939 161.999C32.4623 161.922 32.8694 161.781 33.3398 161.632C33.8103 161.483 34.1948 161.388 34.2355 161.465Z" fill="#263238"/>
<path d="M35.8127 170.721C35.8127 170.802 35.2156 170.857 34.5009 170.721C33.7862 170.585 33.2434 170.332 33.2705 170.269C33.2976 170.205 33.8631 170.314 34.5552 170.436C35.2473 170.558 35.8173 170.644 35.8127 170.721Z" fill="#263238"/>
<path d="M34.403 175.995C34.3532 176.058 33.9144 175.801 33.4983 175.362C33.0821 174.923 32.8016 174.484 32.8695 174.435C32.9373 174.385 33.2857 174.724 33.7109 175.149C34.1361 175.574 34.4573 175.927 34.403 175.995Z" fill="#263238"/>
<path d="M28.2213 157.172C27.2586 157.756 26.3713 158.456 25.5796 159.257C23.742 161.271 22.5906 163.817 22.291 166.527C22.1555 168.014 22.2225 169.513 22.49 170.982C22.703 172.188 22.9824 173.381 23.3269 174.556C23.6164 175.565 23.8787 176.365 24.0597 176.926C24.1644 177.212 24.2491 177.506 24.313 177.804C24.1646 177.539 24.0419 177.26 23.9466 176.971C23.734 176.424 23.4399 175.614 23.1233 174.624C22.7479 173.446 22.4458 172.247 22.2186 171.032C21.9308 169.542 21.8546 168.019 21.9924 166.508C22.2954 163.738 23.5038 161.145 25.4303 159.131C26.0138 158.53 26.6757 158.011 27.398 157.588C27.5927 157.473 27.7936 157.369 27.9997 157.276C28.0677 157.23 28.1425 157.195 28.2213 157.172V157.172Z" fill="white"/>
<path d="M32.3282 178.003C32.8397 176.951 33.2928 175.871 33.6853 174.769C34.5932 172.095 34.8703 169.248 34.495 166.45C34.2894 164.917 33.858 163.423 33.2148 162.017C32.6737 160.878 31.9321 159.845 31.0254 158.968C30.3889 158.403 29.6647 157.944 28.8813 157.611C28.3249 157.38 27.9766 157.326 27.9766 157.299C28.0575 157.286 28.1399 157.286 28.2208 157.299C28.4602 157.355 28.6947 157.431 28.922 157.525C29.7469 157.822 30.5126 158.263 31.1838 158.828C32.1371 159.702 32.9167 160.749 33.4817 161.913C34.1533 163.344 34.6018 164.869 34.8116 166.436C35.1994 169.277 34.8888 172.17 33.9069 174.864C33.735 175.384 33.5179 175.832 33.3551 176.221C33.1922 176.61 32.9977 176.945 32.8529 177.211C32.6997 177.489 32.5242 177.754 32.3282 178.003V178.003Z" fill="white"/>
<path d="M38.4251 100.211C38.4251 100.211 26.5553 129.469 24.6418 136.938C22.5339 145.193 24.0764 151.797 34.5936 152.824C43.3241 153.679 71.8178 142.388 71.8178 142.388L68.3347 120.639L43.125 130.826L49.2318 102.577L38.4251 100.211Z" fill="#FFBE9D"/>
<path d="M52.0595 82.4277C51.3584 82.0342 49.6349 79.691 49.6349 79.691C49.6349 79.691 48.3864 71.5486 47.8255 69.8387C47.2646 68.1288 45.713 68.5857 45.3873 69.2144C45.0616 69.8432 46.0251 83.5993 46.0251 83.5993L40.9452 86.2592L37.4349 88.3083C36.9686 88.8445 36.6464 89.4905 36.4985 90.1856C36.3447 91.2034 38.3758 101.291 38.3758 101.291L49.1011 103.182C51.865 100.563 53.4256 96.4598 54.172 91.3572V83.7531C54.172 83.7531 52.7652 82.8122 52.0595 82.4277Z" fill="#FFBE9D"/>
<path d="M43.2129 85.1946C43.3125 85.174 43.4142 85.1649 43.516 85.1675H44.389H45.7461H46.1622C46.2405 85.1614 46.3192 85.1614 46.3975 85.1675C46.476 85.1889 46.5519 85.2193 46.6236 85.2579C46.7719 85.3455 46.9005 85.4625 47.0017 85.6018C47.1028 85.7411 47.1743 85.8996 47.2117 86.0677C47.3791 87.4247 47.5419 89.0125 47.7771 90.7857C47.8948 91.6678 48.0169 92.5951 48.2024 93.5451C48.2398 93.7768 48.3051 94.0031 48.3969 94.2191C48.4875 94.4199 48.6484 94.5808 48.8492 94.6714C49.0758 94.7356 49.3131 94.7526 49.5465 94.7215C49.7799 94.6904 50.0044 94.6118 50.2063 94.4905C50.4222 94.3716 50.6177 94.2188 50.7853 94.0381C50.8965 93.8371 50.957 93.6119 50.9617 93.3822C50.9956 92.8958 50.9956 92.4076 50.9617 91.9211C50.912 90.9576 50.8124 90.0258 50.6948 89.1437C50.5772 88.2616 50.446 87.4202 50.2968 86.6467C50.2304 86.2743 50.1382 85.907 50.0208 85.5475C49.9057 85.2208 49.754 84.9081 49.5685 84.6156C49.398 84.348 49.209 84.0925 49.003 83.8511C48.8381 83.6275 48.6267 83.4423 48.3833 83.3083C48.186 83.2063 47.9702 83.145 47.7488 83.1279C47.5273 83.1108 47.3047 83.1383 47.0941 83.2088L46.2799 83.5073C46.1859 83.5492 46.0871 83.5796 45.9858 83.5978C46.0727 83.5428 46.1652 83.4973 46.2618 83.4621C46.4427 83.3852 46.7141 83.2676 47.0624 83.1228C47.2815 83.0419 47.5147 83.0061 47.7479 83.0178C47.9811 83.0294 48.2096 83.0883 48.4195 83.1907C48.6832 83.325 48.9135 83.5166 49.0935 83.7516C49.3096 83.9947 49.5076 84.2532 49.6861 84.5251C49.8852 84.8257 50.0506 85.1473 50.1791 85.4841C50.3063 85.8498 50.4046 86.2249 50.4732 86.606C50.636 87.3885 50.7717 88.2254 50.8984 89.112C51.0251 89.9986 51.1246 90.9214 51.1788 91.9076C51.2127 92.4076 51.2127 92.9093 51.1788 93.4094C51.1711 93.6871 51.0882 93.9575 50.9391 94.1919C50.7551 94.391 50.5377 94.5563 50.2968 94.6805C50.0639 94.8204 49.8042 94.9097 49.5345 94.9424C49.2648 94.9752 48.9912 94.9507 48.7316 94.8705C48.4723 94.7667 48.261 94.5699 48.139 94.3186C48.0378 94.0842 47.9663 93.838 47.9264 93.5858C47.741 92.6223 47.6233 91.695 47.5103 90.8083C47.2886 89.0396 47.1393 87.4202 46.9991 86.0993C46.9695 85.9519 46.9095 85.8123 46.8231 85.6892C46.7367 85.5662 46.6256 85.4625 46.497 85.3846C46.3801 85.3135 46.2446 85.2788 46.108 85.2851H45.6963L44.3393 85.2534L43.4662 85.2308C43.3812 85.2235 43.2966 85.2115 43.2129 85.1946Z" fill="#EB996E"/>
<path d="M48.4302 94.4567C48.4732 94.5487 48.4948 94.6492 48.4935 94.7507C48.5222 95.0393 48.4771 95.3303 48.3623 95.5966C48.2773 95.8123 48.1444 96.0059 47.9735 96.1626C47.8027 96.3193 47.5984 96.4352 47.3762 96.5013C47.0821 96.5702 46.7746 96.5555 46.4884 96.4587C46.2022 96.362 45.9488 96.1872 45.7568 95.954V95.954C45.4867 95.36 45.3331 94.7196 45.3044 94.0677C45.2501 93.3801 45.2637 92.6563 45.1959 91.928C45.0611 90.8824 44.7393 89.8696 44.2459 88.938C44.0288 88.4856 43.8388 88.0694 43.6171 87.7076C43.5166 87.5294 43.3951 87.3639 43.2553 87.2145C43.1379 87.0728 42.9801 86.9702 42.8029 86.9205C42.2551 86.7309 41.6848 86.6138 41.1066 86.5722C40.8943 86.5556 40.681 86.5556 40.4688 86.5722C40.4688 86.5133 41.4096 86.3143 42.8617 86.7576C42.9573 86.7896 43.0497 86.8305 43.1376 86.8798C43.2292 86.9364 43.3128 87.0048 43.3864 87.0833C43.5356 87.2407 43.6676 87.4136 43.78 87.599C44.0197 87.979 44.2323 88.3997 44.4359 88.8384C44.9519 89.7892 45.2863 90.8277 45.422 91.9009C45.4944 92.6518 45.4763 93.371 45.5306 94.045C45.5537 94.6696 45.6965 95.2838 45.9513 95.8545V95.8545C46.1188 96.0625 46.3405 96.2202 46.5919 96.3104C46.8433 96.4006 47.1146 96.4197 47.3762 96.3656C47.5741 96.3088 47.7575 96.2098 47.9136 96.0755C48.0698 95.9412 48.1951 95.7748 48.2809 95.5876C48.399 95.3387 48.4608 95.0669 48.4619 94.7914C48.4422 94.6809 48.4317 94.5689 48.4302 94.4567V94.4567Z" fill="#EB996E"/>
<path d="M45.3331 95.3C45.3331 95.3 45.4416 95.4764 45.3014 95.7524C45.2231 95.9194 45.1177 96.0723 44.9893 96.2047C44.8225 96.3969 44.5993 96.5315 44.3515 96.5892C44.04 96.6298 43.7247 96.5506 43.4694 96.3676C43.1871 96.1621 42.9703 95.8793 42.8451 95.5533C42.554 94.8373 42.4512 94.0586 42.5466 93.2916C42.5817 92.9844 42.6468 92.6813 42.7411 92.3869L42.7773 92.509C42.2065 92.0413 41.7669 91.4334 41.5016 90.7448L41.6192 90.8036C40.9403 90.9659 40.2251 90.8674 39.6153 90.5277C39.4529 90.4327 39.3012 90.3205 39.163 90.1929C39.0725 90.0979 39.0272 90.0437 39.0363 90.0391C39.0453 90.0346 39.2534 90.2156 39.6786 90.4236C40.2706 90.7057 40.9424 90.7729 41.5785 90.6136L41.6645 90.591L41.6961 90.6724C41.9666 91.3193 42.3923 91.8895 42.9356 92.3326L42.9944 92.3823V92.4547C42.9066 92.7319 42.8445 93.0166 42.8089 93.3051C42.7204 94.0369 42.812 94.7792 43.0758 95.4674C43.1844 95.7591 43.3705 96.0156 43.6141 96.2093C43.8089 96.3696 44.054 96.4561 44.3062 96.4535C44.5247 96.413 44.7244 96.3036 44.8762 96.1414C45.0053 96.0269 45.1152 95.8925 45.2019 95.7433C45.2911 95.613 45.337 95.4579 45.3331 95.3Z" fill="#EB996E"/>
<path d="M41.1856 88.7812C41.2534 88.7812 41.1856 89.2336 41.3439 89.7448C41.5022 90.2559 41.6651 90.6857 41.5972 90.7128C41.3501 90.4663 41.183 90.151 41.1177 89.8081C41.0494 89.6432 41.0201 89.4648 41.0318 89.2868C41.0436 89.1087 41.0962 88.9357 41.1856 88.7812V88.7812Z" fill="#EB996E"/>
<path d="M42.172 92.4252C42.172 92.493 41.3849 92.2759 40.4214 92.3347C39.4578 92.3935 38.7205 92.6875 38.6934 92.6197C39.2155 92.3118 39.8038 92.1335 40.409 92.0997C41.0142 92.0658 41.6187 92.1774 42.172 92.4252V92.4252Z" fill="#EB996E"/>
<path d="M52.2306 85.9272C52.1172 85.9655 51.9962 85.9764 51.8778 85.9588C51.5547 85.9392 51.2384 85.8578 50.9459 85.7191C50.5112 85.5154 50.1219 85.2261 49.8015 84.8687C49.4149 84.4306 49.092 83.9403 48.8425 83.4121C48.2408 82.34 48.1006 81.0825 48.5394 80.3361C48.6147 80.1858 48.7252 80.056 48.8615 79.9575C48.9977 79.8591 49.1557 79.795 49.322 79.7706C49.4444 79.7539 49.5688 79.7794 49.6748 79.843C49.6748 79.8656 49.5436 79.843 49.3355 79.843C49.1922 79.8811 49.0593 79.9509 48.9466 80.0472C48.8338 80.1434 48.7442 80.2638 48.6841 80.3994C48.4988 80.8102 48.442 81.2675 48.5213 81.7112C48.5529 81.9775 48.612 82.2397 48.6977 82.4938C48.8032 82.7651 48.9225 83.0308 49.0551 83.2899C49.2958 83.7981 49.5998 84.2739 49.9598 84.7058C50.259 85.049 50.6176 85.3355 51.0183 85.5517C51.3993 85.7419 51.8088 85.8687 52.2306 85.9272V85.9272Z" fill="#EB996E"/>
<path d="M52.8649 92.6735C52.7925 92.6735 52.6116 91.8773 52.0823 91.0224C51.5531 90.1674 50.9198 89.6246 50.9696 89.5703C51.5044 89.9053 51.954 90.36 52.2829 90.8985C52.6119 91.4371 52.8111 92.0447 52.8649 92.6735Z" fill="#EB996E"/>
<path d="M48.0188 72.4766C48.0731 72.5082 47.9057 72.9289 47.5664 73.3451C47.2272 73.7612 46.8381 74.0146 46.8019 73.9693C46.7657 73.9241 47.0507 73.6029 47.381 73.1958C47.7112 72.7887 47.96 72.4766 48.0188 72.4766Z" fill="#EB996E"/>
<path d="M50.5001 86.3188C50.4323 86.3188 50.4051 86.1016 50.4323 85.8664C50.4594 85.6312 50.5363 85.4141 50.5997 85.4141C50.663 85.4141 50.6946 85.6312 50.6675 85.8664C50.6404 86.1016 50.5635 86.3233 50.5001 86.3188Z" fill="#EB996E"/>
<path d="M36.2422 142.292C36.3367 142.136 36.4507 141.993 36.5815 141.866C36.8167 141.609 37.1469 141.229 37.545 140.754C38.5879 139.515 39.5403 138.203 40.3948 136.827C41.2491 135.45 42.0049 134.014 42.6566 132.53C42.9054 131.96 43.1089 131.498 43.2265 131.173C43.2823 131 43.3582 130.835 43.4527 130.68C43.4239 130.859 43.377 131.035 43.3125 131.204C43.2084 131.539 43.0411 132.014 42.8104 132.598C42.202 134.11 41.465 135.567 40.6074 136.954C39.7469 138.339 38.7676 139.647 37.6807 140.862C37.2645 141.315 36.9117 141.69 36.6584 141.93C36.5318 142.064 36.3924 142.185 36.2422 142.292Z" fill="#EB996E"/>
<path d="M134.709 141.089L148.958 144.418L146 125.283L134.203 119.213C129.705 116.896 124.839 115.378 119.822 114.726L111.825 113.69L89.9715 113.794C85.0589 113.228 78.3324 114.925 70.1222 118.815L52.3809 126.546L62.4955 147.001L73.5556 143.613L74.5372 152.615L76.9346 181.968L74.8855 198.23H128.716L124.717 189.785C122.897 185.948 122.42 181.612 123.36 177.472L130.317 143.911C130.414 143.434 130.605 142.982 130.88 142.58C131.155 142.178 131.507 141.836 131.917 141.572C132.326 141.309 132.785 141.131 133.264 141.048C133.744 140.965 134.235 140.979 134.709 141.089V141.089Z" fill="#FF7E35"/>
<path d="M128.716 198.227H74.8861L76.9353 181.983L74.5333 152.634L73.5562 143.641L62.4961 147.029L52.377 126.56L70.1183 118.83C73.698 117.084 77.4363 115.684 81.2824 114.65C84.5981 113.813 87.5249 113.528 89.9721 113.813L111.825 113.704L119.827 114.745C124.845 115.393 129.711 116.91 134.208 119.228L146.01 125.307L148.973 144.455L134.724 141.126C134.252 141.014 133.763 140.999 133.285 141.08C132.808 141.161 132.351 141.337 131.943 141.597C131.534 141.858 131.182 142.198 130.908 142.597C130.633 142.997 130.442 143.447 130.345 143.922L123.383 177.482C122.441 181.621 122.919 185.956 124.74 189.79L128.716 198.227ZM74.8861 198.204H128.68L124.69 189.768C122.866 185.929 122.388 181.589 123.333 177.446L130.29 143.885C130.39 143.409 130.584 142.957 130.86 142.556C131.137 142.155 131.491 141.813 131.901 141.551C132.312 141.289 132.77 141.112 133.25 141.029C133.73 140.947 134.222 140.961 134.696 141.072L148.946 144.397L145.992 125.289L134.199 119.219C129.703 116.901 124.839 115.384 119.823 114.736L111.825 113.695L89.9721 113.804C87.5249 113.523 84.6027 113.804 81.2869 114.641C77.4417 115.673 73.7046 117.073 70.1273 118.82L52.3951 126.547L62.5006 146.984L73.5652 143.591L74.5423 152.593L76.9443 181.947L74.8861 198.204Z" fill="#263238"/>
<path d="M74.535 152.612C74.4804 152.354 74.4471 152.093 74.4355 151.829C74.3812 151.287 74.3134 150.567 74.2274 149.694C74.0465 147.885 73.7434 145.411 73.2865 142.687C72.8296 139.964 72.2913 137.517 71.8707 135.753C71.6671 134.902 71.4952 134.201 71.3685 133.667C71.294 133.416 71.2381 133.159 71.2012 132.898C71.3057 133.14 71.3904 133.39 71.4545 133.645C71.6038 134.129 71.8028 134.835 72.0335 135.712C72.4859 137.467 73.0558 139.914 73.5172 142.647C73.9786 145.379 74.2546 147.871 74.3948 149.681C74.4672 150.585 74.5079 151.318 74.526 151.825C74.5488 152.087 74.5518 152.35 74.535 152.612V152.612Z" fill="#263238"/>
<path d="M136.161 134.297C136.188 134.333 135.491 134.776 134.483 135.654C133.896 136.157 133.34 136.694 132.818 137.264C131.538 138.664 130.48 140.25 129.679 141.969C129.353 142.671 129.069 143.391 128.828 144.127C128.426 145.389 128.285 146.198 128.24 146.189C128.241 145.996 128.264 145.803 128.308 145.615C128.34 145.434 128.38 145.208 128.444 144.95C128.507 144.692 128.566 144.398 128.67 144.081C128.889 143.329 129.159 142.593 129.48 141.878C129.881 141.008 130.347 140.169 130.873 139.368C131.409 138.569 132.006 137.812 132.66 137.106C133.194 136.534 133.769 136 134.379 135.509C134.632 135.292 134.881 135.125 135.098 134.966C135.315 134.808 135.501 134.686 135.659 134.586C135.816 134.474 135.984 134.377 136.161 134.297V134.297Z" fill="#263238"/>
<path d="M106.07 152.542C106.07 152.542 106.07 152.564 106.048 152.619L105.975 152.845L105.663 153.727L104.469 157.065C103.406 159.965 101.891 164.086 100.081 169.021L99.9455 169.279L99.8505 169.012C98.1768 164.393 96.2045 158.965 94.1101 153.18C94.0242 152.949 93.9428 152.727 93.8613 152.496V152.456V152.415L99.9455 136.736L100.045 136.492L100.135 136.736L104.469 148.186L105.663 151.388C105.794 151.746 105.898 152.026 105.971 152.23C106.003 152.316 106.025 152.388 106.048 152.442C106.07 152.496 106.07 152.519 106.048 152.519C106.033 152.495 106.021 152.469 106.012 152.442L105.921 152.23L105.582 151.388C105.292 150.642 104.867 149.579 104.333 148.199L99.9455 136.809H100.135C98.3803 141.373 96.3086 146.761 94.0966 152.501V152.42C94.178 152.641 94.2594 152.872 94.3453 153.103L100.059 168.935H99.8641C101.705 164.027 103.243 159.924 104.329 157.038L105.6 153.7C105.745 153.32 105.858 153.026 105.944 152.818L106.034 152.591C106.057 152.542 106.066 152.542 106.07 152.542Z" fill="#FAFAFA"/>
<path d="M118.828 152.875C118.828 152.875 118.828 152.898 118.828 152.948L118.751 153.178C118.675 153.386 118.571 153.68 118.439 154.06L117.222 157.412C116.159 160.312 114.643 164.433 112.834 169.368L112.739 169.63L112.64 169.364C110.966 164.745 109.021 159.317 106.899 153.531L106.65 152.848V152.807V152.767C108.88 147.017 110.957 141.648 112.726 137.088L112.82 136.844L112.911 137.088C114.72 141.82 116.2 145.764 117.249 148.537L118.443 151.74C118.574 152.097 118.678 152.378 118.751 152.581C118.783 152.667 118.805 152.739 118.828 152.794C118.85 152.848 118.85 152.871 118.828 152.871L118.792 152.794L118.701 152.581C118.62 152.378 118.507 152.097 118.366 151.74L117.136 148.555C116.068 145.796 114.548 141.874 112.73 137.165H112.915C111.16 141.729 109.093 147.117 106.877 152.857V152.771L107.125 153.454C109.211 159.24 111.169 164.673 112.839 169.287H112.612C114.453 164.379 115.996 160.276 117.077 157.39L118.348 154.047L118.692 153.142L118.783 152.916C118.797 152.902 118.812 152.888 118.828 152.875V152.875Z" fill="#FAFAFA"/>
<path d="M125.363 169.497C125.31 169.392 125.263 169.285 125.223 169.176C125.132 168.94 125.014 168.633 124.861 168.244L123.576 164.792L119.396 153.375C119.355 153.253 119.31 153.131 119.27 153.017V152.977V152.936C120.961 148.602 122.481 144.694 123.59 141.844L124.919 138.506C125.073 138.13 125.2 137.832 125.29 137.601C125.333 137.495 125.381 137.39 125.435 137.289C125.413 137.401 125.38 137.51 125.336 137.615L125.005 138.519C124.698 139.338 124.273 140.483 123.743 141.885C122.653 144.744 121.151 148.67 119.491 153.004V152.922C119.532 153.031 119.577 153.153 119.618 153.275C121.219 157.731 122.662 161.766 123.721 164.715C124.227 166.167 124.625 167.348 124.938 168.194C125.073 168.587 125.177 168.904 125.259 169.139C125.307 169.254 125.342 169.374 125.363 169.497V169.497Z" fill="#FAFAFA"/>
<path d="M93.9884 152.454C93.983 152.48 93.9755 152.506 93.9658 152.531L93.8889 152.757C93.8165 152.97 93.7125 153.264 93.5768 153.662C93.2918 154.444 92.8847 155.58 92.3645 157.014C91.2969 159.913 89.7861 164.034 87.9721 168.965L87.8771 169.232L87.7821 168.965C86.1039 164.347 84.1362 158.918 82.0372 153.133L81.793 152.45V152.409V152.368L87.8636 136.69L87.9586 136.445L88.0536 136.69L92.3871 148.139C92.9028 149.496 93.2918 150.586 93.5858 151.337C93.717 151.699 93.8165 151.979 93.8934 152.183C93.9206 152.269 93.9477 152.341 93.9658 152.395C93.9749 152.419 93.9825 152.443 93.9884 152.468C93.9884 152.468 93.9884 152.445 93.9523 152.395C93.9161 152.346 93.898 152.269 93.8618 152.183L93.5225 151.341C93.2285 150.59 92.8078 149.532 92.2695 148.148L87.8636 136.762H88.0536C86.2939 141.326 84.2266 146.714 82.0146 152.454V152.368L82.2589 153.051C84.3488 158.837 86.3075 164.27 87.9721 168.884H87.7821L92.2424 156.987C92.7897 155.557 93.2149 154.431 93.5135 153.644C93.6627 153.268 93.7758 152.974 93.8573 152.762L93.9523 152.536C93.9586 152.506 93.9709 152.478 93.9884 152.454V152.454Z" fill="#FAFAFA"/>
<path d="M73.8379 146.174C73.8375 146.114 73.8451 146.055 73.8605 145.997C73.8605 145.866 73.9148 145.699 73.9555 145.491C74.046 145.038 74.1772 144.378 74.34 143.559C74.6929 141.872 75.1859 139.488 75.783 136.634L75.8464 136.312L75.9685 136.62C77.2351 139.913 78.7595 143.858 80.397 148.137C80.9534 149.585 81.4917 150.996 82.012 152.358V152.398V152.439L77.6105 164.2L76.2987 167.643C76.1449 168.032 76.0228 168.339 75.9368 168.547C75.898 168.655 75.8511 168.759 75.7966 168.859C75.8197 168.748 75.853 168.639 75.8961 168.534L76.2218 167.597C76.5204 166.765 76.9456 165.593 77.4703 164.132C78.5605 161.169 80.0713 157.057 81.7948 152.371V152.452C81.2746 151.095 80.7318 149.68 80.1799 148.232L75.783 136.711H75.973C75.3442 139.565 74.8195 141.94 74.4486 143.618C74.2631 144.432 74.1184 145.075 73.9962 145.536L73.8741 146.043C73.8667 146.088 73.8546 146.132 73.8379 146.174V146.174Z" fill="#FAFAFA"/>
<path d="M128.729 144.123L125.436 137.822L125.454 137.812L128.747 144.109L128.729 144.123Z" fill="#FAFAFA"/>
<path d="M109.658 175.648C109.616 175.727 109.564 175.8 109.505 175.866L109.03 176.458C108.618 176.969 107.994 177.689 107.22 178.557C106.447 179.426 105.451 180.434 104.325 181.511C103.199 182.588 101.919 183.723 100.525 184.854C99.132 185.985 97.7433 186.998 96.4541 187.88C95.1649 188.762 93.9797 189.504 92.9619 190.097C91.9441 190.689 91.1118 191.151 90.5237 191.454L89.8497 191.797C89.7711 191.838 89.6895 191.873 89.6055 191.902C89.6748 191.847 89.749 191.798 89.8271 191.757L90.483 191.381C91.0575 191.06 91.8808 190.585 92.885 189.975C93.8893 189.364 95.0609 188.617 96.341 187.713C97.6212 186.808 98.9828 185.808 100.381 184.682C101.778 183.556 103.045 182.42 104.18 181.362C105.316 180.303 106.297 179.308 107.098 178.449C107.899 177.589 108.546 176.892 108.975 176.399L109.482 175.834C109.536 175.768 109.595 175.706 109.658 175.648V175.648Z" fill="#263238"/>
<g opacity="0.3">
<path d="M80.6503 160.439C82.9754 161.624 86.0379 161.524 88.752 160.891C91.4661 160.258 93.9767 159.109 96.623 158.286C99.2692 157.462 102.205 156.96 104.838 157.634C106.9 158.159 108.723 159.389 110.913 159.344C112.27 159.312 113.672 158.779 114.984 159.036C115.368 159.103 115.732 159.253 116.052 159.475C116.372 159.696 116.64 159.985 116.838 160.321C117.035 160.656 117.157 161.031 117.196 161.418C117.234 161.806 117.188 162.197 117.06 162.565C116.518 163.99 114.916 165.044 113.193 165.587C108.76 166.98 103.938 165.469 99.2376 165.609C96.4466 165.691 93.7098 166.36 90.9414 166.717C88.173 167.075 85.192 167.088 82.8262 165.966C80.4604 164.845 79.0083 162.293 80.2568 160.231" fill="black"/>
</g>
<path d="M130.345 118.375C130.284 118.58 130.204 118.778 130.105 118.968C130.019 119.153 129.915 119.379 129.807 119.651C129.698 119.922 129.567 120.221 129.449 120.555C129.155 121.357 128.907 122.176 128.708 123.007C128.217 125.045 128.031 127.144 128.156 129.236C128.203 130.089 128.302 130.938 128.454 131.778C128.509 132.14 128.59 132.461 128.644 132.746C128.699 133.031 128.762 133.276 128.816 133.47C128.878 133.674 128.924 133.883 128.952 134.094C128.857 133.904 128.782 133.704 128.73 133.497C128.647 133.261 128.576 133.021 128.518 132.778C128.45 132.493 128.355 132.172 128.291 131.81C128.114 130.966 127.997 130.11 127.939 129.25C127.869 128.195 127.878 127.136 127.966 126.083C128.066 125.031 128.243 123.988 128.495 122.962C128.706 122.124 128.973 121.302 129.296 120.501C129.422 120.153 129.567 119.854 129.689 119.596C129.789 119.367 129.901 119.144 130.024 118.927C130.115 118.734 130.223 118.55 130.345 118.375V118.375Z" fill="#263238"/>
<path d="M75.4276 116.805C75.4547 116.805 75.1562 117.257 74.7265 117.981C74.1637 118.922 73.6795 119.909 73.2789 120.93C72.8829 121.959 72.5713 123.018 72.3471 124.097C72.2792 124.554 72.1871 125.007 72.0711 125.454C72.0492 125.331 72.0492 125.205 72.0711 125.083C72.0711 124.843 72.1254 124.499 72.1887 124.083C72.5492 121.886 73.3659 119.789 74.5862 117.927C74.826 117.569 75.0386 117.293 75.1788 117.108C75.319 116.922 75.414 116.805 75.4276 116.805Z" fill="#263238"/>
<g opacity="0.3">
<path d="M71.3464 133.992C70.8443 135.684 70.3513 137.426 70.5141 139.181C70.677 140.936 71.6631 142.732 73.3142 143.342C72.8347 140.239 72.2436 137.157 71.541 134.096" fill="black"/>
</g>
<path d="M109.869 69.9045C110.735 69.9983 111.535 70.4138 112.109 71.0688C112.684 71.7239 112.992 72.5707 112.972 73.4419V73.4419L110.896 115.963C110.801 121.514 102.695 124.63 96.7777 124.495C90.775 123.074 90.5533 119.473 90.4809 114.194C90.3543 105.374 90.395 108.468 90.3905 108.517C90.386 108.567 82.809 107.242 81.262 97.3488C80.4884 92.4272 80.7553 84.3572 81.1851 77.7664C81.5741 71.8315 85.5186 64.5576 91.4354 65.1954L109.869 69.9045Z" fill="#FFBE9D"/>
<path d="M84.4571 84.1989C84.4533 84.5299 84.5788 84.8493 84.8069 85.0892C85.035 85.3291 85.3477 85.4706 85.6785 85.4836C85.8398 85.4965 86.0021 85.4771 86.1558 85.4265C86.3095 85.376 86.4516 85.2953 86.5738 85.1891C86.696 85.083 86.7957 84.9535 86.8672 84.8083C86.9388 84.6632 86.9806 84.5052 86.9903 84.3436C86.9929 84.0129 86.8671 83.6942 86.6392 83.4545C86.4114 83.2148 86.0993 83.073 85.7689 83.0589C85.6075 83.0454 85.445 83.0643 85.291 83.1146C85.137 83.165 84.9946 83.2456 84.8723 83.3519C84.75 83.4582 84.6503 83.5879 84.579 83.7333C84.5077 83.8788 84.4662 84.0371 84.4571 84.1989V84.1989Z" fill="#263238"/>
<path d="M82.9029 82.3177C83.0567 82.4851 84.0202 81.7749 85.3863 81.7839C86.7524 81.793 87.7521 82.4761 87.9014 82.3087C87.9738 82.2318 87.8109 81.9332 87.3767 81.6166C86.7882 81.2052 86.0863 80.987 85.3682 80.9923C84.657 80.9858 83.9625 81.2078 83.3869 81.6256C82.9662 81.9468 82.826 82.2453 82.9029 82.3177Z" fill="#263238"/>
<path d="M97.6837 84.3399C97.6799 84.6709 97.8054 84.9903 98.0335 85.2302C98.2616 85.4702 98.5742 85.6116 98.905 85.6246C99.0663 85.6369 99.2285 85.6168 99.382 85.5657C99.5355 85.5146 99.6772 85.4334 99.799 85.3268C99.9207 85.2202 100.02 85.0905 100.091 84.9451C100.162 84.7997 100.203 84.6416 100.212 84.4801C100.217 84.15 100.093 83.831 99.8652 83.5917C99.6377 83.3524 99.3255 83.2117 98.9955 83.1999C98.8339 83.1858 98.6712 83.2042 98.5169 83.2543C98.3626 83.3044 98.22 83.385 98.0976 83.4914C97.9752 83.5978 97.8754 83.7278 97.8043 83.8735C97.7332 84.0193 97.6922 84.1779 97.6837 84.3399V84.3399Z" fill="#263238"/>
<path d="M96.4455 82.3177C96.6038 82.4851 97.5674 81.7749 98.9335 81.7839C100.3 81.793 101.299 82.4761 101.444 82.3087C101.516 82.2318 101.363 81.9332 100.924 81.6166C100.334 81.2051 99.6303 80.987 98.9109 80.9923C98.201 80.9858 97.5079 81.2078 96.9341 81.6256C96.5134 81.9468 96.3686 82.2453 96.4455 82.3177Z" fill="#263238"/>
<path d="M91.3504 92.3766C91.3504 92.2997 90.5091 92.1504 89.1339 91.974C88.7856 91.9378 88.4554 91.8655 88.3966 91.6302C88.3653 91.2597 88.449 90.8885 88.6363 90.5672L89.6722 87.9164C91.1152 84.1392 92.1556 81.0316 92.0063 80.9773C91.8571 80.923 90.5633 83.9357 89.1203 87.7128C88.7765 88.6447 88.4418 89.5223 88.1297 90.3817C87.9096 90.798 87.8439 91.2787 87.9442 91.7388C87.9938 91.8619 88.071 91.972 88.1698 92.0606C88.2686 92.1492 88.3864 92.214 88.5142 92.25C88.6996 92.3162 88.8926 92.3587 89.0887 92.3766C90.4819 92.4354 91.3504 92.4399 91.3504 92.3766Z" fill="#263238"/>
<path d="M90.3672 108.517C95.0257 108.601 99.6159 107.388 103.626 105.016C103.626 105.016 100.265 111.991 90.3672 111.041V108.517Z" fill="#EB996E"/>
<path d="M91.5714 95.6841C92.2454 94.6708 93.2723 93.9923 94.1951 93.9516C94.5076 93.9235 94.8214 93.99 95.0956 94.1425C95.3699 94.2949 95.592 94.5263 95.7331 94.8065C95.8784 95.1741 95.9342 95.5709 95.8956 95.9642C95.8571 96.3575 95.7254 96.736 95.5114 97.0683C95.303 97.4194 94.9958 97.7014 94.6282 97.8791C94.2606 98.0569 93.8488 98.1226 93.4442 98.068C92.7757 97.8766 92.18 97.4889 91.7343 96.9552C91.5789 96.8243 91.4591 96.6562 91.386 96.4667C91.3495 96.347 91.3403 96.2207 91.3591 96.097C91.3779 95.9733 91.4242 95.8554 91.4945 95.752" fill="#EB996E"/>
<path d="M95.3646 93.3205C95.1429 93.3205 95.1384 94.7906 93.8673 95.8401C92.5962 96.8895 91.0175 96.7222 91.0039 96.9303C91.0039 97.0207 91.3567 97.2152 92.0217 97.2379C92.8904 97.2512 93.736 96.9582 94.4101 96.4101C95.0558 95.8824 95.4724 95.1254 95.5727 94.2976C95.6315 93.6778 95.4641 93.3114 95.3646 93.3205Z" fill="#263238"/>
<path d="M95.6688 79.1856C95.8361 79.543 97.1751 79.2354 98.79 79.267C100.405 79.2987 101.735 79.6108 101.916 79.267C101.993 79.0997 101.735 78.774 101.178 78.4664C100.443 78.0913 99.6293 77.8945 98.8036 77.8919C97.9789 77.8738 97.1618 78.0521 96.4197 78.4121C95.8723 78.6971 95.5919 79.0182 95.6688 79.1856Z" fill="#263238"/>
<path d="M83.0259 80.069C83.329 80.3811 84.496 80.069 85.8983 80.0373C87.3006 80.0056 88.4948 80.2408 88.7708 79.9197C88.8884 79.7614 88.6984 79.4673 88.1782 79.1552C87.4562 78.7901 86.6523 78.6172 85.844 78.6531C85.0392 78.6588 84.25 78.8756 83.5551 79.2819C83.0575 79.5985 82.8947 79.9197 83.0259 80.069Z" fill="#263238"/>
<path d="M116.882 103.288C116.882 103.288 116.823 103.288 116.71 103.265C116.549 103.231 116.391 103.187 116.235 103.134C115.651 102.944 115.112 102.637 114.652 102.229C114.301 101.926 114.029 101.54 113.86 101.108C113.691 100.675 113.631 100.208 113.684 99.746C113.714 99.4662 113.807 99.1967 113.955 98.9573C114.103 98.7178 114.302 98.5144 114.539 98.3618C114.674 98.2799 114.828 98.2332 114.986 98.2261C115.144 98.219 115.301 98.2517 115.443 98.3211C115.598 98.3957 115.722 98.5205 115.796 98.675C115.87 98.8295 115.889 99.0046 115.85 99.1715C115.798 99.3404 115.681 99.4817 115.525 99.5651C115.384 99.6352 115.23 99.6738 115.072 99.6782C114.775 99.6874 114.48 99.6286 114.208 99.5063C113.697 99.3038 113.235 98.9954 112.851 98.6016C112.192 97.9539 111.788 97.0895 111.716 96.1679C111.666 95.5511 111.762 94.9312 111.996 94.3585C112.06 94.2011 112.137 94.0497 112.227 93.9061C112.286 93.8111 112.322 93.7614 112.331 93.7659C112.34 93.7704 112.227 93.9785 112.082 94.3766C111.89 94.9388 111.822 95.5361 111.883 96.1272C111.971 97.0025 112.369 97.8175 113.005 98.4252C113.371 98.7864 113.807 99.0695 114.285 99.2575C114.527 99.3617 114.787 99.4141 115.05 99.4113C115.17 99.4215 115.291 99.3939 115.394 99.3322C115.498 99.2706 115.58 99.178 115.629 99.0675C115.649 98.9516 115.631 98.8323 115.577 98.7277C115.523 98.6231 115.436 98.5391 115.33 98.4885C115.222 98.436 115.102 98.4121 114.981 98.4193C114.861 98.4264 114.744 98.4642 114.643 98.5292C114.435 98.6633 114.26 98.8414 114.13 99.051C113.999 99.2605 113.916 99.4963 113.887 99.7415C113.824 100.202 113.886 100.671 114.068 101.099C114.227 101.471 114.461 101.807 114.756 102.085C115.195 102.485 115.704 102.8 116.258 103.017C116.683 103.207 116.886 103.27 116.882 103.288Z" fill="#263238"/>
<path d="M92.8892 59.393C92.2933 59.0001 91.8571 58.4075 91.6589 57.7218C91.4608 57.0361 91.5136 56.3022 91.8081 55.652C91.3919 55.0639 91.8804 54.1909 92.559 53.9511C93.2375 53.7114 93.9794 53.9014 94.6715 54.0914C94.486 53.7612 94.9791 53.4762 95.3545 53.4174L97.9737 52.9967C97.3742 52.8411 96.8182 52.5508 96.3478 52.1479C95.8775 51.745 95.5053 51.24 95.2595 50.6716C94.7768 49.5185 94.6462 48.2483 94.8841 47.0211C94.8942 46.8429 94.9394 46.6685 95.017 46.5078C95.0946 46.3472 95.2032 46.2034 95.3364 46.0847C96.1212 46.9867 96.7344 48.0246 97.1459 49.1471C97.5067 49.1652 97.8598 49.2587 98.1823 49.4215C98.5049 49.5844 98.7898 49.813 99.0186 50.0926C99.0617 49.9953 99.1261 49.9089 99.2069 49.8396C99.2877 49.7704 99.3829 49.72 99.4856 49.6923C99.5884 49.6645 99.696 49.6601 99.8007 49.6793C99.9054 49.6984 100.004 49.7407 100.091 49.8031C100.647 48.256 101.692 46.6366 103.325 46.4375C102.814 45.7183 103.741 44.8543 104.533 44.4608C105.09 44.1359 105.704 43.9209 106.342 43.8275C106.664 43.7849 106.992 43.8336 107.288 43.9679C107.584 44.1022 107.836 44.3169 108.016 44.5874C108.328 45.1529 108.039 46.0169 107.401 46.1254C107.726 46.359 107.965 46.6941 108.08 47.078C108.194 47.462 108.178 47.8731 108.034 48.247C108.29 47.9425 108.641 47.7326 109.03 47.6506C109.42 47.5686 109.825 47.6193 110.183 47.7946C111.32 47.2965 112.57 47.1152 113.802 47.2699C114.118 47.2892 114.424 47.3957 114.684 47.5775C114.869 47.7313 114.991 47.9529 115.181 48.0977C115.476 48.2707 115.812 48.3599 116.154 48.3555C116.942 48.3927 117.7 48.6705 118.325 49.1517C118.631 49.3974 118.853 49.733 118.958 50.1111C119.064 50.4892 119.048 50.8909 118.913 51.2596C120.723 51.8432 122.509 49.7669 124.373 50.1378C125.463 50.3504 126.219 51.3501 126.694 52.3589C125.771 52.7315 124.772 52.8773 123.78 52.7841C123.716 53.0541 123.563 53.2948 123.346 53.4678C123.128 53.6408 122.859 53.7361 122.582 53.7385C122.652 53.8352 122.697 53.9477 122.714 54.066C122.73 54.1844 122.717 54.305 122.676 54.4172C122.635 54.5294 122.567 54.6297 122.478 54.7094C122.389 54.789 122.282 54.8455 122.166 54.8739C123.307 54.5724 124.509 54.5927 125.64 54.9328C127.381 55.3399 129.29 56.2536 129.711 57.9952C129.817 58.6195 129.817 59.2572 129.711 59.8815C129.602 60.8224 129.123 62.0528 128.191 61.8809C127.621 61.7724 127.322 61.1617 127.015 60.6641C126.331 59.5647 125.243 58.7783 123.984 58.4747C123.532 58.9044 124.364 59.4563 124.721 59.9629C125.079 60.4696 124.934 61.1391 125.02 61.7407C125.16 62.6454 125.834 63.3963 126.237 64.2332C127.11 66.0426 126.653 68.1822 126.178 70.1138C126.051 70.6475 125.45 71.3035 125.119 70.8647C125.449 70.948 125.74 71.1433 125.942 71.4171C126.145 71.691 126.245 72.0266 126.228 72.3665C126.173 73.0452 125.958 73.7012 125.599 74.2799C125.468 74.5378 125.305 74.8228 125.02 74.8861C124.613 74.9856 124.278 74.574 124.061 74.2121L122.283 71.2944C122.42 71.9603 122.404 72.6483 122.238 73.3074C121.948 74.5875 121.188 75.8949 119.935 76.2703C119.071 76.5281 118.149 76.2974 117.276 76.0713" fill="#263238"/>
<path d="M112.36 90.1602C111.976 89.9973 110.433 90.6125 110.175 90.3004C108.886 88.6222 108.185 83.8317 107.864 81.7419C107.542 79.652 108.85 77.3133 108.651 75.2054C108.492 73.5181 108.198 71.7403 107.058 70.4692C106.356 69.7196 105.477 69.1569 104.503 68.8317C103.019 68.3028 101.43 68.1353 99.8686 68.343C98.307 68.5506 96.8174 69.1276 95.5234 70.0259C94.4649 70.7768 93.4606 71.781 92.1669 71.9032C90.8732 72.0253 89.7197 71.2337 88.6114 70.5732C87.5031 69.9128 86.137 69.3293 84.9654 69.8676C84.5158 70.0995 84.1197 70.4231 83.8029 70.8175C82.9977 71.7222 81.3375 75.7934 81.3104 77.3993C81.3104 77.3993 80.4916 73.6674 81.903 70.2159C83.6038 66.0497 88.1862 61.3362 95.4736 60.151C107.167 58.2511 112.663 64.7605 114.726 69.4152C115.631 71.4101 116.359 76.6529 115.712 80.6788C115.154 84.01 114.019 87.2184 112.36 90.1602V90.1602Z" fill="#263238"/>
<path d="M115.503 71.0245C115.327 71.0788 114.852 69.7624 113.694 67.8852C113.017 66.7896 112.244 65.7571 111.382 64.8001C110.362 63.6327 109.152 62.6449 107.804 61.8779C106.427 61.163 104.942 60.6786 103.407 60.4439C102.145 60.2472 100.863 60.2031 99.5896 60.3127C97.4002 60.5073 96.0838 61.0139 96.016 60.833C95.9843 60.7651 96.2783 60.548 96.8619 60.2811C97.697 59.9081 98.5753 59.6407 99.4765 59.4849C100.821 59.2502 102.192 59.2106 103.548 59.3673C105.228 59.5584 106.858 60.0583 108.356 60.842C109.828 61.6722 111.129 62.7726 112.192 64.0854C113.066 65.1312 113.815 66.2759 114.422 67.4961C115.44 69.5498 115.639 70.9883 115.503 71.0245Z" fill="#FF7E35"/>
<path d="M104.083 60.8697C103.85 60.9128 103.614 60.94 103.378 60.9511C102.737 61.0173 102.101 61.123 101.473 61.2678C99.4006 61.7365 97.4607 62.667 95.7978 63.9899C94.135 65.3128 92.7923 66.9939 91.8697 68.9081C91.5854 69.4855 91.3391 70.0808 91.1323 70.6903C91.0665 70.9183 90.9864 71.1419 90.8926 71.3598C90.8926 71.3598 90.8926 71.292 90.9197 71.1744C90.9469 71.0567 90.9785 70.8803 91.0419 70.6632C91.2205 70.0439 91.4458 69.439 91.7159 68.8538C92.6131 66.8908 93.9612 65.1675 95.6505 63.8241C97.3397 62.4807 99.3224 61.5552 101.437 61.123C102.073 60.9914 102.719 60.9098 103.369 60.8788C103.599 60.8788 103.776 60.8788 103.898 60.8788C104.02 60.8788 104.083 60.8607 104.083 60.8697Z" fill="#455A64"/>
<path d="M107.183 62.2812C106.743 62.5526 106.29 62.8017 105.826 63.0276C104.724 63.6218 103.658 64.2788 102.632 64.9954C101.609 65.7153 100.628 66.4946 99.6964 67.3295C99.3257 67.6935 98.9361 68.0377 98.5293 68.3609C98.5994 68.2393 98.6862 68.1282 98.7871 68.0307C98.9681 67.8271 99.2395 67.5467 99.5833 67.2074C101.399 65.4507 103.48 63.99 105.749 62.8784C106.201 62.6703 106.54 62.5119 106.794 62.426C106.916 62.3602 107.047 62.3115 107.183 62.2812V62.2812Z" fill="#455A64"/>
<path d="M113.517 67.5234C113.526 67.655 113.519 67.7873 113.494 67.917C113.462 68.1658 113.404 68.5277 113.309 68.9664C113.059 70.1172 112.696 71.2401 112.223 72.3184C111.75 73.3974 111.173 74.4276 110.499 75.3944C110.237 75.7608 110.015 76.0503 109.848 76.2403C109.681 76.4303 109.59 76.5343 109.577 76.5253C109.563 76.5162 109.88 76.0729 110.359 75.2994C110.987 74.3199 111.538 73.293 112.006 72.2279C112.469 71.1594 112.85 70.057 113.146 68.9303C113.243 68.4549 113.367 67.9852 113.517 67.5234Z" fill="#455A64"/>
<path d="M110.26 81.6708C110.223 81.6391 110.735 81.0963 111.418 80.1102C111.816 79.5303 112.177 78.926 112.499 78.3008C112.888 77.5361 113.221 76.7438 113.494 75.9304C113.981 74.4475 114.256 72.9034 114.313 71.3436C114.353 70.1448 114.267 69.403 114.313 69.3984C114.366 69.5671 114.396 69.742 114.403 69.9186C114.461 70.3929 114.488 70.8703 114.485 71.3481C114.484 72.0582 114.431 72.7672 114.326 73.4696C114.191 74.3297 113.99 75.1781 113.725 76.0073C113.446 76.8322 113.102 77.6338 112.698 78.4048C112.362 79.0345 111.981 79.6392 111.558 80.2142C111.279 80.6005 110.977 80.9691 110.653 81.318C110.534 81.4488 110.403 81.567 110.26 81.6708V81.6708Z" fill="#455A64"/>
<path d="M72.9258 71.2869C72.9258 71.2869 73.1158 71.4814 73.4641 71.8071C73.9481 72.2717 74.5182 72.6374 75.1423 72.8837C75.5973 73.067 76.0873 73.147 76.577 73.1181C77.0667 73.0892 77.5438 72.9519 77.974 72.7163C78.466 72.4208 78.8377 71.961 79.0235 71.418C79.128 71.1354 79.166 70.8326 79.1346 70.5329C79.1032 70.2333 79.0033 69.9449 78.8426 69.6901C78.7665 69.5683 78.6604 69.4681 78.5344 69.3992C78.4085 69.3302 78.2669 69.2949 78.1233 69.2965C77.9902 69.3008 77.8627 69.3508 77.7621 69.4381C77.6616 69.5255 77.5943 69.6448 77.5715 69.776C77.4829 70.3396 77.6211 70.9154 77.956 71.3773C78.2476 71.8053 78.658 72.1386 79.1366 72.3363C79.5603 72.5009 80.0237 72.534 80.4665 72.4313C81.1184 72.2823 81.6911 71.8951 82.0724 71.3457C82.2041 71.1372 82.3205 70.9195 82.4207 70.6943C82.4198 70.7592 82.4076 70.8235 82.3845 70.8843C82.3279 71.0639 82.2489 71.2356 82.1493 71.3954C81.7801 71.9946 81.1905 72.4251 80.5072 72.5942C80.0312 72.7166 79.529 72.6898 79.0688 72.5173C78.544 72.3132 78.0909 71.9593 77.766 71.4995C77.5756 71.2484 77.4374 70.9618 77.3597 70.6564C77.282 70.3511 77.2664 70.0332 77.3136 69.7217C77.3546 69.5484 77.4459 69.391 77.576 69.2694C77.7166 69.1462 77.8958 69.0758 78.0826 69.0703C78.2623 69.0694 78.4393 69.1137 78.5974 69.1991C78.7554 69.2844 78.8895 69.4082 78.9873 69.5589C79.1711 69.8437 79.2856 70.1675 79.3217 70.5045C79.3578 70.8415 79.3146 71.1822 79.1954 71.4995C78.993 72.0946 78.5815 72.5961 78.0374 72.9108C77.5802 73.1582 77.0731 73.2993 76.5539 73.3236C76.0346 73.3479 75.5165 73.2547 75.0383 73.051C74.4005 72.7821 73.8258 72.3831 73.351 71.8794C73.2222 71.7465 73.1013 71.606 72.9891 71.4588C72.9601 71.4047 72.9388 71.3468 72.9258 71.2869V71.2869Z" fill="#263238"/>
<path d="M132.969 68.3748C132.884 68.4044 132.796 68.4227 132.706 68.429C132.534 68.4607 132.277 68.5014 131.942 68.5376C130.996 68.6739 130.033 68.6356 129.101 68.4245C128.452 68.2639 127.85 67.9542 127.341 67.5198C127.048 67.266 126.807 66.9568 126.633 66.6098C126.459 66.2628 126.356 65.8849 126.328 65.4978C126.296 65.0721 126.373 64.6451 126.554 64.2583C126.748 63.8531 127.065 63.5192 127.459 63.3039C127.869 63.0814 128.327 62.9648 128.793 62.9648C129.26 62.9648 129.718 63.0814 130.128 63.3039C130.347 63.4176 130.532 63.5878 130.663 63.797C130.794 64.0062 130.867 64.2467 130.874 64.4936C130.852 64.7334 130.766 64.9629 130.625 65.1585C130.484 65.3541 130.294 65.5086 130.074 65.6064C129.667 65.7838 129.221 65.8539 128.78 65.8099C128.369 65.78 127.961 65.7119 127.563 65.6064C126.175 65.2374 124.952 64.41 124.094 63.2586C123.523 62.4892 123.136 61.5995 122.963 60.6576C122.915 60.4037 122.887 60.1467 122.877 59.8886C122.864 59.7986 122.864 59.7072 122.877 59.6172C122.899 59.6172 122.899 59.9881 123.044 60.6395C123.247 61.5552 123.649 62.4152 124.22 63.1591C125.066 64.2692 126.259 65.0651 127.608 65.4209C127.994 65.5181 128.388 65.5802 128.784 65.6064C129.187 65.6472 129.593 65.5849 129.965 65.4254C130.159 65.3559 130.327 65.229 130.447 65.0616C130.566 64.8943 130.632 64.6945 130.636 64.4887C130.639 64.2829 130.58 64.0809 130.466 63.9097C130.352 63.7385 130.188 63.606 129.997 63.53C129.622 63.3273 129.203 63.2212 128.778 63.2212C128.352 63.2212 127.933 63.3273 127.559 63.53C127.215 63.7256 126.936 64.0164 126.755 64.3672C126.573 64.718 126.498 65.1138 126.536 65.5068C126.557 65.8679 126.65 66.2212 126.809 66.5459C126.968 66.8706 127.191 67.1602 127.464 67.3977C127.945 67.8231 128.518 68.1326 129.137 68.3024C130.049 68.5207 130.991 68.5819 131.924 68.4833L132.693 68.42C132.782 68.393 132.875 68.3778 132.969 68.3748V68.3748Z" fill="#263238"/>
<path d="M87.2295 47C87.1135 47.2918 87.0286 47.5951 86.9762 47.9047C86.9231 48.3248 86.9563 48.7513 87.0738 49.158C87.1912 49.5648 87.3904 49.9434 87.6592 50.2705C88.0757 50.7367 88.6132 51.0782 89.2122 51.2571C89.8112 51.436 90.448 51.4452 91.0519 51.2838C91.4052 51.2152 91.7355 51.0587 92.0122 50.8286C92.289 50.5985 92.5032 50.3023 92.6351 49.9674C92.6822 49.7906 92.6917 49.6057 92.6629 49.4249C92.634 49.2442 92.5676 49.0714 92.4677 48.918C92.3735 48.7605 92.2313 48.6374 92.062 48.5666C91.8927 48.4958 91.7051 48.481 91.5268 48.5244C91.3467 48.5786 91.1805 48.6714 91.0398 48.7964C90.8992 48.9214 90.7875 49.0756 90.7126 49.2482C90.563 49.5939 90.5501 49.9835 90.6764 50.3384C90.9526 51.0259 91.4244 51.6173 92.0335 52.0392C92.8801 52.6792 93.8636 53.1144 94.9066 53.3106C95.9496 53.5068 97.0239 53.4587 98.0453 53.1701C98.6288 52.9982 98.95 52.8399 98.95 52.867C98.8835 52.9137 98.8122 52.9531 98.7374 52.9847C98.5258 53.0913 98.3065 53.182 98.0815 53.2561C97.2513 53.5304 96.3744 53.635 95.503 53.5637C94.1989 53.4659 92.9504 52.9948 91.9068 52.2066C91.2634 51.7576 90.7675 51.128 90.4819 50.3972C90.335 49.9896 90.3495 49.5413 90.5226 49.1442C90.611 48.9378 90.744 48.7537 90.9122 48.605C91.0804 48.4564 91.2795 48.347 91.4952 48.2847C91.7201 48.2313 91.9562 48.2502 92.1698 48.3388C92.3834 48.4273 92.5636 48.5809 92.6849 48.7778C92.8032 48.9596 92.8817 49.1645 92.9153 49.3789C92.9488 49.5933 92.9366 49.8124 92.8794 50.0217C92.7559 50.4163 92.5064 50.7595 92.1692 50.9988C91.858 51.2277 91.5043 51.3923 91.1288 51.4828C90.488 51.6516 89.8127 51.6367 89.18 51.4399C88.5473 51.2431 87.9827 50.8724 87.5507 50.37C87.2757 50.0233 87.0764 49.6227 86.9658 49.1942C86.8551 48.7656 86.8356 48.3187 86.9083 47.8821C86.9506 47.6474 87.0236 47.4192 87.1254 47.2036C87.1516 47.1317 87.1866 47.0633 87.2295 47V47Z" fill="#263238"/>
<path d="M109.939 88.6993C110.047 86.5099 112.436 85.0488 114.331 86.148C115.371 86.7496 116.172 87.9574 116.077 90.2825C115.819 96.4843 109.649 94.9508 109.645 94.7699C109.645 94.6432 109.812 91.2641 109.939 88.6993Z" fill="#FFBE9D"/>
<path d="M111.634 92.4975C111.661 92.4975 111.738 92.5789 111.919 92.6694C112.17 92.7911 112.459 92.809 112.724 92.7192C113.389 92.5066 113.986 91.4888 114.058 90.3714C114.097 89.8417 114.017 89.3099 113.823 88.8153C113.773 88.6193 113.675 88.4384 113.54 88.288C113.404 88.1376 113.235 88.0221 113.045 87.9514C112.922 87.9134 112.789 87.9198 112.67 87.9693C112.551 88.0189 112.453 88.1086 112.394 88.2228C112.303 88.3901 112.339 88.5168 112.303 88.5258C112.267 88.5349 112.177 88.4173 112.235 88.164C112.276 88.0108 112.369 87.8766 112.498 87.784C112.673 87.6632 112.889 87.6161 113.099 87.6528C113.352 87.7124 113.585 87.8361 113.776 88.012C113.967 88.1879 114.109 88.4101 114.19 88.657C114.43 89.2061 114.534 89.8052 114.493 90.4031C114.402 91.6516 113.715 92.7915 112.805 93.0132C112.637 93.0546 112.461 93.0579 112.291 93.0227C112.122 92.9874 111.962 92.9146 111.824 92.8096C111.638 92.6468 111.611 92.5066 111.634 92.4975Z" fill="#EB996E"/>
<path d="M167.879 130.179C164.771 122.036 131.419 95.8359 131.419 95.8359L121.834 100.975L146.012 125.302L148.6 142.134C148.6 142.134 156.661 144.455 160.103 144.125C166.522 143.496 169.575 134.625 167.879 130.179Z" fill="#FFBE9D"/>
<path d="M152.872 136.284C152.749 136.145 152.642 135.993 152.551 135.832C152.333 135.484 152.067 135.04 151.745 134.52C151.049 133.367 150.13 131.856 149.117 130.187C148.104 128.517 147.113 126.988 146.403 125.903L145.566 124.614C145.453 124.462 145.357 124.298 145.281 124.125C145.417 124.262 145.537 124.413 145.639 124.577C145.86 124.867 146.168 125.292 146.543 125.826C147.29 126.889 148.28 128.391 149.321 130.078C150.361 131.765 151.257 133.321 151.89 134.457C152.207 135.022 152.46 135.484 152.627 135.814C152.725 135.962 152.807 136.119 152.872 136.284Z" fill="#EB996E"/>
<path d="M121.805 76.5134C120.85 76.4681 120.972 77.314 121.23 77.9473C121.488 78.5806 122.985 82.0547 122.985 82.0547C122.985 82.0547 119.367 75.5272 118.964 75.1382C118.561 74.7492 117.874 74.0435 117.336 74.4506C116.797 74.8578 117.028 75.4096 117.236 76.061C117.426 76.6445 119.321 81.0369 119.724 81.9416C119.769 82.0502 120.108 82.7649 119.923 82.878C119.792 83.1404 119.222 82.5704 119.045 82.3397L116.263 78.6666C116.263 78.6666 114.088 75.6087 113.581 75.8077C112.676 76.1605 112.224 76.6672 112.45 77.1964C112.676 77.7257 117.363 84.6874 117.363 84.6874L113.291 79.7929C113.017 79.4719 112.643 79.2522 112.228 79.1687C112.033 79.12 111.829 79.1254 111.637 79.1844C111.445 79.2434 111.272 79.3537 111.138 79.5034C110.614 80.1005 111.618 81.2631 112.066 82.0819C112.351 82.6021 114.119 84.9724 114.119 84.9724L118.068 91.812L117.421 91.9522L116.006 89.6633L114.504 94.0964C114.504 94.0964 116.598 97.7695 118.602 99.9408C119.444 100.846 121.836 100.968 121.836 100.968L131.476 96.7246C131.476 96.7246 131.25 92.7529 130.983 91.8165C130.304 89.9685 129.454 88.1876 128.445 86.4968C127.699 85.3886 126.138 83.7827 125.564 82.6609C124.989 81.539 122.918 76.5722 121.805 76.5134Z" fill="#FFBE9D"/>
<path d="M125.244 85.6797C125.276 85.7114 124.85 86.1547 124.339 86.9779C124.028 87.4585 123.758 87.9639 123.53 88.4888C123.254 89.1326 123.037 89.8004 122.883 90.4837C122.741 91.1687 122.66 91.8651 122.643 92.5645C122.632 93.1364 122.667 93.7081 122.747 94.2744C122.892 95.2425 123.091 95.8215 123.05 95.835C122.973 95.7138 122.917 95.5809 122.883 95.4415C122.823 95.2835 122.773 95.1219 122.733 94.9575C122.671 94.7418 122.622 94.5228 122.584 94.3016C122.476 93.7274 122.423 93.1442 122.426 92.56C122.429 91.1244 122.738 89.7058 123.331 88.3983C123.574 87.8681 123.865 87.3609 124.199 86.883C124.335 86.6749 124.484 86.503 124.606 86.3492C124.711 86.2165 124.824 86.0911 124.945 85.9737C125.031 85.8623 125.131 85.7633 125.244 85.6797V85.6797Z" fill="#EB996E"/>
<path d="M121.894 93.2271C121.072 92.9516 120.217 92.7873 119.352 92.7386C118.873 92.7327 118.396 92.7782 117.927 92.8743H117.859L117.823 92.8245C117.578 92.5178 117.374 92.1801 117.217 91.8203C117.508 92.0887 117.765 92.3927 117.981 92.725L117.882 92.6843C118.362 92.5551 118.859 92.4942 119.356 92.5034C119.99 92.5103 120.618 92.6282 121.211 92.8517C121.463 92.9275 121.695 93.0555 121.894 93.2271Z" fill="#EB996E"/>
<path d="M125.34 83.6719C124.906 83.8195 124.463 83.9419 124.015 84.0383C121.882 84.612 119.84 85.4831 117.949 86.6257C117.568 86.882 117.172 87.1161 116.764 87.3269C117.096 87.009 117.463 86.7298 117.858 86.4946C118.787 85.8764 119.771 85.3464 120.799 84.9113C121.821 84.4741 122.881 84.1304 123.965 83.8845C124.414 83.7608 124.875 83.6894 125.34 83.6719Z" fill="#EB996E"/>
<path d="M115.661 87.6406C115.661 87.6406 115.742 87.7266 115.842 87.903C115.98 88.1559 116.086 88.4248 116.159 88.7037C116.268 89.1224 116.304 89.5573 116.263 89.9883C116.206 90.511 116.075 91.0228 115.874 91.5083C115.695 91.9949 115.482 92.468 115.236 92.9241C115.027 93.2978 114.775 93.6455 114.485 93.96C114.288 94.1714 114.068 94.3596 113.829 94.5209C113.744 94.5864 113.647 94.6355 113.544 94.6657C113.521 94.6295 113.901 94.3943 114.358 93.8514C114.622 93.532 114.852 93.1864 115.046 92.8201C115.275 92.3658 115.479 91.8992 115.656 91.4223C115.847 90.9551 115.978 90.4657 116.045 89.9657C116.095 89.5571 116.078 89.1431 115.996 88.7398C115.855 88.0523 115.62 87.6632 115.661 87.6406Z" fill="#EB996E"/>
<path d="M199.335 198.227C199.335 198.29 154.833 198.345 99.9485 198.345C45.0644 198.345 0.552734 198.272 0.552734 198.227C0.552734 198.182 45.0463 198.109 99.9485 198.109C154.851 198.109 199.335 198.141 199.335 198.227Z" fill="#263238"/>
</svg>
