<svg width="9" height="5" viewBox="0 0 9 5" fill="none" xmlns="http://www.w3.org/2000/svg">
<path d="M8.25509 0.49345C8.22907 0.430639 8.18501 0.376953 8.12848 0.339182C8.07195 0.30141 8.00549 0.28125 7.9375 0.28125H1.0625C0.994513 0.28125 0.928052 0.301411 0.871522 0.339183C0.814992 0.376955 0.770932 0.430643 0.744915 0.493456C0.718898 0.556269 0.712091 0.625387 0.725356 0.692069C0.738621 0.75875 0.771362 0.82 0.819439 0.868074L4.25694 4.30556C4.28886 4.33749 4.32675 4.36281 4.36846 4.38008C4.41016 4.39736 4.45486 4.40625 4.5 4.40625C4.54514 4.40625 4.58984 4.39736 4.63155 4.38008C4.67325 4.36281 4.71115 4.33749 4.74306 4.30556L8.18056 0.868074C8.22864 0.82 8.26138 0.758748 8.27465 0.692066C8.28791 0.625383 8.28111 0.556264 8.25509 0.49345Z" fill="#F3F4F6"/>
</svg>
