<svg width="21" height="16" viewBox="0 0 21 16" fill="none" xmlns="http://www.w3.org/2000/svg">
<path d="M10.5001 1.58203C4.71869 1.58203 1.91369 6.79145 1.41594 7.8227C1.38901 7.87746 1.375 7.93767 1.375 7.9987C1.375 8.05972 1.38901 8.11994 1.41594 8.1747C1.91278 9.20595 4.71778 14.4154 10.5001 14.4154C16.2824 14.4154 19.0865 9.20595 19.5843 8.1747C19.6112 8.11994 19.6252 8.05972 19.6252 7.9987C19.6252 7.93767 19.6112 7.87746 19.5843 7.8227C19.0874 6.79145 16.2824 1.58203 10.5001 1.58203Z" stroke="#81888E" stroke-width="2" stroke-linecap="round" stroke-linejoin="round"/>
<path d="M10.5 10.75C12.0188 10.75 13.25 9.51878 13.25 8C13.25 6.48122 12.0188 5.25 10.5 5.25C8.98122 5.25 7.75 6.48122 7.75 8C7.75 9.51878 8.98122 10.75 10.5 10.75Z" stroke="#81888E" stroke-width="2" stroke-linecap="round" stroke-linejoin="round"/>
</svg>
