<svg width="16" height="17" viewBox="0 0 16 17" fill="none" xmlns="http://www.w3.org/2000/svg">
<path d="M7.66817 2.11518L2.62727 3.12336L1.61908 8.16427C1.60294 8.24498 1.60698 8.32843 1.63083 8.40722C1.65468 8.486 1.69762 8.55767 1.75582 8.61588L8.28412 15.1442C8.33055 15.1906 8.38567 15.2274 8.44633 15.2526C8.50699 15.2777 8.57201 15.2906 8.63767 15.2906C8.70333 15.2906 8.76835 15.2777 8.82902 15.2526C8.88968 15.2274 8.9448 15.1906 8.99123 15.1442L14.6481 9.48732C14.6945 9.44089 14.7313 9.38577 14.7565 9.32511C14.7816 9.26445 14.7945 9.19943 14.7945 9.13377C14.7945 9.06811 14.7816 9.00309 14.7565 8.94243C14.7313 8.88176 14.6945 8.82664 14.6481 8.78021L8.11978 2.25192C8.06158 2.19371 7.9899 2.15078 7.91112 2.12692C7.83234 2.10307 7.74889 2.09904 7.66817 2.11518V2.11518Z" stroke="#0D9488" stroke-linecap="round" stroke-linejoin="round"/>
<path d="M5.25 6.5C5.66421 6.5 6 6.16421 6 5.75C6 5.33579 5.66421 5 5.25 5C4.83579 5 4.5 5.33579 4.5 5.75C4.5 6.16421 4.83579 6.5 5.25 6.5Z" fill="#0D9488"/>
</svg>
