<svg width="20" height="20" viewBox="0 0 20 20" fill="none" xmlns="http://www.w3.org/2000/svg">
<path d="M2.25947 14.5917C1.14082 12.7059 0.749054 10.4766 1.15775 8.32244C1.56644 6.16825 2.74748 4.23734 4.47909 2.89231C6.2107 1.54728 8.37376 0.880641 10.5621 1.01758C12.7504 1.15452 14.8135 2.08562 16.3639 3.63603C17.9144 5.18644 18.8455 7.24952 18.9824 9.43785C19.1194 11.6262 18.4527 13.7893 17.1077 15.5209C15.7627 17.2525 13.8318 18.4335 11.6776 18.8422C9.52342 19.2509 7.29412 18.8592 5.40833 17.7406L5.40835 17.7405L2.29862 18.629C2.16996 18.6657 2.03382 18.6674 1.90429 18.6338C1.77476 18.6003 1.65656 18.5327 1.56194 18.4381C1.46732 18.3434 1.39973 18.2252 1.36617 18.0957C1.3326 17.9662 1.33429 17.83 1.37105 17.7014L2.25954 14.5917L2.25947 14.5917Z" stroke="#01B647" stroke-width="1.4" stroke-linecap="round" stroke-linejoin="round"/>
<path d="M12.2638 15.2491C11.2767 15.2505 10.299 15.0571 9.38673 14.68C8.47449 14.3029 7.64562 13.7495 6.94762 13.0515C6.24962 12.3535 5.69621 11.5246 5.3191 10.6124C4.942 9.70012 4.7486 8.72242 4.75001 7.73531C4.75224 7.04049 5.02997 6.37493 5.52228 5.88462C6.01459 5.39431 6.68128 5.11928 7.3761 5.11987V5.11987C7.49006 5.11987 7.602 5.15 7.70057 5.2072C7.79914 5.26441 7.88084 5.34665 7.93738 5.4456L9.03387 7.36446C9.1 7.48018 9.13411 7.61143 9.13269 7.7447C9.13127 7.87797 9.09438 8.00846 9.02581 8.12275L8.14521 9.59041C8.59826 10.5958 9.4033 11.4008 10.4087 11.8539V11.8539L11.8763 10.9733C11.9906 10.9047 12.1211 10.8678 12.2544 10.8664C12.3877 10.865 12.5189 10.8991 12.6346 10.9652L14.5535 12.0617C14.6524 12.1183 14.7347 12.2 14.7919 12.2985C14.8491 12.3971 14.8792 12.509 14.8792 12.623V12.623C14.8772 13.317 14.6014 13.9822 14.1116 14.474C13.6219 14.9657 12.9578 15.2443 12.2638 15.2491V15.2491Z" stroke="#01B647" stroke-width="1.4" stroke-linecap="round" stroke-linejoin="round"/>
</svg>
