<svg width="36" height="36" viewBox="0 0 36 36" fill="none" xmlns="http://www.w3.org/2000/svg">
<rect width="36" height="36" rx="18" fill="#FFFBF6"/>
<path d="M14.9844 21.2707C15.7962 20.4952 16.8757 20.0625 17.9984 20.0625C19.1211 20.0625 20.2006 20.4952 21.0125 21.2707" stroke="#FF8C58" stroke-width="1.6" stroke-linecap="round" stroke-linejoin="round"/>
<path d="M12.0703 18.3539C13.6558 16.8048 15.7845 15.9375 18.0012 15.9375C20.2178 15.9375 22.3465 16.8048 23.932 18.3539" stroke="#FF8C58" stroke-width="1.6" stroke-linecap="round" stroke-linejoin="round"/>
<path d="M9.15625 15.4371C11.5145 13.1144 14.6917 11.8125 18.0017 11.8125C21.3116 11.8125 24.4888 13.1144 26.8471 15.4371" stroke="#FF8C58" stroke-width="1.6" stroke-linecap="round" stroke-linejoin="round"/>
<path d="M18 25.2188C18.5695 25.2188 19.0312 24.757 19.0312 24.1875C19.0312 23.618 18.5695 23.1562 18 23.1562C17.4305 23.1562 16.9688 23.618 16.9688 24.1875C16.9688 24.757 17.4305 25.2188 18 25.2188Z" fill="#FF8C58"/>
<rect x="16.8047" y="9.86719" width="2.4" height="12.7783" rx="1.2" fill="#FF8C58" stroke="#FFFBF6"/>
</svg>
