<svg width="22" height="23" viewBox="0 0 22 23" fill="none" xmlns="http://www.w3.org/2000/svg">
<path d="M6.96395 13.2982L5.37393 19.6583C5.20566 20.3296 6.03621 20.7885 6.51583 20.2891L17.3086 9.04188C17.4003 8.94652 17.462 8.82629 17.486 8.69614C17.5099 8.56599 17.4951 8.43167 17.4433 8.30988C17.3915 8.1881 17.3051 8.08423 17.1948 8.01119C17.0844 7.93815 16.955 7.89916 16.8227 7.89908H12.8094L14.3139 3.38815C14.3477 3.28667 14.3569 3.17862 14.3407 3.07289C14.3246 2.96716 14.2835 2.86679 14.2209 2.78005C14.1584 2.69331 14.0761 2.62268 13.9808 2.57399C13.8856 2.5253 13.7802 2.49994 13.6732 2.5H7.37428C7.22764 2.50003 7.085 2.54782 6.96794 2.63614C6.85088 2.72447 6.76577 2.84851 6.7255 2.98952L4.02596 12.4379C3.99727 12.5383 3.99228 12.644 4.01139 12.7467C4.03049 12.8494 4.07317 12.9463 4.13606 13.0296C4.19895 13.113 4.28034 13.1807 4.37381 13.2273C4.46729 13.2739 4.5703 13.2981 4.67475 13.2982H6.96395ZM11.2337 8.3607C11.2 8.4621 11.1907 8.57008 11.2069 8.67573C11.223 8.78139 11.264 8.88171 11.3264 8.96843C11.3889 9.05515 11.4711 9.1258 11.5662 9.17455C11.6613 9.2233 11.7666 9.24877 11.8735 9.24885H15.2389L7.2987 17.5238L8.4829 12.787C8.50778 12.6876 8.50967 12.5838 8.48843 12.4835C8.46719 12.3832 8.42338 12.289 8.36032 12.2082C8.29726 12.1273 8.21662 12.0619 8.1245 12.0169C8.03239 11.9719 7.93123 11.9485 7.82871 11.9484H5.57009L7.8827 3.84977H12.7365L11.2337 8.3607Z" fill="#81888E"/>
</svg>
