<svg xmlns="http://www.w3.org/2000/svg" width="20" height="20" viewBox="0 0 20 20" fill="none">
  <path d="M13.7656 7.79688H17.5156V4.04688" stroke="#F2133B" stroke-width="1.4" stroke-linecap="round" stroke-linejoin="round"/>
  <path d="M5.14062 5.13864C5.77903 4.50024 6.53692 3.99383 7.37104 3.64833C8.20515 3.30283 9.09915 3.125 10.002 3.125C10.9048 3.125 11.7988 3.30283 12.6329 3.64833C13.467 3.99383 14.2249 4.50024 14.8633 5.13864L17.515 7.79029" stroke="#F2133B" stroke-width="1.4" stroke-linecap="round" stroke-linejoin="round"/>
  <path d="M6.23438 12.2031H2.48438V15.9531" stroke="#F2133B" stroke-width="1.4" stroke-linecap="round" stroke-linejoin="round"/>
  <path d="M14.8587 14.8548C14.2203 15.4932 13.4624 15.9996 12.6283 16.3451C11.7942 16.6906 10.9002 16.8684 9.99739 16.8684C9.09455 16.8684 8.20055 16.6906 7.36644 16.3451C6.53232 15.9996 5.77443 15.4932 5.13602 14.8548L2.48438 12.2031" stroke="#F2133B" stroke-width="1.4" stroke-linecap="round" stroke-linejoin="round"/>
</svg>