<svg xmlns="http://www.w3.org/2000/svg" width="20" height="20" viewBox="0 0 20 20" fill="none">
  <path d="M16.25 2.5H3.75C3.41858 2.50033 3.10083 2.63213 2.86648 2.86648C2.63213 3.10083 2.50033 3.41858 2.5 3.75V16.25C2.50033 16.5814 2.63213 16.8992 2.86648 17.1335C3.10083 17.3679 3.41858 17.4997 3.75 17.5H16.25C16.5814 17.4997 16.8992 17.3679 17.1335 17.1335C17.3679 16.8992 17.4997 16.5814 17.5 16.25V3.75C17.4997 3.41858 17.3679 3.10083 17.1335 2.86648C16.8992 2.63213 16.5814 2.50033 16.25 2.5ZM12.9419 12.0581C13 12.1161 13.0462 12.185 13.0776 12.2609C13.1091 12.3367 13.1254 12.418 13.1254 12.5001C13.1254 12.5823 13.1093 12.6636 13.0779 12.7395C13.0465 12.8153 13.0004 12.8843 12.9424 12.9424C12.8843 13.0004 12.8153 13.0465 12.7395 13.0779C12.6636 13.1093 12.5823 13.1254 12.5001 13.1254C12.418 13.1254 12.3367 13.1091 12.2609 13.0776C12.185 13.0462 12.1161 13 12.0581 12.9419L10 10.8838L7.94189 12.9419C7.82465 13.0589 7.66577 13.1246 7.50014 13.1245C7.33451 13.1244 7.17569 13.0585 7.05858 12.9414C6.94146 12.8243 6.87563 12.6655 6.87554 12.4999C6.87545 12.3342 6.94111 12.1753 7.0581 12.0581L9.11621 10L7.0581 7.94189C6.94111 7.82465 6.87545 7.66576 6.87554 7.50014C6.87563 7.33451 6.94146 7.17569 7.05858 7.05858C7.17569 6.94146 7.33451 6.87563 7.50014 6.87554C7.66577 6.87545 7.82465 6.94111 7.94189 7.05811L10 9.11621L12.0581 7.05811C12.1753 6.94111 12.3342 6.87545 12.4999 6.87554C12.6655 6.87563 12.8243 6.94146 12.9414 7.05858C13.0585 7.17569 13.1244 7.33451 13.1245 7.50014C13.1246 7.66576 13.0589 7.82465 12.9419 7.94189L10.8838 10L12.9419 12.0581Z" fill="#3577F0"/>
</svg>