<svg width="13" height="13" viewBox="0 0 13 12" fill="none" xmlns="http://www.w3.org/2000/svg">
<path d="M6.5 0C3.2 0 0.5 2.7 0.5 6C0.5 9.3 3.2 12 6.5 12C9.8 12 12.5 9.3 12.5 6C12.5 2.7 9.8 0 6.5 0ZM6.5 1.33333C7.53333 1.33333 8.5 1.7 9.3 2.26667L2.76667 8.8C2.2 8 1.83333 7.03333 1.83333 6C1.83333 3.43333 3.93333 1.33333 6.5 1.33333ZM6.5 10.6667C5.46667 10.6667 4.5 10.3 3.7 9.73333L10.2333 3.2C10.8 4 11.1667 4.96667 11.1667 6C11.1667 8.56667 9.06667 10.6667 6.5 10.6667Z" fill="#FF8C58"/>
</svg>
