<svg width="16" height="18" viewBox="0 0 16 18" fill="none" xmlns="http://www.w3.org/2000/svg">
<path d="M7.85751 12.5198C8.71821 12.5198 9.41595 11.8035 9.41595 10.9198C9.41595 10.0362 8.71821 9.31982 7.85751 9.31982C6.99681 9.31982 6.29907 10.0362 6.29907 10.9198C6.29907 11.8035 6.99681 12.5198 7.85751 12.5198Z" stroke="currentColor" stroke-width="1.2" stroke-linecap="round" stroke-linejoin="round"/>
<path d="M7.85718 12.52V14.44" stroke="currentColor" stroke-width="1.2" stroke-linecap="round" stroke-linejoin="round"/>
<path d="M14.0909 6.76025H1.62337C1.27909 6.76025 1 7.04679 1 7.40025V16.3602C1 16.7137 1.27909 17.0002 1.62337 17.0002H14.0909C14.4352 17.0002 14.7142 16.7137 14.7142 16.3602V7.40025C14.7142 7.04679 14.4352 6.76025 14.0909 6.76025Z" stroke="currentColor" stroke-width="1.2" stroke-linecap="round" stroke-linejoin="round"/>
<path d="M5.052 6.75998V3.87999C5.052 3.11617 5.34755 2.38363 5.87362 1.84353C6.3997 1.30343 7.11321 1 7.85719 1C8.60117 1 9.31468 1.30343 9.84075 1.84353C10.3668 2.38363 10.6624 3.11617 10.6624 3.87999V6.75998" stroke="currentColor" stroke-width="1.2" stroke-linecap="round" stroke-linejoin="round"/>
</svg>
