<svg  viewBox="0 0 14 14" fill="currentColor" xmlns="http://www.w3.org/2000/svg">
  <path d="M7 0C4.54682 0 2.54545 1.91435 2.54545 4.26087C2.54545 5.70896 3.31545 6.99026 4.47427 7.76087C1.862 8.736 0 11.1708 0 14H1.27273C1.27273 11.323 3.30336 9.08539 5.96591 8.6167L6.36364 9.73913H7.63636L8.03409 8.6167C10.6966 9.08539 12.7273 11.323 12.7273 14H14C14 11.1708 12.138 8.736 9.52573 7.76087C10.6839 6.99026 11.4545 5.70896 11.4545 4.26087C11.4545 1.91435 9.45318 0 7 0ZM7 1.21739C8.76464 1.21739 10.1818 2.57296 10.1818 4.26087C10.1818 5.94878 8.76464 7.30435 7 7.30435C5.23536 7.30435 3.81818 5.94878 3.81818 4.26087C3.81818 2.57296 5.23536 1.21739 7 1.21739ZM6.36364 10.3478L5.72727 14H8.27273L7.63636 10.3478H6.36364Z" />
</svg>
