<svg width="36" height="37" viewBox="0 0 40 41" fill="none" xmlns="http://www.w3.org/2000/svg">
<rect x="2.7" y="3.2" width="34.6" height="34.6" rx="17.3" fill="white" stroke="#9CA3AF" stroke-width="1.4"/>
<path d="M19.9848 16.3789C18.8969 16.3789 17.8535 16.8111 17.0843 17.5804C16.315 18.3496 15.8828 19.393 15.8828 20.4809C15.8828 21.5688 16.315 22.6122 17.0843 23.3815C17.8535 24.1508 18.8969 24.5829 19.9848 24.5829C21.0728 24.5829 22.1161 24.1508 22.8854 23.3815C23.6547 22.6122 24.0868 21.5688 24.0868 20.4809C24.0868 19.393 23.6547 18.3496 22.8854 17.5804C22.1161 16.8111 21.0728 16.3789 19.9848 16.3789ZM19.9848 23.1449C19.2781 23.1449 18.6002 22.8642 18.1005 22.3644C17.6007 21.8646 17.3199 21.1868 17.3199 20.48C17.3199 19.7733 17.6007 19.0954 18.1005 18.5957C18.6002 18.0959 19.2781 17.8151 19.9848 17.8151C20.6916 17.8151 21.3694 18.0959 21.8692 18.5957C22.369 19.0954 22.6497 19.7733 22.6497 20.48C22.6497 21.1868 22.369 21.8646 21.8692 22.3644C21.3694 22.8642 20.6916 23.1449 19.9848 23.1449Z" fill="#9CA3AF"/>
<path d="M24.2454 17.1841C24.7735 17.1841 25.2017 16.7559 25.2017 16.2278C25.2017 15.6996 24.7735 15.2715 24.2454 15.2715C23.7172 15.2715 23.2891 15.6996 23.2891 16.2278C23.2891 16.7559 23.7172 17.1841 24.2454 17.1841Z" fill="white"/>
<path d="M27.552 15.2554C27.3466 14.725 27.0328 14.2434 26.6306 13.8414C26.2284 13.4393 25.7466 13.1257 25.2162 12.9205C24.5956 12.6875 23.9398 12.5615 23.277 12.5479C22.4227 12.5106 22.1521 12.5 19.9858 12.5C17.8195 12.5 17.5418 12.5 16.6946 12.5479C16.0323 12.5608 15.377 12.6868 14.7572 12.9205C14.2266 13.1254 13.7447 13.439 13.3425 13.8411C12.9403 14.2432 12.6265 14.7249 12.4214 15.2554C12.1883 15.876 12.0626 16.5318 12.0497 17.1946C12.0115 18.048 12 18.3186 12 20.4858C12 22.6521 12 22.928 12.0497 23.777C12.063 24.4406 12.1881 25.0953 12.4214 25.7171C12.6271 26.2474 12.9411 26.7289 13.3435 27.131C13.7458 27.533 14.2276 27.8467 14.758 28.052C15.3767 28.2944 16.0323 28.4294 16.6964 28.4512C17.5507 28.4885 17.8212 28.5 19.9876 28.5C22.1539 28.5 22.4316 28.5 23.2788 28.4512C23.9415 28.4377 24.5972 28.3121 25.218 28.0795C25.7483 27.8739 26.2299 27.5599 26.632 27.1578C27.0342 26.7556 27.3481 26.274 27.5538 25.7437C27.7871 25.1228 27.9122 24.4681 27.9255 23.8045C27.9636 22.9511 27.9752 22.6805 27.9752 20.5133C27.9752 18.3461 27.9752 18.0711 27.9255 17.2221C27.9152 16.5499 27.7888 15.8846 27.552 15.2554ZM26.4715 23.7114C26.4658 24.2226 26.3725 24.7291 26.1956 25.2088C26.0624 25.5538 25.8584 25.867 25.5969 26.1285C25.3353 26.3899 25.0219 26.5936 24.6769 26.7267C24.2025 26.9027 23.7014 26.996 23.1954 27.0026C22.3526 27.0416 22.1149 27.0513 19.9539 27.0513C17.7911 27.0513 17.5702 27.0513 16.7115 27.0026C16.2057 26.9964 15.7049 26.903 15.2309 26.7267C14.8846 26.5945 14.57 26.3911 14.3073 26.1296C14.0446 25.8681 13.8397 25.5544 13.7059 25.2088C13.5316 24.7342 13.4383 24.2337 13.43 23.7282C13.3919 22.8855 13.383 22.6477 13.383 20.4867C13.383 18.3248 13.383 18.1039 13.43 17.2443C13.4358 16.7333 13.5291 16.2271 13.7059 15.7477C13.9765 15.0478 14.5309 14.4969 15.2309 14.229C15.7051 14.0535 16.2058 13.9602 16.7115 13.9531C17.5551 13.9149 17.792 13.9043 19.9539 13.9043C22.1158 13.9043 22.3375 13.9043 23.1954 13.9531C23.7014 13.9592 24.2026 14.0525 24.6769 14.229C25.0219 14.3623 25.3352 14.5663 25.5968 14.8278C25.8583 15.0894 26.0623 15.4027 26.1956 15.7477C26.37 16.2223 26.4632 16.7228 26.4715 17.2283C26.5096 18.072 26.5194 18.3088 26.5194 20.4707C26.5194 22.6317 26.5194 22.8642 26.4813 23.7122H26.4715V23.7114Z" fill="#9CA3AF"/>
</svg>
