<svg width="162" height="45" viewBox="0 0 162 45" fill="none" xmlns="http://www.w3.org/2000/svg">
<rect width="45" height="45" rx="4" fill="#0F8BFF"/>
<path d="M21.5394 15.4V18.52H15.8994V21H20.0594V23.98H15.8994V29.5H11.9794V15.4H21.5394ZM33.8103 15.4V18.52H30.0503V29.5H26.1303V18.52H22.4103V15.4H33.8103Z" fill="white"/>
<path d="M66 14.644V17.13H59.598V21.068H64.504V23.51H59.598V30H56.518V14.644H66ZM67.832 23.862C67.832 22.63 68.074 21.5373 68.558 20.584C69.0567 19.6307 69.724 18.8973 70.56 18.384C71.4107 17.8707 72.3567 17.614 73.398 17.614C74.3073 17.614 75.0993 17.7973 75.774 18.164C76.4633 18.5307 77.0133 18.9927 77.424 19.55V17.812H80.526V30H77.424V28.218C77.028 28.79 76.478 29.2667 75.774 29.648C75.0847 30.0147 74.2853 30.198 73.376 30.198C72.3493 30.198 71.4107 29.934 70.56 29.406C69.724 28.878 69.0567 28.1373 68.558 27.184C68.074 26.216 67.832 25.1087 67.832 23.862ZM77.424 23.906C77.424 23.158 77.2773 22.52 76.984 21.992C76.6907 21.4493 76.2947 21.0387 75.796 20.76C75.2973 20.4667 74.762 20.32 74.19 20.32C73.618 20.32 73.09 20.4593 72.606 20.738C72.122 21.0167 71.726 21.4273 71.418 21.97C71.1247 22.498 70.978 23.1287 70.978 23.862C70.978 24.5953 71.1247 25.2407 71.418 25.798C71.726 26.3407 72.122 26.7587 72.606 27.052C73.1047 27.3453 73.6327 27.492 74.19 27.492C74.762 27.492 75.2973 27.3527 75.796 27.074C76.2947 26.7807 76.6907 26.37 76.984 25.842C77.2773 25.2993 77.424 24.654 77.424 23.906ZM83.1822 23.906C83.1822 22.6447 83.4388 21.5447 83.9522 20.606C84.4655 19.6527 85.1768 18.9193 86.0862 18.406C86.9955 17.878 88.0368 17.614 89.2102 17.614C90.7208 17.614 91.9675 17.9953 92.9502 18.758C93.9475 19.506 94.6148 20.562 94.9522 21.926H91.6302C91.4542 21.398 91.1535 20.9873 90.7282 20.694C90.3175 20.386 89.8042 20.232 89.1882 20.232C88.3082 20.232 87.6115 20.5547 87.0982 21.2C86.5848 21.8307 86.3282 22.7327 86.3282 23.906C86.3282 25.0647 86.5848 25.9667 87.0982 26.612C87.6115 27.2427 88.3082 27.558 89.1882 27.558C90.4348 27.558 91.2488 27.0007 91.6302 25.886H94.9522C94.6148 27.206 93.9475 28.2547 92.9502 29.032C91.9528 29.8093 90.7062 30.198 89.2102 30.198C88.0368 30.198 86.9955 29.9413 86.0862 29.428C85.1768 28.9 84.4655 28.1667 83.9522 27.228C83.4388 26.2747 83.1822 25.1673 83.1822 23.906ZM101.235 20.342V26.238C101.235 26.6487 101.33 26.9493 101.521 27.14C101.726 27.316 102.063 27.404 102.533 27.404H103.963V30H102.027C99.4305 30 98.1325 28.7387 98.1325 26.216V20.342H96.6805V17.812H98.1325V14.798H101.235V17.812H103.963V20.342H101.235ZM118.124 17.812V30H115.022V28.46C114.626 28.988 114.105 29.406 113.46 29.714C112.829 30.0073 112.14 30.154 111.392 30.154C110.439 30.154 109.595 29.956 108.862 29.56C108.129 29.1493 107.549 28.5553 107.124 27.778C106.713 26.986 106.508 26.0473 106.508 24.962V17.812H109.588V24.522C109.588 25.49 109.83 26.238 110.314 26.766C110.798 27.2793 111.458 27.536 112.294 27.536C113.145 27.536 113.812 27.2793 114.296 26.766C114.78 26.238 115.022 25.49 115.022 24.522V17.812H118.124Z" fill="#111827"/>
<path d="M132.053 14.644V17.13H127.961V30H124.881V17.13H120.789V14.644H132.053ZM137.82 17.13V20.98H142.99V23.422H137.82V27.492H143.65V30H134.74V14.622H143.65V17.13H137.82ZM152.257 14.644C153.87 14.644 155.286 14.9593 156.503 15.59C157.735 16.2207 158.681 17.1227 159.341 18.296C160.016 19.4547 160.353 20.804 160.353 22.344C160.353 23.884 160.016 25.2333 159.341 26.392C158.681 27.536 157.735 28.4233 156.503 29.054C155.286 29.6847 153.87 30 152.257 30H146.889V14.644H152.257ZM152.147 27.382C153.76 27.382 155.007 26.942 155.887 26.062C156.767 25.182 157.207 23.9427 157.207 22.344C157.207 20.7453 156.767 19.4987 155.887 18.604C155.007 17.6947 153.76 17.24 152.147 17.24H149.969V27.382H152.147Z" fill="#0F8BFF"/>
</svg>
