<svg width="50" height="51" viewBox="0 0 50 51" fill="none" xmlns="http://www.w3.org/2000/svg">
<rect y="0.5" width="50" height="50" rx="10" fill="#F6FBFF"/>
<path d="M22.2676 27.3193L23.108 26.9588L22.351 26.4458C21.0837 25.5872 20.25 24.1339 20.25 22.5C20.25 19.8849 22.3849 17.75 25 17.75C27.6149 17.75 29.7496 19.8845 29.75 22.4993C29.7489 23.2785 29.5569 24.0455 29.1908 24.7333C28.8246 25.4211 28.2955 26.0086 27.6497 26.4446L26.8907 26.957L27.7322 27.3184C30.0872 28.3299 31.7911 30.5874 31.9821 33.25H31.4812C31.2272 29.8864 28.4304 27.25 25 27.25C21.5696 27.25 18.7728 29.8864 18.5188 33.25H18.0179C18.2089 30.5872 19.9129 28.3293 22.2676 27.3193ZM29.25 22.5C29.25 20.1441 27.3559 18.25 25 18.25C22.6441 18.25 20.75 20.1441 20.75 22.5C20.75 24.8559 22.6441 26.75 25 26.75C27.3559 26.75 29.25 24.8559 29.25 22.5Z" stroke="#374151" stroke-miterlimit="10"/>
</svg>
