<svg width="36" height="37" viewBox="0 0 40 41" fill="none" xmlns="http://www.w3.org/2000/svg">
<rect x="2.7" y="3.2" width="34.6" height="34.6" rx="17.3" fill="white" stroke="#9CA3AF" stroke-width="1.4"/>
<path d="M22.144 21.3062C22.2332 21.3062 22.5679 21.4578 23.1481 21.761C23.7282 22.0642 24.0355 22.2468 24.0698 22.3088C24.0835 22.3432 24.0904 22.3949 24.0904 22.4638C24.0904 22.6912 24.032 22.9531 23.9153 23.2494C23.8055 23.5181 23.5617 23.7438 23.1841 23.9264C22.8065 24.109 22.4564 24.2003 22.1337 24.2003C21.7424 24.2003 21.0901 23.9866 20.177 23.5594C19.5042 23.2494 18.9206 22.8428 18.4262 22.3398C17.9319 21.8368 17.4239 21.1994 16.9021 20.4276C16.4077 19.6904 16.164 19.022 16.1709 18.4225V18.3398C16.1915 17.7127 16.4455 17.1684 16.933 16.7067C17.0977 16.5551 17.2762 16.4793 17.4685 16.4793C17.5097 16.4793 17.5715 16.4845 17.6539 16.4948C17.7362 16.5052 17.8015 16.5103 17.8495 16.5103C17.98 16.5103 18.0709 16.5327 18.1224 16.5775C18.1739 16.6223 18.2271 16.7171 18.2821 16.8618C18.337 16.9996 18.4503 17.3028 18.6219 17.7713C18.7936 18.2399 18.8794 18.4983 18.8794 18.5465C18.8794 18.6912 18.7609 18.8893 18.5241 19.1408C18.2872 19.3923 18.1688 19.5525 18.1688 19.6214C18.1688 19.6697 18.1859 19.7214 18.2203 19.7765C18.4537 20.2795 18.8039 20.7515 19.2707 21.1925C19.6552 21.5577 20.1736 21.9057 20.8258 22.2364C20.9082 22.2847 20.9837 22.3088 21.0524 22.3088C21.1553 22.3088 21.3407 22.1417 21.6085 21.8075C21.8762 21.4733 22.0547 21.3062 22.144 21.3062ZM20.0534 26.7842C20.9253 26.7842 21.7612 26.612 22.5611 26.2674C23.3609 25.9229 24.0492 25.4612 24.6259 24.8824C25.2026 24.3036 25.6626 23.6128 26.0059 22.8101C26.3492 22.0073 26.5208 21.1684 26.5208 20.2933C26.5208 19.4182 26.3492 18.5792 26.0059 17.7765C25.6626 16.9737 25.2026 16.2829 24.6259 15.7041C24.0492 15.1253 23.3609 14.6637 22.5611 14.3191C21.7612 13.9746 20.9253 13.8023 20.0534 13.8023C19.1815 13.8023 18.3456 13.9746 17.5457 14.3191C16.7459 14.6637 16.0576 15.1253 15.4809 15.7041C14.9042 16.2829 14.4442 16.9737 14.1009 17.7765C13.7576 18.5792 13.586 19.4182 13.586 20.2933C13.586 21.6921 13.9979 22.9599 14.8218 24.0969L14.0082 26.5052L16.5004 25.7093C17.5852 26.4259 18.7695 26.7842 20.0534 26.7842ZM20.0534 12.5C21.1038 12.5 22.1079 12.7067 23.0657 13.1202C24.0235 13.5336 24.8491 14.0883 25.5425 14.7842C26.2359 15.4802 26.7886 16.3088 27.2005 17.27C27.6125 18.2313 27.8184 19.239 27.8184 20.2933C27.8184 21.3475 27.6125 22.3553 27.2005 23.3165C26.7886 24.2778 26.2359 25.1064 25.5425 25.8023C24.8491 26.4983 24.0235 27.053 23.0657 27.4664C22.1079 27.8798 21.1038 28.0866 20.0534 28.0866C18.7146 28.0866 17.4616 27.7627 16.2945 27.115L12 28.5L13.4006 24.314C12.6591 23.0874 12.2884 21.7472 12.2884 20.2933C12.2884 19.239 12.4943 18.2313 12.9063 17.27C13.3182 16.3088 13.8709 15.4802 14.5643 14.7842C15.2577 14.0883 16.0833 13.5336 17.0411 13.1202C17.9989 12.7067 19.003 12.5 20.0534 12.5Z" fill="#9CA3AF"/>
</svg>
