<svg width="20" height="20" viewBox="0 0 20 20" fill="none" xmlns="http://www.w3.org/2000/svg">
<path d="M10 8.4375L10 16.875" stroke="currentColor" stroke-width="1.4" stroke-linecap="round" stroke-linejoin="round"/>
<path d="M10 3.125L10 5.3125" stroke="currentColor" stroke-width="1.4" stroke-linecap="round" stroke-linejoin="round"/>
<path d="M10 8.4375C10.8629 8.4375 11.5625 7.73794 11.5625 6.875C11.5625 6.01206 10.8629 5.3125 10 5.3125C9.13706 5.3125 8.4375 6.01206 8.4375 6.875C8.4375 7.73794 9.13706 8.4375 10 8.4375Z" stroke="currentColor" stroke-width="1.4" stroke-linecap="round" stroke-linejoin="round"/>
<path d="M15.625 14.6875L15.6251 16.875" stroke="currentColor" stroke-width="1.4" stroke-linecap="round" stroke-linejoin="round"/>
<path d="M15.6251 3.125L15.625 11.5625" stroke="currentColor" stroke-width="1.4" stroke-linecap="round" stroke-linejoin="round"/>
<path d="M15.625 14.6875C16.4879 14.6875 17.1875 13.9879 17.1875 13.125C17.1875 12.2621 16.4879 11.5625 15.625 11.5625C14.7621 11.5625 14.0625 12.2621 14.0625 13.125C14.0625 13.9879 14.7621 14.6875 15.625 14.6875Z" stroke="currentColor" stroke-width="1.4" stroke-linecap="round" stroke-linejoin="round"/>
<path d="M4.37507 12.1875L4.375 16.875" stroke="currentColor" stroke-width="1.4" stroke-linecap="round" stroke-linejoin="round"/>
<path d="M4.375 3.125L4.37507 9.0625" stroke="currentColor" stroke-width="1.4" stroke-linecap="round" stroke-linejoin="round"/>
<path d="M4.375 12.1875C5.23794 12.1875 5.9375 11.4879 5.9375 10.625C5.9375 9.76206 5.23794 9.0625 4.375 9.0625C3.51206 9.0625 2.8125 9.76206 2.8125 10.625C2.8125 11.4879 3.51206 12.1875 4.375 12.1875Z" stroke="currentColor" stroke-width="1.4" stroke-linecap="round" stroke-linejoin="round"/>
</svg>
